<svg width="190" height="190" viewBox="0 0 190 190" fill="none" xmlns="http://www.w3.org/2000/svg">
<path d="M68.5523 62.4527L66.3535 64.4198L65.9834 63.9942L66.4543 63.5733C65.1501 62.0967 62.8128 61.8538 61.3796 62.9894L61.0557 62.6175L62.1141 61.6588L61.244 60.6739L60.1931 61.6278L60.0048 61.4121L59.3758 61.9771L60.7581 63.5629C59.5132 64.9132 59.4172 67.2269 60.7026 68.7204L60.9559 68.4935L61.326 68.9182L59.2317 70.7911L64.3167 76.6295L73.6392 68.2919L68.5523 62.4527ZM69.0608 64.6656L70.285 66.0621L69.6776 66.6092L68.4534 65.2127L69.0608 64.6656ZM67.8461 65.7598L69.0702 67.1563L68.4638 67.7034L67.2396 66.3069L67.8461 65.7598ZM66.6322 66.854L67.8564 68.2505L67.25 68.7967L66.0258 67.4002L66.6322 66.854ZM66.6454 69.3447L66.0381 69.8918L64.8139 68.4953L65.4213 67.9482L66.6454 69.3447ZM63.7489 69.4558L64.3562 68.9087L65.5804 70.3052L64.974 70.8523L63.7489 69.4558ZM64.3685 71.3994L63.7658 71.9437L62.5416 70.5472L63.149 70.0001L64.3685 71.3994ZM65.1463 64.7475L65.5154 65.1722L62.2695 68.0754L61.8994 67.6516L65.1463 64.7475ZM61.3175 71.6424L61.9249 71.0953L63.149 72.4908L62.5473 73.0342L61.3175 71.6424ZM63.9758 74.667L62.7516 73.2715L63.3581 72.7244L64.5822 74.1209L63.9758 74.667ZM65.1896 73.5728L63.9654 72.1763L64.5719 71.6292L65.796 73.0257L65.1896 73.5728ZM66.4034 72.4795L65.1793 71.0821L65.7866 70.535L67.0108 71.9315L66.4034 72.4795ZM67.4656 71.5209L66.2415 70.1244L66.8488 69.5773L68.073 70.9748L67.4656 71.5209ZM68.6794 70.4276L67.4553 69.0302L68.0617 68.4831L69.2859 69.8805L68.6794 70.4276ZM69.8942 69.3334L68.67 67.9369L69.2774 67.3889L70.5016 68.7854L69.8942 69.3334ZM69.8866 66.8418L70.494 66.2947L71.7182 67.6912L71.1108 68.2383L69.8866 66.8418Z" fill="#040000"/>
<path d="M76.1083 64.1561C75.8105 64.2798 75.5734 64.5161 75.4488 64.8135C75.3241 65.111 75.3219 65.4456 75.4426 65.7447C75.5003 65.8926 75.5868 66.0276 75.697 66.1418C75.8073 66.256 75.9391 66.3471 76.0848 66.41C76.2306 66.4729 76.3873 66.5063 76.5461 66.5081C76.7048 66.51 76.8623 66.4803 77.0095 66.4209C77.3076 66.2977 77.5451 66.0618 77.6703 65.7645C77.7955 65.4672 77.7983 65.1325 77.6781 64.8332C77.6111 64.6634 77.5065 64.511 77.3721 64.3875C77.2377 64.264 77.077 64.1727 76.9021 64.1204L76.8748 64.1119L76.9511 63.4725L78.0679 64.3963V64.4104C78.076 64.5027 78.1145 64.5898 78.1774 64.6579C78.2402 64.7261 78.3239 64.7715 78.4153 64.787C78.5067 64.8025 78.6006 64.7872 78.6825 64.7436C78.7643 64.7 78.8293 64.6305 78.8674 64.546L78.873 64.5338L79.3486 64.3398L79.3637 64.3652C79.5096 64.6107 79.7388 64.7956 80.0097 64.8864C80.2805 64.9771 80.5749 64.9676 80.8392 64.8596C81.1372 64.7362 81.3745 64.5003 81.4995 64.203C81.6245 63.9057 81.6272 63.5711 81.5069 63.2719C81.4377 63.0914 81.3258 62.9304 81.1806 62.8027C81.0354 62.6751 80.8614 62.5846 80.6735 62.5391C80.4856 62.4936 80.2895 62.4945 80.102 62.5416C79.9145 62.5887 79.7413 62.6807 79.5972 62.8096L79.5755 62.8284L78.7384 62.1306L78.7478 61.8415L79.2431 61.64C79.2854 61.6217 79.3188 61.5877 79.3364 61.5452C79.354 61.5026 79.3543 61.4549 79.3373 61.4121C79.3288 61.3912 79.3163 61.3721 79.3004 61.356C79.2845 61.34 79.2656 61.3272 79.2448 61.3184C79.224 61.3097 79.2016 61.3051 79.179 61.3051C79.1564 61.305 79.1341 61.3094 79.1132 61.318L77.9163 61.8067C77.8741 61.8248 77.8407 61.8586 77.8231 61.901C77.8055 61.9434 77.8052 61.991 77.8221 62.0336C77.8397 62.0758 77.8731 62.1094 77.9153 62.127C77.9574 62.1447 78.0049 62.1449 78.0472 62.1278L78.3984 61.9847L78.3853 62.3077L76.9116 62.9084L76.7807 62.5817C76.7789 62.5662 76.7751 62.551 76.7694 62.5365C76.7605 62.5142 76.7474 62.4938 76.7307 62.4766C76.7139 62.4594 76.694 62.4456 76.6719 62.4362C76.6498 62.4267 76.6261 62.4217 76.6021 62.4215C76.5781 62.4212 76.5543 62.4258 76.5321 62.4348L75.8898 62.6966C75.8454 62.7159 75.8101 62.7517 75.7913 62.7964C75.7725 62.8411 75.7717 62.8914 75.7891 62.9367C75.7977 62.9591 75.8107 62.9795 75.8273 62.9968C75.8439 63.014 75.8638 63.0278 75.8859 63.0373C75.9079 63.0468 75.9316 63.0518 75.9555 63.0519C75.9795 63.0521 76.0033 63.0475 76.0254 63.0384L76.5104 62.8406L76.6394 63.1646L76.5302 64.0742H76.5019C76.3668 64.0804 76.2338 64.1094 76.1083 64.1599V64.1561ZM80.0567 63.675L79.5463 63.884L79.5407 63.8397C79.5198 63.6774 79.5446 63.5123 79.6123 63.3633L79.6311 63.3228L80.0567 63.675ZM79.6801 64.2079L80.4616 63.8897C80.4638 63.8891 80.4661 63.8891 80.4682 63.8897L80.4852 63.8802L80.4984 63.8718L80.5125 63.8605L80.5238 63.8492C80.5255 63.8465 80.5277 63.8443 80.5304 63.8426L80.5398 63.8284C80.5427 63.8233 80.5452 63.8179 80.5473 63.8124C80.5499 63.8076 80.5521 63.8026 80.5539 63.7974C80.5558 63.7918 80.5574 63.7862 80.5586 63.7804C80.5596 63.7754 80.5596 63.7703 80.5586 63.7654V63.7654C80.5586 63.7597 80.5586 63.7541 80.5586 63.7493C80.5596 63.7434 80.5596 63.7374 80.5586 63.7315C80.5591 63.7261 80.5591 63.7208 80.5586 63.7154V63.7004L80.553 63.6806V63.675V63.6684C80.5507 63.6631 80.5478 63.658 80.5445 63.6533C80.5421 63.6483 80.5393 63.6436 80.536 63.6392C80.5329 63.6346 80.5294 63.6301 80.5257 63.626L80.5134 63.6128L80.5068 63.6072L79.8448 63.0525L79.8806 63.0271C79.9384 62.9832 80.0018 62.9471 80.069 62.9197C80.174 62.8776 80.2863 62.8567 80.3994 62.8581C80.5126 62.8596 80.6243 62.8834 80.7282 62.9282C80.8321 62.973 80.9261 63.0379 81.0048 63.1192C81.0835 63.2005 81.1453 63.2966 81.1867 63.4019C81.271 63.6151 81.2684 63.8529 81.1793 64.0642C81.0902 64.2755 80.9218 64.4434 80.7102 64.5319C80.5333 64.6035 80.3374 64.6137 80.1539 64.561C79.9704 64.5083 79.8099 64.3956 79.6979 64.2409L79.6801 64.2079ZM78.6744 63.9857L78.729 62.5732L79.3655 63.0996L79.3514 63.125C79.2034 63.3871 79.1572 63.6945 79.2215 63.9885L79.2271 64.0168L78.8617 64.1656L78.8467 64.1411C78.8084 64.0807 78.7557 64.0308 78.6932 63.9961L78.6744 63.9857ZM77.1592 63.1881L78.3787 62.69L78.3297 63.9782L78.3109 63.9866C78.282 64.0008 78.2548 64.0182 78.2299 64.0384L78.2082 64.0563L77.1592 63.1881ZM76.888 66.0969C76.7829 66.1392 76.6704 66.1602 76.5572 66.1587C76.4439 66.1573 76.332 66.1334 76.228 66.0885C76.124 66.0436 76.0299 65.9785 75.9512 65.8971C75.8724 65.8156 75.8106 65.7193 75.7693 65.6138C75.685 65.4006 75.6877 65.1628 75.7767 64.9515C75.8658 64.7402 76.0342 64.5723 76.2458 64.4838C76.3123 64.4571 76.3819 64.4387 76.453 64.4292L76.4963 64.4236L76.3955 65.2711C76.3897 65.317 76.4022 65.3633 76.4304 65.4001C76.4585 65.4363 76.4998 65.46 76.5452 65.466C76.5743 65.4698 76.6039 65.4659 76.6309 65.4547C76.6597 65.4428 76.6848 65.4234 76.7037 65.3986C76.7226 65.3738 76.7345 65.3444 76.7383 65.3135L76.839 64.466L76.8795 64.4829C76.9893 64.5259 77.089 64.5911 77.1724 64.6744C77.2559 64.7577 77.3213 64.8573 77.3645 64.9669C77.4481 65.1802 77.445 65.4177 77.356 65.6288C77.267 65.8399 77.0991 66.0079 76.888 66.0969Z" fill="black"/>
<path d="M74.481 65.7918C74.5752 65.515 74.5479 65.0705 74.4904 64.6948C74.9613 64.4754 74.8539 63.7098 74.8539 63.7098C74.8539 63.7098 75.2475 63.3953 75.063 62.9819C74.8087 62.4122 74.3727 62.6212 74.3727 62.6212C74.3727 62.6212 74.1731 62.0204 73.6919 61.9668C73.2371 61.9159 73.0497 62.2135 73.0497 62.2135C73.0497 62.2135 72.6485 61.9394 72.2624 62.2408C71.8764 62.5421 71.9376 62.9141 71.9376 62.9141C71.9376 62.9141 71.4018 63.0949 71.2784 63.4866C71.155 63.8783 71.2916 64.1072 71.2916 64.1072C71.2049 64.3114 71.1731 64.5348 71.1994 64.7552C71.2256 64.9755 71.309 65.1852 71.4413 65.3633C71.9027 65.9773 72.7785 65.515 72.7785 65.515L72.8237 65.5263L72.8312 65.5423C73.1137 66.0922 73.5177 66.095 74.0008 66.2956C74.4838 66.4962 75.014 67.5113 75.014 67.5113L75.5432 67.4416C75.5432 67.4416 74.3529 66.1732 74.481 65.7918ZM73.9546 65.9933C73.7277 66.0018 73.5271 65.9773 73.2559 65.7061C73.2201 65.6682 73.1885 65.6266 73.1617 65.5818C73.3296 65.6047 73.5006 65.5879 73.6608 65.5328C73.7484 65.4944 73.8241 65.4333 73.8802 65.3558C74.1119 65.7833 74.1345 65.9867 73.9546 65.9933V65.9933ZM74.0883 65.014C74.0883 65.0093 74.0883 65.0055 74.0883 65.0008C74.1365 64.909 74.2071 64.831 74.2936 64.7739C74.2936 64.9161 74.2936 65.0206 74.2936 65.0206C74.2936 65.0206 74.1703 65.7946 74.0883 65.014V65.014Z" fill="#040000"/>
<path d="M132.377 103.503C132.232 103.045 131.664 103.016 131.379 103.314C130.41 102.467 129.559 103.803 129.545 103.812C128.908 104.224 128.248 104.6 127.567 104.935C127.447 104.902 127.329 104.859 127.215 104.806C127.02 104.72 126.882 104.729 126.801 104.834C126.895 104.318 126.968 103.285 126.968 103.285L127.176 95.7632L126.54 89.4663L127.356 89.2233V89.1913L127.631 89.1414L143.525 84.401L141.83 78.6842L124.533 83.9424C124.148 83.041 123.726 82.1558 123.267 81.2869C123.281 81.2794 123.295 81.2709 123.308 81.2615C123.407 81.1753 123.511 81.0963 123.621 81.0252C123.627 81.0252 123.655 81.0129 123.7 80.9997C124.1 81.0591 124.439 81.3896 124.824 81.5054C125.059 81.5766 125.305 81.6041 125.55 81.5864H125.586C125.651 81.7348 125.752 81.8644 125.881 81.9631C125.985 82.0432 126.106 82.0989 126.235 82.1263C126.363 82.1537 126.496 82.152 126.624 82.1213C126.656 82.1231 126.687 82.134 126.713 82.1527C126.739 82.1713 126.76 82.197 126.772 82.2267C126.859 82.4168 127.011 82.5697 127.201 82.6581C127.391 82.7466 127.606 82.7649 127.808 82.7098C128.099 82.6361 128.358 82.4711 128.549 82.239L128.571 82.2305C128.681 82.1769 128.779 82.1041 128.863 82.0158C129.071 81.8755 129.22 81.6626 129.279 81.4188C129.338 81.1749 129.305 80.9177 129.184 80.6975C129.32 80.4833 129.39 80.2343 129.387 79.9809C129.384 79.7815 129.322 79.5874 129.209 79.423C129.097 79.2585 128.938 79.1309 128.753 79.0561L128.741 79.0514C128.818 78.8388 128.841 78.6105 128.809 78.3867C128.777 78.1629 128.691 77.9503 128.558 77.7675C128.425 77.5847 128.249 77.4373 128.046 77.3383C127.843 77.2392 127.618 77.1914 127.392 77.1992C127.342 77.1992 127.292 77.1907 127.243 77.1945H127.238C127.054 76.9195 126.704 76.7067 126.39 76.7914L126.333 76.8093C126.114 76.796 125.895 76.8376 125.696 76.9303C125.497 77.0231 125.324 77.164 125.194 77.3404C125.047 77.5195 124.951 77.7335 124.913 77.9614C124.875 78.1893 124.897 78.4232 124.977 78.6399L124.948 78.6813C124.523 79.3165 124.061 79.9261 123.565 80.5072C123.441 80.5253 123.315 80.5328 123.189 80.5298C123.084 80.5207 122.979 80.5476 122.892 80.6061C122.667 80.2012 122.433 79.801 122.192 79.4055C122.36 79.4139 122.526 79.3655 122.663 79.268C122.833 79.139 122.946 78.9484 122.978 78.7372C123.009 78.526 122.956 78.3109 122.831 78.138C122.773 78.05 122.698 77.9744 122.611 77.9155C122.524 77.8567 122.426 77.8157 122.323 77.7951C122.219 77.7746 122.113 77.7747 122.01 77.7956C121.907 77.8164 121.809 77.8576 121.722 77.9167C121.604 78.002 121.513 78.1189 121.459 78.2538L121.365 78.1135C121.429 77.988 121.523 77.8795 121.638 77.7971C121.74 77.7276 121.856 77.6792 121.977 77.6547C122.098 77.6302 122.224 77.6301 122.345 77.6544C122.466 77.6786 122.582 77.7268 122.684 77.7961C122.787 77.8654 122.875 77.9544 122.943 78.058C123.082 78.2507 123.146 78.4881 123.121 78.7248C123.097 78.9615 122.986 79.1807 122.809 79.3405C122.793 79.3518 122.772 79.3678 122.747 79.3895C122.633 79.4711 122.5 79.5241 122.361 79.5439L122.657 79.9696C122.684 79.9545 122.71 79.9375 122.737 79.9206C122.861 80.059 122.991 79.9818 123.183 79.8453C123.402 79.6889 123.277 79.5062 123.277 79.5062L123.269 79.4959C123.712 79.0495 124.009 78.4535 123.84 77.7934C125.091 75.7763 123.286 73.4184 121.015 73.8751C120.337 72.8995 119.202 73.3365 118.442 73.8996L119.007 74.716C119.071 74.5901 119.165 74.4815 119.281 74.3996C119.383 74.3299 119.498 74.2814 119.62 74.2567C119.741 74.2321 119.866 74.2318 119.988 74.256C120.109 74.2802 120.225 74.3283 120.327 74.3976C120.43 74.4669 120.518 74.5559 120.586 74.6595C120.734 74.8632 120.796 75.1168 120.759 75.3659C120.723 75.615 120.59 75.8397 120.389 75.9919C120.274 76.0723 120.141 76.1237 120.002 76.1417L120.668 77.0993C120.402 76.7302 120.128 76.3658 119.847 76.0061C120.01 76.0113 120.171 75.9631 120.305 75.8686C120.475 75.7393 120.588 75.5488 120.619 75.3377C120.65 75.1266 120.598 74.9116 120.473 74.7386C120.415 74.6507 120.34 74.5751 120.253 74.5164C120.166 74.4576 120.068 74.4168 119.964 74.3963C119.861 74.3757 119.755 74.376 119.652 74.3969C119.549 74.4179 119.451 74.4591 119.364 74.5182C119.28 74.5785 119.21 74.6549 119.156 74.7429C119.103 74.8309 119.067 74.9287 119.052 75.0305C118.446 74.3086 117.808 73.6117 117.139 72.94L127.66 59.1578L126.624 58.347L127.295 57.4675L126.888 55.3017L124.716 55.4457L124.045 56.3252L123.009 55.5145L116.386 64.1891L112.699 69.147L107.331 65.9971C106.705 65.7692 102.944 64.2136 102.311 64.0196C102.318 64.002 102.323 63.9837 102.326 63.965C102.333 63.8716 102.347 63.7788 102.367 63.6872C102.367 63.6872 102.378 63.6636 102.394 63.6345C102.625 63.4602 102.959 63.4546 103.21 63.3162C103.364 63.2321 103.501 63.1207 103.615 62.9875C103.621 62.9809 103.627 62.9753 103.632 62.9687C103.739 63.011 103.855 63.0252 103.969 63.0101C104.062 62.997 104.151 62.9634 104.229 62.9118C104.308 62.8602 104.374 62.7918 104.422 62.7116C104.439 62.6963 104.46 62.6862 104.482 62.6823C104.505 62.6785 104.528 62.6811 104.548 62.69C104.688 62.7405 104.841 62.7398 104.981 62.6881C105.12 62.6364 105.236 62.537 105.309 62.4075C105.42 62.2228 105.469 62.0078 105.45 61.7935C105.45 61.7935 105.45 61.7841 105.456 61.7784C105.485 61.6958 105.499 61.6088 105.497 61.5214C105.532 61.3483 105.502 61.1682 105.413 61.016C105.323 60.8639 105.18 60.7506 105.011 60.6983C104.973 60.5227 104.885 60.3618 104.757 60.235C104.657 60.1366 104.529 60.0704 104.39 60.0451C104.252 60.0198 104.109 60.0364 103.98 60.0929H103.971C103.904 59.9473 103.802 59.8206 103.674 59.7242C103.546 59.6279 103.396 59.5649 103.238 59.5409C103.08 59.5168 102.918 59.5326 102.767 59.5867C102.616 59.6408 102.481 59.7316 102.374 59.8508C102.35 59.8763 102.319 59.897 102.296 59.9233C102.067 59.8781 101.786 59.9497 101.67 60.1512C101.662 60.1637 101.656 60.1766 101.65 60.1898C101.532 60.2946 101.443 60.4268 101.389 60.5747C101.335 60.7226 101.318 60.8815 101.34 61.0373C101.355 61.2005 101.412 61.3569 101.506 61.4909C101.6 61.625 101.728 61.7319 101.876 61.801L101.882 61.8368C101.983 62.3729 102.053 62.9143 102.092 63.4584C102.039 63.5307 101.98 63.5981 101.916 63.6599C101.883 63.6859 101.857 63.7182 101.838 63.7548C101.818 63.7914 101.807 63.8315 101.803 63.8727C101.414 63.7628 101.023 63.6599 100.632 63.5638L102.786 53.4014L102.483 51.1094L98.7685 50.2619L97.2891 52.1989L95.1911 62.592L95.9397 45.077L95.208 45.0516L95.2551 43.6184L94.6694 43.5986L94.7146 42.2304L90.833 42.0995L90.7916 43.4658L90.205 43.4461L90.156 44.8783L89.5703 44.8586L89.1588 57.4082C89.0522 57.2432 88.9229 57.0942 88.7746 56.9656C88.7718 56.9568 88.7683 56.9484 88.7642 56.9402C88.6996 56.8123 88.6129 56.6969 88.5081 56.5993C88.3439 56.3567 88.0932 56.1861 87.8073 56.1224C87.5214 56.0587 87.222 56.1067 86.9703 56.2565C86.7206 56.1027 86.431 56.0264 86.1379 56.0371C85.9055 56.0485 85.6817 56.1284 85.4946 56.2668C85.3076 56.4053 85.1658 56.596 85.087 56.8149C85.0854 56.82 85.0835 56.8251 85.0813 56.83C84.0314 56.4778 82.9202 57.2829 82.9814 58.4807C82.9814 58.54 82.9739 58.5994 82.9814 58.6577C82.9809 58.6599 82.9809 58.6622 82.9814 58.6643C82.6688 58.8894 82.4324 59.3113 82.5388 59.6804C82.5456 59.7031 82.5534 59.7254 82.5624 59.7473C82.5618 59.8395 82.5674 59.9317 82.5793 60.0232C82.4961 60.1003 82.4341 60.1976 82.3995 60.3057V60.3132C82.2647 60.2779 82.1234 60.2763 81.9879 60.3086C81.8524 60.341 81.7269 60.4062 81.6226 60.4986C81.5184 60.5909 81.4385 60.7076 81.39 60.8382C81.3415 60.9688 81.326 61.1093 81.3448 61.2473C81.3448 61.2784 81.3448 61.3104 81.3495 61.3415C81.1913 61.4705 81.0802 61.6993 81.148 61.8895C81.1517 61.9015 81.1565 61.9132 81.1621 61.9244C81.1638 62.0604 81.1991 62.1939 81.2648 62.313C81.3305 62.4321 81.4246 62.5331 81.5388 62.6071C81.6537 62.6887 81.7883 62.7382 81.9287 62.7502C82.0691 62.7623 82.2102 62.7366 82.3373 62.6758L82.3646 62.6909C82.7716 62.924 83.1646 63.1805 83.5417 63.4593C83.5593 63.5351 83.5704 63.6123 83.5747 63.69V63.7126C82.4447 64.0102 79.098 65.0969 77.8983 65.7466L77.1648 66.0932C76.9595 66.193 74.109 67.7665 73.4819 68.1733C73.4819 68.1733 66.9138 72.0944 64.0511 77.1813C63.7168 77.7745 63.2723 78.3019 62.9042 78.8829L62.8872 78.8669C62.7808 78.5966 62.8608 78.267 62.793 77.9864C62.7526 77.8148 62.6818 77.6518 62.584 77.5052L62.5699 77.4835C62.6384 77.3896 62.6818 77.2797 62.696 77.1643C62.7078 77.0705 62.6988 76.9752 62.6696 76.8852C62.6405 76.7952 62.592 76.7127 62.5275 76.6436C62.5183 76.6234 62.5147 76.6011 62.5172 76.579C62.5197 76.5569 62.5281 76.536 62.5416 76.5183C62.6612 76.3206 62.6358 76.0475 62.4766 75.9354C62.5934 75.8243 62.5661 75.4072 62.2459 75.3657C62.2108 75.3645 62.1759 75.3707 62.1434 75.384C62.111 75.3973 62.0817 75.4174 62.0576 75.443C61.7016 75.0861 61.1338 75.0512 60.7553 75.5597C60.5771 75.5521 60.4006 75.597 60.2477 75.6887C60.127 75.7635 60.0308 75.8721 59.971 76.0009C59.9113 76.1298 59.8906 76.2733 59.9115 76.4138C59.912 76.4166 59.912 76.4195 59.9115 76.4223C59.7537 76.4534 59.6058 76.5225 59.4807 76.6237C59.3556 76.7249 59.2571 76.8551 59.1937 77.003C59.1303 77.1509 59.104 77.312 59.117 77.4724C59.13 77.6328 59.182 77.7876 59.2684 77.9233C59.2863 77.9534 59.2985 77.9883 59.3183 78.0175C59.2166 78.2303 59.2119 78.5241 59.3748 78.6898C59.3848 78.7 59.3955 78.7094 59.4068 78.7181C59.4753 78.8586 59.5777 78.9799 59.7048 79.071C59.8319 79.1621 59.9796 79.2201 60.1347 79.2398C60.2952 79.2669 60.46 79.2509 60.6123 79.1933C60.7645 79.1357 60.8987 79.0386 61.001 78.9121H61.0368C61.5742 78.9507 62.1088 79.0214 62.6377 79.1239C62.6603 79.1513 62.6814 79.1799 62.7008 79.2096C62.3969 79.7024 62.1031 80.2047 61.8194 80.7163C60.2116 83.6193 59.0156 86.7318 58.2655 89.9644C62.2921 75.1633 75.4321 64.3115 91.0233 64.3115C109.816 64.3115 125.05 80.0778 125.05 99.5298C125.05 111.677 119.112 122.378 110.078 128.709C115.483 125.51 119.931 120.92 122.958 115.418C123.202 114.978 123.435 114.535 123.658 114.089C123.74 114.254 123.88 114.384 124.051 114.454C124.15 114.491 124.255 114.508 124.36 114.504C124.466 114.5 124.569 114.475 124.665 114.431C124.76 114.387 124.846 114.324 124.917 114.247C124.989 114.169 125.044 114.078 125.08 113.979C125.163 113.782 125.166 113.56 125.087 113.361C125.007 113.162 124.853 113.002 124.657 112.917C124.523 112.862 124.377 112.848 124.236 112.877C124.259 112.824 124.283 112.773 124.306 112.721C124.443 112.708 124.582 112.728 124.71 112.78C124.941 112.881 125.122 113.069 125.215 113.303C125.308 113.537 125.306 113.799 125.208 114.031C125.165 114.147 125.1 114.254 125.016 114.345C124.932 114.436 124.832 114.509 124.719 114.561C124.607 114.613 124.485 114.643 124.362 114.648C124.238 114.653 124.115 114.634 123.999 114.591C123.868 114.538 123.752 114.454 123.66 114.347L123.294 115.275C124.162 115.644 125.366 115.802 125.804 114.693C128.12 114.598 129.335 111.884 127.657 110.216C127.638 109.457 126.921 108.825 126.715 108.694L126.721 108.682C126.721 108.682 126.803 108.475 126.554 108.375C126.336 108.286 126.193 108.242 126.104 108.406L126.01 108.377L125.822 108.861C125.962 108.847 126.103 108.868 126.233 108.92V108.92C126.263 108.935 126.286 108.946 126.305 108.953C126.513 109.068 126.672 109.255 126.75 109.48C126.828 109.704 126.821 109.949 126.729 110.169C126.687 110.285 126.622 110.392 126.538 110.483C126.454 110.574 126.353 110.648 126.241 110.7C126.128 110.752 126.007 110.781 125.883 110.786C125.759 110.791 125.636 110.772 125.519 110.729C125.402 110.681 125.297 110.609 125.21 110.516L125.266 110.364C125.347 110.466 125.452 110.545 125.573 110.593C125.672 110.63 125.777 110.647 125.882 110.643C125.988 110.639 126.091 110.614 126.187 110.57C126.282 110.526 126.368 110.463 126.439 110.385C126.511 110.307 126.566 110.216 126.601 110.117C126.684 109.92 126.686 109.698 126.607 109.499C126.528 109.301 126.374 109.141 126.178 109.055C126.035 108.997 125.877 108.986 125.727 109.022C125.907 108.462 126.072 107.9 126.223 107.335C126.388 107.494 126.439 107.756 126.58 107.935C126.665 108.045 126.77 108.138 126.889 108.21L126.907 108.221C126.889 108.305 127.012 108.333 127.067 108.418C127.274 108.74 127.767 108.595 127.767 108.595C127.767 108.595 127.737 109.125 128.248 109.142C128.589 109.153 128.739 109.127 128.773 108.839C128.898 108.786 129.088 108.728 129.173 108.603C129.307 108.407 129.301 108.278 129.181 108.09C129.181 108.087 129.181 108.085 129.181 108.083C129.267 108.021 129.34 107.943 129.394 107.852C129.448 107.761 129.484 107.66 129.498 107.556C129.576 107.595 129.659 107.624 129.746 107.641C129.774 107.656 129.798 107.678 129.815 107.706C129.832 107.734 129.84 107.765 129.84 107.798C129.846 108.008 129.927 108.208 130.066 108.365C130.206 108.522 130.397 108.625 130.604 108.656C130.899 108.705 131.203 108.659 131.469 108.522C131.477 108.523 131.485 108.523 131.492 108.522C131.614 108.516 131.733 108.489 131.845 108.442C132.092 108.396 132.313 108.259 132.463 108.057C132.613 107.856 132.682 107.605 132.656 107.355C132.864 107.212 133.025 107.012 133.121 106.779C133.196 106.593 133.215 106.39 133.176 106.194C133.136 105.998 133.04 105.818 132.9 105.675L132.892 105.666C133.084 105.462 133.207 105.203 133.243 104.925C133.33 104.313 133.027 103.668 132.377 103.503ZM131.84 86.9351L131.5 85.789L132.427 85.5065L132.766 86.6535L131.84 86.9351ZM133.518 86.4247L133.178 85.2758L134.105 84.9933L134.444 86.1403L133.518 86.4247ZM135.195 85.9143L134.856 84.7683L135.783 84.4858L136.123 85.6318L135.195 85.9143ZM136.873 85.4039L136.533 84.2579L137.461 83.9754L137.8 85.1214L136.873 85.4039ZM138.551 84.8945L138.211 83.7475L139.138 83.465L139.476 84.6167L138.551 84.8945ZM141.156 84.1016L140.229 84.3841L139.889 83.2381L140.816 82.9556L141.156 84.1016ZM140.756 82.7512L139.829 83.0337L139.489 81.8858L140.416 81.6033L140.756 82.7512ZM140.015 80.2549L140.355 81.4009L139.428 81.6834L139.088 80.5374L140.015 80.2549ZM139.074 83.2616L138.147 83.5441L137.807 82.3981L138.734 82.1156L139.074 83.2616ZM138.334 80.7643L138.673 81.9113L137.747 82.1938L137.407 81.0478L138.334 80.7643ZM137.404 83.7692L136.478 84.0517L136.138 82.9057L137.065 82.6232L137.404 83.7692ZM136.664 81.2719L137.004 82.4188L136.077 82.7013L135.737 81.5553L136.664 81.2719ZM135.727 84.2796L134.799 84.5621L134.46 83.4151L135.387 83.1326L135.727 84.2796ZM134.987 81.7823L135.327 82.9292L134.399 83.2117L134.06 82.0648L134.987 81.7823ZM134.045 84.7899L133.119 85.0724L132.779 83.9264L133.705 83.6439L134.045 84.7899ZM133.305 82.2926L133.645 83.4386L132.718 83.7211L132.378 82.5742L133.305 82.2926ZM132.363 85.3003L131.437 85.5828L131.097 84.4359L132.023 84.1534L132.363 85.3003ZM131.623 82.803L131.963 83.949L131.037 84.2315L130.697 83.0846L131.623 82.803ZM124.974 79.1211L124.996 79.09C124.989 79.106 124.983 79.122 124.975 79.1371C124.917 79.2749 124.85 79.4089 124.775 79.5383L124.768 79.5496C124.681 79.6574 124.578 79.7511 124.462 79.8274C124.64 79.5957 124.81 79.3603 124.974 79.1211ZM124.837 79.9083C124.899 80.0653 124.967 80.2254 125.04 80.3886C125.066 80.4517 125.092 80.5138 125.12 80.5769C125.121 80.5819 125.123 80.5867 125.126 80.591C125.107 80.5929 125.088 80.5929 125.069 80.591C124.952 80.5684 124.684 80.6184 124.514 80.5769C124.487 80.5726 124.461 80.5626 124.438 80.5477C124.415 80.5328 124.396 80.5132 124.381 80.4903C124.339 80.4065 124.712 80.0392 124.837 79.9083ZM125.251 80.8236C125.307 80.8293 125.364 80.8359 125.419 80.8453C125.455 80.8499 125.489 80.8684 125.513 80.8971C125.495 81.035 125.495 81.1745 125.513 81.3124V81.3124C125.239 81.3289 124.964 81.2795 124.713 81.1683C124.525 81.0873 124.36 80.98 124.185 80.8905C124.536 80.8234 124.894 80.8016 125.251 80.8255V80.8236ZM103.093 62.7625C103.125 62.7361 103.156 62.7107 103.187 62.6871C103.208 62.6704 103.234 62.6623 103.261 62.6645C103.321 62.7424 103.39 62.8129 103.466 62.8745V62.8745C103.338 63.0215 103.177 63.136 102.996 63.2088C102.864 63.2625 102.725 63.2945 102.594 63.3378C102.735 63.1257 102.903 62.9324 103.093 62.7625V62.7625ZM102.374 62.5129C102.468 62.5581 102.627 62.6071 102.743 62.6514C102.788 62.6692 102.846 62.6871 102.891 62.706H102.908C102.901 62.7164 102.893 62.726 102.884 62.7342C102.813 62.7832 102.705 62.9442 102.601 63.0101C102.56 63.0343 102.511 63.0429 102.464 63.0346C102.398 63.0148 102.374 62.6401 102.374 62.5129ZM82.6302 62.6579L82.6104 62.6457L82.6405 62.6561C82.727 62.6851 82.8113 62.72 82.8929 62.7606H82.9004C82.9721 62.809 83.0357 62.8684 83.0888 62.9367C82.9369 62.8413 82.784 62.7483 82.6302 62.6579V62.6579ZM83.537 62.8689C83.5357 62.8858 83.5309 62.9024 83.523 62.9174C83.515 62.9325 83.5041 62.9458 83.4909 62.9565C83.4419 62.9885 83.2008 62.7747 83.1142 62.7041L83.3967 62.5534L83.5069 62.4941L83.5154 62.4894C83.5163 62.501 83.5163 62.5126 83.5154 62.5242C83.5097 62.5967 83.553 62.7615 83.5408 62.8689H83.537ZM61.2948 78.7473H61.2685H61.3043C61.4085 78.7338 61.5136 78.7278 61.6188 78.7294H61.6282C61.7253 78.7456 61.8191 78.7774 61.906 78.8235C61.7026 78.7868 61.4982 78.7652 61.2948 78.7473ZM62.3373 78.6277C62.3015 78.6851 61.9455 78.5844 61.8231 78.5523C61.8956 78.4582 61.9681 78.3555 62.0425 78.2538C62.0717 78.2152 62.1 78.1776 62.1292 78.1371L62.1358 78.1286C62.1434 78.1395 62.1501 78.1512 62.1555 78.1634C62.1838 78.2444 62.31 78.3941 62.3439 78.5147C62.3508 78.5329 62.3538 78.5524 62.3526 78.5719C62.3515 78.5914 62.3463 78.6104 62.3373 78.6277V78.6277ZM62.2318 77.9685C62.2149 77.9318 62.1988 77.8951 62.1857 77.8574C62.1803 77.8449 62.1776 77.8314 62.1776 77.8178C62.1776 77.8042 62.1803 77.7908 62.1857 77.7783C62.2756 77.7401 62.3604 77.6907 62.438 77.6314V77.6314C62.5458 77.7968 62.6135 77.9851 62.6358 78.1813C62.6518 78.3245 62.6471 78.4685 62.6546 78.6088C62.4876 78.4135 62.3455 78.1981 62.2318 77.9676V77.9685ZM85.2895 61.2916C85.4514 61.3561 85.6087 61.4316 85.7603 61.5176L85.7744 61.5251C85.902 61.6254 86.0129 61.7452 86.1031 61.8801C85.8309 61.6777 85.5541 61.4828 85.2734 61.2925L85.2377 61.268L85.2895 61.2916ZM83.65 62.3999C83.65 62.3642 83.65 62.3293 83.65 62.2945C83.6508 62.2707 83.6606 62.2482 83.6773 62.2314C83.7616 62.2354 83.8461 62.2287 83.9287 62.2116V62.2116C83.9525 62.3812 83.9363 62.554 83.8817 62.7163C83.8421 62.835 83.7875 62.9461 83.7404 63.0591C83.6832 62.844 83.6528 62.6225 83.65 62.3999V62.3999ZM84.0267 63.6034L84.0144 63.5864C83.9574 63.5294 83.9046 63.4683 83.8562 63.4038C83.8486 63.3882 83.842 63.3721 83.8365 63.3557C83.8525 63.1043 84.0361 62.8764 84.0869 62.6306C84.1175 62.4806 84.1213 62.3263 84.0982 62.1749C84.0987 62.1673 84.0987 62.1598 84.0982 62.1523C84.1865 62.1047 84.2608 62.0349 84.3139 61.9498C84.3573 61.8803 84.3851 61.8022 84.3954 61.7209C84.4056 61.6396 84.3981 61.5571 84.3732 61.479C84.3716 61.4604 84.3752 61.4417 84.3837 61.425C84.3922 61.4084 84.4052 61.3944 84.4212 61.3848C84.5222 61.365 84.6214 61.3369 84.7179 61.301C84.7348 61.3114 84.7508 61.3227 84.7668 61.334C85.5131 61.8206 86.2303 62.3504 86.9148 62.9207C86.9204 62.948 86.9242 62.9772 86.9289 63.0064C85.9514 63.1627 84.9834 63.3617 84.0248 63.6034H84.0267ZM86.9666 61.7954C86.9629 61.827 86.9526 61.8576 86.9364 61.885C86.9202 61.9124 86.8984 61.9361 86.8724 61.9545C86.7782 62.011 86.3422 61.5779 86.1897 61.4357C86.3695 61.3519 86.5522 61.2671 86.7396 61.1814L86.9553 61.0807L86.9713 61.0731C86.9736 61.0953 86.9736 61.1178 86.9713 61.14C86.943 61.2756 87.008 61.5929 86.9647 61.7954H86.9666ZM87.2331 60.9187C87.2331 60.8509 87.2444 60.785 87.2538 60.72C87.2547 60.6981 87.2599 60.6766 87.2691 60.6567C87.2783 60.6369 87.2913 60.619 87.3074 60.6042C87.4642 60.6206 87.6223 60.6174 87.7783 60.5948V60.5948C87.7939 60.9177 87.7469 61.2407 87.6399 61.5458C87.5513 61.7662 87.4355 61.9705 87.3366 62.1786C87.2497 61.7646 87.2142 61.3414 87.2312 60.9187H87.2331ZM88.9855 62.7427C88.5071 62.791 88.03 62.8488 87.5542 62.916C87.5382 62.8932 87.5234 62.8696 87.5099 62.8453C87.5099 62.8387 87.4958 62.8058 87.4788 62.7512C87.5363 62.2747 87.9082 61.8641 88.0316 61.4036C88.1067 61.123 88.1312 60.8313 88.1041 60.542C88.1041 60.5279 88.1041 60.5128 88.1041 60.4987C88.276 60.4173 88.4244 60.2935 88.5354 60.139C88.6252 60.012 88.6862 59.8669 88.7142 59.7138C88.7422 59.5608 88.7364 59.4035 88.6973 59.2529C88.6982 59.2153 88.7097 59.1786 88.7305 59.1473C88.7514 59.116 88.7807 59.0912 88.8151 59.0758C88.927 59.0122 89.0286 58.9319 89.1164 58.8376L88.9855 62.7427ZM90.9103 54.9344L90.124 54.9071L90.1814 53.1462L90.9677 53.1735L90.9103 54.9344ZM90.9884 52.5303L90.2021 52.504L90.2596 50.743L91.0468 50.7694L90.9884 52.5303ZM91.0675 50.1272L90.2812 50.1008L90.3387 48.3399L91.125 48.3663L91.0675 50.1272ZM91.1466 47.7241L90.3603 47.6977L90.4178 45.9368L91.2041 45.9631L91.1466 47.7241ZM92.1354 54.9749L91.3491 54.9485L91.4065 53.1876L92.1938 53.214L92.1354 54.9749ZM92.2145 52.5718L91.4282 52.5454L91.4856 50.7845L92.2719 50.8108L92.2145 52.5718ZM92.2936 50.1686L91.5073 50.1423L91.5647 48.3813L92.351 48.4077L92.2936 50.1686ZM92.3717 47.7646L91.5854 47.7382L91.6438 45.9773L92.4301 46.0036L92.3717 47.7646ZM93.3614 55.0154L92.5751 54.989L92.6326 53.2281L93.4189 53.2545L93.3614 55.0154ZM93.4396 52.6123L92.6533 52.5859L92.7107 50.825L93.498 50.8513L93.4396 52.6123ZM93.5187 50.2091L92.7324 50.1818L92.7898 48.4209L93.5761 48.4473L93.5187 50.2091ZM93.5978 47.805L92.8115 47.7787L92.8689 46.0178L93.6552 46.0441L93.5978 47.805ZM94.5865 55.0559L93.8002 55.0295L93.8577 53.2686L94.6449 53.295L94.5865 55.0559ZM94.6656 52.6527L93.8793 52.6254L93.9368 50.8645L94.7231 50.8918L94.6656 52.6527ZM94.7447 50.2487L93.9584 50.2223L94.0159 48.4614L94.8022 48.4878L94.7447 50.2487ZM94.8229 47.8455L94.0366 47.8192L94.095 46.0583L94.8813 46.0846L94.8229 47.8455ZM100.65 57.055L99.8796 56.8884L100.245 55.1661L101.014 55.3327L100.65 57.055ZM100.703 53.0059L101.472 53.1725L101.108 54.8949L100.338 54.7282L100.703 53.0059ZM99.5039 52.745L100.273 52.9117L99.9079 54.635L99.1385 54.4673L99.5039 52.745ZM99.8156 55.0728L99.4502 56.7951L98.6809 56.6275L99.0463 54.9052L99.8156 55.0728ZM98.3089 52.4842L99.0783 52.6509L98.7129 54.3741L97.9436 54.2065L98.3089 52.4842ZM97.8513 54.6444L98.6206 54.811L98.2553 56.5343L97.4774 56.3667L97.8513 54.6444ZM97.7976 58.6935L97.0226 58.5325L97.3833 56.8064L98.1536 56.9741L97.7976 58.6935ZM98.9964 58.9544L98.227 58.7868L98.5924 57.0645L99.3617 57.2311L98.9964 58.9544ZM100.196 59.2152L99.4258 59.0476L99.7911 57.3253L100.56 57.492L100.196 59.2152ZM102.207 62.6579C102.181 62.4514 102.15 62.2461 102.113 62.0421C102.113 62.0327 102.113 62.0242 102.109 62.0157C102.113 62.027 102.118 62.0383 102.122 62.0496C102.16 62.1485 102.191 62.2498 102.216 62.3529C102.215 62.356 102.215 62.3591 102.216 62.3623C102.226 62.4619 102.222 62.5626 102.202 62.6608L102.207 62.6579ZM118.368 69.6781L117.904 69.3155L118.746 68.2128L119.21 68.5763L118.368 69.6781ZM124.127 60.3047L123.285 61.4074L122.821 61.0439L123.662 59.945L124.127 60.3047ZM123.981 59.5269L124.823 58.4242L125.286 58.7868L124.444 59.8895L123.981 59.5269ZM119.344 65.595L120.185 64.4923L120.649 64.8558L119.807 65.9585L119.344 65.595ZM119.49 66.3738L118.648 67.4783L118.185 67.1149L119.027 66.0122L119.49 66.3738ZM120.502 64.077L121.35 62.9753L121.813 63.3378L120.971 64.4405L120.502 64.077ZM121.661 62.5591L122.503 61.4564L122.966 61.8199L122.125 62.9226L121.661 62.5591ZM122.425 60.7322L121.961 60.3716L122.808 59.2689L123.272 59.6324L122.425 60.7322ZM122.108 61.1466L121.266 62.2493L120.803 61.8867L121.644 60.784L122.108 61.1466ZM120.948 62.6655L120.108 63.7672L119.643 63.4047L120.485 62.302L120.948 62.6655ZM119.795 64.1825L118.947 65.288L118.483 64.9255L119.324 63.8228L119.795 64.1825ZM118.636 65.7005L117.794 66.8032L117.326 66.4425L118.168 65.3408L118.636 65.7005ZM117.477 67.2184L116.63 68.3258L116.167 67.9624L117.009 66.8606L117.477 67.2184ZM117.872 67.5282L118.335 67.8917L117.494 68.9944L117.03 68.6309L117.872 67.5282ZM119.527 68.1611L119.062 67.7976L119.904 66.6949L120.368 67.0584L119.527 68.1611ZM120.686 66.6431L120.222 66.2796L121.063 65.1769L121.527 65.5404L120.686 66.6431ZM121.839 65.1242L121.376 64.7607L122.218 63.658L122.681 64.0215L121.839 65.1242ZM122.997 63.61L122.533 63.2465L123.373 62.1438L123.838 62.5073L122.997 63.61ZM124.156 62.092L123.692 61.7285L124.533 60.6258L124.998 60.9893L124.156 62.092ZM125.314 60.574L124.851 60.2106L125.693 59.1079L126.156 59.4714L125.314 60.574ZM126.651 57.0098L125.809 58.1125L125.351 57.749L126.19 56.6492L126.651 57.0098ZM125.314 55.9618L125.778 56.3252L124.936 57.4279L124.473 57.0645L125.314 55.9618ZM124.424 58.1144L123.582 59.2162L123.118 58.8536L123.96 57.7509L124.424 58.1144ZM123.091 57.0663L123.554 57.4298L122.714 58.5325L122.243 58.169L123.091 57.0663ZM121.932 58.5843L122.396 58.9478L121.554 60.0505L121.09 59.687L121.932 58.5843ZM120.773 60.1023L121.237 60.4658L120.395 61.5684L119.931 61.205L120.773 60.1023ZM119.614 61.6202L120.077 61.9837L119.23 63.0864L118.767 62.7229L119.614 61.6202ZM118.455 63.1382L118.918 63.5017L118.076 64.6044L117.613 64.2409L118.455 63.1382ZM117.294 64.6533L117.758 65.0168L116.916 66.1186L116.452 65.756L117.294 64.6533ZM116.136 66.1713L116.599 66.5348L115.757 67.6375L115.294 67.274L116.136 66.1713ZM114.135 68.7967L114.976 67.694L115.44 68.0575L114.598 69.1592L114.135 68.7967ZM115.008 69.4803L115.849 68.3786L116.314 68.7411L115.471 69.8438L115.008 69.4803ZM115.866 70.1536L116.708 69.0509L117.172 69.4144L116.331 70.5171L115.866 70.1536ZM117.582 69.7383L118.045 70.1018L117.203 71.2045L116.74 70.841L117.582 69.7383ZM119.571 75.3422C119.522 75.2724 119.503 75.1863 119.517 75.1025C119.532 75.0187 119.578 74.9438 119.647 74.894C119.681 74.8697 119.72 74.8525 119.761 74.8433C119.801 74.8341 119.844 74.8331 119.885 74.8404C119.926 74.8477 119.965 74.8631 120 74.8857C120.036 74.9083 120.066 74.9377 120.09 74.9721C120.138 75.0419 120.158 75.128 120.143 75.2119C120.129 75.2957 120.082 75.3706 120.013 75.4204C119.979 75.4444 119.94 75.4613 119.899 75.4701C119.858 75.4789 119.816 75.4795 119.775 75.4718C119.734 75.4641 119.694 75.4482 119.659 75.4252C119.624 75.4021 119.594 75.3723 119.571 75.3375V75.3422ZM123.348 77.5203L122.43 76.2019L123.489 75.4486C123.932 76.2594 123.771 77.1775 123.348 77.5156V77.5203ZM121.213 74.4222C121.67 74.0964 122.631 74.3158 123.254 75.0908L122.188 75.8516L121.201 74.4278C121.204 74.4239 121.209 74.4204 121.213 74.4175V74.4222ZM121.955 78.7708C121.907 78.7009 121.887 78.6147 121.902 78.5309C121.916 78.447 121.963 78.3722 122.032 78.3226C122.066 78.2983 122.105 78.281 122.146 78.2718C122.186 78.2625 122.229 78.2614 122.27 78.2686C122.311 78.2758 122.35 78.2911 122.386 78.3136C122.421 78.3361 122.451 78.3654 122.475 78.3998C122.523 78.4697 122.542 78.5559 122.528 78.6397C122.513 78.7235 122.467 78.7983 122.398 78.848C122.363 78.8722 122.325 78.8893 122.284 78.8983C122.243 78.9072 122.2 78.9079 122.159 78.9003C122.118 78.8927 122.079 78.8768 122.044 78.8538C122.009 78.8308 121.978 78.8009 121.955 78.7661V78.7708ZM124.477 113.432C124.555 113.464 124.618 113.526 124.651 113.604C124.684 113.683 124.685 113.771 124.654 113.85C124.639 113.889 124.616 113.924 124.587 113.955C124.558 113.985 124.524 114.009 124.485 114.026C124.447 114.042 124.405 114.051 124.364 114.052C124.322 114.052 124.28 114.044 124.241 114.029C124.163 113.996 124.101 113.934 124.068 113.856C124.034 113.778 124.033 113.69 124.064 113.612C124.08 113.572 124.102 113.537 124.131 113.507C124.16 113.476 124.195 113.452 124.233 113.435C124.271 113.419 124.313 113.41 124.355 113.409C124.396 113.409 124.438 113.416 124.477 113.432V113.432ZM127.24 110.607C127.728 110.832 128.095 111.691 127.852 112.593L126.649 112.107L127.24 110.607ZM126.493 112.502L127.705 112.992C127.276 113.892 126.392 114.332 125.873 114.122L125.858 114.113L126.493 112.502ZM126.01 109.531C126.088 109.564 126.151 109.626 126.184 109.704C126.217 109.782 126.218 109.87 126.187 109.949C126.172 109.988 126.149 110.024 126.12 110.054C126.091 110.084 126.056 110.108 126.018 110.125C125.98 110.142 125.939 110.151 125.897 110.151C125.855 110.152 125.813 110.145 125.775 110.129C125.696 110.097 125.634 110.035 125.6 109.956C125.567 109.878 125.566 109.79 125.597 109.711C125.612 109.672 125.634 109.636 125.664 109.606C125.693 109.576 125.727 109.552 125.766 109.535C125.804 109.518 125.846 109.509 125.887 109.509C125.929 109.508 125.971 109.516 126.01 109.531V109.531ZM128.961 104.893C128.961 105.064 128.989 105.238 128.988 105.416C128.988 105.485 129.018 105.552 129.018 105.621V105.637C129.018 105.63 128.953 105.625 128.938 105.615C128.838 105.547 128.561 105.485 128.417 105.379C128.393 105.365 128.372 105.345 128.356 105.323C128.34 105.3 128.329 105.274 128.323 105.247C128.322 105.145 128.798 104.961 128.962 104.893H128.961ZM126.958 108.074C126.826 107.99 126.715 107.878 126.634 107.744C126.575 107.65 126.531 107.542 126.479 107.444C126.664 107.528 126.837 107.635 126.995 107.762C127.018 107.784 127.043 107.804 127.065 107.827C127.081 107.841 127.091 107.861 127.093 107.882C127.04 107.94 126.995 108.005 126.958 108.074V108.074ZM127.036 107.491C127.029 107.528 127.021 107.566 127.013 107.605V107.612C127.004 107.607 126.995 107.601 126.987 107.594C126.94 107.545 126.799 107.48 126.734 107.406C126.723 107.395 126.715 107.382 126.709 107.367C126.703 107.353 126.7 107.338 126.7 107.322C126.707 107.268 126.997 107.22 127.095 107.202C127.076 107.296 127.056 107.392 127.036 107.491V107.491ZM127.405 106.89C127.335 106.935 127.261 106.975 127.184 107.01H127.178C127.103 107.031 127.025 107.04 126.947 107.037C127.102 106.988 127.257 106.934 127.41 106.879L127.43 106.871L127.405 106.89ZM128.081 106.129C127.956 106.164 127.842 106.232 127.751 106.325C127.661 106.418 127.596 106.533 127.565 106.659L127.538 106.67C127.138 106.824 126.729 106.954 126.314 107.06L126.295 107.051C126.447 106.467 126.582 105.881 126.703 105.293C126.705 105.331 126.715 105.369 126.734 105.403C126.753 105.437 126.779 105.466 126.811 105.488C126.842 105.51 126.879 105.524 126.917 105.53C126.955 105.536 126.994 105.532 127.031 105.521C127.154 105.48 127.28 105.449 127.407 105.427C127.413 105.427 127.443 105.427 127.49 105.436C127.745 105.595 127.911 105.878 128.106 106.119L128.081 106.129ZM129.036 106.453C129.023 106.453 129.012 106.444 129.001 106.439C128.96 106.362 128.893 106.302 128.812 106.268L128.78 106.258C128.688 106.187 128.583 106.137 128.47 106.11C128.432 106.075 128.394 106.04 128.358 106.001C128.22 105.852 128.106 105.686 127.981 105.53C128.33 105.61 128.668 105.734 128.986 105.898C129.036 105.927 129.08 105.955 129.131 105.985C129.164 106.004 129.188 106.036 129.199 106.073C129.129 106.192 129.074 106.32 129.036 106.453V106.453ZM129.392 104.239C129.286 104.341 129.172 104.435 129.052 104.522L129.041 104.53C128.919 104.594 128.788 104.639 128.652 104.662C128.904 104.521 129.152 104.372 129.398 104.219L129.43 104.2L129.392 104.239Z" fill="#040000"/>
<path d="M111.261 61.2209L111.002 61.6694L111.451 61.9284L111.71 61.4798L111.261 61.2209Z" fill="#040000"/>
<path d="M123.732 42.0778L124.963 40.5966L124.276 40.1992L125.123 38.2716L126.124 35.9918L124.648 37.9985L123.402 39.6992L122.714 39.298L122.048 41.1041L119.769 39.7858L118.827 42.4404L118.384 42.1842L117.443 44.8388L117 44.5836L116.059 47.2381L115.616 46.982L114.674 49.6366L114.232 49.3814L113.29 52.0359L112.846 51.7798L111.905 54.4344L111.461 54.1792L110.52 56.8337L110.077 56.5776L109.041 59.4968L104.791 65.1854L105.524 65.6091L110.774 68.6394L111.507 69.0632L114.308 62.5374L116.32 60.1785L115.878 59.9224L117.705 57.7792L117.262 57.524L119.09 55.3807L118.647 55.1246L120.475 52.9814L120.032 52.7262L121.86 50.5829L121.418 50.3268L123.245 48.1836L122.803 47.9284L124.626 45.7917L124.182 45.5375L126.01 43.3924L123.732 42.0778ZM122.363 41.9695C122.39 41.9241 122.429 41.8875 122.477 41.8646C122.524 41.8416 122.577 41.8333 122.63 41.8406C122.682 41.8479 122.731 41.8706 122.77 41.9057C122.81 41.9408 122.838 41.9868 122.851 42.0379C122.864 42.0889 122.862 42.1427 122.844 42.1925C122.827 42.2423 122.795 42.2858 122.753 42.3175C122.711 42.3492 122.66 42.3677 122.608 42.3706C122.555 42.3735 122.503 42.3608 122.457 42.3339C122.397 42.2979 122.353 42.2393 122.335 42.1711C122.317 42.1029 122.327 42.0304 122.363 41.9695V41.9695ZM111.913 61.8942C111.849 62.0046 111.754 62.0935 111.64 62.1498C111.525 62.206 111.397 62.2271 111.27 62.2104C111.144 62.1937 111.025 62.1398 110.93 62.0557C110.834 61.9716 110.765 61.861 110.732 61.7378C110.699 61.6147 110.703 61.4845 110.744 61.3638C110.785 61.243 110.861 61.1371 110.962 61.0594C111.063 60.9818 111.185 60.9358 111.312 60.9273C111.44 60.9189 111.566 60.9483 111.677 61.0119C111.825 61.0976 111.934 61.2387 111.978 61.4041C112.022 61.5696 111.999 61.7459 111.913 61.8942V61.8942ZM114.173 62.0336L109.55 59.364L109.683 59.1323L114.307 61.802L114.173 62.0336ZM114.456 61.543L109.832 58.8743L110.032 58.5268L114.655 61.1965L114.456 61.543ZM114.805 60.9375L110.182 58.2688L110.315 58.0372L114.938 60.7068L114.805 60.9375ZM112.671 58.7613C112.698 58.7155 112.738 58.6787 112.785 58.6555C112.833 58.6323 112.887 58.6238 112.939 58.6311C112.992 58.6383 113.041 58.661 113.08 58.6963C113.12 58.7316 113.148 58.7778 113.161 58.8291C113.175 58.8804 113.172 58.9345 113.155 58.9845C113.137 59.0345 113.105 59.0782 113.063 59.11C113.02 59.1418 112.969 59.1603 112.917 59.1631C112.864 59.1659 112.811 59.1529 112.766 59.1257C112.704 59.0901 112.66 59.0318 112.642 58.9635C112.624 58.8953 112.633 58.8226 112.669 58.7613H112.671ZM115.558 59.6342L110.934 56.9646L111.068 56.7339L115.691 59.4035L115.558 59.6342ZM115.84 59.1446L111.217 56.475L111.417 56.1284L116.041 58.798L115.84 59.1446ZM116.19 58.5391L111.567 55.8695L111.7 55.6388L116.323 58.3074L116.19 58.5391ZM114.051 56.3667C114.078 56.3212 114.117 56.2847 114.165 56.2617C114.212 56.2388 114.265 56.2304 114.318 56.2378C114.37 56.2451 114.419 56.2677 114.458 56.3028C114.497 56.3379 114.525 56.3839 114.539 56.435C114.552 56.4861 114.55 56.5399 114.532 56.5897C114.515 56.6394 114.483 56.6829 114.441 56.7146C114.399 56.7463 114.348 56.7648 114.295 56.7678C114.243 56.7707 114.19 56.7579 114.145 56.7311C114.084 56.695 114.041 56.6365 114.023 56.5682C114.005 56.5 114.015 56.4276 114.051 56.3667V56.3667ZM116.938 57.2396L112.314 54.57L112.448 54.3383L117.072 57.0079L116.938 57.2396ZM117.221 56.749L112.597 54.0803L112.798 53.7328L117.421 56.4024L117.221 56.749ZM117.57 56.1435L112.949 53.471L113.082 53.2394L117.705 55.909L117.57 56.1435ZM115.436 53.9673C115.463 53.9215 115.502 53.8847 115.55 53.8615C115.598 53.8383 115.651 53.8298 115.704 53.8371C115.756 53.8443 115.805 53.867 115.845 53.9023C115.885 53.9375 115.913 53.9838 115.926 54.0351C115.939 54.0864 115.937 54.1405 115.919 54.1905C115.902 54.2405 115.87 54.2842 115.828 54.316C115.785 54.3478 115.734 54.3662 115.681 54.369C115.628 54.3718 115.576 54.3589 115.53 54.3317C115.5 54.3137 115.473 54.2898 115.452 54.2615C115.431 54.2333 115.416 54.2011 115.407 54.1668C115.399 54.1326 115.397 54.097 115.402 54.0621C115.408 54.0272 115.42 53.9937 115.438 53.9635L115.436 53.9673ZM118.323 54.8402L113.7 52.1706L113.833 51.9399L118.458 54.6057L118.323 54.8402ZM118.606 54.3506L113.982 51.6809L114.183 51.3344L118.806 54.004L118.606 54.3506ZM118.955 53.7451L114.333 51.0717L114.467 50.841L119.091 53.5096L118.955 53.7451ZM116.823 51.5642C116.85 51.5187 116.889 51.4822 116.937 51.4592C116.984 51.4363 117.038 51.4279 117.09 51.4353C117.142 51.4426 117.191 51.4652 117.23 51.5003C117.27 51.5354 117.298 51.5814 117.311 51.6325C117.324 51.6836 117.322 51.7374 117.304 51.7872C117.287 51.8369 117.255 51.8804 117.213 51.9121C117.171 51.9438 117.12 51.9623 117.068 51.9653C117.015 51.9682 116.963 51.9554 116.917 51.9286C116.857 51.8927 116.813 51.8342 116.795 51.7658C116.777 51.6975 116.787 51.625 116.823 51.5642V51.5642ZM119.709 52.4371L115.087 49.7684L115.219 49.5368L119.843 52.2064L119.709 52.4371ZM119.992 51.9465L115.369 49.2787L115.57 48.9313L120.192 51.6009L119.992 51.9465ZM120.341 51.341L115.718 48.6723L115.851 48.4407L120.475 51.1103L120.341 51.341ZM118.207 49.1648C118.234 49.119 118.274 49.0822 118.321 49.059C118.369 49.0358 118.423 49.0273 118.475 49.0346C118.528 49.0418 118.577 49.0645 118.616 49.0998C118.656 49.135 118.684 49.1813 118.697 49.2326C118.711 49.2839 118.708 49.338 118.691 49.388C118.673 49.438 118.641 49.4817 118.599 49.5135C118.556 49.5453 118.506 49.5637 118.453 49.5665C118.4 49.5693 118.347 49.5563 118.302 49.5292C118.241 49.4932 118.198 49.4347 118.18 49.3667C118.163 49.2986 118.173 49.2264 118.208 49.1657L118.207 49.1648ZM121.094 50.0377L116.471 47.3681L116.604 47.1374L121.227 49.807L121.094 50.0377ZM121.376 49.5481L116.753 46.8784L116.952 46.5319L121.576 49.2006L121.376 49.5481ZM121.725 48.9426L117.102 46.2729L117.236 46.0422L121.859 48.7109L121.725 48.9426ZM119.592 46.7664C119.618 46.7209 119.658 46.6844 119.705 46.6614C119.753 46.6385 119.806 46.6301 119.858 46.6375C119.911 46.6448 119.959 46.6674 119.999 46.7025C120.038 46.7377 120.066 46.7837 120.079 46.8347C120.093 46.8858 120.09 46.9396 120.073 46.9894C120.056 47.0392 120.024 47.0826 119.982 47.1143C119.939 47.146 119.889 47.1645 119.836 47.1675C119.784 47.1704 119.731 47.1576 119.686 47.1308C119.626 47.0946 119.582 47.0361 119.565 46.968C119.548 46.9 119.558 46.8278 119.594 46.7673L119.592 46.7664ZM122.478 47.6393L117.856 44.9725L117.99 44.7408L122.613 47.4105L122.478 47.6393ZM122.76 47.1487L118.138 44.48L118.337 44.1325L122.961 46.8022L122.76 47.1487ZM123.111 46.5432L118.487 43.8745L118.621 43.6429L123.243 46.3125L123.111 46.5432ZM120.976 44.367C121.003 44.3215 121.042 44.285 121.09 44.2621C121.137 44.2391 121.19 44.2308 121.243 44.2381C121.295 44.2454 121.344 44.2681 121.383 44.3032C121.422 44.3383 121.45 44.3843 121.464 44.4353C121.477 44.4864 121.475 44.5402 121.457 44.59C121.44 44.6398 121.408 44.6833 121.366 44.715C121.324 44.7467 121.273 44.7652 121.22 44.7681C121.168 44.771 121.115 44.7583 121.07 44.7314C121.01 44.6951 120.967 44.6366 120.95 44.5686C120.932 44.5006 120.942 44.4285 120.978 44.3679L120.976 44.367ZM123.863 45.2399L119.239 42.5703L119.373 42.3396L123.997 45.0092L123.863 45.2399ZM124.146 44.7503L119.522 42.0806L119.723 41.7341L124.348 44.4075L124.146 44.7503ZM119.872 41.4751L120.005 41.2444L124.629 43.9131L124.495 44.1448L119.872 41.4751Z" fill="#040000"/>
<path d="M143.175 95.5532C143.157 95.3472 143.086 95.1493 142.97 94.9786C142.853 94.808 142.694 94.6704 142.509 94.5791C142.323 94.4879 142.117 94.4461 141.911 94.4579C141.705 94.4697 141.505 94.5346 141.331 94.6463C141.109 93.7677 140.709 92.9441 140.156 92.2263C140.292 92.118 140.403 91.9814 140.481 91.8261C140.559 91.6707 140.602 91.5002 140.608 91.3264C140.614 91.1526 140.582 90.9797 140.514 90.8195C140.446 90.6593 140.345 90.5158 140.216 90.3988C140.087 90.2817 139.935 90.1941 139.769 90.1418C139.603 90.0895 139.428 90.0739 139.255 90.096C139.083 90.118 138.917 90.1773 138.77 90.2697C138.623 90.3621 138.497 90.4854 138.402 90.6311C137.674 90.1744 136.865 89.863 136.019 89.7139C136.019 89.7017 136.019 89.6894 136.019 89.6772C135.992 89.3733 135.851 89.0911 135.624 88.8876C135.397 88.6842 135.1 88.5748 134.796 88.5818C134.491 88.5887 134.2 88.7115 133.982 88.9251C133.764 89.1386 133.636 89.4271 133.623 89.7318C132.6 89.9274 131.637 90.3616 130.812 90.9993C130.621 90.9087 130.41 90.8701 130.199 90.8876C129.989 90.9051 129.786 90.9779 129.613 91.0987C129.439 91.2195 129.301 91.384 129.211 91.5756C129.122 91.7672 129.085 91.979 129.103 92.1895C129.119 92.3657 129.174 92.5362 129.263 92.6886C128.809 93.3961 128.493 94.183 128.332 95.0079L126.536 94.6256L126.744 96.9911L126.951 99.3556L128.647 98.6673C128.948 99.4516 129.396 100.172 129.965 100.79C129.903 100.956 129.879 101.133 129.894 101.31C129.908 101.467 129.952 101.62 130.025 101.759C130.098 101.899 130.198 102.023 130.318 102.125C130.439 102.226 130.579 102.303 130.729 102.35C130.879 102.398 131.038 102.415 131.195 102.401C131.407 102.383 131.61 102.308 131.783 102.184C132.707 102.67 133.732 102.93 134.775 102.944C134.841 103.242 135.018 103.503 135.269 103.675C135.52 103.847 135.828 103.917 136.129 103.871C136.43 103.824 136.702 103.666 136.89 103.426C137.079 103.187 137.169 102.885 137.143 102.582C137.143 102.57 137.143 102.557 137.143 102.545C137.951 102.251 138.694 101.803 139.331 101.227C139.45 101.353 139.595 101.452 139.756 101.517C139.917 101.582 140.09 101.612 140.263 101.603C140.437 101.595 140.606 101.549 140.76 101.469C140.914 101.389 141.049 101.276 141.155 101.139C141.261 101.001 141.336 100.843 141.375 100.673C141.414 100.504 141.416 100.329 141.381 100.159C141.345 99.9889 141.273 99.8286 141.17 99.6892C141.067 99.5497 140.934 99.4343 140.782 99.3509C141.202 98.5481 141.452 97.6677 141.518 96.7642C141.709 96.844 141.917 96.8732 142.122 96.849C142.327 96.8247 142.523 96.7479 142.69 96.6259C142.857 96.5039 142.989 96.3408 143.074 96.1525C143.16 95.9643 143.195 95.7572 143.177 95.5513L143.175 95.5532ZM141.009 94.9449C140.873 95.1277 140.793 95.3457 140.777 95.5729L136.028 95.9882C135.983 95.8049 135.895 95.6351 135.77 95.4929L138.577 92.15C138.7 92.2688 138.847 92.3597 139.008 92.4167C139.169 92.4738 139.341 92.4955 139.512 92.4805C139.619 92.4711 139.724 92.447 139.824 92.4089C140.407 93.1535 140.814 94.0205 141.014 94.9449H141.009ZM135.6 102.523L135.583 102.325C135.609 102.021 135.704 101.779 135.885 101.764C136.069 101.748 136.253 101.788 136.414 101.877C136.575 101.966 136.706 102.101 136.789 102.265C136.403 102.389 136.007 102.475 135.605 102.523H135.6ZM134.752 102.567C133.818 102.551 132.899 102.326 132.064 101.908C132.156 101.78 132.223 101.635 132.259 101.482C132.296 101.329 132.302 101.17 132.277 101.015C132.252 100.859 132.196 100.71 132.113 100.576C132.031 100.442 131.922 100.325 131.795 100.233L134.249 97.3094C134.411 97.4066 134.594 97.464 134.783 97.477L135.159 101.783C134.93 101.984 134.786 102.264 134.755 102.567H134.752ZM130.974 101.212L131.625 100.435C131.732 100.506 131.823 100.599 131.891 100.707C131.96 100.815 132.006 100.937 132.025 101.064C132.044 101.191 132.037 101.32 132.003 101.444C131.969 101.568 131.91 101.684 131.829 101.783C131.53 101.616 131.245 101.425 130.976 101.212H130.974ZM130.723 100.924C130.738 100.584 130.834 100.299 131.03 100.282C131.105 100.276 131.181 100.278 131.255 100.291L130.723 100.924ZM139.635 92.1848C139.592 92.1954 139.549 92.2026 139.505 92.2065C139.308 92.2244 139.164 91.9588 139.09 91.6255C139.284 91.8005 139.467 91.9873 139.638 92.1848H139.635ZM139.347 90.3608C139.546 90.3432 139.746 90.3907 139.916 90.4963C140.086 90.6018 140.217 90.7597 140.289 90.9461C140.362 91.1326 140.372 91.3375 140.318 91.5302C140.264 91.7228 140.149 91.8927 139.99 92.0144C139.704 91.6722 139.385 91.3592 139.037 91.0803C139.041 90.7102 139.136 90.3834 139.347 90.3608ZM138.21 91.3967C138.224 91.5553 138.269 91.7096 138.343 91.8505L135.487 95.2556C135.325 95.1577 135.142 95.0999 134.954 95.087L134.593 90.9654C134.703 90.987 134.815 90.993 134.926 90.9833C135.171 90.9617 135.405 90.8648 135.593 90.7059C135.782 90.547 135.917 90.3338 135.98 90.0953C136.787 90.2408 137.557 90.5428 138.247 90.9842C138.211 91.1185 138.198 91.2581 138.21 91.3967V91.3967ZM134.509 90.0077C134.915 89.9845 135.322 90.0003 135.725 90.0548C135.671 90.2309 135.566 90.3869 135.423 90.5028C135.28 90.6188 135.105 90.6893 134.922 90.7055C134.742 90.7215 134.606 90.5002 134.526 90.2064L134.509 90.0077ZM134.761 88.8636C135.001 88.8429 135.239 88.9166 135.426 89.0691C135.612 89.2216 135.732 89.4407 135.759 89.68C135.326 89.6215 134.888 89.6061 134.451 89.6339C134.446 89.2355 134.541 88.8786 134.761 88.8589V88.8636ZM133.665 90.1122C133.748 90.4059 133.94 90.6569 134.202 90.8147L134.578 95.12C134.395 95.1657 134.225 95.2541 134.083 95.378L131.158 92.924C131.268 92.8111 131.354 92.6777 131.412 92.5314C131.47 92.385 131.499 92.2287 131.497 92.0713C131.494 91.9138 131.461 91.7584 131.399 91.6139C131.336 91.4694 131.246 91.3386 131.133 91.229C131.882 90.6703 132.747 90.287 133.665 90.1075V90.1122ZM130.181 92.102C130.409 91.8452 130.658 91.6074 130.925 91.391C131.022 91.4751 131.1 91.5785 131.155 91.6947C131.21 91.8108 131.239 91.9371 131.242 92.0655C131.246 92.1938 131.222 92.3214 131.173 92.4401C131.124 92.5588 131.05 92.6659 130.957 92.7545L130.181 92.102ZM130.618 92.9608C130.547 92.986 130.473 93.0022 130.398 93.0088C130.202 93.0257 130.058 92.7621 129.984 92.4287L130.618 92.9608ZM130.242 91.1716C130.353 91.1616 130.466 91.1725 130.573 91.2036C130.347 91.3956 130.133 91.6026 129.934 91.8232C129.941 91.4692 130.037 91.1791 130.235 91.1622L130.242 91.1716ZM129.511 92.9975C129.693 93.1542 129.917 93.253 130.156 93.281C130.394 93.309 130.635 93.265 130.848 93.1547L133.841 95.6652C133.751 95.8134 133.695 95.9792 133.675 96.1511L130.497 95.4741L128.697 95.0899C128.84 94.349 129.116 93.6401 129.511 92.9975V92.9975ZM128.997 98.5298L130.704 97.8395L133.718 96.6154C133.766 96.7816 133.85 96.9352 133.964 97.0655L131.452 100.06C131.223 99.9886 130.978 99.9873 130.748 100.056C130.518 100.126 130.314 100.262 130.163 100.448C129.662 99.8827 129.267 99.2316 128.997 98.526V98.5298ZM131.195 102.128C130.996 102.145 130.851 101.876 130.778 101.539C131.012 101.722 131.259 101.888 131.515 102.038C131.414 102.086 131.306 102.115 131.195 102.124V102.128ZM136.051 103.609C135.831 103.629 135.674 103.294 135.612 102.905C136.047 102.857 136.475 102.766 136.892 102.633C136.906 102.872 136.825 103.108 136.668 103.289C136.511 103.471 136.29 103.584 136.051 103.605V103.609ZM137.039 102.185C136.935 101.962 136.765 101.775 136.551 101.651C136.338 101.528 136.091 101.473 135.846 101.494C135.734 101.503 135.625 101.529 135.521 101.569L135.16 97.4469C135.344 97.4016 135.514 97.3131 135.656 97.1888L139.061 100.046C138.968 100.332 138.988 100.643 139.116 100.916C138.513 101.469 137.807 101.899 137.039 102.182V102.185ZM139.836 100.133C139.852 99.7916 139.949 99.5053 140.144 99.4884C140.188 99.4851 140.232 99.4851 140.276 99.4884C140.143 99.7107 139.996 99.9246 139.836 100.129V100.133ZM141.146 100.329C141.167 100.574 141.091 100.816 140.933 101.004C140.775 101.192 140.55 101.309 140.305 101.33C140.095 101.349 139.944 101.043 139.876 100.671C140.17 100.336 140.43 99.9722 140.652 99.5854C140.79 99.6571 140.908 99.7625 140.994 99.8919C141.081 100.021 141.133 100.17 141.146 100.326V100.329ZM140.417 99.2266C140.196 99.185 139.967 99.2072 139.757 99.2905C139.548 99.3739 139.366 99.515 139.234 99.6975L135.897 96.8969C135.995 96.7349 136.052 96.5523 136.065 96.3639L140.813 95.9477C140.868 96.1691 140.985 96.3701 141.151 96.5269C141.114 97.4707 140.863 98.3938 140.417 99.2266V99.2266ZM142.08 96.5758C141.571 96.6201 141.41 94.7782 141.918 94.7339C142.159 94.7185 142.397 94.798 142.58 94.9554C142.763 95.1128 142.878 95.3356 142.899 95.5762C142.92 95.8168 142.846 96.0561 142.693 96.2429C142.54 96.4297 142.32 96.5492 142.08 96.5758V96.5758Z" fill="#040000"/>
<path d="M90.0996 90.6123C90.9113 89.1659 91.3237 87.4614 91.3237 85.5461C91.3237 83.3256 90.8039 81.3915 89.7794 79.8019C88.7549 78.2124 87.3311 77.0993 85.5221 76.4581C84.2424 75.9967 82.1321 75.7697 79.2403 75.7697H75.6309V94.6925H81.4315C83.8064 94.6925 85.669 94.4166 86.9572 93.7301C88.2454 93.0437 89.2926 92.0502 90.0996 90.6123ZM85.1596 93.2857C84.0409 93.6501 82.1312 93.7508 79.3213 93.7508H76.4784V76.6125H78.4323C81.3515 76.6125 83.3977 76.8771 84.6935 77.2764C86.3801 77.7794 87.8378 78.8563 88.8142 80.3208C89.7879 81.7662 90.2823 83.5413 90.2823 85.5621C90.2823 87.4925 89.8246 89.1273 88.9234 90.4767C88.0222 91.8261 86.7425 92.763 85.1596 93.2857Z" fill="#040000"/>
<path d="M108.683 89.1367H106.235V75.7236L96.2223 90.1725H105.293V94.6925H106.235V90.1725H108.683V89.1367ZM105.293 89.1367H97.9936L105.293 78.8009V89.1367Z" fill="#040000"/>
<path d="M83.3139 112.477C82.7112 111.535 81.5643 110.423 79.9069 109.181C78.4323 108.077 77.5801 107.409 77.3023 107.137C76.775 106.603 76.4218 106.12 76.2166 105.652C76.0131 105.192 75.9079 104.694 75.9077 104.191C75.9004 103.788 75.9771 103.389 76.1331 103.017C76.2891 102.646 76.5209 102.311 76.8136 102.035C77.4106 101.456 78.1809 101.164 79.1046 101.164C79.7971 101.16 80.4768 101.349 81.068 101.71C81.5775 102.019 82.15 102.581 82.812 103.423L83.6698 102.764C82.9109 101.771 82.1895 101.074 81.521 100.692C80.7999 100.272 79.9798 100.051 79.1451 100.053C78.3723 100.05 77.6114 100.244 76.935 100.618C76.2859 100.969 75.7467 101.493 75.3775 102.132C75.0061 102.785 74.8147 103.525 74.8229 104.277C74.8229 105.28 75.1346 106.189 75.7777 107.058C76.0395 107.423 76.7655 108.171 78.7638 109.701C80.4588 110.996 81.6019 112.083 82.2555 113.024C82.7592 113.748 83.0144 114.504 83.0144 115.274C83.0142 115.967 82.8237 116.646 82.4637 117.239C82.1037 117.831 81.588 118.313 80.9729 118.632C80.3289 118.981 79.6079 119.162 78.8758 119.16C77.2524 119.16 75.8145 118.11 74.5978 116.037L73.7362 116.56C74.4585 117.803 75.2429 118.709 76.0612 119.255C76.9501 119.847 77.9962 120.158 79.0642 120.149C80.5068 120.149 81.7008 119.668 82.7027 118.679C83.7047 117.689 84.1934 116.565 84.1934 115.232C84.1934 114.32 83.8977 113.393 83.3139 112.477Z" fill="#040000"/>
<path d="M102.374 110.983V111.925H108.825L108.747 112.49C108.471 114.457 107.572 116.093 106.076 117.328C104.58 118.564 102.746 119.188 100.605 119.188C98.9072 119.201 97.2344 118.78 95.7458 117.964C94.2968 117.176 93.0899 116.008 92.255 114.586C91.4317 113.214 90.9951 111.645 90.9913 110.044C90.994 108.484 91.4169 106.953 92.2155 105.613C93.0373 104.211 94.229 103.063 95.6601 102.294C97.0853 101.497 98.6905 101.078 100.323 101.076C101.629 101.076 102.986 101.376 104.355 101.967C105.622 102.526 106.783 103.298 107.789 104.25L108.624 103.448C107.379 102.318 106.097 101.471 104.806 100.937C103.363 100.345 101.816 100.045 100.255 100.053C98.2779 100.053 96.4822 100.499 94.9218 101.372C93.3802 102.231 92.1031 103.495 91.2286 105.028C90.3378 106.566 89.8724 108.313 89.8801 110.09C89.8563 112.449 90.691 114.736 92.2287 116.525C94.257 118.925 97.0575 120.143 100.551 120.143C103.418 120.143 105.73 119.265 107.425 117.548C109.032 115.925 109.896 113.714 110.002 110.983H102.374Z" fill="#040000"/>
<path d="M56.4048 92.5003L59.324 92.9099L59.1922 93.8817C59.1737 94.051 59.1368 94.2177 59.082 94.3789C59.0269 94.5271 58.9356 94.6592 58.8165 94.7631C58.6605 94.8967 58.4727 94.9879 58.2712 95.0277C58.0375 95.0736 57.7975 95.078 57.5622 95.0409C57.3635 95.015 57.1694 94.9611 56.9859 94.8808C56.8401 94.8187 56.7053 94.7335 56.5866 94.6285C56.395 94.4632 56.2763 94.2291 56.2561 93.9768C56.2409 93.8235 56.2447 93.6688 56.2674 93.5164L56.4048 92.5003ZM56.7034 92.9222L56.6205 93.5248C56.5959 93.6722 56.5943 93.8224 56.6158 93.9702C56.632 94.07 56.672 94.1643 56.7325 94.2452C56.8238 94.3564 56.9395 94.445 57.0706 94.5042C57.2461 94.5827 57.4325 94.6341 57.6234 94.6567C57.9285 94.7 58.1705 94.684 58.3475 94.6106C58.504 94.5529 58.6366 94.4445 58.7242 94.3026C58.7929 94.1541 58.8353 93.9948 58.8494 93.8318L58.9304 93.2386L56.7034 92.9222Z" fill="#040000"/>
<path d="M55.9434 96.6935L58.8777 97.8367L58.872 98.2435L55.9095 99.3613L55.9152 98.9309L56.8117 98.6136L56.8267 97.4214L55.9378 97.0938L55.9434 96.6935ZM57.1431 97.5354L57.1309 98.5025L57.9511 98.22C58.2022 98.1334 58.4068 98.0706 58.565 98.0317C58.3728 97.9921 58.1839 97.9376 58 97.8687L57.1431 97.5354Z" fill="#040000"/>
<path d="M56.0677 101.706L58.6564 101.471L58.5622 100.535L58.9088 100.504L59.1235 102.754L58.7769 102.785L58.6875 101.844L56.0988 102.079L56.0677 101.706Z" fill="#040000"/>
<path d="M56.3888 104.404L59.4963 104.898L59.5773 105.297L56.9246 107.02L56.838 106.599L57.6459 106.097L57.4058 104.928L56.4641 104.797L56.3888 104.404ZM57.741 104.969L57.935 105.916L58.6752 105.464C58.9002 105.327 59.0857 105.22 59.2336 105.146C59.0385 105.148 58.8437 105.134 58.6507 105.106L57.741 104.969Z" fill="#040000"/>
<path d="M58.2279 111.186L60.9587 110.092L61.681 111.881L61.358 112.01L60.777 110.576L59.9295 110.915L60.4323 112.156L60.1094 112.286L59.6065 111.044L58.3654 111.541L58.2279 111.186Z" fill="#040000"/>
<path d="M61.0633 114.121C61.4914 113.886 61.8882 113.812 62.2535 113.901C62.4328 113.944 62.6008 114.025 62.7459 114.138C62.891 114.252 63.0099 114.396 63.0944 114.56C63.2194 114.778 63.2801 115.026 63.2696 115.277C63.2582 115.525 63.1744 115.763 63.0285 115.963C62.8669 116.182 62.658 116.362 62.4174 116.49C62.1767 116.628 61.9071 116.708 61.6301 116.724C61.3814 116.739 61.134 116.677 60.9211 116.548C60.7133 116.421 60.5425 116.242 60.4258 116.029C60.2991 115.808 60.2389 115.556 60.2525 115.302C60.2662 115.054 60.3519 114.816 60.4992 114.616C60.6478 114.411 60.8406 114.242 61.0633 114.121V114.121ZM61.2469 114.465C60.933 114.636 60.7331 114.852 60.647 115.113C60.6053 115.237 60.59 115.37 60.6022 115.501C60.6144 115.632 60.6538 115.759 60.7178 115.875C60.7819 115.99 60.8692 116.09 60.9742 116.17C61.0792 116.249 61.1997 116.306 61.3279 116.337C61.5972 116.399 61.8979 116.339 62.23 116.154C62.4204 116.054 62.5881 115.916 62.7225 115.748C62.836 115.604 62.9044 115.429 62.9193 115.246C62.9323 115.066 62.8913 114.886 62.8016 114.729C62.7413 114.615 62.6586 114.515 62.5584 114.434C62.4582 114.353 62.3426 114.293 62.2187 114.258C61.9588 114.182 61.6349 114.252 61.2469 114.467V114.465Z" fill="#040000"/>
<path d="M62.3147 119.02L64.6877 117.277L65.441 118.297C65.5655 118.451 65.6612 118.625 65.7235 118.812C65.7587 118.953 65.7455 119.102 65.6859 119.234C65.624 119.377 65.5244 119.501 65.3977 119.592C65.244 119.712 65.0499 119.767 64.8563 119.747C64.6629 119.726 64.4696 119.617 64.2762 119.419C64.2939 119.508 64.2996 119.599 64.2931 119.689C64.2702 119.855 64.2265 120.018 64.1632 120.173L63.811 121.048L63.5285 120.665L63.7978 119.998C63.875 119.804 63.9306 119.651 63.9636 119.537C63.9925 119.45 64.0078 119.359 64.0088 119.267C64.0065 119.203 63.9935 119.139 63.9702 119.079C63.9374 119.016 63.8992 118.957 63.8562 118.901L63.5963 118.548L62.5416 119.325L62.3147 119.02ZM63.8637 118.351L64.3449 119.01C64.4213 119.124 64.5169 119.223 64.6274 119.304C64.708 119.358 64.8044 119.385 64.9015 119.378C64.9946 119.372 65.0841 119.339 65.1595 119.284C65.2122 119.247 65.2564 119.199 65.2889 119.144C65.3214 119.088 65.3415 119.026 65.3478 118.962C65.3622 118.83 65.3067 118.679 65.1811 118.508L64.6463 117.78L63.8637 118.351Z" fill="#040000"/>
<path d="M67.4817 123.707L67.7642 123.925C67.6856 124.027 67.6315 124.145 67.606 124.271C67.5898 124.395 67.6097 124.522 67.6634 124.635C67.7248 124.773 67.8146 124.896 67.9271 124.996C68.0216 125.086 68.1322 125.157 68.2529 125.205C68.3489 125.246 68.4547 125.257 68.5571 125.238C68.6456 125.219 68.7259 125.173 68.7869 125.106C68.8468 125.043 68.8839 124.962 68.8923 124.875C68.8967 124.77 68.8719 124.665 68.8208 124.573C68.7366 124.418 68.6439 124.268 68.543 124.123C68.4301 123.965 68.3354 123.794 68.2605 123.615C68.2116 123.484 68.1979 123.344 68.2209 123.206C68.2458 123.079 68.3062 122.962 68.3951 122.868C68.4944 122.759 68.6233 122.681 68.7661 122.643C68.9195 122.604 69.0813 122.613 69.2294 122.668C69.3981 122.731 69.5522 122.827 69.6824 122.951C69.8264 123.078 69.9424 123.234 70.0233 123.408C70.0934 123.558 70.1161 123.726 70.0882 123.889C70.0593 124.051 69.9867 124.202 69.8782 124.326L69.5957 124.102C69.6988 123.977 69.7489 123.817 69.7351 123.656C69.7 123.482 69.6043 123.325 69.4649 123.215C69.2966 123.06 69.1447 122.98 69.0091 122.973C68.9489 122.967 68.888 122.975 68.8315 122.996C68.7749 123.018 68.7242 123.052 68.6833 123.097C68.6494 123.132 68.6234 123.174 68.6072 123.22C68.5909 123.267 68.5848 123.316 68.5891 123.364C68.5966 123.464 68.6908 123.644 68.8716 123.905C69.0006 124.083 69.1137 124.272 69.2097 124.47C69.2755 124.618 69.2993 124.78 69.2784 124.941C69.2535 125.087 69.1853 125.223 69.0825 125.33C68.9768 125.446 68.8398 125.529 68.688 125.569C68.5252 125.612 68.3534 125.607 68.1936 125.554C68.0132 125.495 67.8482 125.397 67.7105 125.267C67.5424 125.121 67.4064 124.942 67.3113 124.741C67.236 124.573 67.213 124.386 67.2453 124.204C67.277 124.02 67.3588 123.848 67.4817 123.707V123.707Z" fill="#040000"/>
<path d="M70.9404 126.084C71.2229 125.684 71.5469 125.445 71.9141 125.366C72.0943 125.327 72.2808 125.327 72.4609 125.367C72.6409 125.407 72.81 125.486 72.9566 125.598C73.1644 125.74 73.3277 125.938 73.4274 126.17C73.5245 126.398 73.5526 126.65 73.5084 126.894C73.4582 127.162 73.3489 127.416 73.1882 127.637C73.0322 127.866 72.8249 128.055 72.5827 128.189C72.3658 128.312 72.1167 128.364 71.8689 128.34C71.6274 128.316 71.3965 128.229 71.1994 128.087C70.9897 127.943 70.8261 127.741 70.7286 127.506C70.6335 127.276 70.6074 127.023 70.6532 126.779C70.696 126.529 70.7941 126.291 70.9404 126.084V126.084ZM71.255 126.314C71.0497 126.604 70.9637 126.886 70.9969 127.161C71.0134 127.292 71.0568 127.417 71.1245 127.53C71.1921 127.643 71.2825 127.74 71.3899 127.816C71.4972 127.892 71.6192 127.945 71.748 127.971C71.8769 127.997 72.0098 127.996 72.1382 127.968C72.4063 127.905 72.6499 127.72 72.869 127.411C72.9969 127.237 73.0877 127.039 73.1355 126.829C73.1753 126.649 73.1609 126.462 73.094 126.29C73.0277 126.122 72.913 125.977 72.7644 125.874C72.6608 125.799 72.5429 125.745 72.418 125.716C72.2931 125.687 72.1637 125.684 72.0375 125.706C71.7713 125.747 71.5105 125.95 71.255 126.314V126.314Z" fill="#040000"/>
<path d="M76.466 130.005L76.7532 130.269C76.5692 130.493 76.3163 130.65 76.0338 130.716C75.7655 130.767 75.4877 130.721 75.2503 130.586C75.0118 130.472 74.8127 130.29 74.6788 130.062C74.5672 129.846 74.5232 129.601 74.5526 129.359C74.58 129.09 74.66 128.828 74.788 128.59C74.9114 128.341 75.091 128.125 75.3125 127.959C75.5068 127.814 75.7408 127.733 75.983 127.725C76.225 127.719 76.4645 127.777 76.677 127.893C76.9096 128.006 77.0969 128.196 77.2081 128.43C77.3112 128.667 77.3334 128.932 77.2712 129.183L76.9011 129.089C76.9457 128.906 76.9332 128.715 76.8653 128.54C76.7916 128.386 76.6678 128.261 76.5141 128.187C76.3433 128.088 76.1447 128.048 75.9491 128.074C75.7682 128.101 75.6009 128.185 75.4716 128.315C75.3335 128.448 75.2178 128.603 75.1289 128.773C75.0208 128.969 74.9487 129.182 74.9161 129.403C74.8877 129.584 74.9208 129.769 75.0102 129.929C75.0959 130.077 75.2219 130.199 75.3737 130.279C75.545 130.376 75.7464 130.406 75.9387 130.364C76.1499 130.307 76.3357 130.181 76.466 130.005V130.005Z" fill="#040000"/>
<path d="M78.2675 131.946L79.3758 129.215L79.7252 129.358L78.6168 132.089L78.2675 131.946Z" fill="#040000"/>
<path d="M80.4248 132.789L82.3166 130.277L82.7055 130.394L82.9814 133.558L82.5699 133.435L82.5049 132.482L81.3646 132.138L80.8099 132.903L80.4248 132.789ZM81.5548 131.865L82.4795 132.147L82.4277 131.278C82.412 131.014 82.4058 130.8 82.4089 130.634C82.3191 130.807 82.2162 130.972 82.101 131.129L81.5548 131.865Z" fill="#040000"/>
<path d="M84.8441 133.98L85.363 131.074L85.733 131.143L85.2754 133.705L86.6549 133.959L86.5937 134.302L84.8441 133.98Z" fill="#040000"/>
<path d="M92.4603 133.567V133.221L93.6656 133.212L93.6778 134.308C93.5093 134.454 93.3186 134.572 93.1128 134.657C92.9207 134.735 92.7155 134.775 92.5083 134.776C92.2424 134.781 91.9797 134.718 91.7446 134.594C91.5182 134.474 91.3351 134.286 91.221 134.057C91.0983 133.813 91.0339 133.544 91.0327 133.271C91.0274 132.993 91.084 132.718 91.1984 132.465C91.2976 132.23 91.4709 132.034 91.6919 131.907C91.9222 131.78 92.1819 131.715 92.4452 131.719C92.6361 131.715 92.8259 131.75 93.0036 131.82C93.1577 131.877 93.2938 131.975 93.3982 132.102C93.5037 132.246 93.5787 132.41 93.6185 132.584L93.2804 132.678C93.2473 132.552 93.1921 132.432 93.1175 132.324C93.0454 132.233 92.951 132.163 92.8435 132.119C92.7193 132.067 92.5855 132.041 92.4508 132.044C92.2982 132.041 92.1466 132.07 92.0054 132.128C91.8896 132.176 91.7863 132.25 91.7032 132.344C91.6281 132.431 91.5686 132.53 91.5271 132.637C91.4554 132.827 91.4206 133.029 91.4244 133.232C91.4206 133.459 91.468 133.685 91.5628 133.891C91.6451 134.061 91.7807 134.199 91.9489 134.284C92.1137 134.369 92.2966 134.412 92.4819 134.41C92.6458 134.409 92.8079 134.375 92.9584 134.31C93.0866 134.261 93.2054 134.189 93.3096 134.099L93.304 133.549L92.4603 133.567Z" fill="#040000"/>
<path d="M95.5875 133.146C95.5179 132.661 95.5888 132.263 95.8004 131.953C95.9034 131.801 96.0384 131.673 96.196 131.578C96.3536 131.484 96.53 131.425 96.7128 131.405C96.9607 131.367 97.2143 131.4 97.4445 131.499C97.6714 131.599 97.8642 131.763 97.9991 131.97C98.1492 132.2 98.2457 132.461 98.2816 132.733C98.3255 133.007 98.3055 133.288 98.2233 133.553C98.1503 133.791 98.006 134 97.8099 134.153C97.6187 134.302 97.3911 134.398 97.1507 134.429C96.9023 134.468 96.6478 134.435 96.4183 134.332C96.1887 134.229 95.9939 134.062 95.8578 133.851C95.7174 133.638 95.6252 133.398 95.5875 133.146ZM95.9727 133.098C96.0235 133.452 96.1547 133.717 96.3663 133.893C96.4673 133.977 96.5846 134.039 96.7108 134.074C96.837 134.11 96.9693 134.119 97.0992 134.101C97.229 134.082 97.3537 134.037 97.465 133.968C97.5764 133.898 97.672 133.807 97.7458 133.698C97.8974 133.468 97.9464 133.164 97.8918 132.789C97.866 132.574 97.7958 132.367 97.6856 132.181C97.592 132.022 97.4529 131.894 97.2863 131.815C97.1232 131.738 96.941 131.712 96.7627 131.739C96.636 131.755 96.5139 131.796 96.4039 131.861C96.2938 131.926 96.198 132.012 96.1224 132.115C95.9586 132.331 95.908 132.658 95.9708 133.098H95.9727Z" fill="#040000"/>
<path d="M100.101 132.39C99.9672 131.919 99.9848 131.515 100.154 131.179C100.236 131.015 100.353 130.87 100.496 130.755C100.64 130.64 100.807 130.558 100.986 130.514C101.227 130.444 101.482 130.444 101.723 130.514C101.961 130.583 102.174 130.721 102.335 130.91C102.512 131.119 102.641 131.364 102.711 131.629C102.791 131.896 102.808 132.177 102.761 132.45C102.72 132.696 102.604 132.923 102.431 133.101C102.261 133.274 102.048 133.398 101.815 133.462C101.574 133.534 101.318 133.534 101.077 133.463C100.836 133.392 100.621 133.251 100.459 133.06C100.291 132.866 100.169 132.637 100.101 132.39V132.39ZM100.478 132.296C100.574 132.639 100.739 132.884 100.972 133.032C101.083 133.102 101.208 133.147 101.337 133.166C101.467 133.185 101.599 133.176 101.726 133.14C101.852 133.105 101.969 133.044 102.07 132.96C102.172 132.877 102.254 132.773 102.313 132.656C102.432 132.405 102.44 132.097 102.337 131.733C102.284 131.524 102.188 131.329 102.055 131.159C101.941 131.013 101.786 130.905 101.61 130.849C101.439 130.794 101.255 130.792 101.082 130.842C100.958 130.875 100.843 130.932 100.742 131.011C100.642 131.09 100.558 131.189 100.497 131.302C100.362 131.534 100.355 131.864 100.476 132.292L100.478 132.296Z" fill="#040000"/>
<path d="M105.138 132.32L103.975 129.599L104.876 129.217C105.03 129.146 105.192 129.093 105.358 129.058C105.515 129.029 105.677 129.04 105.829 129.09C106.024 129.156 106.199 129.271 106.337 129.423C106.496 129.601 106.624 129.805 106.713 130.027C106.796 130.211 106.851 130.406 106.878 130.606C106.9 130.762 106.897 130.921 106.869 131.077C106.846 131.2 106.801 131.317 106.736 131.424C106.668 131.529 106.582 131.62 106.482 131.693C106.358 131.785 106.224 131.86 106.081 131.918L105.138 132.32ZM105.347 131.849L105.905 131.611C106.045 131.558 106.174 131.483 106.29 131.389C106.366 131.324 106.426 131.241 106.465 131.148C106.512 131.012 106.527 130.866 106.509 130.723C106.486 130.532 106.434 130.345 106.355 130.17C106.233 129.887 106.095 129.686 105.939 129.571C105.809 129.465 105.648 129.406 105.481 129.402C105.317 129.42 105.158 129.465 105.01 129.537L104.46 129.771L105.347 131.849Z" fill="#040000"/>
</svg>
