<svg width="190" height="190" viewBox="0 0 190 190" fill="none" xmlns="http://www.w3.org/2000/svg">
<path d="M81.4925 118.253C79.568 124.749 68.6929 121.91 68.6929 121.91V131.823C71.8221 133.268 73.5066 133.507 79.3761 133.025C85.2455 132.593 94.2442 127.683 94.3401 118.253C92.4156 118.349 90.3472 118.445 88.1803 118.445C85.8239 118.445 83.6115 118.349 81.4925 118.253Z" fill="#BA2027"/>
<path d="M127.635 75.9116C123.69 71.9641 116.472 68.3071 101.748 67.4888V77.932C109.881 78.6038 114.452 80.5283 116.76 82.8392C119.033 85.1123 120.369 87.7464 120.369 92.8961C120.369 98.0458 119.071 100.834 116.856 103.097C114.548 105.405 109.977 107.282 101.796 107.86C99.9197 108.004 97.8993 108.1 95.5883 108.1C93.232 108.1 91.1635 108.004 89.239 107.812C81.1067 107.09 76.4874 105.069 74.323 102.857C72.204 100.738 70.7139 98.0432 70.7139 92.8481C70.7139 87.653 72.012 84.9077 74.227 82.6473C76.5 80.3743 81.1067 78.5079 89.239 77.8841V67.4888C75.0427 68.355 67.3928 71.9161 63.3998 75.9116C59.2604 80.0485 57 85.1956 57 92.8961C57 100.597 59.2604 105.648 63.3998 109.833C67.2968 113.73 74.7068 117.387 88.8526 118.253C90.9211 118.397 93.1461 118.445 95.5429 118.445C97.7553 118.445 99.7758 118.397 101.7 118.253C116.184 117.435 123.642 113.826 127.587 109.881C131.724 105.744 133.987 100.594 133.987 92.8961C133.987 85.1476 131.772 80.0485 127.635 75.9116" fill="black"/>
<path d="M81.8311 57V107.764C83.7555 107.956 85.824 108.052 88.1829 108.052C90.4913 108.052 92.5117 107.956 94.3882 107.812V57H81.8311Z" fill="#BA2027"/>
</svg>
