<svg xmlns="http://www.w3.org/2000/svg" xmlns:xlink="http://www.w3.org/1999/xlink" viewBox="0 0 739.57 140.02"><defs><style>.cls-1{fill:#fff;}.cls-2{fill:url(#亮光);}.cls-3{fill:url(#亮光-2);}</style><linearGradient id="亮光" x1="200.8" y1="12.86" x2="200.8" y2="57.22" gradientUnits="userSpaceOnUse"><stop offset="0" stop-color="#ffe08c"/><stop offset="1" stop-color="#79ddab"/></linearGradient><linearGradient id="亮光-2" x1="523.84" y1="10.89" x2="523.84" y2="57.22" xlink:href="#亮光"/></defs><title>H4CA</title><g id="圖層_3" data-name="圖層 3"><path class="cls-1" d="M17.15,10.89V28.26H35.47V10.89h10V56.14h-10V36.62H17.15V56.14H7.2V10.89Z"/><path class="cls-1" d="M58.08,34.54a10.34,10.34,0,0,1,1.58-5.26,10.66,10.66,0,0,1,3.55-3.36,15.37,15.37,0,0,1,4.85-1.81,27.45,27.45,0,0,1,5.42-.54,37,37,0,0,1,5,.35,15.4,15.4,0,0,1,4.63,1.36,9.16,9.16,0,0,1,3.42,2.82,7.88,7.88,0,0,1,1.33,4.79v17a33.88,33.88,0,0,0,.26,4.24,7.71,7.71,0,0,0,.88,3H79.88a11.39,11.39,0,0,1-.41-1.55,14.51,14.51,0,0,1-.23-1.61,11.71,11.71,0,0,1-5.07,3.1,20.33,20.33,0,0,1-6,.89,16.16,16.16,0,0,1-4.38-.57A9.84,9.84,0,0,1,60.3,55.7a8.14,8.14,0,0,1-2.38-3,10.26,10.26,0,0,1-.86-4.37,9.53,9.53,0,0,1,1-4.6,8.14,8.14,0,0,1,2.53-2.88,11.41,11.41,0,0,1,3.55-1.62,39.91,39.91,0,0,1,4-.85c1.36-.21,2.69-.38,4-.51a24.78,24.78,0,0,0,3.48-.57A5.93,5.93,0,0,0,78,36.15,2.4,2.4,0,0,0,78.86,34a4.73,4.73,0,0,0-.47-2.31,3.56,3.56,0,0,0-1.27-1.34,5.2,5.2,0,0,0-1.84-.63A15.66,15.66,0,0,0,73,29.59a6.85,6.85,0,0,0-4.18,1.14,5.08,5.08,0,0,0-1.77,3.81Zm20.78,6.65a4,4,0,0,1-1.42.79,14.93,14.93,0,0,1-1.84.48c-.65.12-1.34.23-2.06.31s-1.44.19-2.15.32a16.74,16.74,0,0,0-2,.51,6,6,0,0,0-1.71.85,4,4,0,0,0-1.17,1.37,4.31,4.31,0,0,0-.45,2.09,4.2,4.2,0,0,0,.45,2,3.34,3.34,0,0,0,1.2,1.3,5.33,5.33,0,0,0,1.77.66,11.16,11.16,0,0,0,2.1.19,7.9,7.9,0,0,0,4.12-.89,6,6,0,0,0,2.15-2.12,7,7,0,0,0,.86-2.5,18.21,18.21,0,0,0,.15-2Z"/><path class="cls-1" d="M116.83,30.35a6.3,6.3,0,0,0-3.62,1,7.76,7.76,0,0,0-2.37,2.53,10.78,10.78,0,0,0-1.3,3.42,18.18,18.18,0,0,0-.38,3.71,17.31,17.31,0,0,0,.38,3.61,11,11,0,0,0,1.23,3.33,7,7,0,0,0,2.32,2.44,6.37,6.37,0,0,0,3.55.95,6.57,6.57,0,0,0,5-1.81,8.57,8.57,0,0,0,2.19-4.84h8.68q-.89,6.52-5.07,10a16.37,16.37,0,0,1-10.71,3.42A17.82,17.82,0,0,1,110,56.81a14.92,14.92,0,0,1-5.23-3.45,15.63,15.63,0,0,1-3.36-5.29,18.41,18.41,0,0,1-1.2-6.75,21.83,21.83,0,0,1,1.11-7.07,15.86,15.86,0,0,1,3.26-5.64,15.07,15.07,0,0,1,5.26-3.71,18,18,0,0,1,7.1-1.33,20.87,20.87,0,0,1,5.61.76,14.91,14.91,0,0,1,4.81,2.32,11.92,11.92,0,0,1,5,9.34h-8.81Q122.6,30.35,116.83,30.35Z"/><path class="cls-1" d="M153.71,12V36.25l11.34-11.79H175.7l-12.36,12L177.1,57.22H166.19l-9-14.64-3.49,3.36V57.22h-9V12Z"/><path class="cls-2" d="M184.19,47V38.72l19.27-25.86h8V39.54h5.89V47h-5.89V57.22H203V47Zm18.57-22.82-11.47,15.4H203V24.14Z"/><path class="cls-1" d="M258.15,24.05a10,10,0,0,0-2.22-2.51,10.52,10.52,0,0,0-3-1.68,10.36,10.36,0,0,0-3.51-.6,11.7,11.7,0,0,0-5.71,1.3,10.8,10.8,0,0,0-3.8,3.49,15.12,15.12,0,0,0-2.12,5,24.43,24.43,0,0,0-.67,5.77,22.65,22.65,0,0,0,.67,5.54,14.85,14.85,0,0,0,2.12,4.85,10.91,10.91,0,0,0,3.8,3.46,11.7,11.7,0,0,0,5.71,1.3,9.21,9.21,0,0,0,7.13-2.79,12.9,12.9,0,0,0,3.13-7.35h9.64a23,23,0,0,1-2,7.66,18.45,18.45,0,0,1-4.18,5.84A17.72,17.72,0,0,1,257.07,57a22.14,22.14,0,0,1-7.66,1.27,23.11,23.11,0,0,1-9.35-1.81,20,20,0,0,1-7-5A22.1,22.1,0,0,1,228.68,44a27.44,27.44,0,0,1-1.52-9.22,28.35,28.35,0,0,1,1.52-9.41,22.6,22.6,0,0,1,4.38-7.58,20.07,20.07,0,0,1,7-5.07A24.38,24.38,0,0,1,256.47,12a19.19,19.19,0,0,1,6,3.14,17,17,0,0,1,4.34,5.1,18.39,18.39,0,0,1,2.16,7h-9.64A8.13,8.13,0,0,0,258.15,24.05Z"/><path class="cls-1" d="M290.73,12V57.22h-9V12Z"/><path class="cls-1" d="M304.42,19.39V12h9v7.42Zm9,5.07V57.22h-9V24.46Z"/><path class="cls-1" d="M335.6,24.46V28.9h.12A12.79,12.79,0,0,1,340,25a11.59,11.59,0,0,1,5.74-1.4,13.07,13.07,0,0,1,5.67,1.21,8,8,0,0,1,3.9,4.24,14,14,0,0,1,4-3.8,10.51,10.51,0,0,1,5.92-1.65,17.23,17.23,0,0,1,4.82.64,9.65,9.65,0,0,1,3.8,2,9.26,9.26,0,0,1,2.47,3.65,14.79,14.79,0,0,1,.89,5.42V57.22h-9V38.66c0-1.1,0-2.14-.13-3.11a6.56,6.56,0,0,0-.69-2.54,4.31,4.31,0,0,0-1.68-1.71,6.12,6.12,0,0,0-3-.63,5.76,5.76,0,0,0-3.08.73,5.21,5.21,0,0,0-1.83,1.9,7.53,7.53,0,0,0-.89,2.66,20.13,20.13,0,0,0-.22,3V57.22h-9V38.85c0-1,0-1.94-.07-2.89a8.2,8.2,0,0,0-.53-2.63,4,4,0,0,0-1.59-1.93,5.94,5.94,0,0,0-3.26-.73,6.33,6.33,0,0,0-1.68.29,5.47,5.47,0,0,0-2,1.07,6.22,6.22,0,0,0-1.68,2.28,9.39,9.39,0,0,0-.7,3.9v19h-9V24.46Z"/><path class="cls-1" d="M390.23,34.54a10.34,10.34,0,0,1,1.58-5.26,10.66,10.66,0,0,1,3.55-3.36,15.28,15.28,0,0,1,4.85-1.81,27.45,27.45,0,0,1,5.42-.54,37.1,37.1,0,0,1,5,.35,15.49,15.49,0,0,1,4.63,1.36,9.24,9.24,0,0,1,3.42,2.82A7.88,7.88,0,0,1,420,32.89v17a33.88,33.88,0,0,0,.26,4.24,7.55,7.55,0,0,0,.88,3H412a13.08,13.08,0,0,1-.42-1.55,14.49,14.49,0,0,1-.22-1.61,11.71,11.71,0,0,1-5.07,3.1,20.39,20.39,0,0,1-6,.89,16.09,16.09,0,0,1-4.37-.57,10,10,0,0,1-3.55-1.78,8.21,8.21,0,0,1-2.37-3,10.26,10.26,0,0,1-.86-4.37,9.65,9.65,0,0,1,1-4.6,8.27,8.27,0,0,1,2.54-2.88,11.31,11.31,0,0,1,3.55-1.62,39.91,39.91,0,0,1,4-.85q2-.31,4-.51a24.94,24.94,0,0,0,3.49-.57,6,6,0,0,0,2.41-1.11A2.43,2.43,0,0,0,411,34a4.85,4.85,0,0,0-.47-2.31,3.56,3.56,0,0,0-1.27-1.34,5.2,5.2,0,0,0-1.84-.63,15.88,15.88,0,0,0-2.25-.16A6.83,6.83,0,0,0,401,30.73a5.08,5.08,0,0,0-1.78,3.81ZM411,41.19a4,4,0,0,1-1.42.79,15.41,15.41,0,0,1-1.84.48c-.66.12-1.34.23-2.06.31s-1.44.19-2.16.32a17.07,17.07,0,0,0-2,.51,6,6,0,0,0-1.71.85,4.12,4.12,0,0,0-1.18,1.37,4.44,4.44,0,0,0-.44,2.09,4.32,4.32,0,0,0,.44,2,3.44,3.44,0,0,0,1.21,1.3,5.25,5.25,0,0,0,1.77.66,11.05,11.05,0,0,0,2.09.19,7.85,7.85,0,0,0,4.12-.89A6,6,0,0,0,410,49.08a6.75,6.75,0,0,0,.85-2.5,16.41,16.41,0,0,0,.16-2Z"/><path class="cls-1" d="M451.32,24.46v6h-6.59V46.7a4.42,4.42,0,0,0,.76,3,4.42,4.42,0,0,0,3,.76,13.74,13.74,0,0,0,1.46-.07,10.92,10.92,0,0,0,1.33-.19v7a20.31,20.31,0,0,1-2.54.26c-.93,0-1.84.06-2.72.06a26.18,26.18,0,0,1-4-.28,9.32,9.32,0,0,1-3.3-1.11,5.86,5.86,0,0,1-2.25-2.35,8.34,8.34,0,0,1-.82-4V30.48h-5.45v-6h5.45V14.64h9v9.82Z"/><path class="cls-1" d="M471.6,49.37a9.24,9.24,0,0,0,10.52.6,5.67,5.67,0,0,0,2.41-2.89h7.92q-1.9,5.89-5.83,8.43a17.17,17.17,0,0,1-9.51,2.54,18.57,18.57,0,0,1-7-1.24,14.47,14.47,0,0,1-5.26-3.51,15.82,15.82,0,0,1-3.33-5.46,20,20,0,0,1-1.17-7,19.14,19.14,0,0,1,1.2-6.84,15.93,15.93,0,0,1,8.72-9.13,17.09,17.09,0,0,1,6.81-1.33,15.55,15.55,0,0,1,7.29,1.62,14.52,14.52,0,0,1,5.1,4.34,17.88,17.88,0,0,1,2.88,6.21A22.85,22.85,0,0,1,493,43H469.38C469.51,45.94,470.25,48.06,471.6,49.37Zm10.17-17.24a6.34,6.34,0,0,0-4.91-1.78,7.89,7.89,0,0,0-3.58.73A6.85,6.85,0,0,0,471,32.89a6.63,6.63,0,0,0-1.21,2.28,10.3,10.3,0,0,0-.41,2.15H484A10.32,10.32,0,0,0,481.77,32.13Z"/><path class="cls-3" d="M529.16,10.89l17.33,46.33H535.91l-3.5-10.31H515.08l-3.63,10.31H501.19l17.53-46.33Zm.59,28.42-5.84-17h-.13l-6,17Z"/><path class="cls-1" d="M572.05,29.71a6.44,6.44,0,0,0-3.69,1,8,8,0,0,0-2.44,2.59,11.4,11.4,0,0,0-1.33,3.51,18.9,18.9,0,0,0-.39,3.79,18.18,18.18,0,0,0,.39,3.7,11.3,11.3,0,0,0,1.27,3.41,7.18,7.18,0,0,0,2.37,2.5,6.47,6.47,0,0,0,3.63,1A6.75,6.75,0,0,0,577,49.34a8.73,8.73,0,0,0,2.24-5h8.89q-.9,6.67-5.19,10.18a16.72,16.72,0,0,1-11,3.51A18.29,18.29,0,0,1,565,56.8a15.37,15.37,0,0,1-5.35-3.53,16.14,16.14,0,0,1-3.44-5.42A18.83,18.83,0,0,1,555,40.94a22.56,22.56,0,0,1,1.13-7.24,16.14,16.14,0,0,1,3.35-5.77,15.19,15.19,0,0,1,5.38-3.8,18.27,18.27,0,0,1,7.27-1.36,21,21,0,0,1,5.74.78,15.52,15.52,0,0,1,4.93,2.36,12.81,12.81,0,0,1,3.54,4,12.61,12.61,0,0,1,1.56,5.62h-9Q578,29.72,572.05,29.71Z"/><path class="cls-1" d="M618.19,23.68v6.16h-6.75V46.45q0,2.34.78,3.12t3.12.78a14.45,14.45,0,0,0,1.49-.07c.47,0,.93-.11,1.36-.19v7.13a21.15,21.15,0,0,1-2.6.26c-1,.05-1.88.07-2.79.07a27.47,27.47,0,0,1-4-.29,9.65,9.65,0,0,1-3.37-1.14,5.94,5.94,0,0,1-2.31-2.4,8.61,8.61,0,0,1-.84-4.09V29.84h-5.58V23.68h5.58V13.62h9.21V23.68Z"/><path class="cls-1" d="M629.35,18.49v-7.6h9.21v7.6Zm9.21,5.19V57.22h-9.21V23.68Z"/><path class="cls-1" d="M652.52,33.18a15.33,15.33,0,0,1,9-9.15,19.24,19.24,0,0,1,7.14-1.26A19.48,19.48,0,0,1,675.78,24a15.32,15.32,0,0,1,9,9.15,20.67,20.67,0,0,1,1.23,7.3,20.34,20.34,0,0,1-1.23,7.27,15.88,15.88,0,0,1-3.51,5.55,15.43,15.43,0,0,1-5.48,3.54,19.9,19.9,0,0,1-7.17,1.23,19.66,19.66,0,0,1-7.14-1.23A15.48,15.48,0,0,1,656,53.3a15.86,15.86,0,0,1-3.5-5.55,20.12,20.12,0,0,1-1.24-7.27A20.44,20.44,0,0,1,652.52,33.18Zm8.37,11.23a10.41,10.41,0,0,0,1.33,3.44,7,7,0,0,0,2.5,2.43,7.54,7.54,0,0,0,3.89.91,7.8,7.8,0,0,0,3.93-.91,7.1,7.1,0,0,0,2.53-2.43,10.63,10.63,0,0,0,1.33-3.44,19.69,19.69,0,0,0,.39-3.93,20.14,20.14,0,0,0-.39-4,10.23,10.23,0,0,0-1.33-3.43,7.49,7.49,0,0,0-2.53-2.44,7.7,7.7,0,0,0-3.93-.94,7.08,7.08,0,0,0-6.39,3.38,10,10,0,0,0-1.33,3.43,20.14,20.14,0,0,0-.39,4A19.69,19.69,0,0,0,660.89,44.41Z"/><path class="cls-1" d="M707.22,23.68v4.67h.19A10.55,10.55,0,0,1,712,24.1a13,13,0,0,1,5.71-1.33,15.65,15.65,0,0,1,6.06,1,8.92,8.92,0,0,1,3.73,2.79,10.82,10.82,0,0,1,1.92,4.35,26.9,26.9,0,0,1,.55,5.68V57.22h-9.21V38.28a11.81,11.81,0,0,0-1.3-6.2c-.87-1.36-2.4-2-4.61-2q-3.76,0-5.45,2.23c-1.13,1.5-1.69,3.95-1.69,7.37V57.22h-9.21V23.68Z"/></g></svg>