<svg width="36" height="48" viewBox="0 0 36 48" fill="none" xmlns="http://www.w3.org/2000/svg">
<path d="M16.9968 37.672C26.7408 37.672 33.3648 30.664 33.3648 18.952C33.3648 7.288 26.7408 0.615999 16.9968 0.615999C7.25281 0.615999 0.628813 7.24 0.628813 18.952C0.628813 30.664 7.25281 37.672 16.9968 37.672ZM16.9968 30.664C12.2928 30.664 9.41281 26.392 9.41281 18.952C9.41281 12.04 12.2928 7.96 16.9968 7.96C21.7008 7.96 24.6288 12.04 24.6288 18.952C24.6288 26.392 21.7008 30.664 16.9968 30.664ZM28.9008 47.08C31.7328 47.08 34.0368 46.6 35.4288 45.88L33.8928 39.64C32.7888 40.024 31.3968 40.312 29.8608 40.312C26.5968 40.312 22.8528 39.112 21.5568 35.8L12.8688 36.712C15.3648 42.712 20.8848 47.08 28.9008 47.08Z" fill="url(#paint0_linear_725_173)"/>
<defs>
<linearGradient id="paint0_linear_725_173" x1="17" y1="4" x2="17" y2="28" gradientUnits="userSpaceOnUse">
<stop stop-color="#FFE08C"/>
<stop offset="1" stop-color="#79DDAB"/>
</linearGradient>
</defs>
</svg>
