<svg width="190" height="190" viewBox="0 0 190 190" fill="none" xmlns="http://www.w3.org/2000/svg">
<path d="M53.7249 87.3258L53.9276 91.7175H53.4128C53.3115 90.9442 53.1764 90.3917 53.0075 90.06C52.7271 89.5261 52.3545 89.1326 51.8898 88.8794C51.425 88.6263 50.8133 88.4997 50.0546 88.4997H47.4706V102.809C47.4706 103.96 47.5924 104.678 47.8359 104.963C48.1788 105.35 48.707 105.543 49.4208 105.543H50.0571V106.055H42.2666V105.543H42.9147C43.6916 105.543 44.2423 105.304 44.5669 104.825C44.7648 104.531 44.8641 103.86 44.8648 102.81V88.5002H42.6613C41.803 88.5002 41.1935 88.5646 40.8328 88.6934C40.3633 88.8687 39.9615 89.2047 39.6274 89.7014C39.2933 90.1981 39.0947 90.8698 39.0316 91.7164H38.5148L38.7316 87.3248L53.7249 87.3258Z" fill="#231815"/>
<path d="M69.5147 106.055H65.5627L60.5467 98.9932C60.1751 99.008 59.873 99.0154 59.6403 99.0154C59.5457 99.0154 59.4444 99.0137 59.3363 99.0102C59.2268 99.0056 59.1138 99.0004 58.9978 98.9932V103.382C58.9978 104.332 59.0992 104.923 59.3018 105.152C59.5785 105.479 59.9936 105.643 60.5472 105.642H61.1263V106.055H54.7788V105.642H55.3361C55.9624 105.642 56.4101 105.434 56.6793 105.019C56.8323 104.788 56.9088 104.243 56.9088 103.382V93.6245C56.9088 92.6738 56.8075 92.0833 56.6048 91.8528C56.3204 91.5263 55.8982 91.363 55.3382 91.363H54.7808V90.9497H60.1768C61.7495 90.9497 62.9093 91.0668 63.6561 91.301C64.3998 91.5329 65.0605 91.982 65.5566 92.5927C66.0768 93.2206 66.3371 93.9688 66.3374 94.8371C66.3374 95.7671 66.0407 96.5729 65.4472 97.2546C64.8537 97.9362 63.9343 98.4185 62.6889 98.7013L65.7476 103.034C66.4465 104.029 67.0472 104.69 67.5498 105.016C68.0525 105.343 68.7074 105.552 69.5147 105.642V106.055ZM58.9953 98.29C59.1331 98.29 59.2532 98.29 59.3555 98.2962C59.4579 98.3024 59.5415 98.3014 59.6089 98.3014C61.0214 98.3014 62.0865 97.9895 62.8039 97.3657C63.5213 96.7419 63.8792 95.9478 63.8775 94.9833C63.8775 94.0406 63.588 93.274 63.0091 92.6836C62.4301 92.0933 61.6637 91.7979 60.7098 91.7976C60.288 91.7976 59.7164 91.868 58.9953 92.0089V98.29Z" fill="#231815"/>
<path d="M73.8127 91.7753V97.7454H77.068C77.9124 97.7454 78.4767 97.6154 78.7608 97.3553C79.1394 97.014 79.3507 96.4128 79.3946 95.5517H79.7999V100.808H79.3946C79.2933 100.073 79.1919 99.6015 79.0906 99.3941C78.9594 99.1358 78.7446 98.9291 78.4461 98.7808C78.1477 98.6325 77.6861 98.5581 77.07 98.5581H73.8147V103.538C73.8147 104.206 73.8439 104.613 73.9023 104.758C73.9623 104.904 74.0695 105.026 74.2063 105.102C74.3519 105.188 74.6287 105.231 75.0368 105.23H77.5488C78.3858 105.23 78.9938 105.171 79.3728 105.052C79.7518 104.933 80.1159 104.699 80.4652 104.35C80.9165 103.892 81.3787 103.198 81.8519 102.268H82.2887L81.0109 106.055H69.5967V105.642H70.1226C70.4696 105.643 70.8112 105.555 71.1162 105.386C71.2263 105.334 71.3251 105.26 71.4068 105.168C71.4885 105.076 71.5514 104.969 71.5919 104.852C71.6754 104.614 71.7172 104.127 71.7176 103.392V93.5801C71.7176 92.6222 71.623 92.0316 71.4339 91.8084C71.1714 91.5118 70.7345 91.3634 70.1231 91.363H69.5987V90.9497H81.0109L81.1745 94.2564H80.7489C80.5959 93.4621 80.427 92.9165 80.2423 92.6196C80.0575 92.3227 79.7825 92.096 79.4174 91.9396C79.1262 91.828 78.613 91.7724 77.8776 91.7728L73.8127 91.7753Z" fill="#231815"/>
<path d="M82.3288 90.9533H86.3482L95.4054 102.279V93.5682C95.4054 92.6406 95.304 92.0614 95.1014 91.8306C94.8311 91.5206 94.4052 91.3656 93.8235 91.3656H93.3098V90.9523H98.4651V91.3656H97.9387C97.3118 91.3656 96.8676 91.5587 96.6061 91.9448C96.446 92.1825 96.366 92.7244 96.366 93.5707V106.298H95.9733L86.2063 94.137V103.437C86.2063 104.367 86.3046 104.946 86.5012 105.175C86.7778 105.485 87.2038 105.64 87.779 105.642H88.3034V106.055H83.1481V105.642H83.6613C84.2947 105.642 84.7424 105.449 85.0045 105.063C85.1646 104.826 85.2448 104.284 85.2452 103.437V92.9337C84.8152 92.4212 84.4892 92.0833 84.2673 91.92C84.0454 91.7567 83.7196 91.6045 83.2899 91.4633C83.0782 91.3964 82.7573 91.363 82.3273 91.363L82.3288 90.9533Z" fill="#231815"/>
<path d="M98.9808 106.055V105.642H99.5382C100.164 105.642 100.608 105.438 100.871 105.029C101.031 104.784 101.111 104.235 101.111 103.381V93.6245C101.111 92.6817 101.01 92.0912 100.807 91.8528C100.524 91.5263 100.101 91.363 99.5407 91.363H98.9834V90.9497H105.013C107.226 90.9497 108.91 91.206 110.065 91.7185C111.22 92.231 112.149 93.0849 112.852 94.2801C113.554 95.4761 113.906 96.8573 113.906 98.4238C113.906 100.525 113.279 102.282 112.027 103.694C110.622 105.269 108.481 106.056 105.604 106.055L98.9808 106.055ZM103.208 104.963C104.132 105.17 104.907 105.273 105.534 105.273C107.223 105.273 108.625 104.668 109.739 103.457C110.854 102.246 111.411 100.605 111.411 98.5339C111.411 96.4479 110.854 94.8034 109.739 93.6002C108.625 92.3971 107.194 91.7955 105.446 91.7955C104.791 91.7955 104.045 91.9031 103.208 92.1184V104.963Z" fill="#231815"/>
<path d="M120.25 88.3482V95.7097H123.594C124.361 95.7097 124.923 95.5375 125.28 95.193C125.638 94.8486 125.874 94.1648 125.99 93.1418H126.491V99.4782H125.99C125.981 98.7515 125.889 98.2176 125.713 97.8766C125.551 97.5515 125.296 97.2843 124.981 97.1104C124.669 96.9381 124.206 96.8529 123.593 96.8546H120.249V102.74C120.249 103.688 120.307 104.314 120.425 104.619C120.515 104.848 120.705 105.046 120.994 105.212C121.375 105.429 121.804 105.543 122.24 105.543H122.903V106.055H115.021V105.543H115.672C116.431 105.543 116.981 105.318 117.324 104.867C117.541 104.572 117.649 103.863 117.649 102.74V90.6432C117.649 89.6953 117.591 89.0693 117.474 88.7652C117.383 88.5354 117.197 88.3374 116.916 88.171C116.536 87.9522 116.107 87.8381 115.67 87.8398H115.02V87.3283H128.686L128.862 91.4446H128.389C128.153 90.5697 127.88 89.9275 127.57 89.5179C127.273 89.1195 126.875 88.8113 126.419 88.6267C125.963 88.4428 125.256 88.3508 124.299 88.3508L120.25 88.3482Z" fill="#231815"/>
<path d="M137.961 90.6056C139.883 90.6056 141.549 91.3503 142.957 92.8397C144.366 94.329 145.071 96.1871 145.071 98.414C145.071 100.709 144.362 102.613 142.943 104.127C141.525 105.641 139.806 106.399 137.787 106.401C135.748 106.401 134.035 105.662 132.648 104.185C131.261 102.707 130.567 100.794 130.568 98.445C130.568 96.047 131.369 94.0903 132.971 92.5751C134.361 91.2621 136.024 90.6056 137.961 90.6056ZM137.753 91.4188C136.427 91.4188 135.364 91.92 134.564 92.9223C133.565 94.1699 133.067 95.9967 133.067 98.4026C133.067 100.868 133.584 102.765 134.618 104.094C135.412 105.104 136.46 105.609 137.764 105.609C139.154 105.609 140.303 105.056 141.209 103.949C142.116 102.842 142.57 101.097 142.57 98.7142C142.57 96.1308 142.071 94.204 141.073 92.9337C140.272 91.9234 139.166 91.4183 137.753 91.4183V91.4188Z" fill="#231815"/>
<path d="M160.872 106.055H156.92L151.904 98.9932C151.533 99.008 151.231 99.0154 150.998 99.0154C150.903 99.0154 150.802 99.0154 150.694 99.0102C150.587 99.0051 150.471 99.0004 150.355 98.9932V103.382C150.355 104.332 150.457 104.923 150.659 105.152C150.936 105.479 151.351 105.643 151.904 105.642H152.484V106.055H146.137V105.642H146.695C147.32 105.642 147.768 105.434 148.038 105.019C148.19 104.788 148.267 104.243 148.267 103.382V93.6245C148.267 92.6738 148.166 92.0833 147.963 91.8528C147.679 91.5263 147.257 91.363 146.697 91.363H146.139V90.9497H151.535C153.108 90.9497 154.268 91.0668 155.015 91.301C155.758 91.5328 156.419 91.9819 156.915 92.5927C157.435 93.2206 157.695 93.9688 157.695 94.8371C157.695 95.7671 157.399 96.5729 156.806 97.2546C156.213 97.9362 155.293 98.4185 154.047 98.7013L157.106 103.034C157.804 104.029 158.405 104.69 158.908 105.016C159.412 105.343 160.067 105.551 160.874 105.64L160.872 106.055ZM150.353 98.29C150.491 98.29 150.612 98.29 150.714 98.2962C150.816 98.3024 150.899 98.3014 150.967 98.3014C152.38 98.3014 153.445 97.9895 154.163 97.3657C154.88 96.7419 155.238 95.9478 155.236 94.9833C155.236 94.0406 154.947 93.274 154.368 92.6836C153.789 92.0933 153.022 91.7979 152.068 91.7976C151.646 91.7976 151.074 91.868 150.353 92.0089V98.29Z" fill="#231815"/>
<path d="M173.965 90.6056L174.303 95.7407H173.965C173.513 94.2038 172.868 93.0973 172.031 92.4212C171.194 91.745 170.189 91.4071 169.016 91.4075C168.033 91.4075 167.145 91.6618 166.351 92.1706C165.558 92.6793 164.933 93.4907 164.477 94.6046C164.022 95.7185 163.795 97.1032 163.794 98.7586C163.794 100.126 164.009 101.31 164.439 102.312C164.869 103.314 165.515 104.083 166.377 104.618C167.241 105.153 168.227 105.42 169.334 105.42C170.295 105.42 171.143 105.21 171.878 104.791C172.613 104.371 173.422 103.538 174.303 102.291L174.642 102.513C173.899 103.857 173.032 104.84 172.042 105.464C171.052 106.089 169.876 106.401 168.514 106.402C166.06 106.402 164.16 105.474 162.812 103.617C161.807 102.236 161.305 100.609 161.305 98.7384C161.305 97.2318 161.636 95.8472 162.299 94.5844C162.962 93.3217 163.874 92.3431 165.035 91.6487C166.188 90.9571 167.504 90.5973 168.842 90.6077C169.912 90.6077 170.968 90.8749 172.009 91.4095C172.313 91.5733 172.533 91.6544 172.664 91.6544C172.759 91.6554 172.854 91.6372 172.942 91.601C173.03 91.5647 173.11 91.5111 173.178 91.4431C173.367 91.2426 173.502 90.9642 173.583 90.6077L173.965 90.6056Z" fill="#231815"/>
<path d="M179.913 91.7753V97.7454H183.168C184.012 97.7454 184.577 97.6154 184.861 97.3553C185.239 97.0143 185.451 96.4129 185.495 95.5511H185.9V100.808H185.495C185.393 100.073 185.292 99.6015 185.191 99.3941C185.06 99.1358 184.845 98.9291 184.546 98.7808C184.247 98.6325 183.788 98.5581 183.17 98.5581H179.915V103.538C179.915 104.206 179.944 104.613 180.002 104.758C180.062 104.904 180.17 105.026 180.306 105.102C180.452 105.188 180.729 105.231 181.136 105.23H183.649C184.486 105.23 185.094 105.171 185.473 105.052C185.852 104.933 186.215 104.699 186.564 104.35C187.015 103.89 187.478 103.196 187.951 102.268H188.388L187.112 106.055H175.696V105.642H176.219C176.566 105.643 176.908 105.555 177.213 105.386C177.323 105.334 177.422 105.259 177.504 105.168C177.585 105.076 177.648 104.968 177.688 104.852C177.772 104.614 177.814 104.127 177.814 103.392V93.5801C177.814 92.6222 177.719 92.0316 177.53 91.8084C177.268 91.5118 176.831 91.3634 176.219 91.363H175.695V90.9497H187.112L187.276 94.2564H186.85C186.697 93.4621 186.528 92.9165 186.343 92.6196C186.159 92.3225 185.883 92.0957 185.52 91.9396C185.228 91.828 184.714 91.7724 183.979 91.7728L179.913 91.7753Z" fill="#231815"/>
<path d="M14.5814 96.4641H28.576L27.1178 100.667H13.1733V100.591L9.98132 109.967H29.7363C30.7116 109.967 31.501 108.927 31.501 107.645V90.9719H16.4575L14.5814 96.4641Z" fill="#74AF21"/>
<path d="M29.7357 81.0333H19.8L17.8534 86.7683H31.5005V83.3521C31.5005 82.0703 30.7111 81.0333 29.7357 81.0333Z" fill="#74AF21"/>
<path d="M19.8 81.0333H3.37593C2.40059 81.0333 1.61121 82.0703 1.61121 83.3521V86.7683H17.8534L19.8 81.0333Z" fill="black"/>
<path d="M1.61121 90.9719V107.644C1.61121 108.926 2.40059 109.966 3.37593 109.966H5.36257L12.0612 90.9719H1.61121Z" fill="black"/>
<path d="M31.5005 90.9719V86.7693H1.61121V90.9719H12.0612L5.36256 109.966H9.98083L13.1723 100.59V100.666H27.1178L28.5755 96.4636H14.5814L16.4576 90.9719H31.5005Z" fill="white"/>
</svg>
