<svg width="190" height="190" viewBox="0 0 190 190" fill="none" xmlns="http://www.w3.org/2000/svg">
<path d="M20.8358 107.212V93.5851H18.0508L20.0865 88.6516L20.0741 88.6578L25.8279 74.4211H19.7225V71.6554H42.105V74.4211H32.332L28.0981 85.3259H41.0352V107.212H20.8358ZM27.1676 104.575H34.6607V88.0916H27.1676V104.575ZM6.56346 107.212L5.29834 104.447H8.72172V94.5868L5.38357 96.2951V93.2397L8.72172 91.4951V79.7468H5.34184V77.065H8.72172V71.1873H14.9266V77.065H18.1396V79.7441H14.9266V88.2153L18.1786 86.5113V89.641L14.9266 91.3317V107.212H6.56346Z" fill="#595757"/>
<path d="M73.5075 107.213L69.0107 102.787L64.9339 107.213H57.8786L65.3255 99.21H57.1426V96.9522H66.002V93.3729H58.6829V91.1187H66.002V87.5385H57.614V85.2851H61.5931L59.5814 80.4701H57.4844V78.131H62.2785V71.1032H67.3692V78.131H70.8378V71.1032H75.9285V78.131H81.0654V80.4701H78.9542L77.0702 85.2851H80.7218V87.5385H71.9485V91.1187H79.5667V93.3729H71.9485V96.9522H81.1071V99.21H72.3844L69.4697 102.28H75.6906L80.6232 107.213H73.5075ZM67.1606 85.2851H71.6564L73.6096 80.4701H65.0866L67.1606 85.2851ZM78.3611 75.2717H57.4276L56.759 72.0837H59.2857L59.9249 75.2717H78.3611Z" fill="#595757"/>
<path d="M43.6932 103.98L46.9462 103.172V81.7474H43.6932V79.1946H46.9462V71.0617H53.1066V79.1946H55.9742V81.7474H53.1066V101.601L56.316 100.792V103.344L43.6932 106.604V103.98Z" fill="#595757"/>
<path d="M63.6759 116.933L61.705 112.684H60.3901H60.28L60.3901 112.793L63.0198 118.242V121.511H64.3329V118.35L67.0717 112.684H65.6477L63.6759 116.933Z" fill="#595757"/>
<path d="M77.9154 121.511H82.6243V120.312H79.2285V117.697H82.6243V116.498H79.2285V113.882H82.6243V112.684H77.9154V121.511Z" fill="#595757"/>
<path d="M49.1088 113.773C48.6703 113.337 48.2326 113.01 47.6884 112.793C47.1314 112.57 46.5354 112.458 45.9349 112.465C45.3872 112.465 44.7302 112.575 44.2925 112.793C43.4425 113.133 42.7157 113.721 42.2075 114.479C41.6992 115.238 41.4332 116.131 41.4444 117.043C41.4444 117.696 41.4444 118.241 41.6646 118.786C41.8848 119.331 42.2115 119.767 42.5391 120.2C42.9777 120.744 43.5254 121.071 44.0741 121.398C45.2765 121.833 46.5943 121.833 47.7967 121.398C48.3445 121.071 48.8931 120.744 49.3317 120.2C49.7694 119.763 49.9878 119.327 50.2062 118.786C50.6466 117.665 50.6466 116.42 50.2062 115.299C49.982 114.703 49.6035 114.177 49.1088 113.773V113.773ZM48.2361 119.438C47.6893 120.092 46.9225 120.419 45.9358 120.419C45.4981 120.419 45.0596 120.419 44.7311 120.202C44.3239 120.011 43.9525 119.753 43.6329 119.438C43.3044 119.111 43.0851 118.785 42.975 118.348C42.8409 117.925 42.7674 117.485 42.7566 117.041C42.7667 116.633 42.8404 116.228 42.975 115.842C43.1952 115.407 43.4136 114.97 43.743 114.644C43.9614 114.425 44.3999 114.208 44.7275 113.99C45.1661 113.88 45.4946 113.772 45.9323 113.772C46.37 113.772 46.8094 113.88 47.2471 113.99C47.5756 114.208 48.0142 114.425 48.3418 114.861C48.562 115.189 48.7804 115.515 48.9988 115.842C49.1089 116.278 49.2189 116.605 49.2189 117.041C49.2189 118.025 48.8905 118.786 48.2361 119.438Z" fill="#595757"/>
<path d="M76.7106 115.516C76.7106 114.645 76.4904 113.882 75.8343 113.446C75.3958 113.01 74.6287 112.684 73.7524 112.684H70.7952V121.511H72.1091V117.478L73.7524 119.767L75.0673 121.511H76.7106L74.191 118.132C74.9572 118.132 75.5059 117.805 76.0554 117.37C76.4957 116.853 76.729 116.193 76.7106 115.516V115.516ZM74.8462 116.825C74.5253 117.046 74.142 117.161 73.7516 117.151C73.5332 117.26 73.2038 117.26 72.7652 117.26H72.1082V113.882H73.7516C74.3002 113.992 74.6278 114.1 74.8462 114.21C75.0555 114.357 75.2251 114.553 75.34 114.781C75.4549 115.009 75.5115 115.262 75.505 115.516C75.5059 116.061 75.2857 116.606 74.8471 116.825H74.8462Z" fill="#595757"/>
<path d="M38.266 112.684H37.0613V121.511H41.2233V120.312H38.266V112.684Z" fill="#595757"/>
<path d="M5.29834 113.882H6.94167V121.511H8.25562V113.882H9.89806V112.684H5.29834V113.882Z" fill="#595757"/>
<path d="M18.1128 113.774C17.6742 113.337 17.2366 113.01 16.6923 112.793C16.1357 112.569 15.54 112.458 14.9398 112.465C14.3929 112.465 13.7351 112.575 13.2974 112.793C12.7253 113.014 12.2038 113.348 11.7641 113.774C10.9143 114.651 10.4425 115.823 10.4493 117.042C10.4493 117.696 10.4493 118.241 10.6686 118.786C10.8879 119.331 11.2164 119.766 11.5448 120.199C11.9834 120.743 12.5303 121.07 13.0781 121.398C13.6737 121.621 14.306 121.731 14.9425 121.724C15.5789 121.731 16.2112 121.621 16.8069 121.398C17.3537 121.07 17.9015 120.743 18.3401 120.199C18.7778 119.763 18.9971 119.326 19.2164 118.786C19.6543 117.664 19.6543 116.42 19.2164 115.298C18.9899 114.702 18.6092 114.176 18.1128 113.774V113.774ZM17.2366 119.438C16.6885 120.092 15.9217 120.419 14.9363 120.419C14.4986 120.419 14.06 120.419 13.7315 120.202C13.325 120.011 12.9542 119.753 12.6351 119.438C12.3057 119.111 12.0873 118.785 11.9781 118.348C11.8428 117.925 11.769 117.485 11.7588 117.041C11.7683 116.632 11.8423 116.228 11.9781 115.842C12.1965 115.407 12.4158 114.97 12.7443 114.644C12.9636 114.425 13.4012 114.208 13.7297 113.99C14.1683 113.88 14.4968 113.772 14.9345 113.772C15.3722 113.772 15.8107 113.88 16.2493 113.99C16.5778 114.208 17.0164 114.425 17.344 114.861L18.0018 115.842C18.111 116.278 18.2202 116.605 18.2202 117.041C18.222 118.025 17.8935 118.786 17.2366 119.438Z" fill="#595757"/>
<path d="M34.5417 113.774C34.1227 113.375 33.6434 113.044 33.1212 112.793C32.5614 112.579 31.9673 112.468 31.3678 112.465C30.7678 112.458 30.1724 112.57 29.6161 112.793C29.0683 113.01 28.6298 113.337 28.1956 113.774C27.7615 114.21 27.3194 114.754 27.1001 115.299C26.6621 116.421 26.6621 117.665 27.1001 118.786C27.3194 119.331 27.5387 119.767 27.9763 120.2C28.414 120.744 28.8526 121.071 29.5096 121.398C30.0574 121.617 30.6051 121.724 31.374 121.724C32.0096 121.723 32.6402 121.612 33.2384 121.398C33.8002 121.068 34.3157 120.665 34.7716 120.2C35.1001 119.763 35.4286 119.327 35.6479 118.786C35.8671 118.246 35.8663 117.696 35.8663 117.043C35.874 116.446 35.7627 115.853 35.5387 115.299C35.3124 114.729 34.9734 114.21 34.5417 113.774ZM33.6654 119.438C33.0084 120.092 32.2417 120.419 31.3651 120.419C30.9274 120.419 30.4897 120.419 30.0511 120.202C29.7227 119.983 29.285 119.765 29.0657 119.438C28.7493 119.121 28.4902 118.753 28.2995 118.348C28.1642 117.925 28.0904 117.485 28.0802 117.041C28.0714 116.618 28.1852 116.202 28.4078 115.842C28.5161 115.392 28.7432 114.978 29.0657 114.644C29.4157 114.402 29.7814 114.184 30.1603 113.99C30.9372 113.699 31.7939 113.699 32.5707 113.99C33.0084 114.208 33.3369 114.425 33.6654 114.861C33.9578 115.133 34.1829 115.469 34.3233 115.842C34.5417 116.278 34.5417 116.605 34.5417 117.041C34.5544 117.92 34.2426 118.773 33.6654 119.438V119.438Z" fill="#595757"/>
<path d="M24.9037 113.01C24.6844 112.902 24.466 112.793 24.1367 112.793C23.9183 112.684 23.699 112.684 23.3705 112.684H20.7417V121.511H21.9465V118.025H23.042C23.1014 118.032 23.1617 118.026 23.2186 118.008C23.2754 117.989 23.3273 117.958 23.3705 117.916C24.137 117.916 24.7939 117.698 25.3414 117.262C25.8892 116.717 26.1085 116.063 26.1085 115.301C26.1085 114.756 25.999 114.32 25.78 113.994C25.5607 113.555 25.3414 113.229 24.9037 113.01ZM24.3542 116.389C24.1346 116.606 23.8061 116.715 23.3687 116.715C23.2595 116.825 23.1494 116.825 22.9301 116.825H21.9447V113.882H23.3652C23.8031 113.882 24.1316 113.992 24.3506 114.21C24.6791 114.427 24.7883 114.863 24.7883 115.299C24.7981 115.844 24.6844 116.17 24.3542 116.389Z" fill="#595757"/>
<path d="M54.9142 118.35H58.967C58.6386 119.005 58.2009 119.549 57.6522 119.876C57.1044 120.312 56.5575 120.421 55.7878 120.421C55.4584 120.421 55.0216 120.421 54.5831 120.203C54.2537 119.985 53.8151 119.767 53.5967 119.44C53.2804 119.123 53.0212 118.754 52.8305 118.35C52.6949 117.927 52.6208 117.487 52.6104 117.043C52.6019 116.62 52.7169 116.203 52.9415 115.844C53.0484 115.393 53.275 114.979 53.5976 114.645L54.5839 113.992C55.0225 113.882 55.4593 113.774 55.7887 113.774C56.2819 113.766 56.7695 113.878 57.2092 114.1C57.6478 114.21 57.9762 114.536 58.3047 114.863H59.8389C59.5095 114.1 58.9626 113.555 58.3047 113.119C57.6469 112.683 56.8843 112.465 55.8952 112.465C55.2953 112.458 54.6999 112.569 54.1436 112.793C53.5949 113.01 53.1572 113.337 52.7187 113.774C52.2801 114.21 51.8424 114.754 51.624 115.299C51.186 116.421 51.186 117.665 51.624 118.786C51.7341 119.331 52.0617 119.767 52.5003 120.2C52.9388 120.744 53.3765 121.071 54.0335 121.398C54.5902 121.621 55.1859 121.732 55.786 121.724C57.1 121.724 58.1949 121.289 59.0709 120.417C59.7443 119.641 60.1981 118.701 60.3857 117.693V117.039H54.9142V118.35Z" fill="#595757"/>
<path d="M125.45 116.389H121.836V112.684H120.521V121.511H121.836V117.697H125.45V121.511H126.763V112.684H125.45V116.389Z" fill="#595757"/>
<path d="M112.964 114.645C113.314 114.403 113.68 114.185 114.059 113.992C114.446 113.857 114.853 113.783 115.264 113.774C115.755 113.778 116.24 113.889 116.684 114.1C117.013 114.318 117.45 114.536 117.67 114.972H119.204C118.882 114.22 118.35 113.577 117.67 113.117C116.941 112.687 116.109 112.461 115.261 112.464C114.661 112.456 114.065 112.568 113.508 112.791C112.961 113.009 112.523 113.335 112.088 113.772C111.653 114.208 111.211 114.752 110.991 115.297C110.553 116.419 110.553 117.663 110.991 118.785C111.211 119.329 111.429 119.765 111.868 120.198C112.306 120.742 112.744 121.069 113.402 121.397C113.949 121.615 114.497 121.723 115.266 121.723C116.142 121.723 116.909 121.505 117.566 121.069C118.333 120.742 118.88 120.088 119.209 119.325H117.566C117.319 119.696 116.98 119.997 116.581 120.198C116.142 120.307 115.705 120.415 115.266 120.415C114.828 120.415 114.39 120.415 113.951 120.198C113.623 119.98 113.185 119.762 112.967 119.435C112.637 119.108 112.418 118.781 112.309 118.345C112.091 118.018 111.98 117.473 111.98 117.037C111.972 116.615 112.086 116.199 112.309 115.839C112.416 115.39 112.643 114.978 112.964 114.645V114.645Z" fill="#595757"/>
<path d="M109.896 115.516C109.896 114.645 109.568 113.882 109.02 113.446C108.471 113.01 107.815 112.684 106.94 112.684H103.982V121.511H105.297V117.478L106.94 119.767L108.252 121.511H109.894L107.266 118.132C107.965 118.133 108.635 117.859 109.131 117.37C109.568 116.825 109.896 116.28 109.896 115.516ZM107.925 116.825C107.707 117.043 107.376 117.151 106.94 117.151C106.61 117.26 106.282 117.26 105.954 117.26H105.297V113.882H106.94C107.376 113.992 107.707 114.1 108.035 114.21C108.21 114.38 108.349 114.583 108.443 114.808C108.537 115.032 108.584 115.273 108.582 115.516C108.582 116.061 108.364 116.606 107.925 116.825Z" fill="#595757"/>
<path d="M99.2733 112.684H98.7246L95.2205 121.511H96.5326L97.6291 119.005H101.023L102.01 121.511H103.431L99.9258 112.684H99.2733ZM99.2733 117.697H98.0685L99.2733 114.315H99.3816L100.586 117.694L99.2733 117.697Z" fill="#595757"/>
<path d="M90.1813 121.511H94.7819V120.312H91.4961V117.697H94.7819V116.498H91.4961V113.882H94.7819V112.684H90.1813V121.511Z" fill="#595757"/>
<path d="M87.2249 116.389C87.0056 116.389 86.7872 116.28 86.5671 116.171C86.0202 116.061 85.5825 115.844 85.4724 115.735C85.3623 115.625 85.2522 115.516 85.2522 115.299C85.2522 115.19 85.1439 115.081 85.1439 114.972C85.1439 114.536 85.2522 114.318 85.4724 113.992C85.6409 113.814 85.8599 113.692 86.1 113.642C86.3401 113.591 86.59 113.615 86.8162 113.71C87.0424 113.805 87.2342 113.966 87.3659 114.172C87.4976 114.378 87.5631 114.619 87.5534 114.863H88.7582C88.7582 114.1 88.538 113.555 88.1003 113.119C87.8857 112.904 87.6292 112.736 87.3466 112.623C87.064 112.511 86.7612 112.457 86.457 112.465C85.6908 112.465 85.1439 112.684 84.5926 113.229C84.154 113.664 83.9356 114.318 83.9356 115.084C83.9356 115.302 84.0439 115.519 84.0439 115.737L84.3742 116.392C84.7015 116.827 85.249 117.154 86.0166 117.372C86.1249 117.372 86.1249 117.481 86.235 117.481C86.7837 117.59 87.2214 117.808 87.4398 118.026C87.6582 118.244 87.7683 118.571 87.7683 119.007C87.7683 119.444 87.5499 119.77 87.3297 120.096C87.1095 120.423 86.6736 120.532 86.235 120.532C85.9065 120.532 85.5789 120.423 85.2487 120.096C85.0303 119.77 84.9202 119.443 84.8119 119.007H83.719C83.719 119.77 83.9392 120.532 84.3777 120.968C84.9237 121.513 85.4724 121.731 86.2421 121.731C87.1184 121.731 87.7754 121.513 88.2139 120.968C88.7617 120.423 88.9801 119.77 88.9801 118.898C88.9801 118.244 88.87 117.808 88.5415 117.372C88.2043 116.928 87.748 116.587 87.2249 116.389V116.389Z" fill="#595757"/>
<path d="M178.022 113.882V112.684H173.422V121.511H178.022V120.312H174.737V117.697H178.022V116.498H174.737V113.882H178.022Z" fill="#595757"/>
<path d="M132.897 112.684H131.582V121.511H132.897V112.684Z" fill="#595757"/>
<path d="M167.836 113.882H169.589V121.511H170.903V113.882H172.546V112.684H167.836V113.882Z" fill="#595757"/>
<path d="M140.126 119.44L135.745 112.684H134.43V121.511H135.745L135.635 114.645L140.126 121.511H141.33V112.684H140.126V119.44Z" fill="#595757"/>
<path d="M155.898 113.882H157.651V121.511H158.856V113.882H160.607V112.684H155.898V113.882Z" fill="#595757"/>
<path d="M155.022 112.684H153.707V121.511H155.022V112.684Z" fill="#595757"/>
<path d="M165.755 118.35C165.755 119.113 165.647 119.658 165.426 119.985C165.206 120.313 164.769 120.421 164.222 120.421C163.674 120.421 163.237 120.312 163.017 119.985C162.797 119.658 162.688 119.113 162.688 118.35V112.684H161.374V118.35C161.374 119.005 161.374 119.44 161.484 119.764C161.484 120.09 161.704 120.309 161.812 120.526C162.141 120.962 162.47 121.289 162.798 121.399C163.237 121.617 163.675 121.725 164.332 121.725C164.769 121.725 165.318 121.617 165.647 121.399C166.084 121.289 166.413 120.962 166.631 120.526C166.76 120.242 166.87 119.951 166.961 119.654C167.07 119.327 167.07 118.892 167.07 118.347V112.684H165.755V118.35Z" fill="#595757"/>
<path d="M148.231 113.882H149.874V121.511H151.189V113.882H152.832V112.684H148.231V113.882Z" fill="#595757"/>
<path d="M145.932 116.389C145.822 116.389 145.603 116.28 145.383 116.171C144.958 116.101 144.55 115.953 144.179 115.735C144.068 115.626 144.068 115.516 144.068 115.299C144.027 115.256 143.996 115.204 143.977 115.148C143.959 115.091 143.953 115.031 143.96 114.972C143.96 114.536 144.068 114.318 144.289 113.992C144.457 113.814 144.676 113.692 144.916 113.642C145.156 113.591 145.406 113.615 145.632 113.71C145.859 113.805 146.05 113.966 146.182 114.172C146.314 114.378 146.379 114.619 146.37 114.863H147.574C147.464 114.1 147.245 113.555 146.808 113.119C146.478 112.684 145.932 112.465 145.165 112.465C144.507 112.465 143.85 112.684 143.412 113.229C142.974 113.664 142.755 114.318 142.755 115.084C142.755 115.302 142.755 115.519 142.864 115.737C142.972 115.955 143.084 116.174 143.193 116.392C143.522 116.827 144.069 117.154 144.835 117.372C144.849 117.372 144.864 117.374 144.877 117.38C144.89 117.385 144.903 117.393 144.913 117.403C144.923 117.413 144.931 117.425 144.937 117.439C144.942 117.452 144.945 117.466 144.945 117.481C145.603 117.59 146.04 117.808 146.26 118.026C146.408 118.332 146.483 118.668 146.478 119.007C146.487 119.396 146.372 119.777 146.149 120.096C145.822 120.423 145.493 120.532 145.055 120.532C144.616 120.532 144.289 120.423 144.068 120.096C143.74 119.77 143.631 119.443 143.631 119.007H142.426C142.535 119.77 142.755 120.532 143.193 120.968C143.631 121.513 144.289 121.731 145.057 121.731C145.826 121.731 146.478 121.513 147.029 120.968C147.467 120.423 147.795 119.77 147.795 118.898C147.795 118.244 147.577 117.808 147.248 117.372C147.028 116.934 146.589 116.606 145.932 116.389Z" fill="#595757"/>
<path d="M154.981 101.872L139.841 93.2704C147.614 93.4153 156.62 91.8977 159.53 89.9456C162.363 87.921 163.817 85.4635 163.817 82.4275C163.817 78.5965 162.072 75.7045 158.658 73.6825C155.17 71.6579 150.158 70.6456 143.546 70.6456H78.67V75.5605L95.4851 75.4881V107.149H103.331V75.4881L117.492 75.5578V107.005H125.919V75.5578H141.658C146.671 75.5578 150.303 76.064 152.629 77.2203C154.95 78.3077 156.043 80.0416 156.043 82.4266C156.043 84.8116 154.735 86.6189 152.048 87.8485C149.357 89.0057 136.381 89.5816 130.86 89.5816H126.573L152.265 107.222H165.415V101.872H154.981Z" fill="#898989"/>
<path d="M178.275 98.2586L175.078 101.8V79.5364H167.158V107.222H178.419L186.702 98.3302L178.275 98.2586Z" fill="#898989"/>
<path d="M175.079 69.272H167.158V77.2237H175.079V69.272Z" fill="#E60012"/>
</svg>
