<svg width="60" height="35" viewBox="0 0 60 35" fill="none" xmlns="http://www.w3.org/2000/svg">
<path d="M16.962 0C12.4598 0.0105864 8.1455 1.80653 4.96564 4.99387C1.78579 8.1812 0 12.4997 0 17.002C0 21.5042 1.78579 25.8227 4.96564 29.01C8.1455 32.1974 12.4598 33.9933 16.962 34.0039C21.4643 33.9933 25.7785 32.1974 28.9584 29.01C32.1383 25.8227 33.924 21.5042 33.924 17.002C33.924 12.4997 32.1383 8.1812 28.9584 4.99387C25.7785 1.80653 21.4643 0.0105864 16.962 0V0ZM43.462 1C41.2107 1.01027 39.0535 2.70072 37.4635 5.70055C35.8735 8.70038 34.9806 12.7647 34.9806 17.002C34.9806 21.2392 35.8735 25.3035 37.4635 28.3034C39.0535 31.3032 41.2107 32.9936 43.462 33.0039C45.7133 32.9936 47.8705 31.3032 49.4605 28.3034C51.0505 25.3035 51.9434 21.2392 51.9434 17.002C51.9434 12.7647 51.0505 8.70038 49.4605 5.70055C47.8705 2.70072 45.7133 1.01027 43.462 1V1ZM56.464 2C56.0036 1.99506 55.5475 2.37945 55.1219 3.13116C54.6962 3.88287 54.3094 4.98712 53.9834 6.38067C53.6575 7.77422 53.3989 9.42969 53.2225 11.2523C53.046 13.0748 52.9552 15.0287 52.9552 17.002C52.9552 18.9752 53.046 20.9291 53.2225 22.7516C53.3989 24.5742 53.6575 26.2297 53.9834 27.6232C54.3094 29.0168 54.6962 30.121 55.1219 30.8727C55.5475 31.6245 56.0036 32.0088 56.464 32.0039C56.9243 32.0088 57.3804 31.6245 57.8061 30.8727C58.2317 30.121 58.6186 29.0168 58.9445 27.6232C59.2704 26.2297 59.529 24.5742 59.7055 22.7516C59.8819 20.9291 59.9727 18.9752 59.9727 17.002C59.9727 15.0287 59.8819 13.0748 59.7055 11.2523C59.529 9.42969 59.2704 7.77422 58.9445 6.38067C58.6186 4.98712 58.2317 3.88287 57.8061 3.13116C57.3804 2.37945 56.9243 1.99506 56.464 2V2Z" fill="white"/>
</svg>
