<svg width="43" height="51" viewBox="0 0 43 51" fill="none" xmlns="http://www.w3.org/2000/svg">
<path d="M5.7018 0H8.7978L10.922 7.86683L12.8914 0H16.0175L12.4377 11.6982V19.682H9.3611V11.6982L5.7018 0V0ZM19.8789 5.04268C17.4731 5.04268 15.8778 6.61519 15.8778 8.94209V16.0588C15.8778 18.6173 17.2301 19.9497 19.8789 19.9497C22.0762 19.9497 23.8048 18.4983 23.8048 16.0588V8.94209C23.8048 6.67044 22.0913 5.04268 19.8789 5.04268ZM21.0206 15.9377C21.0206 16.7282 20.6121 17.3104 19.8768 17.3104C19.1221 17.3104 18.6856 16.7006 18.6856 15.9377V9.18222C18.6856 8.38746 19.0555 7.79883 19.823 7.79883C20.6615 7.79883 21.0206 8.37046 21.0206 9.18222V15.9377ZM31.1879 5.1638V16.1842C30.8547 16.5964 30.1129 17.2722 29.5819 17.2722C28.9992 17.2722 28.8552 16.8769 28.8552 16.2947V5.1638H26.1247V17.2977C26.1247 18.7321 26.5676 19.8902 28.0317 19.8902C28.8573 19.8902 30.0054 19.4652 31.1879 18.0776V19.6798H33.9184V5.1638H31.1879ZM35.9244 34.6124C34.9612 34.6124 34.7612 35.2817 34.7612 36.2338V37.6341H37.0596V36.2316C37.0617 35.2966 36.8618 34.6124 35.9244 34.6124ZM25.8129 34.6974C25.6323 34.7887 25.4538 34.929 25.2754 35.1181V43.7351C25.4883 43.9603 25.6925 44.1218 25.8925 44.2217C26.316 44.4342 26.9352 44.4491 27.2233 44.0793C27.3738 43.8838 27.4491 43.5672 27.4491 43.1252V35.9872C27.4491 35.5197 27.3566 35.167 27.1717 34.9247C26.8556 34.5146 26.2687 34.47 25.8129 34.6974ZM36.191 23.6579C30.5924 23.2817 12.399 23.2817 6.80905 23.6579C0.75895 24.0659 0.04515 27.6784 0 37.1879C0.04515 46.6804 0.7525 50.3099 6.80905 50.7179C12.399 51.094 30.5924 51.094 36.191 50.7179C42.2411 50.3099 42.9549 46.6952 43 37.1879C42.9549 27.6954 42.2475 24.0659 36.191 23.6579ZM9.69435 46.3659H6.7639V30.3432H3.7324V27.6232H12.7237V30.3432H9.6922V46.3659H9.69435ZM20.1133 46.3659H17.5118V44.8401C17.0323 45.4032 16.5335 45.8325 16.0154 46.1257C14.6136 46.9205 12.6893 46.9014 12.6893 44.0963V32.5405H15.2887V43.1401C15.2887 43.6968 15.4241 44.0708 15.9809 44.0708C16.4883 44.0708 17.1936 43.427 17.5096 43.0359V32.5405H20.1111V46.3659H20.1133ZM30.1258 43.5013C30.1258 45.212 29.4787 46.5422 27.7479 46.5422C26.7955 46.5422 26.0021 46.198 25.2776 45.3033V46.3659H22.6524V27.6232H25.2776V33.6582C25.8645 32.9506 26.6622 32.3662 27.591 32.3662C29.4959 32.3662 30.128 33.9579 30.128 35.8321V43.5013H30.1258ZM39.7385 39.7783H34.7634V42.3878C34.7634 43.4248 34.8537 44.3216 35.8986 44.3216C36.9972 44.3216 37.0617 43.5906 37.0617 42.3878V41.4273H39.7385V42.4664C39.7385 45.1291 38.5818 46.7441 35.8405 46.7441C33.3573 46.7441 32.0866 44.9548 32.0866 42.4664V36.2593C32.0866 33.8601 33.6905 32.192 36.0362 32.192C38.5323 32.192 39.7363 33.7602 39.7363 36.2593V39.7783H39.7385Z" fill="white"/>
</svg>
