<svg width="190" height="190" viewBox="0 0 190 190" fill="none" xmlns="http://www.w3.org/2000/svg">
<path d="M152.989 94.9944C152.989 127.035 127.025 153 95.0056 153C62.9522 152.989 37 127.035 37 94.9944C37 62.9646 62.9522 37 95.0056 37C127.025 37 152.989 62.9646 152.989 94.9944Z" fill="white"/>
<path d="M94.8823 44.7692V47.7849C88.3999 47.7849 82.1754 49.0854 76.5341 51.4958C70.904 53.9061 65.801 57.3815 61.5392 61.6417C57.2998 65.8907 53.8118 70.9917 51.4006 76.6308C49.0117 82.2587 47.6883 88.4472 47.6883 94.972C47.6883 101.452 49.0117 107.629 51.4006 113.257C53.8118 118.896 57.2998 123.986 61.5392 128.246C65.801 132.506 70.8928 135.982 76.5341 138.403C79.7753 139.771 83.1287 140.735 86.6615 141.374V144.435C82.7137 143.773 78.9229 142.641 75.3901 141.128C69.3899 138.616 64.0066 134.883 59.4419 130.343C54.8885 125.858 51.2323 120.443 48.6528 114.468C46.1406 108.448 44.6938 101.878 44.6938 94.972C44.6938 88.0099 46.1406 81.4291 48.6528 75.42C51.2323 69.4221 54.8885 64.0409 59.4419 59.5341C64.0066 54.9712 69.3899 51.2716 75.3901 48.7491C81.3903 46.2266 87.9849 44.7692 94.8823 44.7692ZM94.8823 38.7825V41.7871C87.5587 41.7871 80.5604 43.2893 74.1789 45.9912C67.831 48.6818 62.1336 52.572 57.3447 57.3815C52.4884 62.2247 48.5967 67.9311 45.8826 74.2765C43.1909 80.6443 41.6993 87.5951 41.6993 94.972C41.6993 102.293 43.1909 109.232 45.8826 115.6C48.5967 121.957 52.4884 127.652 57.3447 132.506C62.1336 137.305 67.831 141.217 74.1789 143.908C78.1379 145.59 82.2763 146.778 86.6615 147.428V150.489C81.8726 149.771 77.3079 148.437 73.0573 146.655C66.3394 143.818 60.2831 139.693 55.1913 134.603C50.0771 129.491 46.006 123.448 43.1349 116.71C40.3086 109.983 38.6936 102.629 38.6936 94.9495C38.6936 87.214 40.3198 79.8371 43.1349 73.1218C46.006 66.4064 50.0771 60.3525 55.1913 55.2515C60.2831 50.1617 66.3394 46.0248 73.0573 43.1997C79.7641 40.3521 87.1326 38.7825 94.8823 38.7825ZM94.8823 53.7828V50.7783C88.77 50.7783 82.9941 52.0227 77.7341 54.2649C72.4517 56.4735 67.6515 59.7134 63.6365 63.7382C59.6775 67.7405 56.4474 72.4939 54.1707 77.7631C51.9501 83.0547 50.694 88.8508 50.694 94.972C50.694 101.037 51.9501 106.844 54.1707 112.125C56.4474 117.394 59.6775 122.125 63.6365 126.161C67.6515 130.174 72.4517 133.414 77.7341 135.634C80.5604 136.823 83.5436 137.731 86.6615 138.314V135.275C83.9698 134.737 81.3118 133.885 78.8781 132.854C73.9546 130.78 69.5021 127.764 65.801 124.053C62.0775 120.275 59.0158 115.836 56.9185 110.925C54.8885 106.004 53.6773 100.6 53.6773 94.972C53.6773 89.2768 54.8885 83.8843 56.9185 78.9739C59.0158 74.0523 62.0775 69.6127 65.801 65.8346C69.5021 62.1238 73.9546 59.1192 78.8781 57.0228C83.7904 54.9263 89.185 53.7828 94.8823 53.7828ZM94.8823 41.7871V38.7825C102.61 38.7825 109.989 40.3521 116.707 43.2221C123.425 46.0472 129.482 50.1841 134.517 55.2739C139.609 60.3749 143.747 66.4288 146.563 73.1442C149.445 79.8596 151.015 87.2364 151.015 94.972C151.015 102.651 149.445 110.017 146.563 116.732C143.747 123.47 139.609 129.513 134.517 134.625C129.482 139.715 123.425 143.841 116.707 146.677C112.378 148.46 107.825 149.794 103.092 150.511V147.451C107.41 146.8 111.593 145.601 115.496 143.93C121.866 141.24 127.62 137.316 132.42 132.529C137.209 127.674 141.101 121.979 143.804 115.623C146.506 109.255 148.02 102.315 148.02 94.9944C148.02 87.6176 146.506 80.6667 143.804 74.2989C141.112 67.9423 137.209 62.2471 132.42 57.404C127.62 52.5945 121.866 48.7155 115.496 46.0136C109.137 43.2893 102.195 41.7871 94.8823 41.7871ZM94.8823 47.7849V44.7692C101.769 44.7692 108.363 46.2154 114.363 48.7491C120.352 51.2716 125.758 54.9712 130.323 59.5341C134.876 64.0521 138.532 69.4221 141.056 75.42C143.635 81.4291 145.004 87.9987 145.004 94.972C145.004 101.878 143.635 108.448 141.056 114.468C138.544 120.443 134.876 125.858 130.323 130.343C125.769 134.894 120.352 138.616 114.363 141.128C110.763 142.641 106.984 143.762 103.092 144.435V141.374C106.636 140.735 109.989 139.771 113.175 138.403C118.805 135.993 123.896 132.506 128.147 128.246C132.465 123.986 135.908 118.896 138.297 113.257C140.674 107.629 142.009 101.452 142.009 94.972C142.009 88.436 140.674 82.2587 138.297 76.6308C135.897 70.9917 132.465 65.8907 128.147 61.6417C123.896 57.3815 118.805 53.9061 113.175 51.4958C107.522 49.0854 101.354 47.7849 94.8823 47.7849ZM94.8823 53.7828C100.524 53.7828 105.974 54.9263 110.898 57.0228C115.81 59.1192 120.24 62.1126 123.964 65.8346C127.687 69.6127 130.682 74.0523 132.768 78.9739C134.876 83.8955 136.009 89.288 136.009 94.972C136.009 100.6 134.876 106.004 132.768 110.925C130.682 115.836 127.687 120.275 123.964 124.053C120.24 127.764 115.81 130.78 110.898 132.854C108.363 133.885 105.772 134.737 103.092 135.275V138.314C106.21 137.719 109.204 136.823 112.031 135.634C117.313 133.414 122.046 130.174 126.061 126.161C130.087 122.125 133.317 117.394 135.538 112.125C137.826 106.844 139.015 101.048 139.015 94.972C139.015 88.8508 137.826 83.0547 135.538 77.7631C133.317 72.4939 130.087 67.7405 126.061 63.7382C122.046 59.7246 117.313 56.4735 112.031 54.2649C106.759 52.0227 100.927 50.7783 94.8823 50.7783V53.7828V53.7828Z" fill="#0C63AA"/>
<path d="M86.6053 106.8C86.067 106.923 85.5287 107.091 84.9791 107.338V108.111C84.9791 110.152 85.5735 112.013 86.6053 113.571V106.8ZM86.6053 100.062V101.945C84.867 102.338 83.1174 102.954 81.4912 103.627C81.1435 103.784 80.8407 103.918 80.5491 104.019L81.2556 105.723C81.5584 105.521 81.8613 105.398 82.1641 105.286C83.6108 104.703 85.0913 104.154 86.6053 103.784V105.51C85.3268 105.891 84.0707 106.306 82.8146 106.844C81.9285 107.203 81.0874 107.618 80.235 108.1L78.0144 103.302C78.9004 102.831 79.8089 102.326 80.7734 102.001C82.6463 101.149 84.6202 100.533 86.6053 100.062ZM86.6053 113.56V106.788C86.7848 106.732 86.953 106.654 87.0764 106.654L88.2764 115.466C88.1643 115.353 87.9848 115.241 87.8614 115.14C87.3792 114.647 87.0203 114.098 86.6053 113.56ZM91.4616 118.179V134.625L89.8353 117.461C90.3737 117.764 90.8559 117.988 91.4616 118.179ZM91.4616 105.824V117.394C90.8672 117.158 90.3176 116.923 89.7793 116.564L88.826 106.25C89.6671 106.071 90.5643 105.891 91.4616 105.824ZM91.4616 102.898V104.569C89.7793 104.815 88.1643 105.118 86.6166 105.521V103.795C88.1643 103.369 89.7681 103.077 91.4616 102.898ZM91.4616 99.2882V101.093C89.7793 101.284 88.1643 101.508 86.6166 101.945V100.062C88.2316 99.7142 89.7681 99.4115 91.4616 99.2882ZM91.4616 134.625V134.849H93.0093L92.3027 118.414C92.0111 118.358 91.6971 118.302 91.4616 118.167V134.625ZM94.1645 116.385V134.849H94.086L93.6822 117.932C92.8859 117.82 92.1121 117.641 91.4616 117.394V105.824C91.5176 105.824 91.641 105.768 91.7644 105.768L92.1906 115.981C92.7738 116.138 93.4355 116.329 94.1645 116.385ZM94.1645 97.7859V107.338H93.3794L93.3121 104.456C92.6616 104.456 92.056 104.512 91.4504 104.569V102.898C92.056 102.853 92.6616 102.775 93.2448 102.775L93.1999 100.959C92.6055 100.959 91.9999 101.048 91.4616 101.093V99.2882C92.0111 99.2433 92.6055 99.1873 93.1439 99.1873V97.7859H94.1645V97.7859ZM93.3794 108.1L93.5476 115.062C93.7383 115.062 93.985 115.14 94.1645 115.14V108.1H93.3794V108.1ZM98.359 118.179C98.0562 118.246 97.7646 118.369 97.4505 118.425L96.744 134.861H98.2917L98.359 134.009V118.179ZM98.359 108.347V109.714C98.1683 109.681 97.944 109.681 97.7646 109.591L97.6973 111.284C97.944 111.284 98.1235 111.351 98.359 111.351V112.853C98.1235 112.786 97.8655 112.786 97.63 112.741L97.5066 115.981C97.8094 115.847 98.1235 115.723 98.359 115.611V117.36C97.63 117.652 96.8449 117.842 96.0711 117.943L95.5888 134.861H94.1645V116.385H94.8822C95.2972 116.385 95.7122 116.385 96.1384 116.329L96.3178 108.167C97.0468 108.212 97.6973 108.291 98.359 108.347ZM98.359 99.2882V101.093C97.7646 101.048 97.1589 100.959 96.5421 100.959L96.486 102.775C97.1029 102.775 97.7534 102.853 98.359 102.898V104.625C97.6973 104.512 97.1029 104.512 96.43 104.456L96.3739 107.338H94.1645V97.7859H96.6206L96.5533 99.1873C97.1589 99.1873 97.7646 99.2433 98.359 99.2882ZM94.1645 115.14C94.4 115.14 94.6467 115.185 94.8822 115.185V108.1H94.1645V115.14ZM98.359 133.997V118.179C98.8861 117.988 99.3796 117.764 99.8506 117.461L98.359 133.997ZM100.692 106.194V110.152C100.624 110.152 100.58 110.096 100.58 110.096L100.389 111.777C100.524 111.777 100.58 111.777 100.692 111.833V113.324C100.512 113.257 100.389 113.223 100.266 113.223L100.165 114.479C100.333 114.367 100.524 114.176 100.703 113.997V116.093C99.9852 116.632 99.2001 117.069 98.3702 117.349V115.6C98.4711 115.555 98.5384 115.555 98.6618 115.466L98.8412 112.887C98.6618 112.842 98.5496 112.842 98.3702 112.842V111.34C98.5384 111.385 98.7291 111.385 98.9646 111.463L99.0207 109.77C98.8412 109.77 98.6169 109.703 98.3702 109.703V108.335C98.6169 108.414 98.8973 108.414 99.1553 108.436L99.3235 105.914C99.7497 106.004 100.21 106.071 100.692 106.194ZM100.692 103.246V104.927C99.9067 104.804 99.1328 104.692 98.359 104.625V102.898C99.1441 103.01 99.9179 103.077 100.692 103.246ZM100.692 99.5909V101.385C99.9067 101.284 99.1328 101.138 98.359 101.093V99.2882C99.1441 99.3442 99.9179 99.4787 100.692 99.5909ZM100.692 104.927C102.856 105.342 104.875 106.004 106.871 106.844C107.769 107.203 108.655 107.618 109.507 108.1L111.716 103.302C110.83 102.831 109.866 102.326 108.957 102.001C106.322 100.835 103.552 100.051 100.681 99.5796V101.373C103.305 101.867 105.828 102.584 108.228 103.616C108.531 103.773 108.879 103.907 109.182 104.008L108.442 105.723C108.116 105.521 107.825 105.398 107.522 105.286C105.369 104.333 103.092 103.672 100.703 103.257V104.927H100.692ZM100.692 116.082V113.986C100.86 113.795 101.051 113.605 101.174 113.436C101.051 113.392 100.86 113.313 100.692 113.313V111.822C101.174 111.945 101.578 112.057 102.06 112.192C102.307 111.699 102.542 111.239 102.722 110.69C102.06 110.51 101.342 110.252 100.692 110.14V106.183C100.759 106.183 100.815 106.183 100.916 106.25L100.692 108.761C101.466 108.952 102.251 109.131 103.025 109.367C103.552 109.535 104.112 109.714 104.595 109.883C104.225 111.945 103.271 113.672 101.825 115.129C101.466 115.466 101.107 115.78 100.692 116.082Z" fill="#0C63AA"/>
<path d="M85.5847 95.1626C85.394 94.9271 85.2258 94.6693 85.0463 94.4339C84.6201 93.7836 84.3286 93.0661 84.0257 92.2813C83.8014 91.4854 83.6108 90.723 83.5547 89.8149C82.9042 90.1176 82.5902 91.0706 82.5902 92.102C82.6575 93.1222 82.9603 94.1984 83.4313 94.9159C84.0257 95.6895 84.5641 96.4182 85.3379 97.0124C85.4052 97.0684 85.4725 97.0684 85.5959 97.1245V95.1626H85.5847ZM85.5847 74.1756V88.2118C84.8108 87.5391 84.194 86.5974 83.9584 85.5548C82.579 86.2274 81.3901 87.3149 80.549 88.5705C79.7639 89.8934 79.2817 91.3957 79.2817 93.0661C79.2817 94.5011 79.6405 95.8913 80.3023 97.0684C80.964 98.212 81.9285 99.2434 83.05 100.006C82.0406 99.8936 81.02 99.647 80.1228 99.2882C79.0461 98.8061 78.0928 98.0774 77.2405 97.2478C76.4666 96.3621 75.8049 95.3419 75.3227 94.1984C74.8628 93.0661 74.6161 91.8553 74.6161 90.5549C74.6161 89.232 74.8628 87.9763 75.3227 86.8216C76.2311 84.6579 77.8461 83.5256 79.3489 82.3372C80.8518 81.1825 82.2201 79.9493 82.4107 77.6622C82.579 75.7788 82.1079 73.8057 80.6611 72.8527C81.9285 72.7406 84.1491 73.2003 85.5847 74.1756ZM85.5847 97.1245V95.1514C85.865 95.5662 86.1903 95.9922 86.6053 96.3621C87.1324 96.9451 87.7941 97.4944 88.5119 97.9765C87.2109 97.9093 86.3137 97.6178 85.5847 97.1245ZM89.1175 80.4538C89.0614 80.5434 89.0614 80.5995 88.9941 80.6444C88.4558 81.3058 87.7941 81.956 87.6146 82.8081C87.4352 83.391 87.3679 83.9852 87.4352 84.6018C87.4352 85.196 87.6146 85.8014 87.8614 86.3956C88.0857 84.7812 88.5119 83.8283 89.0614 83.1108C89.0614 83.0547 89.1175 83.0547 89.1175 83.0547V89.3441C87.8614 89.445 86.6053 89.0414 85.6407 88.2566L85.5847 88.2118V74.1756C85.6407 74.2429 85.7529 74.3326 85.865 74.411C87.2557 75.5658 87.738 77.0008 88.9941 76.7541H89.1175V80.4538V80.4538ZM104.168 95.1626C103.866 95.5774 103.518 96.0034 103.148 96.3733C102.61 96.9563 101.937 97.5057 101.23 97.9877C102.497 97.9093 103.451 97.6178 104.18 97.1357V95.1626H104.168ZM90.082 78.0658C90.082 79.0748 89.667 79.8035 89.1175 80.4538V76.7429C89.8353 76.4402 89.8913 75.1846 89.9586 73.503C90.0147 71.7092 90.0147 69.4222 90.7325 67.2697C91.2148 65.7786 91.8765 64.2763 92.7176 62.9646C93.5475 61.6978 94.5793 60.5655 95.8915 59.7919C95.0055 61.9444 94.9382 63.57 95.4654 64.9938C96.071 66.4961 97.2149 67.7069 98.6393 68.9625C99.6599 69.8594 100.512 70.8684 101.275 72.2585C101.993 73.6375 102.598 75.2855 103.081 77.5165C103.439 77.2811 103.854 77.0456 104.157 76.799V85.9135H103.372C103.372 87.3597 103.193 88.7275 102.845 90.0055C102.475 91.2724 101.925 92.3935 101.219 93.3464C100.58 94.3105 99.7833 95.0729 98.8748 95.6334C98.0449 96.1716 97.0916 96.4855 96.0598 96.4855C94.4335 96.4855 92.9419 95.7567 91.7419 94.4899C90.5531 93.1782 89.5885 91.4517 89.1063 89.3441V83.0547C89.5885 82.326 90.1942 81.7318 90.6652 80.7565C90.8446 80.4089 90.8446 79.9381 90.7101 79.456C90.6203 78.9739 90.3736 78.4358 90.082 78.0658ZM104.168 85.9135C106.008 86.1489 107.511 87.001 108.598 88.2005C109.799 89.5122 110.46 91.3172 110.46 93.0549C110.46 94.4899 110.09 95.8801 109.44 97.0572C108.778 98.2007 107.825 99.2322 106.681 99.9945C107.712 99.8824 108.655 99.6357 109.552 99.277C110.64 98.7949 111.66 98.0662 112.434 97.2366C113.275 96.3509 113.937 95.3307 114.419 94.1872C114.834 93.0549 115.137 91.8441 115.137 90.5436C115.137 89.2207 114.834 87.9651 114.419 86.8104C113.769 85.2633 112.501 84.187 111.301 83.2901C110.09 82.3708 109.013 81.6645 108.655 80.8237C108.475 80.3417 108.475 79.7475 108.598 79.1981C108.722 78.1891 109.013 77.1802 108.778 76.5748C107.948 74.411 107.286 72.0119 108.352 69.1307C106.86 69.7136 106.187 71.5186 105.907 73.7496C105.716 74.9604 105.122 76.0366 104.168 76.8102V85.9135V85.9135ZM104.168 97.1245V95.1514C104.337 94.9159 104.527 94.6581 104.639 94.4226C105.054 93.7724 105.413 93.0549 105.66 92.2701C105.963 91.4742 106.075 90.7118 106.131 89.8037C106.86 90.1064 107.152 91.0593 107.107 92.0908C107.107 93.111 106.793 94.1872 106.322 94.9047C105.716 95.6783 105.178 96.407 104.393 97.0012C104.337 97.0684 104.225 97.0684 104.168 97.1245Z" fill="#E6001F"/>
<path d="M92.886 141.632V143.112H90.5644V143.717H92.886V145.141H90.5644V145.769H92.886V147.26H90.5644V147.809H92.886V149.312H92.2915V150.511H90.2504V149.312H88.5681V141.441H90.5532V141.632H92.886ZM92.886 140.556L92.1794 141.228H92.886V140.556ZM92.886 137.372H88.5793V135.87H92.886V137.372ZM88.3438 139.468L92.886 137.988V139.524L88.8709 140.858L88.3438 139.468ZM92.886 135.87H93.0093V137.372H92.886V135.87ZM92.886 141.228H94.815L96.5534 139.636L98.3702 141.228H100.995L97.9553 138.403L98.4375 137.988H99.5591V139.3H101.185V136.475H95.6561V135.522H93.8056V137.988H95.7795L92.886 140.556V141.228V141.228ZM92.886 149.312V147.809H99.1329V147.26H92.886V145.769H99.1329V145.141H92.886V143.728H99.1329V143.123H92.886V141.643H101.174V149.312H99.4806V150.511H97.4506V149.312H92.886ZM92.886 137.988L93.0766 137.899L93.6149 139.289L92.886 139.513V137.988Z" fill="#E6001F"/>
</svg>
