<svg xmlns="http://www.w3.org/2000/svg" viewBox="0 0 480.23 89.29"><defs><style>.cls-1{fill:#fff;}.cls-2{fill:#fce6b6;}.cls-3{fill:#5cd696;}.cls-4{fill:#fce2a2;}</style></defs><title>主視覺 LOGO</title><g id="圖層_3" data-name="圖層 3"><path class="cls-1" d="M101.64,30.65a19.86,19.86,0,0,0-4.93-3.1l1.29-2a19.18,19.18,0,0,1,5,2.84Zm-4.24,11a89.54,89.54,0,0,0,4.93-8.89l1.78,1.78c-1.38,2.92-3.13,6.22-4.65,8.89ZM103.05,23a21.48,21.48,0,0,0-4.88-3.29l1.35-2a20.39,20.39,0,0,1,4.93,3.09Zm20.22,9.82h-2.15v4.33h-6.66v3.55c0,1.41-.28,2.1-1.2,2.47a13.48,13.48,0,0,1-4.56.4,10.24,10.24,0,0,0-.78-2.41c1.52.06,3,.06,3.48.06s.6-.14.6-.54V37.19h-6.34V35.06H112v-2.2h-7.86v-2.3H112V28.44h-6.17V26.31h1.49a12.48,12.48,0,0,0-1.58-3.47l1.87-.8a13.32,13.32,0,0,1,1.75,3.44l-1.84.83h13.6v4.25h2.15Zm-2-13.4a83.78,83.78,0,0,1-15.75,2.26,9.64,9.64,0,0,0-.63-2.06,81.46,81.46,0,0,0,14.55-2.12ZM112.71,26a14.56,14.56,0,0,0-1.4-3.9l2-.6a17,17,0,0,1,1.52,3.81Zm1.75,4.59h4.37V28.44h-4.37Zm4.37,2.3h-4.37v2.2h4.37Zm-2.18-7.64a24.5,24.5,0,0,0,2.23-4.36l2.47.72a48.47,48.47,0,0,1-2.52,4.3Z"/><path class="cls-1" d="M142.78,28.93c-.2.14-.37.28-.57.45a42.55,42.55,0,0,0,11.65,3.22,12.79,12.79,0,0,0-1.61,2.18,42.33,42.33,0,0,1-5.82-1.55v1H134.61V33.17c-1.78.66-3.53,1.23-5.19,1.69a15.89,15.89,0,0,0-2.07-1.8c4.65-1.07,9.7-2.84,12.77-5h-1V23.56h-8.49v3.36H128.3V21.78h10.87V20.46h-9.09v-2h20.85v2h-9.15v1.32h11v5.14H150.3V23.56h-8.52V28H141Zm-12.19-1c1.67-.29,3.93-.8,6.37-1.32a45.78,45.78,0,0,0-5.31-1.43l.75-1.38a38,38,0,0,1,5.51,1.35l-.66,1.4.74-.17.18,1.58c-2.41.66-4.8,1.35-6.8,1.89Zm16.9,7.32,1.72,1.09a21.17,21.17,0,0,1-5.57,4.7c.89.4,1.7.75,2.33,1.06L144.79,44c-2.24-1.12-6.62-3-9.87-4.22L136,38.11c1.47.54,3.24,1.2,5,1.86a23.84,23.84,0,0,0,4-2.58H130.91v-2h16.18Zm-2.7-2.64a28.79,28.79,0,0,1-4.39-2.1A40.59,40.59,0,0,1,136,32.6Zm-1.37-6.43.28.06-.72-1a48.74,48.74,0,0,0,5.43-1.5l1.09,1.44a31.78,31.78,0,0,1-5.11,1.26,53,53,0,0,1,6,1.72l-.66,1.64a67.5,67.5,0,0,0-7-2.13Z"/><path class="cls-1" d="M165.6,22.18h1.83V40.83H165.6V39.71h-7.15V22.21h1.87V37.39h1.58V17.79h2.2v19.6h1.5Zm16.52-1.83a16.16,16.16,0,0,1-4.07,6.08,19.67,19.67,0,0,0,6.13,2.29,10.39,10.39,0,0,0-1.6,2.24,18.46,18.46,0,0,1-6.48-3,23.33,23.33,0,0,1-7.29,3.36,9,9,0,0,0-1.32-2.07,20.56,20.56,0,0,0,6.71-2.81,15.14,15.14,0,0,1-2.12-2.5,20.59,20.59,0,0,1-2.38,2.1,14,14,0,0,0-2-1.61,15.73,15.73,0,0,0,5.91-7l2.5.6c-.26.58-.55,1.12-.84,1.69H180l.48-.08Zm-4.88,18.24h6.31v2.1h-6.31v3.1h-2.61v-3.1h-6.25v-2.1h6.25V36.87h-4.76v-2h4.76V33.31h-5v-2h5V29.67h2.61v1.67h5v2h-5v1.58h5v2h-5ZM173.6,22.24A12.65,12.65,0,0,0,176.1,25a14.44,14.44,0,0,0,2.61-3.13h-4.85Z"/><path class="cls-1" d="M203.09,18.14a5.08,5.08,0,0,1-.43.54c2.67,2.47,7.52,4.65,12,5.6a10.47,10.47,0,0,0-1.7,2c-.69-.2-1.43-.43-2.15-.68v7.43H191.42V25.83c-.72.26-1.41.48-2.12.69a10.16,10.16,0,0,0-1.44-2c5.19-1.32,10.27-3.82,12.88-7.17Zm7.61,7.46a28.81,28.81,0,0,1-4.59-2v.83h-9.93V23.7A30.12,30.12,0,0,1,192,25.6Zm-17.65,8.6h16.36v9.44h-2.73v-.77h-11v.89h-2.64ZM197,27.52a11.76,11.76,0,0,1,1.46,3.16l-1.89.63h3.38v-4h-6.22v4h2.75a12.62,12.62,0,0,0-1.35-3.22ZM195.69,36v1.58h11V36Zm11,5V39.45h-11v1.61Zm-2.27-18.5a20,20,0,0,1-3.15-2.41,22.37,22.37,0,0,1-3.13,2.41Zm4.05,4.79h-6.37v4h3.21l-1.77-.55A22.45,22.45,0,0,0,205,27.4l2.24.64c-.63,1.23-1.27,2.43-1.78,3.27h3Z"/><path class="cls-1" d="M218.68,41h25.53v2.1H218.68Zm9.92-9.55c-.14-.37-.31-.83-.54-1.32-6.71,1.32-7.6,1.52-8.18,1.84a5.08,5.08,0,0,0-.83-1.72,1.86,1.86,0,0,0,1.23-1.81V18.31h10.1v8h-7.77v3l4.59-.83c-.29-.49-.58-1-.86-1.38l1.8-.66a20.61,20.61,0,0,1,2.39,4.25Zm-6,.75h18.19v7.66H222.55ZM222.61,20v1.41h5.62V20Zm5.62,4.51V23h-5.62v1.55Zm-3.16,10.78h13V33.63h-13Zm0,3h13V36.67h-13ZM237.44,28c-1.06,1.86-2.81,3.18-5.74,4.13a6.45,6.45,0,0,0-1.29-1.84c3.36-1,4.93-2.46,5.71-4.79h-4.56c.28-1.37.6-3.44.83-5.16h-.86V18.4h12v1.89h-4.48c0,1.15-.14,2.21-.28,3.18h5.05v2h-5.4c-.05.23-.11.43-.17.64h1.21v2.75c0,.54.11.63.68.63h1.78c.55,0,.66-.23.72-2.12a5.11,5.11,0,0,0,1.78.71c-.2,2.56-.75,3.19-2.21,3.19h-2.35c-2,0-2.44-.55-2.44-2.38Zm-.89-4.48c.14-.94.23-2,.29-3.18h-2.33c-.14,1-.34,2.15-.51,3.18Z"/><path class="cls-1" d="M260.88,43.3a29.92,29.92,0,0,0-3.58-1.92,28.46,28.46,0,0,1-8,2.29,5.91,5.91,0,0,0-1-1.72,34,34,0,0,0,6.57-1.64c-1.41-.57-2.84-1.06-4.19-1.46A19.7,19.7,0,0,0,252,37.07l-3,.17-.2-1.89c1.26,0,2.81-.11,4.47-.17a23.45,23.45,0,0,0,1.18-2.07H250V28.27h5.25v-1h-4.48V24.19h-2v-2h2V19.34h4.48V17.45h2.07v1.89H262v2.87h2v2h-2v3.07H257.3v1h5.39v4.84h-5.85c-.35.66-.69,1.29-1.07,2l3.88-.2v-1.2h2.12v1.09l1.21-.06,0,1.75-1.35.09a6,6,0,0,1-2.3,3.55c1.27.61,2.41,1.21,3.3,1.7Zm-8.69-11.88h3V30h-3ZM253,21.09v1.27h2.27V21.09Zm2.27,4.39v-1.4H253v1.4Zm-.69,11.45c-.23.37-.46.69-.72,1,1.07.35,2.21.78,3.27,1.21a5.2,5.2,0,0,0,2.24-2.5Zm2.76-15.84v1.27h2.41V21.09Zm2.41,4.39v-1.4H257.3v1.4ZM257.3,30v1.43h3.06V30Zm15.51-4.82A38.18,38.18,0,0,1,270.32,36,13,13,0,0,0,275,41.6a7.4,7.4,0,0,0-1.55,1.87,14.74,14.74,0,0,1-4.36-5A16.45,16.45,0,0,1,264,44a8.46,8.46,0,0,0-1.38-2,14,14,0,0,0,5.34-6.06A36.18,36.18,0,0,1,266,29.15a20.58,20.58,0,0,1-1.35,2.7,12.64,12.64,0,0,0-1.75-1.66c1.92-3,2.95-7.75,3.53-12.57l2.26.29c-.23,1.66-.49,3.33-.83,4.91h6.88v2.35Zm-5.45,0a43.7,43.7,0,0,0,1.73,7.77,41.68,41.68,0,0,0,1.46-7.77Z"/><path class="cls-1" d="M288.14,18.34a45,45,0,0,1-2.78,5.94V43.73h-2.7V28.47a25.35,25.35,0,0,1-2.35,2.84,19.08,19.08,0,0,0-1.49-2.7,31.34,31.34,0,0,0,6.8-11Zm16.78,21.72v2.55H287.08V40.06H297a104.76,104.76,0,0,0,2.58-13.8l2.79.46c-.78,4.33-1.87,9.66-2.9,13.34Zm-1.06-15H288.22V22.47h15.64ZM291.84,39A112.18,112.18,0,0,0,290,27l2.38-.54a112,112,0,0,1,2.07,11.76Zm3.27-16.64a27.39,27.39,0,0,0-1.32-4.54l2.52-.63a37.6,37.6,0,0,1,1.44,4.42Z"/><path class="cls-1" d="M316,22.07a23.71,23.71,0,0,1-5,5.71,15.53,15.53,0,0,0-1.89-2.12,20,20,0,0,0,6.36-8.21l2.61.75c-.25.6-.54,1.17-.86,1.78h17.22v2.09ZM317.2,38a16.48,16.48,0,0,1-5.85,5.74,10,10,0,0,0-1.69-1.92,14.22,14.22,0,0,0,5.57-4.56Zm3-1.43v7.23h-2.49V36.53h-7.43v-2.1h7.43V29.79h2.49v4.64h2.9l-1.66-.66A24,24,0,0,0,323.83,30l2.35.77a34,34,0,0,1-2.95,3.64h4.13v2.1Zm-6.1-6.6a13.62,13.62,0,0,1,2.12,3.47l-2.12.89a13.52,13.52,0,0,0-2-3.5Zm16.63-2.84c0,8.4.2,14,2.21,14,.55,0,.69-1.64.72-4.08a12.42,12.42,0,0,0,1.78,1.67c-.2,3.67-.75,5-2.64,5-4.1,0-4.65-5.74-4.74-14.58H312.18V27.09Zm-15.52-1.52v-2h16.87v2Zm7.35,11.62a41.64,41.64,0,0,1,5.33,4.39l-1.66,1.6a44.25,44.25,0,0,0-5.22-4.56Z"/><path class="cls-1" d="M347.16,18.31a46.93,46.93,0,0,1-2.3,6.11V43.81h-2.55V29.27a25.43,25.43,0,0,1-1.75,2.5A15.74,15.74,0,0,0,339.21,29a33.66,33.66,0,0,0,5.45-11.33Zm2,19.91h-2.32V23.47h2.32Zm9.72-1.72c-.68,2.61-2.75,5.36-8.12,7.37a11.43,11.43,0,0,0-1.74-2c4.67-1.43,6.45-3.44,7.11-5.36h-6V34.23h6.37v-3.3h-2.67a15.8,15.8,0,0,1-2,2.93,15.4,15.4,0,0,0-2.06-1.38,15.32,15.32,0,0,0,3.41-6.28l2.44.57c-.2.66-.46,1.29-.72,1.95h9.9v2.21h-5.62v3.3h6.48V36.5Zm6.74-10.36H350.09V23.91H360c.17-.95.32-2,.46-2.93h-8.86V18.77H361l.41-.11,1.83.22c-.17,1.64-.43,3.45-.69,5h3Zm-5.13,10.73c1.84,1.61,4.33,3.85,5.62,5.22l-1.95,1.58c-1.17-1.38-3.64-3.7-5.51-5.42Z"/><path class="cls-1" d="M379.78,24.51a39.14,39.14,0,0,1-3.13,4.39V43.84H374v-12a38.16,38.16,0,0,1-2.84,2.58,14.7,14.7,0,0,0-1.84-2.26,30.49,30.49,0,0,0,7.95-8.61Zm-1.09-6a37.5,37.5,0,0,1-7.57,7.26,13.1,13.1,0,0,0-1.52-2.15,26,26,0,0,0,6.54-6.17Zm17.21,11h-4.13v11c0,1.52-.34,2.3-1.43,2.73s-2.76.43-5.42.43a11.06,11.06,0,0,0-.86-2.67c1.83.06,3.75.06,4.27,0s.72-.14.72-.55v-11H380V27H395.9Zm-.8-7.83H381.19V19.11H395.1Z"/><path class="cls-1" d="M425.77,24s0,.92,0,1.23c-.31,11.85-.57,15.93-1.49,17.16a2.52,2.52,0,0,1-2,1.23,19.13,19.13,0,0,1-3.52,0,7.07,7.07,0,0,0-.75-2.52c1.32.11,2.5.11,3,.11a1.09,1.09,0,0,0,1-.46c.63-.8.91-4.44,1.14-14.31h-3.38c-.37,7.63-1.67,13.71-6.6,17.5a8.78,8.78,0,0,0-1.92-2c.17-.12.34-.26.51-.4-4.13.48-8.26.91-11.33,1.2l-.34-2.27c1.66-.11,3.73-.28,6-.48V37.85h-5.22v-2h5.22V34.43h-5.13V25.8h5.13V24.31h-5.9v-2h5.9V20.72c-1.75.14-3.5.23-5.1.29a8.31,8.31,0,0,0-.63-1.92,89.16,89.16,0,0,0,12.3-1.41l1.27,2c-1.52.31-3.42.6-5.4.8v1.84h5.8V24h3c0-1.95,0-4,0-6.14h2.55c0,2.13,0,4.19-.06,6.14ZM403.11,29.3h2.95V27.55h-2.95Zm2.95,3.38V30.93h-2.95v1.75Zm2.44,7.12c1.78-.17,3.62-.35,5.42-.55,2.36-3.24,3.07-7.57,3.3-12.79h-3V24.31H408.5V25.8h5.34v8.63H408.5V35.9h5.4v2h-5.4Zm3.07-10.5V27.55H408.5V29.3Zm-3.07,1.63v1.75h3.07V30.93Z"/><path class="cls-1" d="M446.75,37.79c3.38,1.2,7.63,2.81,10,3.87l-1.26,2.13c-2.5-1.24-7.55-3.3-11.19-4.65l.89-1.35h-1.12c-1.23,2.38-4.39,4.82-12.28,6.11a12,12,0,0,0-1.52-2.18c6-.92,9-2.41,10.5-3.93H430.48V35.58H442a6.64,6.64,0,0,0,.08-.95v-1.8h2.64v1.86a4.54,4.54,0,0,1-.06.89h5.48A19.26,19.26,0,0,0,448,33.92L449,33h-1a6.72,6.72,0,0,0-.71-2c1.14.06,2.26.06,2.58,0s.43-.09.43-.4v-2.3H444.4a10.94,10.94,0,0,1,2.52,2.15l-1.72,1.41a13.09,13.09,0,0,0-3-2.67l1.14-.89h-3.12V26.54h.89a6.51,6.51,0,0,0-1-1.49,28.5,28.5,0,0,0,7.63-1.78,21.21,21.21,0,0,0-2.55-2.43c-1.09.43-2.27.83-3.53,1.2a6.24,6.24,0,0,0-1.38-1.52,19.68,19.68,0,0,0,7.6-3.18l2.24.51c-.43.35-.83.69-1.32,1h4.68l.43-.08,1.4.74c-2.41,4.25-7.66,6.12-13.36,7h8.23v-2h2.52v2h3.45v1.81h-3.45v2.38c0,1.15-.23,1.67-1,2a6.17,6.17,0,0,1-1.95.29,19.1,19.1,0,0,1,2.38,1.92l-.63.66h5.11v2.21Zm-11.91-9.47A7.74,7.74,0,0,1,432.49,34a13.84,13.84,0,0,0-2.07-1.2,5.77,5.77,0,0,0,2-4.59v-.09H430.6V26.06h6.22V24.13h-5v-6h2.24V22h2.72v-4.5h2.41V33.69h-2.41V28.15h-2Zm10.88-4.79c-1.58.17-3.05.29-4.45.43L441,22.47c1.32-.06,2.84-.17,4.65-.29Zm1.51-3.07a16.22,16.22,0,0,1,2.21,2.07,10.9,10.9,0,0,0,2.7-2.07Z"/><path class="cls-1" d="M97.75,55.77H105a8.22,8.22,0,0,1,3.5.69,6.64,6.64,0,0,1,2.41,1.88,8.26,8.26,0,0,1,1.39,2.8,13.18,13.18,0,0,1,0,6.83,8.12,8.12,0,0,1-1.39,2.79,6.56,6.56,0,0,1-2.41,1.89,8.37,8.37,0,0,1-3.5.68H97.75Zm3.07,15.06h3a7.65,7.65,0,0,0,2.94-.48,4.36,4.36,0,0,0,1.8-1.33,4.8,4.8,0,0,0,.88-2,12.88,12.88,0,0,0,0-5,4.8,4.8,0,0,0-.88-2,4.27,4.27,0,0,0-1.8-1.33,7.65,7.65,0,0,0-2.94-.48h-3Z"/><path class="cls-1" d="M116.53,55.77h2.81v2.66h-2.81Zm0,4.85h2.81V73.33h-2.81Z"/><path class="cls-1" d="M135.49,72.67A5.38,5.38,0,0,1,133.88,77a6.82,6.82,0,0,1-4.63,1.42,9.73,9.73,0,0,1-1.93-.2,5.46,5.46,0,0,1-1.77-.67,4.23,4.23,0,0,1-1.34-1.22,3.73,3.73,0,0,1-.64-1.87h2.8a2.23,2.23,0,0,0,.42,1,2.25,2.25,0,0,0,.7.57,2.62,2.62,0,0,0,.9.27,8.34,8.34,0,0,0,1,.07,3.25,3.25,0,0,0,2.48-.84,3.37,3.37,0,0,0,.79-2.41V71.1h-.05a4.35,4.35,0,0,1-3.81,2.23,5.67,5.67,0,0,1-2.59-.53,4.85,4.85,0,0,1-1.78-1.45,6.23,6.23,0,0,1-1-2.12,10.27,10.27,0,0,1-.32-2.59,7.55,7.55,0,0,1,.4-2.43,6.19,6.19,0,0,1,1.13-2,5.44,5.44,0,0,1,1.81-1.39,5.55,5.55,0,0,1,2.42-.52,4.82,4.82,0,0,1,2.21.51,3.42,3.42,0,0,1,1.55,1.59h.05V60.62h2.8Zm-6.22-1.55a3.14,3.14,0,0,0,1.59-.38,3.1,3.1,0,0,0,1.06-1,4.58,4.58,0,0,0,.59-1.43,7.29,7.29,0,0,0,.18-1.61,5.88,5.88,0,0,0-.2-1.57,4.15,4.15,0,0,0-.6-1.35,2.83,2.83,0,0,0-1.06-.94,3.27,3.27,0,0,0-1.56-.34,3,3,0,0,0-1.57.39,3,3,0,0,0-1,1,4.21,4.21,0,0,0-.57,1.43,7.79,7.79,0,0,0-.17,1.58,5.66,5.66,0,0,0,.2,1.54,4.19,4.19,0,0,0,.6,1.34,3.05,3.05,0,0,0,1,1A2.89,2.89,0,0,0,129.27,71.12Z"/><path class="cls-1" d="M139.75,55.77h2.8v2.66h-2.8Zm0,4.85h2.8V73.33h-2.8Z"/><path class="cls-1" d="M145.68,60.62h2.11V56.81h2.8v3.81h2.54v2.09h-2.54V69.5c0,.29,0,.55,0,.76a1.43,1.43,0,0,0,.17.54.8.8,0,0,0,.41.33,1.89,1.89,0,0,0,.74.11h.59a3.13,3.13,0,0,0,.59-.09v2.17l-.91.1a9.08,9.08,0,0,1-.91,0,6.27,6.27,0,0,1-1.79-.21,2.35,2.35,0,0,1-1.05-.62,2.07,2.07,0,0,1-.52-1,8,8,0,0,1-.16-1.4v-7.5h-2.11Z"/><path class="cls-1" d="M167.15,70.51a1.46,1.46,0,0,0,.13.73.57.57,0,0,0,.53.22h.3a2,2,0,0,0,.39,0v1.94l-.38.11-.48.11a4.44,4.44,0,0,1-.49.07l-.42,0a2.7,2.7,0,0,1-1.43-.35,1.72,1.72,0,0,1-.74-1.2,5,5,0,0,1-2.05,1.18,7.93,7.93,0,0,1-2.35.37,5.68,5.68,0,0,1-1.65-.24,4.39,4.39,0,0,1-1.39-.68,3.4,3.4,0,0,1-1-1.16,3.67,3.67,0,0,1-.35-1.64,3.73,3.73,0,0,1,.43-1.91,3.07,3.07,0,0,1,1.13-1.16,5,5,0,0,1,1.57-.6A15.33,15.33,0,0,1,160.7,66a13.7,13.7,0,0,1,1.45-.21,6.56,6.56,0,0,0,1.22-.21,1.89,1.89,0,0,0,.84-.46,1.26,1.26,0,0,0,.3-.92,1.46,1.46,0,0,0-.25-.89,1.77,1.77,0,0,0-.64-.52,2.62,2.62,0,0,0-.85-.25,7,7,0,0,0-.89-.06,3.51,3.51,0,0,0-1.94.49,1.91,1.91,0,0,0-.86,1.52h-2.8a4,4,0,0,1,1.9-3.34,5.32,5.32,0,0,1,1.81-.69,10.82,10.82,0,0,1,2.06-.2,8.81,8.81,0,0,1,1.85.2,5.24,5.24,0,0,1,1.63.64,3.55,3.55,0,0,1,1.17,1.14,3.11,3.11,0,0,1,.45,1.71ZM164.34,67a3.39,3.39,0,0,1-1.57.51c-.63.06-1.25.14-1.87.26a6,6,0,0,0-.86.21,2.68,2.68,0,0,0-.74.36,1.69,1.69,0,0,0-.5.62,2,2,0,0,0-.19.92,1.18,1.18,0,0,0,.27.79,2,2,0,0,0,.65.5,2.94,2.94,0,0,0,.84.26,5,5,0,0,0,.82.07,4.62,4.62,0,0,0,1-.12,3.24,3.24,0,0,0,1-.42,2.49,2.49,0,0,0,.8-.75,1.9,1.9,0,0,0,.32-1.12Z"/><path class="cls-1" d="M171.6,55.77h2.8V73.33h-2.8Z"/><path class="cls-1" d="M199.24,61.36a6,6,0,0,0-.54-1.4,3.86,3.86,0,0,0-.89-1.11,4.12,4.12,0,0,0-1.26-.73,5.13,5.13,0,0,0-1.69-.26,4.89,4.89,0,0,0-2.42.57,4.82,4.82,0,0,0-1.66,1.51,6.87,6.87,0,0,0-.95,2.15,10.23,10.23,0,0,0-.3,2.46,10.1,10.1,0,0,0,.3,2.46,6.93,6.93,0,0,0,.95,2.16,4.82,4.82,0,0,0,1.66,1.51,5,5,0,0,0,2.42.56,4.48,4.48,0,0,0,1.82-.35,4.08,4.08,0,0,0,1.36-1,4.67,4.67,0,0,0,.88-1.46,7.4,7.4,0,0,0,.42-1.8h3a8.33,8.33,0,0,1-.68,2.88,6.88,6.88,0,0,1-1.56,2.25,7.12,7.12,0,0,1-2.31,1.47,8.12,8.12,0,0,1-2.93.51,8.34,8.34,0,0,1-3.53-.72,7.91,7.91,0,0,1-2.64-2A8.89,8.89,0,0,1,187,68.12,11.18,11.18,0,0,1,187,61a8.74,8.74,0,0,1,1.66-2.92,8,8,0,0,1,2.64-2,8.19,8.19,0,0,1,3.53-.73,9.3,9.3,0,0,1,2.78.4,7.25,7.25,0,0,1,2.3,1.18,6.18,6.18,0,0,1,1.61,1.88,6.45,6.45,0,0,1,.76,2.54Z"/><path class="cls-1" d="M206.17,55.77H209V73.33h-2.81Z"/><path class="cls-1" d="M213.45,55.77h2.81v2.66h-2.81Zm0,4.85h2.81V73.33h-2.81Z"/><path class="cls-1" d="M220.66,60.62h2.66v1.77h.07a6.5,6.5,0,0,1,.69-.86,4.07,4.07,0,0,1,.82-.67,4.35,4.35,0,0,1,1-.43,5.43,5.43,0,0,1,1.35-.16,4.64,4.64,0,0,1,2.15.52,2.94,2.94,0,0,1,1.42,1.6,5.59,5.59,0,0,1,1.64-1.55,4.46,4.46,0,0,1,2.34-.57,4.6,4.6,0,0,1,3.14,1,4.2,4.2,0,0,1,1.12,3.29v8.78H236.3V65.91c0-.51,0-1-.05-1.39a2.78,2.78,0,0,0-.28-1.09,1.69,1.69,0,0,0-.7-.7,2.83,2.83,0,0,0-1.28-.24,2.39,2.39,0,0,0-2.07.88,4.29,4.29,0,0,0-.64,2.51v7.45h-2.8V65.17a3.49,3.49,0,0,0-.48-2,2,2,0,0,0-1.76-.67,2.49,2.49,0,0,0-1,.22,2.66,2.66,0,0,0-.89.64,3.16,3.16,0,0,0-.61,1,3.84,3.84,0,0,0-.24,1.4v7.55h-2.8Z"/><path class="cls-1" d="M254.06,70.51a1.46,1.46,0,0,0,.13.73.57.57,0,0,0,.53.22h.3a2,2,0,0,0,.39,0v1.94l-.38.11-.48.11a4.13,4.13,0,0,1-.49.07l-.42,0a2.73,2.73,0,0,1-1.43-.35,1.71,1.71,0,0,1-.73-1.2,5.07,5.07,0,0,1-2.06,1.18,7.93,7.93,0,0,1-2.35.37,5.56,5.56,0,0,1-1.64-.24,4.19,4.19,0,0,1-1.39-.68,3.19,3.19,0,0,1-1-1.16,3.54,3.54,0,0,1-.36-1.64,3.73,3.73,0,0,1,.43-1.91,3.15,3.15,0,0,1,1.13-1.16,5,5,0,0,1,1.58-.6,14.82,14.82,0,0,1,1.75-.28,13.87,13.87,0,0,1,1.46-.21,6.59,6.59,0,0,0,1.21-.21,1.84,1.84,0,0,0,.84-.46,1.26,1.26,0,0,0,.31-.92,1.47,1.47,0,0,0-.26-.89,1.69,1.69,0,0,0-.64-.52,2.62,2.62,0,0,0-.85-.25,7,7,0,0,0-.89-.06,3.51,3.51,0,0,0-1.94.49A1.93,1.93,0,0,0,246,64.5h-2.8a4.16,4.16,0,0,1,.59-2,4.07,4.07,0,0,1,1.31-1.3,5.41,5.41,0,0,1,1.81-.69,10.84,10.84,0,0,1,2.07-.2,8.79,8.79,0,0,1,1.84.2,5.4,5.4,0,0,1,1.64.64,3.61,3.61,0,0,1,1.16,1.14,3.11,3.11,0,0,1,.45,1.71ZM251.25,67a3.39,3.39,0,0,1-1.57.51c-.62.06-1.25.14-1.87.26a6.34,6.34,0,0,0-.86.21,2.83,2.83,0,0,0-.74.36,1.69,1.69,0,0,0-.5.62,2.12,2.12,0,0,0-.19.92,1.18,1.18,0,0,0,.27.79,1.93,1.93,0,0,0,.66.5,2.78,2.78,0,0,0,.83.26,5.16,5.16,0,0,0,.83.07,4.61,4.61,0,0,0,1-.12,3.2,3.2,0,0,0,1-.42,2.57,2.57,0,0,0,.79-.75,1.83,1.83,0,0,0,.32-1.12Z"/><path class="cls-1" d="M257.16,60.62h2.11V56.81h2.81v3.81h2.53v2.09h-2.53V69.5c0,.29,0,.55,0,.76a1.43,1.43,0,0,0,.17.54.8.8,0,0,0,.41.33,1.89,1.89,0,0,0,.74.11H264a3.13,3.13,0,0,0,.59-.09v2.17l-.91.1a9.08,9.08,0,0,1-.91,0,6.14,6.14,0,0,1-1.78-.21,2.33,2.33,0,0,1-1.06-.62,2.07,2.07,0,0,1-.52-1,8,8,0,0,1-.16-1.4v-7.5h-2.11Z"/><path class="cls-1" d="M270.17,67.7a4.9,4.9,0,0,0,.21,1.43,3.42,3.42,0,0,0,.62,1.2,3,3,0,0,0,1.06.83,3.57,3.57,0,0,0,1.53.3,3.37,3.37,0,0,0,2-.52,3.16,3.16,0,0,0,1.12-1.59h2.66a5.3,5.3,0,0,1-.76,1.84,5.19,5.19,0,0,1-1.31,1.37,5.57,5.57,0,0,1-1.71.84,7.16,7.16,0,0,1-2,.28,6.86,6.86,0,0,1-2.66-.49,5.62,5.62,0,0,1-2-1.38,5.89,5.89,0,0,1-1.2-2.12,8.59,8.59,0,0,1-.41-2.7,7.83,7.83,0,0,1,.43-2.57A6.66,6.66,0,0,1,269,62.28a5.82,5.82,0,0,1,4.49-2,5.65,5.65,0,0,1,2.69.63,5.82,5.82,0,0,1,2,1.66,6.67,6.67,0,0,1,1.15,2.38,7.09,7.09,0,0,1,.18,2.76Zm6.54-1.84a4.57,4.57,0,0,0-.28-1.28,3.46,3.46,0,0,0-.64-1.07,3.21,3.21,0,0,0-1-.74,2.84,2.84,0,0,0-1.29-.28,3.24,3.24,0,0,0-1.34.26,3.11,3.11,0,0,0-1,.71,3.4,3.4,0,0,0-.69,1.07,3.63,3.63,0,0,0-.28,1.33Z"/><path class="cls-1" d="M296.28,55.77h3.28l6.76,17.56H303l-1.64-4.64h-7l-1.65,4.64h-3.17ZM295.2,66.35h5.36l-2.63-7.55h-.07Z"/><path class="cls-1" d="M317.53,64.87a2.64,2.64,0,0,0-.94-1.78,3.11,3.11,0,0,0-2-.6,4.15,4.15,0,0,0-1.16.18,2.93,2.93,0,0,0-1.13.69,3.94,3.94,0,0,0-.86,1.4,6.68,6.68,0,0,0-.34,2.35,7.09,7.09,0,0,0,.18,1.58,4.51,4.51,0,0,0,.59,1.4,3.11,3.11,0,0,0,1,1,2.9,2.9,0,0,0,1.55.38,2.83,2.83,0,0,0,2-.76,3.55,3.55,0,0,0,1-2.14h2.81a6.18,6.18,0,0,1-1.88,3.8,5.75,5.75,0,0,1-3.95,1.32,6.49,6.49,0,0,1-2.65-.51,5.6,5.6,0,0,1-1.93-1.37,6,6,0,0,1-1.19-2.08,8.11,8.11,0,0,1-.4-2.61,9,9,0,0,1,.39-2.68,6,6,0,0,1,1.18-2.18,5.6,5.6,0,0,1,1.95-1.45,6.68,6.68,0,0,1,2.75-.53,7.66,7.66,0,0,1,2.1.29,5.58,5.58,0,0,1,1.77.85,4.45,4.45,0,0,1,1.27,1.42,5.13,5.13,0,0,1,.59,2Z"/><path class="cls-1" d="M322.7,60.62h2.11V56.81h2.81v3.81h2.53v2.09h-2.53V69.5c0,.29,0,.55,0,.76a1.63,1.63,0,0,0,.17.54.84.84,0,0,0,.41.33,1.89,1.89,0,0,0,.74.11h.59a3,3,0,0,0,.59-.09v2.17l-.91.1a9.08,9.08,0,0,1-.91,0,6.14,6.14,0,0,1-1.78-.21,2.39,2.39,0,0,1-1.06-.62,2.07,2.07,0,0,1-.52-1,8,8,0,0,1-.16-1.4v-7.5H322.7Z"/><path class="cls-1" d="M333.59,55.77h2.81v2.66h-2.81Zm0,4.85h2.81V73.33h-2.81Z"/><path class="cls-1" d="M346.63,73.68a6.84,6.84,0,0,1-2.72-.51,5.7,5.7,0,0,1-2-1.39,5.8,5.8,0,0,1-1.25-2.11,8.66,8.66,0,0,1,0-5.39,5.7,5.7,0,0,1,3.27-3.5,7.48,7.48,0,0,1,5.43,0,5.7,5.7,0,0,1,3.27,3.5,8.66,8.66,0,0,1,0,5.39,5.8,5.8,0,0,1-1.25,2.11,5.7,5.7,0,0,1-2,1.39A6.82,6.82,0,0,1,346.63,73.68Zm0-2.22a3.24,3.24,0,0,0,1.62-.39,3.38,3.38,0,0,0,1.13-1A4.48,4.48,0,0,0,350,68.6a6.43,6.43,0,0,0,0-3.26,4.3,4.3,0,0,0-.65-1.44,3.46,3.46,0,0,0-1.13-1,3.58,3.58,0,0,0-3.25,0,3.46,3.46,0,0,0-1.13,1,4.5,4.5,0,0,0-.65,1.44,6.43,6.43,0,0,0,0,3.26,4.71,4.71,0,0,0,.65,1.44,3.38,3.38,0,0,0,1.13,1A3.25,3.25,0,0,0,346.63,71.46Z"/><path class="cls-1" d="M356.73,60.62h2.66v1.87l.05,0a4.66,4.66,0,0,1,1.67-1.66,4.48,4.48,0,0,1,2.29-.61,4.75,4.75,0,0,1,3.29,1.09,4.11,4.11,0,0,1,1.21,3.24v8.73h-2.8v-8a3.55,3.55,0,0,0-.64-2.18,2.34,2.34,0,0,0-1.85-.67,3,3,0,0,0-1.28.26,2.93,2.93,0,0,0-1,.71,3.4,3.4,0,0,0-.61,1.07,3.74,3.74,0,0,0-.22,1.3v7.5h-2.81Z"/><path class="cls-1" d="M385.48,55.77h3.27l6.77,17.56h-3.3l-1.65-4.64h-7l-1.64,4.64h-3.18ZM384.4,66.35h5.36l-2.63-7.55h-.07Z"/><path class="cls-1" d="M396.55,60.62h3L402,70.11h.05l2.38-9.49h2.83l2.29,9.49h.05l2.58-9.49H415l-4,12.71h-2.88l-2.36-9.44h-.05l-2.33,9.44h-3Z"/><path class="cls-1" d="M428.84,70.51a1.34,1.34,0,0,0,.14.73c.08.15.26.22.52.22h.3a1.91,1.91,0,0,0,.39,0v1.94l-.38.11-.48.11a4.13,4.13,0,0,1-.49.07l-.42,0a2.67,2.67,0,0,1-1.42-.35,1.69,1.69,0,0,1-.74-1.2,5,5,0,0,1-2.06,1.18,7.91,7.91,0,0,1-2.34.37,5.58,5.58,0,0,1-1.65-.24,4.19,4.19,0,0,1-1.39-.68,3.4,3.4,0,0,1-1-1.16A3.54,3.54,0,0,1,417.5,70a3.83,3.83,0,0,1,.43-1.91,3.23,3.23,0,0,1,1.13-1.16,5.08,5.08,0,0,1,1.58-.6A15,15,0,0,1,422.4,66a13.34,13.34,0,0,1,1.45-.21,6.44,6.44,0,0,0,1.21-.21,1.79,1.79,0,0,0,.84-.46,1.22,1.22,0,0,0,.31-.92,1.47,1.47,0,0,0-.26-.89,1.69,1.69,0,0,0-.64-.52,2.55,2.55,0,0,0-.85-.25,6.85,6.85,0,0,0-.88-.06,3.53,3.53,0,0,0-1.95.49,2,2,0,0,0-.86,1.52H418a4.27,4.27,0,0,1,.59-2,4,4,0,0,1,1.32-1.3,5.27,5.27,0,0,1,1.8-.69,10.92,10.92,0,0,1,2.07-.2,8.71,8.71,0,0,1,1.84.2,5.3,5.3,0,0,1,1.64.64,3.75,3.75,0,0,1,1.17,1.14,3.2,3.2,0,0,1,.44,1.71ZM426,67a3.43,3.43,0,0,1-1.58.51c-.62.06-1.24.14-1.87.26a6.34,6.34,0,0,0-.86.21,2.62,2.62,0,0,0-.73.36,1.62,1.62,0,0,0-.51.62,2.13,2.13,0,0,0-.18.92,1.18,1.18,0,0,0,.27.79,1.89,1.89,0,0,0,.65.5,2.75,2.75,0,0,0,.84.26,5,5,0,0,0,.82.07,4.69,4.69,0,0,0,1-.12,3.24,3.24,0,0,0,1-.42,2.6,2.6,0,0,0,.8-.75,1.9,1.9,0,0,0,.32-1.12Z"/><path class="cls-1" d="M433.22,60.62h2.63v2.46h0a2.75,2.75,0,0,1,.48-1,4.56,4.56,0,0,1,.86-.9,4.16,4.16,0,0,1,1.12-.65,3.44,3.44,0,0,1,1.25-.25,5,5,0,0,1,.68,0l.38.05v2.7l-.6-.08a4.26,4.26,0,0,0-.61,0,3.39,3.39,0,0,0-1.34.28,3.14,3.14,0,0,0-1.09.84,4.12,4.12,0,0,0-.74,1.36,6,6,0,0,0-.27,1.87v6h-2.8Z"/><path class="cls-1" d="M454.76,73.33H452.1V71.61h0a3.35,3.35,0,0,1-1.65,1.59,5.6,5.6,0,0,1-2.29.48,6.13,6.13,0,0,1-2.62-.53,5.17,5.17,0,0,1-1.85-1.44,5.94,5.94,0,0,1-1.11-2.15,9.21,9.21,0,0,1-.37-2.67,8.59,8.59,0,0,1,.47-3,5.9,5.9,0,0,1,1.24-2.06,4.82,4.82,0,0,1,1.77-1.19,5.51,5.51,0,0,1,2-.39,6.26,6.26,0,0,1,1.2.12,5.19,5.19,0,0,1,1.18.35,5,5,0,0,1,1.05.63,3.28,3.28,0,0,1,.8.9h0v-6.5h2.8ZM445,67.11a6.16,6.16,0,0,0,.21,1.6,4.37,4.37,0,0,0,.64,1.4,3.27,3.27,0,0,0,1.1,1,3.22,3.22,0,0,0,1.57.36,3.17,3.17,0,0,0,1.61-.39,3.32,3.32,0,0,0,1.11-1,4.94,4.94,0,0,0,.64-1.44,6.41,6.41,0,0,0,.21-1.64,5.13,5.13,0,0,0-.95-3.29,3.11,3.11,0,0,0-2.57-1.18,3.17,3.17,0,0,0-1.66.4A3.51,3.51,0,0,0,445.77,64a4.53,4.53,0,0,0-.61,1.48A7.27,7.27,0,0,0,445,67.11Z"/><path class="cls-2" d="M70.26,24.13c-3.77-5.14-9.32-7.75-16.52-7.75S41,19,37.14,24.13s-5.55,12.42-5.55,21.79,1.87,16.59,5.55,21.63,9.41,7.75,16.6,7.75,12.75-2.61,16.52-7.75,5.63-12.31,5.63-21.63S74,29.22,70.26,24.13ZM63.1,61.78C61.07,65.26,58,67,53.74,67A10.46,10.46,0,0,1,46,64a14.65,14.65,0,0,1-3.37-6.08,31.68,31.68,0,0,1-1.15-5.44,51.56,51.56,0,0,1-.39-6.56c0-6.91,1.07-12.28,3.19-16a10.14,10.14,0,0,1,9.43-5.23,10.16,10.16,0,0,1,8,3.31A12.88,12.88,0,0,1,65,34.28v0l0,0a44.29,44.29,0,0,1,1.31,11.56C66.36,52.82,65.26,58.16,63.1,61.78Z"/><path class="cls-3" d="M60.63,24.13C56.86,19,51.3,16.38,44.11,16.38S31.33,19,27.51,24.13,22,36.55,22,45.92s1.87,16.59,5.56,21.63,9.4,7.75,16.6,7.75,12.75-2.61,16.52-7.75,5.63-12.31,5.63-21.63S64.36,29.22,60.63,24.13ZM65,42.58a48.93,48.93,0,0,0-.63-5.7A48.93,48.93,0,0,1,65,42.58ZM61.5,27.79a21.43,21.43,0,0,0-1.8-3A21.43,21.43,0,0,1,61.5,27.79Zm-30,18.13c0-6.91,1.07-12.28,3.19-16a10.14,10.14,0,0,1,9.43-5.23,10.16,10.16,0,0,1,8,3.31,12.77,12.77,0,0,1,3.3,6.24v.08a44.29,44.29,0,0,1,1.31,11.56c0,6.9-1.09,12.24-3.25,15.86S48.37,67,44.11,67a10.46,10.46,0,0,1-7.71-3A14.8,14.8,0,0,1,33,57.92a31.72,31.72,0,0,1-1.14-5.44A51.56,51.56,0,0,1,31.49,45.92Zm28.21,21a22.81,22.81,0,0,0,2.37-4A22.81,22.81,0,0,1,59.7,66.87Zm4.65-11.6a49.55,49.55,0,0,0,.68-6A49.55,49.55,0,0,1,64.35,55.27Z"/><path class="cls-4" d="M67.53,47.86c-.2,6.21-1.32,11-3.39,14.51Q60.79,68.1,53.8,68.1a11.69,11.69,0,0,1-8.52-3.28,15.86,15.86,0,0,1-3.66-6.54,32.45,32.45,0,0,1-1.19-5.65c-.19-1.5-.31-3.09-.37-4.77H32.82q.36,12.26,5.3,19,5.41,7.27,15.68,7.28t15.59-7.28q5-6.77,5.38-19Z"/><path class="cls-4" d="M74.77,47.86q-.36,12.26-5.38,19-5.33,7.27-15.59,7.28T38.12,66.87q-4.95-6.77-5.3-19h7.24c.06,1.68.18,3.27.37,4.77a32.45,32.45,0,0,0,1.19,5.65,15.86,15.86,0,0,0,3.66,6.54A11.69,11.69,0,0,0,53.8,68.1q7,0,10.34-5.73c2.07-3.47,3.19-8.3,3.39-14.51h7.24M76,46.72H66.42l0,1.11c-.18,6-1.27,10.67-3.23,14-2,3.48-5.09,5.17-9.35,5.17a10.5,10.5,0,0,1-7.72-3,14.88,14.88,0,0,1-3.37-6.08,31.72,31.72,0,0,1-1.14-5.44,46.52,46.52,0,0,1-.36-4.65l0-1.11H31.64l0,1.18c.25,8.36,2.11,15,5.53,19.65C41,72.69,46.6,75.3,53.8,75.3s12.75-2.61,16.52-7.75c3.46-4.67,5.35-11.28,5.6-19.65l0-1.18Z"/></g></svg>