<svg xmlns="http://www.w3.org/2000/svg" xmlns:xlink="http://www.w3.org/1999/xlink" viewBox="0 0 775.92 161.99"><defs><style>.cls-1{fill:url(#亮光);}.cls-2{fill:#fff;}.cls-3{fill:url(#亮光-2);}.cls-4{fill:url(#亮光-3);}</style><linearGradient id="亮光" x1="302.22" y1="93.64" x2="302.22" y2="139.97" gradientUnits="userSpaceOnUse"><stop offset="0" stop-color="#ffe08c"/><stop offset="1" stop-color="#79ddab"/></linearGradient><linearGradient id="亮光-2" x1="221.99" y1="24.21" x2="221.99" y2="68.57" xlink:href="#亮光"/><linearGradient id="亮光-3" x1="545.04" y1="22.24" x2="545.04" y2="68.57" xlink:href="#亮光"/></defs><title>主視覺 LOGO</title><g id="圖層_3" data-name="圖層 3"><path class="cls-1" d="M307.54,93.64,324.86,140H314.28l-3.5-10.32H293.45L289.82,140H279.57l17.52-46.33Zm.58,28.42-5.84-17h-.13l-6,17Z"/><path class="cls-2" d="M362.11,140l-6-22.52H356L350.3,140h-9.54l-10.64-33.55h9.73L346,129.2h.13l5.58-22.78h8.95l5.71,22.71h.13l6.17-22.71h9.47L371.58,140Z"/><path class="cls-2" d="M392.15,116.74a10.72,10.72,0,0,1,1.62-5.39,11.18,11.18,0,0,1,3.64-3.44,16,16,0,0,1,5-1.85,28.85,28.85,0,0,1,5.55-.55,37.3,37.3,0,0,1,5.13.36,15.69,15.69,0,0,1,4.73,1.39,9.36,9.36,0,0,1,3.51,2.89,8.06,8.06,0,0,1,1.36,4.9V132.5a35.57,35.57,0,0,0,.26,4.35,7.84,7.84,0,0,0,.91,3.12h-9.35a14.29,14.29,0,0,1-.42-1.59,12.76,12.76,0,0,1-.22-1.66,12,12,0,0,1-5.2,3.18,20.68,20.68,0,0,1-6.1.91,16.38,16.38,0,0,1-4.47-.58,10.3,10.3,0,0,1-3.64-1.82A8.5,8.5,0,0,1,392,135.3a10.62,10.62,0,0,1-.88-4.48,9.81,9.81,0,0,1,1-4.71,8.37,8.37,0,0,1,2.6-3,11.48,11.48,0,0,1,3.63-1.65,38.71,38.71,0,0,1,4.12-.88c1.38-.22,2.75-.39,4.09-.52a24.67,24.67,0,0,0,3.57-.58,6.12,6.12,0,0,0,2.46-1.14,2.49,2.49,0,0,0,.85-2.17,4.92,4.92,0,0,0-.49-2.37,3.48,3.48,0,0,0-1.3-1.36,5,5,0,0,0-1.88-.65,15.1,15.1,0,0,0-2.3-.16,7,7,0,0,0-4.29,1.16,5.21,5.21,0,0,0-1.81,3.9Zm21.29,6.81a4,4,0,0,1-1.46.81,14.48,14.48,0,0,1-1.89.49c-.67.13-1.37.24-2.1.32s-1.48.2-2.21.33a16.64,16.64,0,0,0-2,.52,5.85,5.85,0,0,0-1.75.87,4.17,4.17,0,0,0-1.2,1.4,4.5,4.5,0,0,0-.45,2.14,4.34,4.34,0,0,0,.45,2.07,3.44,3.44,0,0,0,1.23,1.33,5.15,5.15,0,0,0,1.82.69,11.59,11.59,0,0,0,2.14.19,8.09,8.09,0,0,0,4.22-.91,6.06,6.06,0,0,0,2.21-2.17,7,7,0,0,0,.87-2.56,17.62,17.62,0,0,0,.17-2.08Z"/><path class="cls-2" d="M445,106.42v6.23h.13a11.16,11.16,0,0,1,1.75-2.89,11.38,11.38,0,0,1,2.53-2.27A12.4,12.4,0,0,1,452.5,106a10.89,10.89,0,0,1,3.37-.52,7.46,7.46,0,0,1,2,.32v8.57c-.44-.09-1-.16-1.56-.23s-1.19-.09-1.75-.09a9.88,9.88,0,0,0-4.29.84,7.44,7.44,0,0,0-2.82,2.3,9.29,9.29,0,0,0-1.52,3.41,18.13,18.13,0,0,0-.46,4.22V140h-9.21V106.42Z"/><path class="cls-2" d="M490.65,135.68a9.45,9.45,0,0,1-4.25,3.93,14.12,14.12,0,0,1-5.93,1.2,14.38,14.38,0,0,1-6.62-1.46,13.23,13.23,0,0,1-4.71-4,18,18,0,0,1-2.79-5.74,24.35,24.35,0,0,1-.94-6.75,22.89,22.89,0,0,1,.94-6.52,17,17,0,0,1,2.79-5.55,13.55,13.55,0,0,1,11.13-5.32,13.13,13.13,0,0,1,5.68,1.27,9.81,9.81,0,0,1,4.25,3.73h.13V93.64h9.22V140h-8.77v-4.29Zm-.38-16.58a9.72,9.72,0,0,0-1.34-3.37,7.44,7.44,0,0,0-2.43-2.37,7.17,7.17,0,0,0-3.76-.91,7.54,7.54,0,0,0-3.83.91,7.28,7.28,0,0,0-2.5,2.4,10.55,10.55,0,0,0-1.36,3.41,18.62,18.62,0,0,0-.42,4,17.14,17.14,0,0,0,.45,3.89,10.64,10.64,0,0,0,1.46,3.48,8,8,0,0,0,2.53,2.46,6.84,6.84,0,0,0,3.67.94,7.24,7.24,0,0,0,3.79-.91,6.85,6.85,0,0,0,2.44-2.43,11.05,11.05,0,0,0,1.3-3.47,21.24,21.24,0,0,0,.38-4A20.8,20.8,0,0,0,490.27,119.1Z"/><path class="cls-2" d="M38.35,22.24V39.61H56.66V22.24h10V67.49h-10V48H38.35V67.49h-10V22.24Z"/><path class="cls-2" d="M79.27,45.88a10.51,10.51,0,0,1,1.59-5.26,10.73,10.73,0,0,1,3.55-3.35,15.31,15.31,0,0,1,4.84-1.81,27.6,27.6,0,0,1,5.42-.54,37.13,37.13,0,0,1,5,.35,15.49,15.49,0,0,1,4.63,1.36,9.24,9.24,0,0,1,3.42,2.82,7.88,7.88,0,0,1,1.33,4.79v17a34,34,0,0,0,.25,4.24,7.7,7.7,0,0,0,.89,3h-9.13a15.31,15.31,0,0,1-.41-1.55,14.35,14.35,0,0,1-.22-1.62,11.75,11.75,0,0,1-5.07,3.11,20.39,20.39,0,0,1-6,.89A16.09,16.09,0,0,1,85,68.83a10,10,0,0,1-3.55-1.78,8.21,8.21,0,0,1-2.37-3,10.11,10.11,0,0,1-.86-4.37,9.65,9.65,0,0,1,1-4.6,8.27,8.27,0,0,1,2.54-2.88,11.2,11.2,0,0,1,3.55-1.62,37.32,37.32,0,0,1,4-.85q2-.31,4-.51a25.19,25.19,0,0,0,3.49-.57,6.06,6.06,0,0,0,2.41-1.11,2.43,2.43,0,0,0,.82-2.12,4.89,4.89,0,0,0-.47-2.32,3.53,3.53,0,0,0-1.27-1.33,5.2,5.2,0,0,0-1.84-.63,14.53,14.53,0,0,0-2.25-.16,6.83,6.83,0,0,0-4.18,1.14,5.08,5.08,0,0,0-1.78,3.8Zm20.79,6.66a3.94,3.94,0,0,1-1.43.79,15.24,15.24,0,0,1-1.83.48c-.66.12-1.34.23-2.06.31s-1.44.19-2.16.32a17.07,17.07,0,0,0-2,.51,5.88,5.88,0,0,0-1.72.85,4.21,4.21,0,0,0-1.17,1.37,4.44,4.44,0,0,0-.44,2.09,4.32,4.32,0,0,0,.44,2,3.42,3.42,0,0,0,1.21,1.29,5,5,0,0,0,1.77.67,11.05,11.05,0,0,0,2.09.19,8,8,0,0,0,4.12-.89,6,6,0,0,0,2.16-2.12,6.75,6.75,0,0,0,.85-2.5,16.41,16.41,0,0,0,.16-2Z"/><path class="cls-2" d="M138,41.7a6.34,6.34,0,0,0-3.61,1A7.83,7.83,0,0,0,132,45.22a11.28,11.28,0,0,0-1.3,3.42,18.84,18.84,0,0,0-.38,3.71,18,18,0,0,0,.38,3.61A11.31,11.31,0,0,0,132,59.29a7.1,7.1,0,0,0,2.31,2.44,6.4,6.4,0,0,0,3.55,1,6.59,6.59,0,0,0,5-1.81A8.5,8.5,0,0,0,145,56h8.69q-.9,6.53-5.07,9.94A16.33,16.33,0,0,1,137.9,69.4a17.75,17.75,0,0,1-6.75-1.24,14.83,14.83,0,0,1-5.23-3.45,15.63,15.63,0,0,1-3.36-5.29,18.21,18.21,0,0,1-1.21-6.75,21.83,21.83,0,0,1,1.11-7.07A15.79,15.79,0,0,1,125.73,40,14.85,14.85,0,0,1,131,36.25a17.8,17.8,0,0,1,7.1-1.33,20.35,20.35,0,0,1,5.6.76A15.15,15.15,0,0,1,148.51,38a12,12,0,0,1,5,9.35h-8.81C144.08,43.58,141.87,41.7,138,41.7Z"/><path class="cls-2" d="M174.91,23.32V47.6l11.34-11.79H196.9l-12.36,12,13.75,20.72h-10.9l-9-14.64-3.48,3.36V68.57h-9V23.32Z"/><path class="cls-3" d="M205.39,58.31V50.07l19.27-25.86h8V50.89h5.9v7.42h-5.9V68.57h-8.55V58.31ZM224,35.49l-11.47,15.4h11.66V35.49Z"/><path class="cls-2" d="M279.35,35.4a10,10,0,0,0-2.22-2.51,10.66,10.66,0,0,0-3-1.68,10.37,10.37,0,0,0-3.52-.6,11.66,11.66,0,0,0-5.7,1.3,10.8,10.8,0,0,0-3.8,3.49,15.14,15.14,0,0,0-2.13,5,25,25,0,0,0-.66,5.77,23.14,23.14,0,0,0,.66,5.54,14.87,14.87,0,0,0,2.13,4.85A10.91,10.91,0,0,0,264.9,60a11.66,11.66,0,0,0,5.7,1.3,9.21,9.21,0,0,0,7.13-2.79,12.91,12.91,0,0,0,3.14-7.36h9.63a23,23,0,0,1-2,7.67,18.29,18.29,0,0,1-4.18,5.83,17.78,17.78,0,0,1-6.09,3.68,22.4,22.4,0,0,1-7.67,1.27,23.14,23.14,0,0,1-9.35-1.81,20,20,0,0,1-7-5,22.08,22.08,0,0,1-4.37-7.45,27.19,27.19,0,0,1-1.52-9.22,28.1,28.1,0,0,1,1.52-9.41,22.58,22.58,0,0,1,4.37-7.58,20.16,20.16,0,0,1,7-5.07,24.4,24.4,0,0,1,16.42-.76,19.31,19.31,0,0,1,6,3.14,16.92,16.92,0,0,1,4.34,5.1,18.15,18.15,0,0,1,2.15,7h-9.63A8.13,8.13,0,0,0,279.35,35.4Z"/><path class="cls-2" d="M311.92,23.32V68.57h-9V23.32Z"/><path class="cls-2" d="M325.61,30.74V23.32h9v7.42Zm9,5.07V68.57h-9V35.81Z"/><path class="cls-2" d="M356.79,35.81v4.43h.13a12.89,12.89,0,0,1,4.28-3.93,11.68,11.68,0,0,1,5.73-1.39,13.21,13.21,0,0,1,5.67,1.2,7.94,7.94,0,0,1,3.9,4.25,14,14,0,0,1,4-3.8,10.54,10.54,0,0,1,5.93-1.65,17.62,17.62,0,0,1,4.82.63,9.87,9.87,0,0,1,3.8,2,9.36,9.36,0,0,1,2.47,3.65,14.79,14.79,0,0,1,.89,5.42V68.57h-9V50c0-1.09-.05-2.13-.13-3.1a6.56,6.56,0,0,0-.7-2.54,4.31,4.31,0,0,0-1.68-1.71,6.1,6.1,0,0,0-3-.63,5.72,5.72,0,0,0-3.07.73,5.31,5.31,0,0,0-1.84,1.9,7.73,7.73,0,0,0-.89,2.66,21.55,21.55,0,0,0-.22,3V68.57h-9V50.19q0-1.45-.06-2.88a7.94,7.94,0,0,0-.54-2.63,4,4,0,0,0-1.58-1.93,6,6,0,0,0-3.27-.73,6.74,6.74,0,0,0-1.68.28,5.54,5.54,0,0,0-2,1.08A6.22,6.22,0,0,0,358,45.66a9.23,9.23,0,0,0-.7,3.9v19h-9V35.81Z"/><path class="cls-2" d="M411.42,45.88A10.51,10.51,0,0,1,413,40.62a10.7,10.7,0,0,1,3.54-3.35,15.46,15.46,0,0,1,4.85-1.81,27.52,27.52,0,0,1,5.42-.54,37.13,37.13,0,0,1,5,.35,15.34,15.34,0,0,1,4.62,1.36,9.19,9.19,0,0,1,3.43,2.82,8,8,0,0,1,1.33,4.79v17a34,34,0,0,0,.25,4.24,7.7,7.7,0,0,0,.89,3h-9.13a13.06,13.06,0,0,1-.41-1.55,12.38,12.38,0,0,1-.22-1.62,11.75,11.75,0,0,1-5.07,3.11,20.44,20.44,0,0,1-6,.89,16.09,16.09,0,0,1-4.37-.57,9.89,9.89,0,0,1-3.55-1.78,8.24,8.24,0,0,1-2.38-3,10.26,10.26,0,0,1-.85-4.37,9.53,9.53,0,0,1,1-4.6,8.24,8.24,0,0,1,2.53-2.88,11.41,11.41,0,0,1,3.55-1.62,37.5,37.5,0,0,1,4-.85q2-.31,4-.51a25.19,25.19,0,0,0,3.49-.57,6,6,0,0,0,2.4-1.11,2.41,2.41,0,0,0,.83-2.12,4.77,4.77,0,0,0-.48-2.32,3.51,3.51,0,0,0-1.26-1.33,5.2,5.2,0,0,0-1.84-.63,14.53,14.53,0,0,0-2.25-.16,6.81,6.81,0,0,0-4.18,1.14,5.08,5.08,0,0,0-1.78,3.8Zm20.79,6.66a4,4,0,0,1-1.43.79,14.93,14.93,0,0,1-1.84.48c-.65.12-1.34.23-2.05.31s-1.44.19-2.16.32a17.24,17.24,0,0,0-2,.51,6,6,0,0,0-1.71.85,4.21,4.21,0,0,0-1.17,1.37,4.32,4.32,0,0,0-.44,2.09,4.2,4.2,0,0,0,.44,2,3.47,3.47,0,0,0,1.2,1.29,5.11,5.11,0,0,0,1.78.67,11,11,0,0,0,2.09.19,8,8,0,0,0,4.12-.89,5.91,5.91,0,0,0,2.15-2.12,6.78,6.78,0,0,0,.86-2.5,18.65,18.65,0,0,0,.16-2Z"/><path class="cls-2" d="M472.51,35.81v6h-6.59V58.05a4.47,4.47,0,0,0,.76,3.05,4.46,4.46,0,0,0,3.05.76c.5,0,1,0,1.45-.07a10.64,10.64,0,0,0,1.33-.19v7a22.21,22.21,0,0,1-2.53.26q-1.39.06-2.73.06a26.37,26.37,0,0,1-4-.28A9.54,9.54,0,0,1,460,67.5a5.93,5.93,0,0,1-2.25-2.35,8.33,8.33,0,0,1-.83-4V41.83h-5.45v-6h5.45V26h9v9.82Z"/><path class="cls-2" d="M492.79,60.71a9.22,9.22,0,0,0,10.52.61,5.62,5.62,0,0,0,2.41-2.89h7.92q-1.89,5.9-5.83,8.43a17.16,17.16,0,0,1-9.5,2.54,18.57,18.57,0,0,1-7-1.24,14.41,14.41,0,0,1-5.26-3.52,15.68,15.68,0,0,1-3.33-5.45,20,20,0,0,1-1.17-7,19.14,19.14,0,0,1,1.2-6.84,15.87,15.87,0,0,1,8.71-9.13,16.94,16.94,0,0,1,6.82-1.33,15.55,15.55,0,0,1,7.29,1.62,14.42,14.42,0,0,1,5.1,4.34,17.88,17.88,0,0,1,2.88,6.21,23.43,23.43,0,0,1,.64,7.29H490.58C490.7,57.29,491.44,59.41,492.79,60.71ZM503,43.48a6.32,6.32,0,0,0-4.92-1.78,7.92,7.92,0,0,0-3.58.73,6.85,6.85,0,0,0-2.28,1.81,6.6,6.6,0,0,0-1.2,2.28,10.3,10.3,0,0,0-.41,2.15h14.64A10.5,10.5,0,0,0,503,43.48Z"/><path class="cls-4" d="M550.36,22.24l17.32,46.33H557.11L553.6,58.26H536.28l-3.64,10.31H522.39l17.52-46.33Zm.58,28.42-5.84-17H545l-6,17Z"/><path class="cls-2" d="M593.25,41.06a6.49,6.49,0,0,0-3.7,1,8,8,0,0,0-2.43,2.59,11.15,11.15,0,0,0-1.33,3.51A18.9,18.9,0,0,0,585.4,52a18.18,18.18,0,0,0,.39,3.7,11.56,11.56,0,0,0,1.26,3.41,7.45,7.45,0,0,0,2.37,2.5,6.61,6.61,0,0,0,3.64,1,6.76,6.76,0,0,0,5.09-1.85,8.73,8.73,0,0,0,2.24-5h8.89q-.91,6.68-5.19,10.18a16.75,16.75,0,0,1-11,3.51,18.24,18.24,0,0,1-6.91-1.27,15.28,15.28,0,0,1-5.35-3.53,16.14,16.14,0,0,1-3.44-5.42,18.63,18.63,0,0,1-1.24-6.91,22.29,22.29,0,0,1,1.14-7.24,16.27,16.27,0,0,1,3.34-5.77,15.23,15.23,0,0,1,5.39-3.8,18.27,18.27,0,0,1,7.27-1.36,21,21,0,0,1,5.74.78A15.11,15.11,0,0,1,604,37.26a12.21,12.21,0,0,1,5.09,9.58h-9Q599.16,41.07,593.25,41.06Z"/><path class="cls-2" d="M639.39,35v6.16h-6.75V57.8q0,2.34.78,3.12c.52.52,1.55.78,3.11.78.52,0,1,0,1.49-.07s.93-.11,1.37-.19v7.13a21.35,21.35,0,0,1-2.6.26c-.95,0-1.88.07-2.79.07a27.37,27.37,0,0,1-4-.29,9.7,9.7,0,0,1-3.38-1.14,6,6,0,0,1-2.3-2.4,8.6,8.6,0,0,1-.85-4.09V41.19h-5.58V35h5.58V25h9.22V35Z"/><path class="cls-2" d="M650.55,29.83V22.24h9.21v7.59Zm9.21,5.2V68.57h-9.21V35Z"/><path class="cls-2" d="M673.71,44.53a15.38,15.38,0,0,1,9-9.15,19.22,19.22,0,0,1,7.13-1.26A19.57,19.57,0,0,1,697,35.38a15.27,15.27,0,0,1,9,9.15,20.67,20.67,0,0,1,1.24,7.3A20.38,20.38,0,0,1,706,59.1a15.86,15.86,0,0,1-3.5,5.55A15.36,15.36,0,0,1,697,68.18a19.78,19.78,0,0,1-7.18,1.24,19.43,19.43,0,0,1-7.13-1.24,15.32,15.32,0,0,1-5.45-3.53,15.74,15.74,0,0,1-3.51-5.55,20.38,20.38,0,0,1-1.23-7.27A20.67,20.67,0,0,1,673.71,44.53Zm8.37,11.23a10.72,10.72,0,0,0,1.33,3.44,7.1,7.1,0,0,0,2.5,2.43,7.59,7.59,0,0,0,3.89.91,7.77,7.77,0,0,0,3.93-.91,7,7,0,0,0,2.53-2.43,10.49,10.49,0,0,0,1.33-3.44,19.69,19.69,0,0,0,.39-3.93,20.14,20.14,0,0,0-.39-4,10.16,10.16,0,0,0-1.33-3.44A7.46,7.46,0,0,0,693.73,42a7.57,7.57,0,0,0-3.93-.94,7.4,7.4,0,0,0-3.89.94,7.55,7.55,0,0,0-2.5,2.43,10.37,10.37,0,0,0-1.33,3.44,20.14,20.14,0,0,0-.39,4A19.69,19.69,0,0,0,682.08,55.76Z"/><path class="cls-2" d="M728.42,35V39.7h.19a10.52,10.52,0,0,1,4.54-4.25,13.11,13.11,0,0,1,5.71-1.33,15.67,15.67,0,0,1,6.07,1,9,9,0,0,1,3.73,2.79,10.67,10.67,0,0,1,1.91,4.35,26.87,26.87,0,0,1,.56,5.68V68.57h-9.22V49.63q0-4.16-1.3-6.2c-.86-1.36-2.4-2-4.6-2q-3.76,0-5.45,2.24c-1.13,1.5-1.69,4-1.69,7.37V68.57h-9.22V35Z"/></g></svg>