<svg width="190" height="190" viewBox="0 0 190 190" fill="none" xmlns="http://www.w3.org/2000/svg">
<g clip-path="url(#clip0_578_237)">
<path d="M79.2291 119.457C80.1433 119.336 81.0647 119.277 81.9869 119.28C82.9461 119.206 83.9087 119.37 84.789 119.758C85.1204 119.89 85.4043 120.118 85.6037 120.413C85.803 120.709 85.9085 121.057 85.9063 121.413C85.8764 121.837 85.7086 122.239 85.4285 122.558C85.1483 122.878 84.7712 123.097 84.3545 123.183V123.183C84.7886 123.226 85.1982 123.404 85.5256 123.691C85.8531 123.979 86.0819 124.362 86.1798 124.786C86.2778 125.21 86.2399 125.655 86.0715 126.056C85.9031 126.458 85.6127 126.797 85.2413 127.025C84.5585 127.512 83.4057 127.786 81.5346 127.786C80.7613 127.793 79.9884 127.751 79.2202 127.662L79.2291 119.457ZM81.3484 122.67H82.049C83.1751 122.67 83.7693 122.263 83.7693 121.634C83.7693 121.006 83.2195 120.661 82.2529 120.661C81.9564 120.656 81.66 120.674 81.3662 120.714L81.3484 122.67ZM81.3484 126.387C81.6231 126.404 81.8984 126.404 82.1731 126.387C83.1397 126.387 83.9466 126.051 83.9466 125.166C83.9466 124.281 83.0599 123.998 82.0312 123.998H81.3041L81.3484 126.387Z" fill="#EA5C2B"/>
<path d="M89.3381 119.457C90.2789 119.334 91.2269 119.275 92.1757 119.28C93.2393 119.186 94.3064 119.418 95.235 119.944C95.5209 120.14 95.7522 120.405 95.9073 120.715C96.0624 121.024 96.1362 121.368 96.1218 121.714C96.0899 122.193 95.9072 122.649 95.5998 123.018C95.2924 123.387 94.8761 123.649 94.4103 123.767V123.767C94.731 123.906 95.0132 124.12 95.2325 124.391C95.4519 124.663 95.6018 124.983 95.6695 125.325C95.8771 126.13 96.1318 126.922 96.4321 127.697H94.2418C93.965 127.071 93.7512 126.419 93.6034 125.75C93.3373 124.688 92.9294 124.414 92.0427 124.405H91.4131V127.697H89.3026L89.3381 119.457ZM91.4486 123.068H92.3353C93.3994 123.068 94.029 122.599 94.029 121.864C94.029 121.13 93.4438 120.705 92.4595 120.705C92.136 120.694 91.8123 120.715 91.4929 120.767L91.4486 123.068Z" fill="#EA5C2B"/>
<path d="M101.611 125.582L100.937 127.733H98.7465L101.611 119.342H104.413L107.357 127.733H105.051L104.324 125.582H101.611ZM104.005 124.166L103.42 122.395C103.251 121.891 103.083 121.271 102.941 120.776C102.799 121.271 102.666 121.909 102.506 122.395L101.948 124.166H104.005Z" fill="#EA5C2B"/>
<path d="M111.649 127.733L108.598 119.342H110.939L112.083 122.882C112.418 123.867 112.699 124.868 112.926 125.883H113.032C113.272 124.874 113.564 123.883 113.919 122.927L115.125 119.333H117.395L114.211 127.724L111.649 127.733Z" fill="#EA5C2B"/>
<path d="M128.506 123.431C128.506 126.193 126.644 127.857 123.868 127.857C123.287 127.898 122.704 127.817 122.157 127.618C121.61 127.42 121.111 127.108 120.692 126.704C120.274 126.299 119.945 125.812 119.729 125.272C119.512 124.733 119.412 124.154 119.434 123.573C119.414 122.973 119.521 122.375 119.747 121.818C119.973 121.261 120.313 120.758 120.746 120.341C121.179 119.924 121.695 119.602 122.26 119.397C122.825 119.191 123.428 119.106 124.028 119.147C124.612 119.099 125.2 119.175 125.753 119.371C126.305 119.567 126.81 119.877 127.233 120.282C127.657 120.687 127.989 121.178 128.209 121.72C128.428 122.263 128.529 122.846 128.506 123.431V123.431ZM121.687 123.528C121.687 125.184 122.574 126.343 123.983 126.343C125.393 126.343 126.254 125.122 126.254 123.493C126.254 121.864 125.456 120.678 123.983 120.678C122.511 120.678 121.687 121.926 121.687 123.555V123.528Z" fill="#EA5C2B"/>
<path d="M141.674 119.466C142.627 119.342 143.587 119.279 144.547 119.28C145.899 119.175 147.251 119.484 148.422 120.165C148.943 120.506 149.364 120.977 149.644 121.532C149.925 122.086 150.054 122.705 150.019 123.325C150.057 123.974 149.939 124.622 149.675 125.217C149.411 125.811 149.009 126.334 148.502 126.741C147.178 127.569 145.627 127.959 144.068 127.857C143.26 127.863 142.451 127.822 141.648 127.733L141.674 119.466ZM143.802 126.308C144.05 126.327 144.299 126.327 144.547 126.308C146.489 126.308 147.766 125.37 147.766 123.369C147.766 121.599 146.613 120.714 144.769 120.714C144.445 120.708 144.122 120.732 143.802 120.785V126.308Z" fill="#EA5C2B"/>
<path d="M158.682 124.192H155.206V126.184H159.09V127.733H153.078V119.342H158.895V120.9H155.206V122.67H158.682V124.192Z" fill="#EA5C2B"/>
<path d="M164.393 125.582L163.719 127.733H161.52L164.393 119.342H167.195L170.13 127.733H167.825L167.124 125.582H164.393ZM166.787 124.166L166.202 122.395C166.033 121.891 165.865 121.271 165.723 120.776C165.581 121.271 165.439 121.909 165.288 122.395L164.73 124.166H166.787Z" fill="#EA5C2B"/>
<path d="M173.101 125.786C173.846 126.119 174.652 126.297 175.468 126.308C176.444 126.308 176.967 125.945 176.967 125.423C176.967 124.9 176.515 124.6 175.38 124.254C173.81 123.759 172.773 122.98 172.773 121.758C172.773 120.333 174.138 119.245 176.32 119.245C177.144 119.222 177.965 119.366 178.732 119.669L178.253 121.192C177.634 120.926 176.967 120.79 176.293 120.793C175.406 120.793 174.919 121.174 174.919 121.599C174.919 122.024 175.442 122.369 176.692 122.785C178.359 123.334 179.131 124.104 179.131 125.29C179.131 126.688 177.933 127.883 175.335 127.883C174.422 127.892 173.517 127.714 172.675 127.361L173.101 125.786Z" fill="#EA5C2B"/>
<path d="M136.088 120.776V127.706H138.216V120.776C137.926 121.036 137.55 121.18 137.161 121.183C136.766 121.181 136.385 121.036 136.088 120.776V120.776Z" fill="#EA5C2B"/>
<path d="M138.18 119.643C138.18 119.855 138.117 120.062 138 120.238C137.882 120.414 137.714 120.551 137.518 120.632C137.322 120.713 137.106 120.735 136.898 120.693C136.69 120.652 136.499 120.55 136.349 120.4C136.199 120.25 136.097 120.059 136.055 119.852C136.014 119.644 136.035 119.429 136.116 119.233C136.197 119.037 136.335 118.87 136.511 118.752C136.688 118.635 136.895 118.572 137.107 118.572C137.392 118.572 137.665 118.685 137.866 118.885C138.067 119.086 138.18 119.359 138.18 119.643V119.643Z" fill="#EA5C2B"/>
<path d="M77.6773 98.7893C77.6773 98.7893 77.0211 97.3023 76.693 96.5145C79.7218 95.081 82.3119 92.8655 84.1949 90.0974H87.0502L86.3763 91.1861C86.9704 91.6464 87.9193 92.3633 89.2405 93.3547L92.4062 95.7179L90.9254 97.4882L88.0523 95.0187V95.9923H81.7031C81.1398 96.4572 80.5475 96.8859 79.9296 97.2757H90.5707V105.242H81.0469C81.0469 105.375 80.8164 106.623 80.7543 106.817H90.9342V113.226H80.4617V108.003C79.9286 109.667 79.129 111.233 78.094 112.641C77.961 112.509 76.6486 110.995 76.5156 110.871C78.4221 108.703 79.0783 105.906 79.0783 100.515V97.8599L77.6773 98.7893ZM81.2243 102.038V103.613H88.3183V102.029L81.2243 102.038ZM81.2243 98.9752V100.56H88.3183V98.9752H81.2243ZM82.6165 108.543V111.703H88.7262V108.543H82.6165ZM87.4582 94.5319L85.1792 92.6643C84.674 93.3655 84.0776 93.9965 83.4057 94.5407L87.4582 94.5319ZM93.0979 113.376V111.039H95.7582C96.8755 111.039 97.3366 110.703 97.3366 109.659V90.3895H99.7308V110.225C99.7308 112.279 98.8441 113.376 96.8666 113.376H93.0979Z" fill="#EA5C2B"/>
<path d="M106.435 112.872C105.739 112.457 105.013 112.096 104.262 111.792C105.205 110.501 105.999 109.108 106.63 107.641L108.909 108.526C108.111 110.042 107.286 111.491 106.435 112.872ZM105.938 93.93V92.1597H115.231V90.0797H117.803V92.1509H126.67V93.9211H122.786L121.536 95.895H128.107V97.7626H104.484V95.9038H110.815L109.627 93.93H105.938ZM107.135 106.853V99.161H125.447V106.835H116.579L118.849 109.207L116.969 110.588L114.504 107.826L115.887 106.835L107.135 106.853ZM109.698 100.834V102.312H122.848V100.825L109.698 100.834ZM109.698 103.693V105.171H122.84V103.684L109.698 103.693ZM113.156 113.261C111.055 113.261 110.097 112.376 110.088 110.402V107.835H112.66V109.809C112.66 110.774 113.112 111.19 114.433 111.19H118.193C119.452 111.19 120.091 110.898 120.259 110.101C120.507 109.083 120.676 108.331 120.676 108.331L123.061 109.145C123.061 109.145 122.742 110.429 122.538 111.137C122.104 112.686 120.924 113.279 118.885 113.208L113.156 113.261ZM112.358 93.93L113.742 95.9038H118.778L120.064 93.93H112.358ZM126.005 112.367L123.673 108.384L125.943 107.499C126.685 108.831 127.511 110.114 128.417 111.34L126.005 112.367Z" fill="#EA5C2B"/>
<path d="M133.693 113.642C133.498 113.642 132.026 113.217 131.822 113.155C132.36 111.782 132.758 110.359 133.011 108.906L134.784 109.101C134.589 110.092 133.933 113.102 133.693 113.642ZM132.807 100.418V91.1508H143.448V100.418H139.2V102.1H143.448V103.958H139.191V105.729L143.829 105.49V107.393L132.168 108.065L132.062 106.092L137.001 105.844V103.958H132.656V102.1H137.001V100.418H132.807ZM134.58 92.921V98.6477H137.24V92.921H134.58ZM135.866 97.6476C135.804 97.3909 135.671 96.9306 135.467 96.2756C135.201 95.479 135.006 94.886 134.873 94.5054L136.061 94.1071C136.345 94.9922 136.833 96.4615 136.948 97.2581L135.866 97.6476ZM136.079 113.137C136.008 112.411 135.777 110.544 135.573 109.092L137.258 108.897C137.32 109.287 137.79 112.509 137.852 113.04L136.079 113.137ZM139.333 112.739C139.271 112.279 138.579 109.358 138.446 108.897L140.025 108.694C140.158 109.225 140.983 112.119 141.116 112.447L139.333 112.739ZM141.692 92.9122H138.925V98.6477H141.692V92.9122ZM140.317 97.7626L139.129 97.2758C139.582 96.2562 139.944 95.1988 140.211 94.1159L141.399 94.5054C141.408 94.5673 140.575 97.1607 140.317 97.7626ZM142.596 112.261C142.463 111.801 141.337 109.013 141.213 108.614L142.791 108.216C143.058 108.747 144.139 111.438 144.272 111.756L142.596 112.261ZM144.769 113.642V102.135H148.431V90.0532H150.799V94.6913H155.738V97.0545H150.799V102.073H154.949V113.695L144.769 113.642ZM147.137 104.463V111.473H152.572V104.445L147.137 104.463Z" fill="#EA5C2B"/>
<path d="M159.48 103.365V100.905H170.245V98.338L177.162 93.9124H161.644V91.4252H181.215V94.47L173.11 99.6125V100.896H183.387V103.357H173.118V109.668C173.118 111.871 172.232 113.208 169.66 113.208H165.351L164.934 110.73H168.277C169.891 110.73 170.254 110.154 170.254 108.756V103.357L159.48 103.365Z" fill="#EA5C2B"/>
<path d="M95.0753 92.859H92.7964V107.756H95.0753V92.859Z" fill="#EA5C2B"/>
<path d="M52.9812 64.128C47.6198 61.9133 41.6744 61.5343 36.0743 63.0502C30.4742 64.5661 25.5352 67.8914 22.0293 72.5064C18.5235 77.1213 16.6485 82.7657 16.6973 88.5572C16.7462 94.3487 18.7163 99.9607 22.2996 104.516C21.9449 105.348 21.5015 106.428 20.9162 107.844C20.7726 108.19 20.7084 108.563 20.7283 108.937C20.7483 109.311 20.8519 109.675 21.0315 110.004C23.3435 113.737 26.8023 116.624 30.8922 118.235C34.8894 120.01 39.385 120.323 43.5905 119.121C43.917 118.999 44.2153 118.813 44.4669 118.572C44.7185 118.332 44.9182 118.042 45.0536 117.722L46.4724 114.341C52.2062 113.582 57.5283 110.954 61.6118 106.865C65.6952 102.777 68.3113 97.456 69.0534 91.7304C69.7956 86.0048 68.6223 80.1949 65.7159 75.2034C62.8095 70.2119 58.3327 66.3184 52.9812 64.128V64.128ZM39.5824 83.0961C40.863 82.3714 42.3303 82.0422 43.7985 82.1502C45.2667 82.2582 46.6698 82.7986 47.8302 83.7029C48.9906 84.6072 49.8561 85.8348 50.3172 87.2303C50.7783 88.6259 50.8143 90.1266 50.4205 91.5425C50.0267 92.9585 49.221 94.226 48.1052 95.1846C46.9894 96.1432 45.6138 96.7499 44.1524 96.9278C42.6911 97.1057 41.2097 96.8469 39.8958 96.184C38.5819 95.5212 37.4945 94.4842 36.7714 93.2042C35.8035 91.4912 35.5559 89.465 36.0829 87.57C36.6099 85.675 37.8684 84.0661 39.5824 83.0961V83.0961ZM62.5315 96.4437C61.0364 100.067 58.5591 103.202 55.3777 105.497C52.1963 107.792 48.4369 109.157 44.5216 109.437C44.0548 109.47 43.6064 109.633 43.2272 109.906C42.848 110.18 42.5531 110.554 42.3756 110.986C41.9145 112.102 41.2938 113.562 40.877 114.527C39.5929 114.739 38.2849 114.766 36.993 114.606V99.0637C39.3131 100.564 42.0999 101.171 44.8352 100.774C47.5704 100.376 50.068 99.0006 51.8632 96.9028C53.6585 94.8049 54.6293 92.1275 54.595 89.3687C54.5607 86.6099 53.5238 83.9574 51.6769 81.9046C49.8301 79.8518 47.2992 78.5384 44.5549 78.2087C41.8106 77.8791 39.0397 78.5555 36.7576 80.1124C34.4756 81.6692 32.8377 84.0003 32.1486 86.6722C31.4596 89.3442 31.7662 92.1749 33.0115 94.6381V113.642L32.8076 113.562C30.182 112.485 27.8813 110.747 26.1303 108.517L27.5314 105.127C27.5708 105.05 27.6034 104.97 27.6289 104.888C27.7752 104.465 27.8063 104.011 27.7191 103.573C27.6318 103.134 27.4293 102.727 27.1324 102.392C24.6213 99.5679 22.9136 96.1245 22.1865 92.4192C21.4594 88.7139 21.7396 84.8819 22.9978 81.3212C24.256 77.7605 26.4465 74.601 29.3416 72.1709C32.2367 69.7408 35.7308 68.1289 39.4611 67.5024C43.1913 66.8759 47.0216 67.2578 50.5539 68.6084C54.0863 69.9591 57.192 72.2291 59.5483 75.1828C61.9046 78.1365 63.4256 81.666 63.9534 85.4048C64.4811 89.1436 63.9963 92.9552 62.5493 96.4437H62.5315Z" fill="#EA5C2B"/>
<path d="M30.4045 119.758L29.8281 119.519C25.7471 117.948 22.3504 114.993 20.2335 111.172C20.0626 110.795 19.9894 110.381 20.0207 109.968C18.834 113.129 18.9235 116.626 20.2701 119.722C21.6167 122.818 24.1152 125.272 27.2388 126.564V126.564C30.3623 127.855 33.8663 127.883 37.0102 126.643C40.1542 125.403 42.6919 122.991 44.0871 119.917C43.814 120.225 43.4702 120.462 43.0851 120.608C38.8892 121.817 34.4008 121.517 30.4045 119.758Z" fill="#EA5C2B"/>
<path d="M55.739 50.5502L53.6286 49.9307L50.72 58.8615L52.6975 59.5254L55.739 50.5502Z" fill="#EA5C2B"/>
<path d="M58.4613 62.1011C59.027 62.4228 59.6568 62.6162 60.3058 62.6676C60.8714 62.7023 61.4377 62.6116 61.964 62.402C62.4904 62.1873 62.9694 61.8715 63.374 61.4726C63.8245 61.0086 64.204 60.4807 64.5001 59.906C64.833 59.2922 65.0523 58.6236 65.1475 57.9322C65.2526 57.3435 65.2253 56.7388 65.0677 56.1619C64.9088 55.6353 64.633 55.1512 64.2607 54.7457C63.8697 54.315 63.4041 53.9582 62.8862 53.6924L59.2683 51.7894L54.8345 60.1715L58.4613 62.1011ZM60.2969 54.3386L61.6093 55.029C62.0084 55.2212 62.3644 55.4922 62.6557 55.8256C62.885 56.0975 63.0407 56.4236 63.1079 56.7727C63.1693 57.1351 63.1512 57.5066 63.0547 57.8614C62.9441 58.2845 62.7802 58.6919 62.567 59.074C62.3693 59.4773 62.1022 59.8428 61.7778 60.1538C61.5245 60.3953 61.222 60.5794 60.891 60.6937C60.6041 60.7813 60.3015 60.8055 60.0043 60.7646C59.6938 60.7252 59.3932 60.6292 59.1175 60.4813L57.4682 59.5962L60.2969 54.3386Z" fill="#EA5C2B"/>
<path d="M35.0688 56.038C35.3218 56.5934 35.6871 57.0906 36.1418 57.4984C36.596 57.9015 37.131 58.2032 37.7113 58.3835C38.3585 58.5718 39.0369 58.629 39.7065 58.5517C40.3807 58.4781 41.0326 58.2673 41.6219 57.9321C42.1486 57.6457 42.6104 57.254 42.9786 56.7815C43.3289 56.2846 43.5817 55.726 43.7235 55.1351C43.8828 54.496 43.9308 53.8344 43.8654 53.179C43.803 52.5107 43.626 51.858 43.3422 51.2495C43.0823 50.6906 42.7147 50.1883 42.2604 49.7713C41.8076 49.3662 41.2721 49.0642 40.6908 48.8862C39.3868 48.5088 37.9867 48.6549 36.7891 49.2933C36.2547 49.5953 35.7919 50.009 35.4324 50.506C35.0786 51.0106 34.8257 51.5786 34.6875 52.1788C34.5398 52.8319 34.5038 53.5053 34.5811 54.1704C34.6342 54.8164 34.7992 55.4483 35.0688 56.038V56.038ZM36.6295 52.7188C36.677 52.3418 36.791 51.9761 36.9665 51.6389C37.1319 51.3258 37.3689 51.056 37.6581 50.8512C38.0046 50.6222 38.4051 50.4879 38.8198 50.4617C39.2301 50.4002 39.6495 50.4491 40.0346 50.6033C40.3806 50.7397 40.6858 50.9621 40.9214 51.2495C41.1672 51.5394 41.3566 51.8726 41.48 52.2319C41.6135 52.6159 41.7028 53.0139 41.746 53.418C41.7904 53.8092 41.7904 54.2041 41.746 54.5952C41.6959 54.9632 41.5819 55.3196 41.4091 55.6485C41.2369 55.97 40.9908 56.2461 40.6908 56.454C40.3436 56.6814 39.9435 56.8156 39.5292 56.8434C39.1188 56.9058 38.6992 56.8569 38.3143 56.7018C37.9708 56.5653 37.6663 56.3464 37.4276 56.0645C37.1898 55.7771 37.0037 55.4507 36.8778 55.0997C36.7505 54.7297 36.6643 54.3468 36.6206 53.9579C36.5772 53.5458 36.5802 53.1302 36.6295 52.7188V52.7188Z" fill="#EA5C2B"/>
<path d="M13.4143 74.9884C13.096 74.6996 12.7079 74.4983 12.2882 74.4042C11.7714 74.243 11.2176 74.243 10.7009 74.4042C10.1947 74.5986 9.77379 74.9654 9.51262 75.4398C9.4462 75.0256 9.26845 74.6371 8.9983 74.3157C8.71261 74.0044 8.33809 73.7882 7.92533 73.6961C7.55718 73.5874 7.16914 73.5632 6.79029 73.6253C6.46344 73.6791 6.15713 73.8197 5.90354 74.0325C5.64384 74.2664 5.4329 74.5491 5.28281 74.8645C5.09323 75.242 4.94745 75.64 4.8483 76.0505L3.71326 80.3611L12.9 82.7775L14.0705 78.3519C14.1764 77.9473 14.2301 77.5308 14.2301 77.1127C14.2318 76.7143 14.1628 76.3187 14.0262 75.9443C13.9017 75.5814 13.6919 75.2536 13.4143 74.9884V74.9884ZM12.4566 78.1925L11.8891 80.3522L9.36187 79.6884L7.98741 79.3255L5.84146 78.759L6.33805 76.8737C6.38244 76.7007 6.44178 76.5319 6.51539 76.3692C6.58705 76.2189 6.68291 76.0814 6.79916 75.962C6.91054 75.8548 7.04811 75.7785 7.19819 75.7407C7.38078 75.6888 7.57426 75.6888 7.75685 75.7407C7.91892 75.7644 8.07231 75.8288 8.2026 75.9279C8.3329 76.027 8.43582 76.1575 8.50172 76.3072C8.61224 76.5897 8.6278 76.9003 8.54606 77.1923L8.2623 78.2899L9.63676 78.6528C9.63676 78.6528 9.956 77.449 9.956 77.4313C10.0511 77.0858 10.2489 76.7771 10.5235 76.5462C10.6858 76.4371 10.8718 76.3682 11.0661 76.3451C11.2604 76.3221 11.4574 76.3455 11.6408 76.4134C11.847 76.4571 12.039 76.5514 12.1995 76.6878C12.3258 76.8039 12.4204 76.9501 12.4744 77.1127C12.5301 77.2809 12.5542 77.458 12.5453 77.6349C12.5357 77.8234 12.506 78.0103 12.4566 78.1925V78.1925Z" fill="#EA5C2B"/>
<path d="M13.8222 70.0761L12.6606 69.1909L10.5679 67.4915L11.9867 65.7213C12.1953 65.4069 12.5099 65.1777 12.8734 65.0751C13.0563 65.054 13.2416 65.0732 13.4163 65.1313C13.5909 65.1894 13.7507 65.2851 13.8843 65.4115C14.0422 65.5162 14.176 65.6532 14.2769 65.8134C14.3778 65.9736 14.4435 66.1534 14.4696 66.3409C14.4636 66.7128 14.3253 67.0704 14.0794 67.3499L13.3079 68.3147L14.4696 69.2441L15.1258 68.4209C15.3481 68.1002 15.684 67.8756 16.0657 67.7925C16.4688 67.7718 16.8675 67.8838 17.2008 68.1111C17.5377 68.3058 17.8747 68.5271 18.2205 68.7572C18.5174 68.975 18.8465 69.1452 19.196 69.2618L20.4906 67.6243C20.3123 67.6201 20.1369 67.5778 19.9763 67.5004C19.7879 67.4188 19.6069 67.3211 19.4354 67.2083C19.2492 67.0932 19.0807 66.9781 18.9122 66.8542L18.4777 66.5444C18.2803 66.408 18.0728 66.2866 17.857 66.1815C17.673 66.0601 17.4731 65.9647 17.2628 65.8983C17.0455 65.8629 16.8239 65.8629 16.6066 65.8983C16.3686 65.9498 16.1447 66.0525 15.9504 66.1992V66.1992C16.1202 65.7211 16.1202 65.1992 15.9504 64.7211C15.7634 64.2603 15.4575 63.8572 15.0637 63.5527C14.7997 63.3333 14.4938 63.17 14.1644 63.0726C13.8351 62.9752 13.4894 62.9458 13.1483 62.9862C12.7987 63.0337 12.4615 63.1479 12.1551 63.3226C11.8127 63.5237 11.5118 63.788 11.2684 64.1015L8.09381 68.1022L15.5337 73.9883L16.8283 72.3597L13.8222 70.0761Z" fill="#EA5C2B"/>
<path d="M25.8998 62.942L24.4455 61.9683L22.1577 63.7651L21.466 61.6674L20.2689 58.1092L20.2867 58.0915L23.4346 60.1273L24.8534 61.0301L26.76 62.2693L28.498 60.9062L19.6837 55.5424L17.9634 56.8877L21.0581 66.7303L25.8998 62.942Z" fill="#EA5C2B"/>
<path d="M73.4475 76.3161L71.8424 77.9182L72.809 79.9008L79.9119 72.4216L78.9542 70.4655L68.659 71.4214L71.3636 76.9445L72.6139 75.7319L71.337 73.1208L73.5273 72.8818L77.2694 72.457L77.2871 72.4835L74.6268 75.13L73.4475 76.3161Z" fill="#EA5C2B"/>
<path d="M67.994 70.1381L69.2798 68.9166L65.7327 65.1903L67.4264 63.5616L70.6453 66.9074L71.8336 65.7744L68.6147 62.4287L70.0956 61.0036L73.6426 64.6592L74.9195 63.4289L69.9537 58.2598L63.0281 64.8893L67.994 70.1381Z" fill="#EA5C2B"/>
<path d="M82.3327 83.2378C82.2757 82.8146 82.1624 82.4008 81.9958 82.0075C81.8382 81.6153 81.6097 81.2552 81.3218 80.9453C81.0455 80.6453 80.7064 80.4096 80.3287 80.255C79.9175 80.0932 79.4705 80.0443 79.034 80.1133C78.6521 80.1516 78.2861 80.2856 77.9699 80.5028C77.6997 80.6955 77.4731 80.9428 77.3049 81.2286C77.1348 81.5284 77.0065 81.8501 76.9235 82.1845C76.8435 82.5382 76.7814 82.8956 76.7373 83.2555C76.6841 83.6096 76.6487 83.9548 76.6132 84.2911C76.5811 84.5896 76.5278 84.8853 76.4536 85.1762C76.3935 85.4234 76.2883 85.6575 76.1432 85.8666C75.9971 86.0448 75.7871 86.1591 75.5579 86.1853C75.3478 86.2246 75.1306 86.1869 74.9461 86.0791C74.7763 85.9788 74.6333 85.8392 74.5293 85.6719C74.4135 85.4982 74.3266 85.3069 74.2722 85.1054C74.2165 84.914 74.175 84.7187 74.148 84.5212C74.1125 84.2569 74.1125 83.989 74.148 83.7246C74.1682 83.4763 74.2408 83.235 74.3608 83.0165C74.4726 82.8069 74.6339 82.6277 74.8308 82.4943L75.0525 82.3704L73.6071 80.9719C73.3497 81.1951 73.1335 81.4617 72.9686 81.7597C72.7415 82.183 72.597 82.6456 72.543 83.1227C72.4766 83.628 72.4766 84.1399 72.543 84.6452C72.6054 85.2162 72.755 85.7744 72.9864 86.3003C73.1688 86.7284 73.434 87.1164 73.7667 87.4421C74.0638 87.7234 74.4219 87.9324 74.8131 88.0529C75.2119 88.1748 75.6326 88.208 76.0457 88.1502C76.5026 88.1066 76.937 87.9313 77.296 87.6457C77.5868 87.4007 77.825 87.0997 77.9965 86.7606C78.1497 86.4532 78.2572 86.1252 78.3158 85.787C78.369 85.4595 78.3956 85.2116 78.4133 85.0346C78.4842 84.4239 78.5374 83.9371 78.5906 83.5653C78.6218 83.2654 78.6811 82.969 78.768 82.6802C78.815 82.5108 78.9033 82.3557 79.0252 82.2288C79.1524 82.1351 79.3024 82.077 79.4597 82.0606C79.6344 82.036 79.8125 82.0605 79.974 82.1314C80.1165 82.2028 80.2432 82.3022 80.3464 82.4235C80.4528 82.55 80.5368 82.6937 80.5947 82.8484C80.6508 83.009 80.6895 83.1752 80.71 83.344C80.7361 83.5793 80.7361 83.8168 80.71 84.0521C80.6978 84.2604 80.6466 84.4645 80.5592 84.654C80.4762 84.8367 80.3443 84.9929 80.1779 85.1054C80.1205 85.1508 80.058 85.1894 79.9917 85.2205L81.242 86.7783C81.5344 86.5349 81.773 86.2335 81.9426 85.8932C82.1451 85.4983 82.2714 85.0689 82.315 84.6275C82.3749 84.1665 82.3808 83.7001 82.3327 83.2378V83.2378Z" fill="#EA5C2B"/>
<path d="M33.1978 59.6139L32.3021 49.5146L30.2981 50.3821L30.9897 57.4542L30.972 57.463L26.3077 52.1081L24.3125 52.9666L30.9986 60.5698L33.1978 59.6139Z" fill="#EA5C2B"/>
<path d="M47.5366 127.6C46.8596 127.6 46.1978 127.4 45.6349 127.024C45.072 126.649 44.6333 126.115 44.3743 125.491C44.1152 124.867 44.0474 124.18 44.1795 123.517C44.3116 122.854 44.6375 122.245 45.1162 121.768C45.5949 121.29 46.2048 120.964 46.8688 120.832C47.5328 120.701 48.221 120.768 48.8464 121.027C49.4719 121.286 50.0065 121.723 50.3826 122.285C50.7587 122.847 50.9594 123.508 50.9594 124.183C50.9594 125.09 50.5988 125.959 49.9569 126.599C49.315 127.24 48.4444 127.6 47.5366 127.6V127.6ZM47.5366 121.324C46.9701 121.324 46.4163 121.492 45.9453 121.806C45.4743 122.12 45.1072 122.567 44.8904 123.089C44.6736 123.612 44.6169 124.187 44.7274 124.741C44.8379 125.296 45.1107 125.805 45.5113 126.205C45.9118 126.605 46.4222 126.877 46.9778 126.987C47.5334 127.098 48.1093 127.041 48.6327 126.825C49.156 126.608 49.6034 126.242 49.9181 125.772C50.2328 125.302 50.4008 124.749 50.4008 124.183C50.4008 123.425 50.099 122.698 49.5619 122.162C49.0247 121.626 48.2962 121.324 47.5366 121.324V121.324Z" fill="#EA5C2B"/>
<path d="M46.3838 122.546C46.7261 122.517 47.0702 122.517 47.4124 122.546C47.7929 122.508 48.1748 122.602 48.4943 122.811C48.5951 122.897 48.6753 123.005 48.729 123.126C48.7827 123.247 48.8086 123.378 48.8046 123.511C48.8021 123.692 48.7437 123.868 48.6374 124.016C48.5312 124.163 48.3821 124.274 48.2105 124.334C48.327 124.399 48.4273 124.489 48.5041 124.598C48.5809 124.706 48.6321 124.831 48.6539 124.962C48.7603 125.334 48.8667 125.777 48.9288 125.901H48.1573C48.0541 125.649 47.9768 125.388 47.9267 125.122C47.8292 124.706 47.6873 124.591 47.3858 124.591H47.1553V125.901H46.4015L46.3838 122.546ZM47.1375 123.98H47.4124C47.7937 123.98 48.0154 123.794 48.0154 123.502C48.0154 123.21 47.8115 123.042 47.4568 123.033C47.3447 123.023 47.2319 123.023 47.1198 123.033L47.1375 123.98Z" fill="#EA5C2B"/>
</g>
<defs>
<clipPath id="clip0_578_237">
<rect width="190" height="190" fill="white"/>
</clipPath>
</defs>
</svg>
