<svg width="190" height="190" viewBox="0 0 190 190" fill="none" xmlns="http://www.w3.org/2000/svg">
<path d="M95.2542 149.061C124.904 149.061 148.94 125.081 148.94 95.5C148.94 65.9188 124.904 41.9385 95.2542 41.9385C65.6043 41.9385 41.5684 65.9188 41.5684 95.5C41.5684 125.081 65.6043 149.061 95.2542 149.061Z" fill="white"/>
<path d="M95.5086 150.402C84.6246 150.402 73.985 147.183 64.9352 141.15C55.8855 135.117 48.832 126.543 44.6669 116.51C40.5017 106.478 39.4119 95.439 41.5354 84.7888C43.6588 74.1387 48.9 64.356 56.5963 56.6777C61.6871 51.495 67.7572 47.3706 74.4557 44.5429C81.1541 41.7153 88.348 40.2405 95.6213 40.2038C102.895 40.1672 110.103 41.5694 116.83 44.3294C123.556 47.0894 129.668 51.1525 134.811 56.2836C139.954 61.4148 144.027 67.5122 146.793 74.2234C149.56 80.9345 150.965 88.1262 150.928 95.3827C150.892 102.639 149.413 109.816 146.579 116.499C143.745 123.182 139.611 129.238 134.416 134.317C129.319 139.432 123.256 143.487 116.577 146.248C109.899 149.009 102.738 150.421 95.5086 150.402V150.402ZM95.5086 43.2794C66.6486 43.2794 43.1668 66.6945 43.1668 95.5C43.1668 124.306 66.6486 147.721 95.5086 147.721C124.369 147.721 147.851 124.293 147.851 95.5C147.851 66.7068 124.369 43.2794 95.5086 43.2794V43.2794Z" fill="#0069AC"/>
<path d="M95.39 145.579C67.6466 145.579 45.0764 123.061 45.0764 95.3817C45.0764 67.7026 67.6466 45.1846 95.39 45.1846C123.133 45.1846 145.704 67.7026 145.704 95.3817C145.704 123.061 123.133 145.579 95.39 145.579ZM95.39 47.6371C68.998 47.6371 47.5345 69.0557 47.5345 95.3817C47.5345 121.708 68.998 143.126 95.39 143.126C121.782 143.126 143.246 121.703 143.246 95.3817C143.246 69.0606 121.777 47.6371 95.39 47.6371Z" fill="#0069AC"/>
<path d="M95.3901 140.994C70.1912 140.994 49.6715 120.537 49.6715 95.3817C49.6715 70.2265 70.1764 49.769 95.3901 49.769C120.604 49.769 141.109 70.2265 141.109 95.3817C141.109 120.537 120.599 140.994 95.3901 140.994ZM95.3901 51.9972C71.4265 51.9972 51.9098 71.4687 51.9098 95.3768C51.9098 119.285 71.4265 138.756 95.3901 138.756C119.354 138.756 138.87 119.285 138.87 95.3768C138.87 71.4687 119.368 51.9972 95.3901 51.9972Z" fill="#0069AC"/>
<path d="M97.2552 137.802L120.399 105.564V111.664L130.733 98.3024L129.132 104.257L138.011 96.9961L125.784 113.84L125.493 110.5L115.45 124.153L115.596 117.762L97.2552 137.802Z" fill="#E60012"/>
<path d="M96.818 53.2838L120.399 85.8136L120.107 79.7133L130.589 92.6384L129.278 86.6836L138.011 94.0902L125.347 76.6644V80.4404L115.159 66.7882L115.45 72.8884L96.818 53.2838Z" fill="#E60012"/>
<path d="M94.1992 53.4292L71.0534 86.1044V80.295L60.8652 93.2201L62.0288 87.2653L53.4414 94.6718L65.6702 77.3915V81.0221L76.0042 67.079L75.5669 73.9063L94.1992 53.4292Z" fill="#E60012"/>
<path d="M53.4414 96.8507L62.466 104.691L60.8652 98.4479L71.3449 111.373L71.0534 105.564L94.4908 137.803L76.0042 117.907L76.2957 124.296L65.9593 110.5V114.276L53.4414 96.8507Z" fill="#E60012"/>
<path d="M108.96 106.121L113.553 95.2954L96.6673 95.2757V92.9589H112.701L111.562 90.0776H79.7249L78.4353 92.9589L93.7893 92.9761V95.3078H77.5978L82.2793 106.153H85.4909L82.1583 98.2655H84.9697L88.4975 106.153L91.6054 106.133L88.2505 98.1841L93.7893 98.1644V108.415H83.0798L88.8681 121.456L93.851 121.434V132.824L95.9781 137.524L101.677 123.879H98.493L96.8205 128.276V121.456H102.673L108.014 108.415L96.6673 108.393L96.6896 98.1841L102.989 98.2039L99.4787 106.16H102.745L106.077 98.1619H109.413L106.077 106.091L108.96 106.121ZM88.7816 113.5L87.7193 111.228H93.7967V113.5H88.7816ZM93.767 118.745L91.0618 118.723L89.9205 116.298L93.809 116.322L93.767 118.745ZM103.896 111.294L102.863 113.527L96.6871 113.507V111.289L103.896 111.294ZM101.692 116.298L100.746 118.745L96.6921 118.723V116.317L101.692 116.298Z" fill="#0069AC"/>
<path d="M104.395 74.3796H86.6076L81.2516 86.6688H109.909L104.395 74.3796ZM88.5543 77.2214H102.572L105.42 83.7037H85.8195L88.5543 77.2214Z" fill="#0069AC"/>
<path d="M98.6981 61.1956L97.1022 64.7202L99.039 69.0409H92.0871L97.2158 57.7844L95.6199 53.9197L87.7563 71.8852H103.37L98.6981 61.1956Z" fill="#0069AC"/>
</svg>
