<svg width="190" height="190" viewBox="0 0 190 190" fill="none" xmlns="http://www.w3.org/2000/svg">
<path fill-rule="evenodd" clip-rule="evenodd" d="M105.82 99.9434C105.225 100.79 104.091 101.468 102.418 101.977L101.743 101.098C103.395 100.713 104.48 100.117 104.998 99.3099H102.159V98.3894H105.288C105.282 98.3558 105.282 98.3215 105.288 98.2879V97.3639H103.804C103.536 97.7092 103.225 98.0196 102.88 98.2879C102.639 98.0185 102.357 97.7893 102.044 97.6089C102.671 97.0996 103.154 96.4346 103.444 95.6804L104.609 96.0829C104.532 96.2054 104.462 96.3314 104.396 96.4574H108.862V97.3639H106.447V98.2879C106.452 98.3215 106.452 98.3558 106.447 98.3894H109.17V99.3099H106.576C107.412 99.7346 108.228 100.186 109.026 100.664L108.305 101.473C107.633 101.004 106.814 100.493 105.855 99.9434H105.82ZM115.036 100.969C115.036 101.053 114.98 101.098 114.864 101.098H109.947C109.842 101.098 109.786 101.053 109.786 100.969V96.4854C109.786 96.4084 109.849 96.3699 109.947 96.3699H114.847C114.962 96.3699 115.018 96.4084 115.018 96.4854L115.036 100.969ZM113.783 97.2799H110.997C110.958 97.2799 110.941 97.2799 110.951 97.3079V100.146C110.951 100.167 110.951 100.181 110.997 100.188H113.734C113.772 100.188 113.79 100.167 113.79 100.146V97.3079C113.79 97.2904 113.79 97.2799 113.734 97.2799H113.783ZM104.9 106.128V106.646H103.717V101.861C103.717 101.767 103.78 101.718 103.902 101.718H113.531C113.706 101.718 113.793 101.781 113.793 101.907V106.646H112.596V106.128H104.9ZM112.582 104.287H104.914V105.123H112.596L112.582 104.287ZM104.9 103.461H112.582V102.761C112.582 102.677 112.523 102.631 112.407 102.631H105.057C104.931 102.631 104.875 102.68 104.886 102.778L104.9 103.461Z" fill="#231815"/>
<path fill-rule="evenodd" clip-rule="evenodd" d="M123.292 103.51H120.552V102.502H123.464C123.495 102.187 123.513 101.802 123.523 101.392V100.598H121.014V99.604H123.523V97.7734H120.898V96.7654H123.523V95.7574H124.776V96.7654H127.258V97.7734H124.776V99.5899H127.097V100.584H124.79V101.378C124.79 101.763 124.759 102.134 124.72 102.488H127.328V103.496H124.559C124.46 103.954 124.311 104.4 124.115 104.826C123.868 105.255 123.546 105.636 123.163 105.949C122.636 106.301 122.05 106.554 121.434 106.698L120.51 105.89C121.059 105.819 121.589 105.638 122.067 105.358C122.389 105.148 122.665 104.874 122.878 104.554C123.091 104.234 123.237 103.874 123.306 103.496L123.292 103.51ZM129.477 97.0734C129.361 97.0734 129.302 97.1154 129.302 97.2029V106.702H127.993V96.2335C127.993 96.1075 128.066 96.0444 128.224 96.0444H133.047L133.883 96.608L132.312 100.181C132.263 100.258 132.287 100.332 132.385 100.398C132.926 100.878 133.397 101.43 133.785 102.04C134.252 103.097 134.252 103.981 133.785 104.693C133.581 105.039 133.274 105.312 132.907 105.473C132.207 105.763 131.216 105.744 129.935 105.417L129.967 104.266C130.471 104.458 130.998 104.583 131.535 104.637C131.755 104.649 131.976 104.621 132.186 104.553C132.791 104.35 133.022 103.804 132.886 102.908C132.721 102.341 132.13 101.585 131.111 100.633C130.968 100.496 130.915 100.391 130.954 100.314L132.308 97.2029C132.354 97.1154 132.375 97.0734 132.364 97.0734H129.477Z" fill="#231815"/>
<path fill-rule="evenodd" clip-rule="evenodd" d="M142.987 101.473V106.691H141.734V101.819C141.323 102.549 140.84 103.235 140.292 103.867L139.109 103.492C140.144 102.469 140.963 101.248 141.517 99.9014H139.347V98.9074H141.741V97.2519C141.069 97.2974 140.365 97.3359 139.641 97.3639L139.487 96.3734C141.261 96.311 143.029 96.1191 144.775 95.7994L144.992 96.7794C144.376 96.9124 143.708 97.0291 142.987 97.1294V98.9179H145.062V99.9119H142.987V100.073C143.84 100.843 144.649 101.661 145.409 102.523L144.429 103.142C144.016 102.631 143.536 102.092 142.987 101.497V101.473ZM146.074 97.0454L146.994 96.3804C147.926 97.0983 148.816 97.8684 149.661 98.6869L148.681 99.2924C147.872 98.476 147.001 97.7247 146.074 97.0454V97.0454ZM145.437 99.8734L146.361 99.1979C147.562 100.166 148.393 100.872 148.853 101.315L147.873 101.935C147.116 101.179 146.296 100.49 145.423 99.8734H145.437ZM150.137 103.723L144.6 104.472L144.299 103.492L150.137 102.701V95.7959H151.39V102.554L152.629 102.379L152.832 103.377L151.39 103.58V106.649H150.137V103.723Z" fill="#231815"/>
<path fill-rule="evenodd" clip-rule="evenodd" d="M159.787 101.676V98.9809H158.086V97.9834H159.787V95.8379H161.047V97.9834H162.447V98.9809H161.047V101.13C161.389 100.966 161.72 100.783 162.041 100.58L162.807 101.371C162.341 101.635 161.817 101.895 161.236 102.152L161.047 102.236V105.54C161.044 105.754 160.98 105.962 160.863 106.14C160.746 106.319 160.58 106.46 160.385 106.548C160.049 106.73 159.305 106.687 158.152 106.418L158.222 105.368C158.551 105.473 158.786 105.547 158.922 105.585C159.16 105.668 159.419 105.668 159.657 105.585C159.706 105.547 159.744 105.496 159.767 105.438C159.789 105.381 159.796 105.318 159.787 105.256V102.747C159.384 102.911 158.964 103.062 158.534 103.209L157.834 102.358C158.604 102.106 159.252 101.873 159.78 101.658L159.787 101.676ZM166.822 104.773C165.37 105.667 163.77 106.293 162.097 106.621L161.32 105.711C162.913 105.406 164.452 104.867 165.887 104.112C164.881 103.32 163.963 102.421 163.15 101.431L164.2 100.867C164.959 101.836 165.824 102.717 166.78 103.492C167.728 102.705 168.537 101.765 169.174 100.71C169.272 100.535 169.216 100.454 169.016 100.465H163.101V99.4569H165.947V97.8679H162.517V96.8774H165.947V95.7959H167.2V96.8774H171.12V97.8679H167.2V99.4569H170.371L170.889 99.8069C170.57 100.669 170.134 101.484 169.594 102.229C169.002 102.904 168.371 103.543 167.704 104.143C168.929 104.839 170.23 105.391 171.582 105.788L170.717 106.695C169.353 106.196 168.047 105.552 166.822 104.773" fill="#231815"/>
<path fill-rule="evenodd" clip-rule="evenodd" d="M113.846 84.2914H107.465L105.232 89.5834C105.043 90.0034 104.949 90.0804 104.413 90.0804H102.338C102.117 90.0804 101.743 90.0804 101.743 89.7304C101.791 89.5596 101.854 89.3933 101.932 89.2334L109.6 72.0834C109.758 71.7334 109.852 71.5864 110.356 71.5864H112.18C112.652 71.5864 112.743 71.6389 112.932 71.9819L120.604 89.3734C120.68 89.4816 120.724 89.609 120.73 89.7409C120.73 90.0559 120.415 90.0909 120.195 90.0909H117.02C116.485 90.0909 116.359 90.0664 116.142 89.6184L113.846 84.2914ZM113.058 82.3279L110.647 76.2764L108.256 82.3279H113.058Z" fill="#07328E"/>
<path fill-rule="evenodd" clip-rule="evenodd" d="M127.524 78.2154C125.634 78.2154 124.283 80.0494 124.283 82.3804C124.283 85.1314 125.917 87.4869 128.434 87.4869C129.068 87.4894 129.692 87.33 130.248 87.0238C130.804 86.7176 131.272 86.2746 131.608 85.7369C131.986 85.2644 132.175 85.0019 132.616 85.0019C132.732 85.0016 132.847 85.0259 132.953 85.0733C133.059 85.1206 133.153 85.19 133.231 85.2767C133.308 85.3634 133.365 85.4655 133.4 85.5762C133.435 85.6869 133.446 85.8037 133.432 85.9189C133.432 87.4379 131.734 90.4269 127.524 90.4269C123.089 90.4269 120.951 87.0704 120.951 83.3779C120.951 79.8779 122.932 76.1749 128.024 76.1749C131.64 76.1749 133.337 78.3239 133.337 79.5804C133.337 80.5219 132.49 81.0749 131.64 81.0749C131.321 81.0747 131.008 80.9864 130.736 80.8196C130.465 80.6528 130.244 80.4141 130.1 80.1299C129.596 79.2409 129.032 78.2189 127.524 78.2189" fill="#07328E"/>
<path fill-rule="evenodd" clip-rule="evenodd" d="M141.132 78.2154C139.245 78.2154 137.894 80.0494 137.894 82.3804C137.894 85.1314 139.529 87.4869 142.045 87.4869C142.68 87.4894 143.304 87.33 143.86 87.0238C144.415 86.7176 144.883 86.2746 145.22 85.7369C145.598 85.2644 145.787 85.0019 146.228 85.0019C146.344 85.0016 146.459 85.0259 146.564 85.0733C146.67 85.1206 146.765 85.19 146.842 85.2767C146.919 85.3634 146.977 85.4655 147.012 85.5762C147.046 85.6869 147.057 85.8037 147.043 85.9189C147.043 87.4379 145.346 90.4269 141.132 90.4269C136.701 90.4269 134.562 87.0704 134.562 83.3779C134.562 79.8779 136.543 76.1749 141.636 76.1749C145.251 76.1749 146.949 78.3239 146.949 79.5804C146.949 80.5219 146.098 81.0749 145.251 81.0749C144.932 81.0747 144.62 80.9864 144.348 80.8196C144.076 80.6528 143.856 80.4141 143.711 80.1299C143.207 79.2409 142.64 78.2189 141.132 78.2189" fill="#07328E"/>
<path fill-rule="evenodd" clip-rule="evenodd" d="M153.109 77.953V86.0485C153.109 86.8045 153.14 88.4985 155.247 88.5615C156.035 88.5615 156.63 88.5615 156.63 89.244C156.63 89.9265 154.88 90.3955 153.613 90.3955C151.915 90.3955 150.813 89.8705 150.186 89.244C149.304 88.3515 149.273 87.41 149.273 86.57V77.953H147.764C147.201 77.953 147.201 77.848 147.201 76.931C147.201 76.616 147.323 76.511 147.733 76.511H149.273V75.0445C149.273 74.5475 149.367 74.418 149.84 74.1275L152.104 72.9235C152.454 72.7415 152.542 72.7135 152.668 72.7135C153.077 72.7135 153.109 73.1335 153.109 73.4485V76.511H155.499C155.849 76.511 156.094 76.511 156.094 76.8785C156.094 77.848 156.094 77.953 155.562 77.953H153.109Z" fill="#07328E"/>
<path fill-rule="evenodd" clip-rule="evenodd" d="M164.053 90.4235C159.433 90.4235 156.57 87.3295 156.57 83.2975C156.57 79.2095 159.528 76.1715 164.116 76.1715C169.24 76.1715 171.466 79.9725 171.568 83.14C171.662 86.99 168.957 90.4235 164.053 90.4235V90.4235ZM163.927 78.1105C161.792 78.1105 160.627 80.2595 160.627 82.9055C160.627 85.8385 162.135 88.2465 164.211 88.2465C166.223 88.2465 167.637 85.996 167.48 82.9965C167.322 79.878 165.782 78.1245 163.927 78.1245" fill="#07328E"/>
<path fill-rule="evenodd" clip-rule="evenodd" d="M186.506 89.5309C186.506 90.0034 186.32 90.0804 185.806 90.0804H183.289C182.663 90.0804 182.589 89.8704 182.589 89.4784V80.6234C182.589 79.5734 182.558 77.9529 179.884 77.9529C177.371 77.9529 177.371 79.5524 177.371 80.1544V89.4504C177.371 89.9754 177.213 90.0804 176.615 90.0804H174.13C173.629 90.0804 173.472 89.9754 173.472 89.5309V79.1849C173.472 78.1349 173.535 77.5329 174.949 76.9834C176.667 76.3911 178.48 76.116 180.297 76.1714C183.447 76.1714 184.542 76.8259 185.074 77.1934C186.474 78.1629 186.52 79.3949 186.52 80.3119L186.506 89.5309Z" fill="#07328E"/>
<path fill-rule="evenodd" clip-rule="evenodd" d="M26.1847 81.8765C25.8765 81.9689 25.548 81.9689 25.2397 81.8765C25.5267 79.0765 26.9092 76.6265 28.4492 74.2815C30.8805 75.1274 33.2509 76.1389 35.5437 77.309C35.9056 77.5036 36.2379 77.7488 36.5308 78.037C33.0307 79.157 29.7162 80.5395 26.1847 81.887" fill="#E85511"/>
<path fill-rule="evenodd" clip-rule="evenodd" d="M19.6782 121.031C19.6752 120.509 19.7328 119.989 19.8497 119.48C20.4797 116.39 22.0302 113.982 22.6882 110.905C22.7983 110.583 22.9681 110.284 23.1887 110.023L23.2972 109.953H23.9167C24.0769 109.952 24.2348 109.915 24.3787 109.845C24.5009 109.963 24.6498 110.049 24.8127 110.097C28.1552 111.339 31.1547 113.317 34.3257 114.951C29.8038 117.757 24.8572 119.811 19.6782 121.034" fill="#E85511"/>
<path fill-rule="evenodd" clip-rule="evenodd" d="M62.0318 99.1C58.2944 98.652 54.5961 97.9231 50.9683 96.9195C53.6598 93.5805 56.3688 90.1225 59.8618 87.5955C59.9883 87.5279 60.1002 87.4358 60.1909 87.3247C60.2816 87.2135 60.3494 87.0855 60.3903 86.948H60.4078C61.5813 90.8888 62.1293 94.9893 62.0318 99.1" fill="#E85511"/>
<path fill-rule="evenodd" clip-rule="evenodd" d="M46.8697 57.996C46.6141 57.4818 46.5282 56.8998 46.6244 56.3338C46.7207 55.7677 46.994 55.2468 47.4052 54.846C48.0387 54.251 48.7667 53.6525 49.5647 53.446C50.8317 53.096 51.9517 54.146 53.1557 54.5695C53.4078 54.6672 53.6876 54.666 53.9388 54.566C54.1901 54.466 54.3942 54.2747 54.5102 54.0305C56.1215 54.9336 57.3141 56.4329 57.8317 58.206C56.5332 60.628 53.4427 62.6195 50.6987 61.594C49.853 61.2814 49.0785 60.8026 48.4209 60.1859C47.7633 59.5691 47.2358 58.8269 46.8697 58.003" fill="#FACB00"/>
<path fill-rule="evenodd" clip-rule="evenodd" d="M10.6762 69.4024C10.9982 67.4214 12.7272 66.2524 14.5647 65.9759C15.3734 65.8887 16.1909 66.011 16.9386 66.331C17.6864 66.6509 18.3394 67.1578 18.8347 67.8029C18.9225 67.9129 19.0316 68.004 19.1553 68.0709C19.279 68.1379 19.415 68.1793 19.555 68.1927C19.6951 68.2061 19.8364 68.1912 19.9706 68.1489C20.1048 68.1066 20.2291 68.0377 20.3362 67.9464C20.478 67.8231 20.5833 67.6634 20.6407 67.4844C20.9442 68.1778 21.0966 68.9278 21.0875 69.6846C21.0784 70.4414 20.9082 71.1876 20.5882 71.8734C19.9772 73.1148 18.9999 74.1386 17.7882 74.8064C16.2587 75.6639 14.4947 75.1774 13.0282 74.3549C12.1597 73.8857 11.4642 73.1507 11.0435 72.2577C10.6228 71.3647 10.499 70.3604 10.6902 69.3919" fill="#FACB00"/>
<path fill-rule="evenodd" clip-rule="evenodd" d="M75.9478 93.6224C73.8478 94.2489 71.0478 94.1964 69.7143 92.1979C69.6088 92.0233 69.4565 91.8819 69.2745 91.7897C69.0926 91.6975 68.8884 91.6582 68.6853 91.6764C68.4718 90.2414 68.6573 88.7924 68.8673 87.3679C69.2768 84.6554 72.3043 83.7594 74.7368 83.3674C76.3713 83.9449 77.6033 85.1174 78.5868 86.5174C80.3368 89.0374 78.7583 92.7859 75.9548 93.6329" fill="#FACB00"/>
<path fill-rule="evenodd" clip-rule="evenodd" d="M37.1222 101.385C37.0474 101.878 36.8497 102.343 36.5476 102.739C36.2454 103.135 35.8484 103.448 35.3932 103.65C33.9932 104.224 32.4217 103.902 30.9902 103.436C29.3452 102.911 27.6162 101.97 27.1402 100.122C26.6012 98.0219 27.3887 96.1249 28.4282 94.4099C29.3319 93.7364 30.4583 93.4323 31.5782 93.5594C33.4542 93.8079 35.1937 94.6899 36.7687 95.7679C37.3138 97.589 37.4335 99.5108 37.1187 101.385" fill="#FACB00"/>
<path fill-rule="evenodd" clip-rule="evenodd" d="M38.3787 67.845C35.4387 66.4975 32.1347 65.521 29.9612 63.0395C30.7348 61.2441 31.7991 59.5886 33.1112 58.1395C33.3107 57.912 33.4927 57.6775 33.6677 57.4395C36.0582 58.9445 38.3507 60.607 40.7622 62.091C40.2232 64.1105 39.2397 65.941 38.3647 67.845" fill="#40AD37"/>
<path fill-rule="evenodd" clip-rule="evenodd" d="M63.2252 74.2955C63.1797 76.329 63.0187 78.366 63.0677 80.4065C59.4627 80.382 55.8472 80.3225 52.2667 79.8605C52.2667 77.7815 52.4207 75.7025 52.4452 73.62C56.0327 73.998 59.7007 73.4275 63.2287 74.3025" fill="#40AD37"/>
<path fill-rule="evenodd" clip-rule="evenodd" d="M64.2052 122.623C60.0927 121.836 55.9102 121.342 51.9902 119.753C51.9587 117.212 51.8222 114.643 52.9422 112.284C52.9422 112.267 52.9422 112.256 52.9422 112.242C57.3417 113.103 61.8182 113.436 66.1722 114.517C65.7711 117.275 65.1125 119.989 64.2052 122.623" fill="#40AD37"/>
<path fill-rule="evenodd" clip-rule="evenodd" d="M13.1787 102.876C11.8802 103.041 10.6972 103.293 9.38467 103.555C9.07228 103.615 8.75358 103.635 8.43617 103.615C8.43617 101.249 7.73617 98.953 7.83417 96.566C7.83621 96.3262 7.79102 96.0883 7.70117 95.866C10.9597 95.1345 14.1972 94.3085 17.4382 93.4965C18.0717 95.7855 19.1882 97.8995 20.0387 100.146C20.1331 100.406 20.2091 100.671 20.2662 100.941C18.0787 102.085 15.6532 102.561 13.1787 102.88" fill="#40AD37"/>
<path fill-rule="evenodd" clip-rule="evenodd" d="M63.9148 72.2235L63.7853 72.1885L63.8553 72.213H63.9148" fill="#07328E"/>
<path fill-rule="evenodd" clip-rule="evenodd" d="M51.1885 81.6034H51.1711H51.1398C51.1398 81.6034 51.1746 81.6034 51.1885 81.6278" fill="#07328E"/>
<path fill-rule="evenodd" clip-rule="evenodd" d="M63.9148 72.2235L63.7853 72.1885L63.8553 72.213H63.9148" fill="#07328E"/>
<path fill-rule="evenodd" clip-rule="evenodd" d="M51.1885 81.6034H51.1711H51.1398C51.1398 81.6034 51.1746 81.6034 51.1885 81.6278" fill="#07328E"/>
<path fill-rule="evenodd" clip-rule="evenodd" d="M83.5322 105.592C83.1848 105.275 82.7284 105.105 82.2582 105.116C78.1667 105.099 78.0582 105.165 77.7677 105.309C77.6032 105.396 77.3267 105.543 73.5152 105.697C68.8497 105.893 64.4957 105.697 60.2852 105.526C54.8847 105.295 49.7432 105.078 44.1222 105.61C44.1769 103.68 44.3876 101.759 44.7522 99.863C45.4191 96.3798 45.8482 92.8553 46.0367 89.314C46.2744 89.2883 46.5023 89.2055 46.701 89.0727C46.8997 88.9398 47.0633 88.7608 47.1777 88.551C47.238 88.4272 47.2694 88.2914 47.2694 88.1537C47.2694 88.0161 47.238 87.8802 47.1777 87.7565C47.0686 87.5644 46.9174 87.3995 46.7356 87.2741C46.5538 87.1486 46.346 87.0658 46.1277 87.032V87.032C46.1592 85.9575 46.1767 84.876 46.1697 83.7735C46.1608 81.239 46.3034 78.7064 46.5967 76.189C46.6969 74.9828 46.6652 73.7693 46.5022 72.57C46.3377 70.897 46.1802 69.315 46.7052 67.7295C51.5667 67.8905 54.3492 67.803 57.2892 67.7295C60.0157 67.6385 62.8332 67.551 67.5197 67.663C68.3702 67.7435 69.1472 67.313 69.2697 66.669C69.2949 66.5378 69.2917 66.4028 69.2603 66.273C69.2289 66.1432 69.1701 66.0216 69.0877 65.9165C68.9413 65.7413 68.7604 65.598 68.5563 65.4957C68.3522 65.3933 68.1292 65.334 67.9012 65.3215C62.9802 65.178 60.0017 65.2725 57.1177 65.3635C54.0062 65.4615 51.0662 65.5525 45.8967 65.3635H45.5467C45.2961 65.3562 45.0468 65.4021 44.8152 65.498C44.5836 65.5939 44.3748 65.7377 44.2027 65.92L43.8177 66.459V66.4835V66.508C43.0232 68.5065 43.1912 70.547 43.3522 72.521C43.4881 73.7353 43.5139 74.9595 43.4292 76.1785C43.1527 78.9015 43.1212 81.6455 43.0792 84.2985C43.0792 85.0545 43.0582 85.821 43.0442 86.591C36.5762 86.297 30.0557 86.2235 23.7347 86.164C19.0272 86.1185 14.1622 86.0695 9.36022 85.926C7.96022 85.8875 7.49472 86.059 7.07122 86.2165C6.64772 86.374 6.28722 86.5035 4.83822 86.297C3.96322 86.199 3.16872 86.6225 3.02172 87.2595C2.99317 87.3908 2.99276 87.5267 3.02051 87.6582C3.04826 87.7897 3.10354 87.9139 3.18272 88.0225C3.32358 88.1976 3.49862 88.3422 3.6972 88.4476C3.89577 88.5529 4.1137 88.6166 4.33772 88.635C6.00372 88.8345 6.49372 88.712 7.06422 88.5685C7.82169 88.3753 8.60415 88.2986 9.38472 88.341L18.7787 88.4425C25.6282 88.5055 32.7122 88.5755 39.7052 88.7925C40.1042 88.7925 40.5102 88.81 40.9022 88.8135C41.6022 88.8135 42.3022 88.8135 42.9812 88.88C42.9567 89.4575 42.9287 90.0315 42.8902 90.6055C42.7327 92.8805 42.3512 95.173 41.9837 97.3955C41.8017 98.484 41.6337 99.611 41.4552 100.731C41.1918 102.516 41.0329 104.314 40.9792 106.117C40.7589 106.233 40.5785 106.412 40.4612 106.632C40.3991 106.758 40.3668 106.897 40.3668 107.038C40.3668 107.179 40.3991 107.318 40.4612 107.444C40.5739 107.68 40.7607 107.873 40.9932 107.993C41.0266 109.068 41.126 110.14 41.2907 111.203C41.6407 113.457 42.1797 115.683 42.6907 117.835C43.1772 119.886 43.6812 122.011 44.0382 124.135L44.0592 124.286C44.4092 126.736 44.2237 129.252 44.0312 131.681C43.8245 133.699 43.7684 135.728 43.8632 137.754V137.778V137.803C44.0662 138.485 44.9132 138.912 45.7532 138.762C45.9698 138.729 46.1772 138.651 46.3621 138.534C46.5471 138.416 46.7056 138.261 46.8277 138.079C46.9038 137.956 46.9546 137.818 46.9775 137.674C47.0003 137.531 46.9946 137.384 46.9607 137.243C46.9187 135.493 47.0482 133.711 47.1742 131.993C47.3597 129.441 47.5487 126.806 47.2127 124.195L47.1742 123.95L47.1427 123.736C46.7927 121.657 46.3132 119.599 45.8372 117.608C45.3262 115.459 44.7872 113.24 44.4582 111.007C44.3112 110.016 44.2167 109.015 44.1677 108.007C49.8272 107.479 54.9442 107.685 60.3307 107.913C64.5307 108.088 68.8777 108.263 73.5642 108.077C77.4772 107.913 77.7642 107.762 78.0127 107.629C78.1912 107.535 78.4922 107.479 82.2687 107.496C82.7389 107.508 83.1953 107.337 83.5427 107.02C83.6385 106.931 83.7149 106.822 83.7671 106.702C83.8193 106.582 83.8462 106.452 83.8462 106.32C83.8462 106.189 83.8193 106.059 83.7671 105.939C83.7149 105.819 83.6385 105.71 83.5427 105.62" fill="#07328E"/>
<path fill-rule="evenodd" clip-rule="evenodd" d="M33.4857 91.8235C32.7199 91.5185 31.9012 91.3683 31.077 91.3815C30.2528 91.3948 29.4394 91.5711 28.6837 91.9005C28.4555 91.7721 28.1876 91.7336 27.9325 91.7925C27.6774 91.8514 27.4535 92.0035 27.3047 92.219C27.1367 92.457 26.9757 92.6985 26.8147 92.947C26.6782 93.052 26.5417 93.157 26.4087 93.2655C26.254 93.3883 26.1355 93.5509 26.0658 93.7358C25.9962 93.9207 25.978 94.1211 26.0132 94.3155C24.9632 96.384 24.3752 98.694 25.2152 100.965C26.8532 105.354 32.7192 107.108 36.8597 105.316C40.0097 103.121 39.7122 99.0895 38.9597 95.7015C38.3857 93.136 35.5822 92.6985 33.4962 91.813L33.4857 91.8235ZM37.1327 101.382C37.0579 101.874 36.8603 102.34 36.5581 102.736C36.2559 103.131 35.8589 103.445 35.4037 103.646C34.0037 104.22 32.4322 103.898 31.0007 103.433C29.3557 102.908 27.6267 101.966 27.1507 100.118C26.6117 98.0185 27.3992 96.1215 28.4387 94.4065C29.3425 93.733 30.4688 93.4289 31.5887 93.556C33.4647 93.8045 35.2042 94.6865 36.7792 95.7645C37.3243 97.5855 37.444 99.5074 37.1292 101.382" fill="#07328E"/>
<path fill-rule="evenodd" clip-rule="evenodd" d="M21.9847 102.432C22.176 102.324 22.3297 102.16 22.4254 101.963C22.5211 101.765 22.5542 101.543 22.5202 101.326L22.4257 100.787C21.7677 98.0675 20.2592 95.656 19.5137 92.9785L19.6817 92.94C19.8196 92.9156 19.9513 92.8643 20.0694 92.7891C20.1874 92.7138 20.2895 92.616 20.3698 92.5013C20.4501 92.3866 20.507 92.2571 20.5372 92.1204C20.5675 91.9837 20.5705 91.8424 20.5462 91.7045C20.5218 91.5666 20.4705 91.4349 20.3953 91.3168C20.32 91.1987 20.2222 91.0966 20.1075 91.0164C19.9927 90.9361 19.8633 90.8792 19.7266 90.8489C19.5899 90.8187 19.4486 90.8156 19.3107 90.84C14.9917 91.89 10.7112 93.0695 6.36068 93.9655L5.83568 94.228C5.63851 94.3359 5.47957 94.5022 5.38068 94.704L5.28618 94.907C5.18824 95.0991 5.15182 95.3167 5.18188 95.5302C5.21194 95.7438 5.30701 95.9429 5.45418 96.1005L5.59768 96.3875C5.71668 98.974 6.22768 101.518 6.29768 104.115L6.43068 104.927C6.48802 105.163 6.62275 105.371 6.8132 105.521C7.00366 105.67 7.23875 105.751 7.48068 105.75H7.91118C8.46014 105.784 9.01113 105.764 9.55618 105.69C10.9177 105.442 12.1567 105.2 13.5182 104.99C16.0697 104.598 18.6247 104.29 20.8402 102.964L21.9847 102.432ZM13.1787 102.876C11.8802 103.041 10.6972 103.293 9.38468 103.555C9.07229 103.615 8.75359 103.635 8.43618 103.615C8.43618 101.249 7.73618 98.953 7.83418 96.566C7.83622 96.3262 7.79102 96.0883 7.70118 95.866C10.9597 95.1345 14.1972 94.3085 17.4382 93.4965C18.0717 95.7855 19.1882 97.8995 20.0387 100.146C20.1331 100.406 20.2092 100.671 20.2662 100.941C18.0752 102.085 15.6532 102.561 13.1787 102.88" fill="#07328E"/>
<path fill-rule="evenodd" clip-rule="evenodd" d="M57.7373 61.7234C58.8923 60.6979 60.2293 59.4799 59.8863 57.7404C59.1583 54.1844 56.0678 51.7624 52.6903 51.0239C52.4722 50.9766 52.2447 50.9999 52.0408 51.0905C51.8369 51.1811 51.6672 51.3343 51.5563 51.5279C50.7081 51.1634 49.7527 51.1371 48.8858 51.4545C47.1778 52.1335 45.5328 53.2045 44.7803 55.0314C44.1118 56.6169 44.5563 58.3494 45.4033 59.7809C45.984 60.8353 46.7846 61.7526 47.7508 62.4706C48.7169 63.1886 49.8262 63.6905 51.0033 63.9424C53.5303 64.4674 55.9033 63.3334 57.7198 61.7234H57.7373ZM46.8523 58.0134C46.5966 57.4993 46.5108 56.9173 46.607 56.3512C46.7032 55.7852 46.9766 55.2642 47.3878 54.8634C48.0213 54.2684 48.7493 53.6699 49.5473 53.4634C50.8143 53.1134 51.9343 54.1634 53.1383 54.5869C53.3904 54.6847 53.6701 54.6834 53.9214 54.5835C54.1726 54.4835 54.3767 54.2922 54.4928 54.048C56.104 54.9511 57.2966 56.4504 57.8143 58.2234C56.5158 60.6454 53.4253 62.6369 50.6813 61.6114C49.8356 61.2989 49.0611 60.8201 48.4035 60.2033C47.7458 59.5866 47.2184 58.8443 46.8523 58.0204" fill="#07328E"/>
<path fill-rule="evenodd" clip-rule="evenodd" d="M42.3968 60.551L41.9453 60.348C41.5638 60.1065 41.2768 59.7635 40.8953 59.5465C38.7533 58.36 36.8703 56.9075 34.8718 55.6265V55.609C34.9569 55.4969 35.0186 55.369 35.0533 55.2326C35.088 55.0963 35.095 54.9544 35.0738 54.8153C35.0525 54.6762 35.0036 54.5428 34.9298 54.423C34.856 54.3032 34.7589 54.1995 34.6443 54.118C34.4143 53.951 34.1279 53.8813 33.8469 53.9238C33.5659 53.9664 33.313 54.1179 33.1428 54.3455L33.0133 54.5345L32.7823 54.405C32.5503 54.2778 32.2794 54.241 32.0219 54.3016C31.7644 54.3623 31.5384 54.5161 31.3876 54.7335C31.2368 54.9508 31.1717 55.2163 31.205 55.4788C31.2382 55.7412 31.3675 55.9821 31.5678 56.155L31.7883 56.281C31.2038 57.086 30.5983 57.877 29.9333 58.682C29.0471 59.8065 28.3572 61.0726 27.8928 62.427L27.7493 63.204C27.7514 63.4356 27.8261 63.6608 27.9628 63.848L28.2288 64.2995L28.2043 64.2785C30.6123 67.2605 34.5043 68.3945 37.8643 69.896L38.7253 70.0745C38.938 70.0719 39.1451 70.0061 39.3203 69.8855L39.6703 69.644C40.1953 68.9195 40.8988 68.118 40.9198 67.1625C42.0328 65.71 42.5193 63.9075 42.9953 62.168L43.0443 61.6885C43.0863 61.4525 43.0464 61.2093 42.9312 60.9992C42.816 60.7892 42.6323 60.6248 42.4108 60.5335L42.3968 60.551ZM38.3963 67.8275C35.4563 66.48 32.1523 65.5035 29.9788 63.022C30.7524 61.2266 31.8167 59.5711 33.1288 58.122C33.3283 57.8945 33.5103 57.66 33.6853 57.422C36.0758 58.927 38.3683 60.5895 40.7798 62.0735C40.2408 64.093 39.2573 65.9235 38.3823 67.8275" fill="#07328E"/>
<path fill-rule="evenodd" clip-rule="evenodd" d="M18.5967 76.7384C20.8997 75.5694 22.9262 73.3994 23.1467 70.7149C23.3007 68.7199 23.1222 66.5394 21.5822 65.0694C21.4959 64.958 21.388 64.865 21.2651 64.7962C21.1421 64.7273 21.0065 64.6839 20.8664 64.6685C20.7262 64.6532 20.5845 64.6662 20.4495 64.7068C20.3145 64.7474 20.1891 64.8148 20.0807 64.9049C19.8672 65.0801 19.7293 65.3308 19.6957 65.6049C19.0145 64.9766 18.2118 64.4945 17.3372 64.1881C16.4626 63.8817 15.5346 63.7576 14.6102 63.8234C13.5061 63.9136 12.44 64.2682 11.5018 64.8573C10.5637 65.4464 9.78108 66.2526 9.2202 67.2079C8.2892 68.8459 8.2997 70.7079 8.8037 72.3984C9.9832 76.3254 14.9112 78.6144 18.6037 76.7419L18.5967 76.7384ZM10.6727 69.3919C10.9947 67.4109 12.7237 66.2419 14.5612 65.9654C15.3699 65.8782 16.1874 66.0005 16.9352 66.3204C17.6829 66.6404 18.3359 67.1473 18.8312 67.7924C18.919 67.9023 19.0281 67.9935 19.1518 68.0604C19.2756 68.1274 19.4115 68.1688 19.5516 68.1822C19.6916 68.1955 19.8329 68.1806 19.9671 68.1383C20.1013 68.096 20.2256 68.0272 20.3327 67.9359C20.4745 67.8126 20.5798 67.6528 20.6372 67.4739C20.9428 68.1684 21.0966 68.9202 21.0881 69.679C21.0797 70.4377 20.9092 71.1859 20.5882 71.8734C19.9773 73.1148 18.9999 74.1386 17.7882 74.8064C16.2587 75.6639 14.4947 75.1774 13.0282 74.3549C12.1597 73.8856 11.4642 73.1507 11.0435 72.2577C10.6229 71.3646 10.499 70.3604 10.6902 69.3919" fill="#07328E"/>
<path fill-rule="evenodd" clip-rule="evenodd" d="M38.7462 77.246C36.2752 74.6105 32.6177 73.6515 29.3277 72.325C29.3872 72.1255 29.4467 71.933 29.4992 71.737C29.5147 71.4746 29.4334 71.2156 29.2708 71.0091C29.1082 70.8026 28.8756 70.6628 28.6169 70.6162C28.3582 70.5697 28.0914 70.6195 27.867 70.7564C27.6426 70.8933 27.4762 71.1077 27.3992 71.359C26.6782 73.76 24.9002 75.559 23.9412 77.9425C23.3532 79.3775 23.3007 80.851 23.1012 82.3315L23.2132 83.1295C23.2778 83.3083 23.3897 83.4663 23.537 83.5865C23.6843 83.7067 23.8615 83.7846 24.0497 83.812L24.5572 83.889C27.1997 84.61 29.4572 82.797 31.8407 81.8065C34.0422 80.8825 36.2717 80.578 38.3927 79.64L39.0927 79.29C39.1537 79.2443 39.2099 79.1927 39.2607 79.136C39.3544 79.0316 39.4262 78.9095 39.472 78.7768C39.5177 78.6442 39.5364 78.5038 39.5269 78.3638C39.5174 78.2238 39.48 78.0872 39.4169 77.9619C39.3537 77.8367 39.2661 77.7253 39.1592 77.6345L38.7462 77.246ZM26.1847 81.8765C25.8765 81.9689 25.5479 81.9689 25.2397 81.8765C25.5267 79.0765 26.9092 76.6265 28.4492 74.2815C30.8804 75.1274 33.2508 76.1389 35.5437 77.309C35.9055 77.5036 36.2379 77.7487 36.5307 78.037C33.0307 79.157 29.7162 80.5395 26.1847 81.887" fill="#07328E"/>
<path fill-rule="evenodd" clip-rule="evenodd" d="M36.5972 113.695C36.6322 113.695 36.6567 113.733 36.6917 113.744C32.8872 111.927 29.3907 109.449 25.4077 108.042C25.1582 107.968 24.89 107.989 24.6552 108.102C24.4582 107.908 24.1929 107.8 23.9167 107.801H23.4967L22.7687 107.85C22.5261 107.886 22.3029 108.003 22.1352 108.182L21.9707 108.399C21.4061 108.767 20.9752 109.307 20.7422 109.939C20.5617 110.434 20.4293 110.945 20.3467 111.465C19.4402 114.997 17.2212 118.168 17.5922 121.867L17.7357 122.466C17.8198 122.67 17.9607 122.846 18.1417 122.973L18.3342 123.106C18.5384 123.249 18.7857 123.317 19.0342 123.299L19.7342 123.239C25.5407 121.997 30.9692 119.431 36.1107 116.484L37.0557 115.711C37.0767 115.686 37.0907 115.676 37.1152 115.651C37.3202 115.455 37.4389 115.185 37.4455 114.901C37.4521 114.617 37.3459 114.342 37.1502 114.136L36.5972 113.695ZM19.6782 121.045C19.6752 120.523 19.7328 120.003 19.8497 119.494C20.4797 116.404 22.0302 113.996 22.6882 110.919C22.7967 110.592 22.9666 110.288 23.1887 110.023L23.2972 109.953H23.9167C24.0769 109.952 24.2348 109.915 24.3787 109.845C24.5009 109.963 24.6498 110.049 24.8127 110.097C28.1552 111.339 31.1547 113.317 34.3257 114.951C29.8038 117.757 24.8572 119.811 19.6782 121.034" fill="#07328E"/>
<path fill-rule="evenodd" clip-rule="evenodd" d="M51.3533 70.7254C51.0695 70.7281 50.7981 70.8423 50.5978 71.0433C50.3974 71.2444 50.2841 71.5161 50.2823 71.7999C50.3873 74.5299 50.1038 77.2634 50.1388 79.9934L50.3173 80.6619C50.3805 80.8404 50.492 80.9979 50.6393 81.1169L51.1713 81.5894C55.0213 82.8389 59.2388 82.3314 63.2603 82.5589L64.1073 82.5134C64.2815 82.4899 64.4473 82.4244 64.5906 82.3226C64.7339 82.2208 64.8503 82.0857 64.9298 81.9289L65.0978 81.5334C65.2868 78.9819 65.2658 76.4164 65.3463 73.8334L65.0628 72.9024C64.9965 72.7793 64.9063 72.6708 64.7975 72.583C64.6888 72.4953 64.5636 72.4301 64.4293 72.3914L63.8553 72.1989C60.0823 71.2434 56.1973 71.8489 52.3683 71.4464C52.2965 71.2333 52.1602 71.0478 51.9784 70.9155C51.7966 70.7832 51.5781 70.7106 51.3533 70.7079V70.7254ZM63.2253 74.2779C63.1798 76.3114 63.0188 78.3484 63.0678 80.3889C59.4628 80.3644 55.8473 80.3049 52.2668 79.8429C52.2668 77.7639 52.4173 75.6849 52.4453 73.6024C56.0328 73.9804 59.7008 73.4099 63.2288 74.2849" fill="#07328E"/>
<path fill-rule="evenodd" clip-rule="evenodd" d="M62.6407 101.274C62.8081 101.272 62.9728 101.231 63.1217 101.155C63.2706 101.078 63.3995 100.968 63.4982 100.833L63.7362 100.5C64.6217 98.75 64.3102 96.7445 64.0477 94.8825C63.6172 91.792 63.4877 88.775 62.3187 85.898H62.3467C62.3269 85.715 62.2605 85.54 62.1539 85.3899C62.0473 85.2398 61.904 85.1195 61.7377 85.0405L61.0377 84.8235C61.0569 84.8331 61.0768 84.8413 61.0972 84.848C60.7682 84.8136 60.4373 84.8019 60.1067 84.813C59.8707 84.8128 59.6414 84.8921 59.456 85.0381C59.2706 85.1842 59.1398 85.3885 59.0847 85.618C59.014 85.6384 58.945 85.6642 58.8782 85.695C56.3477 87.1265 54.6432 89.4295 52.6867 91.5645C51.2867 93.1045 49.7887 94.5115 48.7877 96.349L48.5252 96.874C48.4552 97.0092 48.4146 97.1577 48.4062 97.3098C48.3978 97.4618 48.4216 97.6139 48.4762 97.756L48.5707 98.008C48.6787 98.2645 48.8783 98.4716 49.1307 98.589L49.6557 98.806C53.8207 99.8805 58.0312 100.906 62.3397 101.274H62.6407ZM62.0317 99.1105C58.2943 98.6625 54.596 97.9336 50.9682 96.93C53.6597 93.591 56.3687 90.133 59.8617 87.606C59.9882 87.5384 60.1001 87.4463 60.1908 87.3352C60.2815 87.224 60.3493 87.096 60.3902 86.9585H60.4077C61.5813 90.8993 62.1293 94.9998 62.0317 99.1105" fill="#07328E"/>
<path fill-rule="evenodd" clip-rule="evenodd" d="M75.9968 81.5859C74.0718 80.6829 72.0558 81.7784 70.2148 82.5589C69.3948 82.8846 68.6719 83.4148 68.1148 84.0989C67.2048 85.2679 66.5188 86.5104 66.5958 88.0014C66.7078 90.0454 65.9728 92.2434 67.1593 94.0004C67.2388 94.1162 67.3405 94.2151 67.4584 94.2916C67.5763 94.368 67.7081 94.4204 67.8463 94.4457C67.9845 94.4711 68.1264 94.4689 68.2637 94.4394C68.4011 94.4098 68.5313 94.3534 68.6468 94.2734C70.6278 96.2544 73.8968 96.4644 76.5533 95.7119C79.4618 94.8929 81.2608 92.0089 81.4288 89.1144C81.6178 85.6809 78.9123 82.9404 75.9968 81.5929V81.5859ZM75.9513 93.6294C73.8513 94.2559 71.0513 94.2034 69.7178 92.2049C69.6123 92.0303 69.46 91.8888 69.278 91.7966C69.0961 91.7044 68.8919 91.6652 68.6888 91.6834C68.4753 90.2484 68.6608 88.7994 68.8708 87.3749C69.2803 84.6624 72.3078 83.7664 74.7403 83.3744C76.3748 83.9519 77.6068 85.1244 78.5903 86.5244C80.3403 89.0444 78.7618 92.7929 75.9583 93.6399" fill="#07328E"/>
<path fill-rule="evenodd" clip-rule="evenodd" d="M67.4007 112.575L66.9002 112.491C62.4377 111.322 57.8317 111 53.3237 110.139C53.0619 110.059 52.7793 110.085 52.5361 110.21C52.2929 110.336 52.1083 110.551 52.0217 110.811C51.7995 110.8 51.5795 110.859 51.3916 110.978C51.2037 111.097 51.0571 111.271 50.9717 111.476C50.6602 112.382 50.3172 113.254 50.0757 114.195C49.5892 116.117 49.9217 118.024 49.8622 119.946L49.9707 120.828C50.0202 121.008 50.1171 121.172 50.2512 121.303C50.3854 121.433 50.5519 121.525 50.7337 121.57L51.2342 121.762L50.9717 121.675C55.2417 123.299 59.7217 124.016 64.2017 124.755L64.9647 124.804C65.1954 124.787 65.4141 124.695 65.5869 124.541C65.7597 124.387 65.8768 124.181 65.9202 123.953L66.1372 123.575C67.3167 120.527 67.8872 117.356 68.4367 114.125V113.674C68.4423 113.532 68.4194 113.39 68.3694 113.257C68.3194 113.123 68.2432 113.001 68.1454 112.898C68.0475 112.795 67.93 112.712 67.7997 112.655C67.6694 112.597 67.529 112.567 67.3867 112.564L67.4007 112.575ZM64.2052 122.623C60.0927 121.836 55.9102 121.342 51.9902 119.753C51.9587 117.212 51.8222 114.643 52.9422 112.284C52.9422 112.267 52.9422 112.256 52.9422 112.242C57.3417 113.103 61.8182 113.436 66.1722 114.517C65.7711 117.275 65.1125 119.989 64.2052 122.623" fill="#07328E"/>
</svg>
