<svg width="190" height="190" viewBox="0 0 190 190" fill="none" xmlns="http://www.w3.org/2000/svg">
<path d="M49.02 90.7481C49.02 84.9855 53.2608 80.3139 58.4926 80.3139C61.2286 80.3139 63.6956 81.5935 65.4253 83.6386L69.8478 75.1328H26.1896L30.6348 83.5371C32.3593 81.5473 34.7913 80.3079 37.4862 80.3079C42.7181 80.3079 46.9596 84.9795 46.9596 90.7421C46.9596 95.6272 43.9113 99.7271 39.7959 100.863L48.1954 116.754L56.4269 100.93C52.1884 99.8914 49.02 95.7271 49.02 90.7481Z" fill="#C54B1C"/>
<path d="M64.7908 106.876C67.6605 100.268 73.9108 96.6001 78.7482 98.6853C83.5856 100.77 85.1831 107.819 82.3126 114.429C81.9652 115.233 81.5588 116.01 81.0966 116.754H95.1452L73.6151 75.1328L51.962 116.754H63.7572C63.0154 113.846 63.3027 110.302 64.7908 106.876Z" fill="#C54B1C"/>
<path d="M22.7742 101.349C28.0463 101.349 32.3198 106.072 32.3198 111.898C32.3266 113.753 31.8789 115.581 31.0156 117.224H44.08L22.5416 75.6053L0.896057 117.224H14.5327C13.6689 115.581 13.2209 113.753 13.2278 111.898C13.2278 106.072 17.5021 101.349 22.7742 101.349Z" fill="#C54B1C"/>
<path d="M173.269 114.457C164.529 114.457 157.448 110.982 157.448 106.694C157.448 102.405 164.531 98.9306 173.269 98.9306C175.514 98.9223 177.753 99.1651 179.944 99.6544L177.53 95.1381C176.038 95.5992 174.484 95.829 172.922 95.8195C167.69 95.8195 163.449 93.3966 163.449 90.4074C163.449 87.5734 167.262 85.2483 172.117 85.0151L167.025 75.4985L145.326 116.754H189.088L186.124 111.217C183.256 113.179 178.567 114.457 173.269 114.457Z" fill="#C64A1C"/>
<path d="M105.988 75.1328C106.312 77.7116 105.905 80.6403 104.669 83.4879C101.799 90.097 95.5487 93.7638 90.7113 91.6787C85.8739 89.5935 84.2764 82.5452 87.1462 75.9361C87.2647 75.6636 87.3891 75.3958 87.5193 75.1328H73.8431L95.3694 116.751L117.328 75.1328H105.988Z" fill="#C54B1C"/>
<path d="M124.158 81.9669L120.688 75.3176L116.116 84.071C118.375 83.2146 120.71 82.5705 123.09 82.1471C123.446 82.0819 123.804 82.0229 124.158 81.9669Z" fill="#C54B1C"/>
<path d="M117.898 109.469C117.219 105.755 124.167 101.385 133.416 99.7074H133.424L131.115 95.2872C129.356 95.8622 127.558 96.3153 125.736 96.6433C119.296 97.8115 113.409 97.3489 110.042 95.6923L98.9459 116.938H142.424L139.952 112.206C138.609 112.591 137.247 112.909 135.872 113.157C126.624 114.834 118.577 113.183 117.898 109.469Z" fill="#C54B1C"/>
<path d="M142.455 116.755L146.161 109.67C144.441 110.613 142.361 111.461 140.043 112.144L142.455 116.755Z" fill="#C54B1C"/>
<path d="M150.328 101.698L164.225 75.1328H120.688L124.246 81.9327C133.236 80.5842 140.861 82.437 141.559 86.2605C142.139 89.433 137.776 93.0097 131.194 95.2183L133.521 99.6658C141.118 98.3309 147.87 99.2425 150.328 101.698Z" fill="#C54B1C"/>
</svg>
