<svg width="190" height="190" viewBox="0 0 190 190" fill="none" xmlns="http://www.w3.org/2000/svg">
<path d="M21.3131 109.138C20.4744 109.649 19.5627 110.029 18.6095 110.265V113.131H21.757C21.9226 113.131 22.0066 113.246 22.0066 113.483V114.11C22.0066 114.34 21.9226 114.455 21.757 114.455H18.905C19.4685 115.578 19.932 116.374 20.2977 116.835C20.8834 117.625 21.5626 118.34 22.3205 118.967C22.3238 119.026 22.3121 119.085 22.2866 119.138C22.2611 119.191 22.2225 119.237 22.1745 119.272C21.8998 119.533 21.6111 119.78 21.3097 120.01C21.2841 120.007 21.2597 119.998 21.238 119.984C21.2163 119.97 21.198 119.951 21.1843 119.929C20.6829 119.506 20.2422 119.016 19.8745 118.472C19.4973 117.914 19.0695 117.201 18.6095 116.341V126.398C18.6095 126.578 18.5083 126.666 18.2944 126.666H17.4537C17.2237 126.666 17.1087 126.578 17.1087 126.398V117.616C16.7421 118.351 16.3192 119.057 15.8437 119.727C15.3561 120.486 14.7823 121.186 14.1337 121.813C14.0067 121.822 13.8805 121.786 13.7772 121.712C13.4517 121.58 13.1401 121.435 12.8284 121.284C12.6973 121.284 12.6387 121.24 12.6387 121.162C13.4298 120.433 14.1428 119.624 14.7662 118.747C15.2628 118.067 15.6799 117.332 16.0093 116.557C16.3368 115.883 16.6062 115.184 16.8143 114.465H13.385C13.2183 114.465 13.1274 114.35 13.1274 114.12V113.492C13.1274 113.256 13.2183 113.14 13.385 113.14H17.1133V110.613C16.0587 110.83 14.985 110.941 13.9083 110.943C13.8207 110.949 13.734 110.923 13.6642 110.87C13.5945 110.816 13.5464 110.74 13.5288 110.654C13.3945 110.377 13.2306 110.116 13.04 109.875C13.04 109.645 13.1263 109.523 13.2953 109.523C15.1514 109.523 16.4797 109.43 17.2824 109.236C18.4793 109.061 19.6115 108.582 20.5714 107.846C20.6671 107.764 20.7899 107.719 20.9164 107.721C21.0247 107.743 21.122 107.802 21.1912 107.888C21.78 108.543 22.0733 108.902 22.0733 108.971C22.0733 109.136 22.0284 109.216 21.9261 109.216L21.3131 109.138ZM32.4681 118.068C32.6326 118.068 32.7188 118.17 32.7188 118.379V119.19C32.7188 119.42 32.6326 119.535 32.4681 119.535L30.4246 120.049V126.395C30.4246 126.574 30.3188 126.663 30.1072 126.663H29.2401C29.0262 126.663 28.9227 126.574 28.9227 126.395V120.445L22.5977 122.082C22.4137 122.082 22.3205 121.967 22.3205 121.737V120.915C22.3205 120.706 22.4137 120.608 22.5977 120.608L28.9227 118.97V107.968C28.9227 107.807 29.0262 107.723 29.2401 107.723C30.3211 107.723 30.8639 107.807 30.8639 107.968C30.8639 108.16 30.7926 108.271 30.6523 108.301C30.497 108.308 30.4223 108.45 30.4223 108.708V118.598L32.4681 118.068ZM23.9248 114.46C24.6196 114.78 25.2896 115.151 25.9292 115.57C26.5318 116.005 27.0459 116.398 27.4714 116.736C27.4531 116.802 27.4235 116.865 27.384 116.921C26.9631 117.523 26.7354 117.822 26.7089 117.822C26.0442 117.263 25.3375 116.757 24.5952 116.307C24.1185 115.987 23.6102 115.718 23.0784 115.502C23.0784 115.439 23.3084 115.136 23.7569 114.602C23.8305 114.512 23.8868 114.46 23.9294 114.46H23.9248ZM24.3664 109.055C25.0421 109.42 25.6919 109.831 26.311 110.286C26.8975 110.765 27.4012 111.2 27.806 111.598C27.7777 111.655 27.7425 111.708 27.7014 111.756C27.505 112.068 27.2927 112.37 27.0654 112.66C26.4164 112.045 25.7171 111.485 24.9747 110.986C24.5202 110.652 24.0337 110.364 23.5223 110.126C23.5223 110.035 23.7408 109.734 24.1755 109.206C24.2364 109.106 24.2997 109.054 24.371 109.054L24.3664 109.055Z" fill="#413D3C"/>
<path d="M62.5958 111.839H65.4708V109.054C65.4802 108.745 65.4524 108.436 65.388 108.134C65.3357 108.002 65.3065 107.863 65.3017 107.721C65.3017 107.628 65.4351 107.576 65.7054 107.576L67.4143 107.784C67.5684 107.851 67.6443 107.912 67.6443 107.966C67.6443 108.104 67.5676 108.173 67.4143 108.173C67.1176 108.279 66.9669 108.603 66.9669 109.136V111.837H69.666C69.8442 111.837 69.9408 111.945 69.9408 112.149V112.821C69.9408 113.026 69.8442 113.128 69.666 113.128H66.9623V117.78C67.9042 117.328 68.8023 116.874 69.6223 116.4C69.6616 116.362 69.7137 116.34 69.7683 116.339C69.8833 116.339 69.9408 116.391 69.9408 116.484C69.9408 117.174 69.9098 117.562 69.8534 117.634C68.8982 118.171 67.9345 118.678 66.9623 119.154V124.953C66.9623 125.919 66.211 126.402 64.7083 126.402H63.4433C63.3145 126.402 63.2536 126.287 63.2536 126.057C63.1675 125.726 63.0322 125.409 62.8522 125.118C62.8522 125.003 62.904 124.956 62.9971 124.956C63.5048 125.057 64.0206 125.111 64.5381 125.118C65.1591 125.118 65.4673 124.861 65.4673 124.359V119.897C64.7359 120.261 63.998 120.601 63.2536 120.918C63.0569 121.312 62.8936 121.511 62.7717 121.511C62.6291 121.511 62.3497 120.936 61.9242 119.786C62.8933 119.488 64.0743 119.045 65.4673 118.456V113.131H62.5923C62.4129 113.131 62.3175 113.028 62.3175 112.824V112.151C62.3209 111.945 62.4164 111.839 62.5958 111.839ZM71.0379 110.859H75.3401V107.89C75.3401 107.723 75.4413 107.642 75.6552 107.642C76.7385 107.642 77.2767 107.723 77.2767 107.89C77.2767 108.08 77.2088 108.19 77.0674 108.217C76.9259 108.243 76.8374 108.366 76.8374 108.627V110.859H81.3132C81.4937 110.859 81.5846 110.963 81.5846 111.164V111.839C81.5846 112.046 81.4937 112.151 81.3132 112.151H76.8351V115.589H80.2149C80.369 115.592 80.5197 115.636 80.6519 115.715C80.921 115.916 81.0567 116.071 81.0567 116.186C80.8668 117.09 80.6124 117.978 80.2954 118.845C79.6921 120.261 78.8421 121.558 77.785 122.677C77.7145 122.759 77.6376 122.836 77.555 122.907C78.3008 123.565 79.1497 124.097 80.0677 124.48C80.5975 124.744 81.1543 124.95 81.7283 125.094C81.8985 125.157 81.9836 125.219 81.9836 125.259C81.9884 125.316 81.9796 125.374 81.9578 125.427C81.936 125.48 81.9019 125.528 81.8583 125.566C81.6283 125.84 81.4178 126.093 81.2269 126.321C81.2086 126.375 81.1743 126.421 81.1287 126.455C81.0831 126.488 81.0282 126.507 80.9716 126.509C80.8566 126.509 80.4725 126.353 79.8124 126.054C78.4324 125.388 77.3005 124.672 76.4165 123.905C76.2336 124.037 76.0496 124.168 75.8668 124.29C75.2025 124.746 74.4972 125.139 73.76 125.464C73.0987 125.809 72.1304 126.182 70.8689 126.589C70.7904 126.588 70.7136 126.566 70.6463 126.526C70.579 126.486 70.5237 126.428 70.4859 126.359C70.1844 126.123 69.8687 125.906 69.5406 125.708C69.4567 125.609 69.4141 125.544 69.4141 125.499C69.4141 125.454 69.4705 125.408 69.582 125.376C70.916 125.049 72.0154 124.686 72.8745 124.29C73.7357 123.954 74.5498 123.507 75.2964 122.962C75.3231 122.934 75.3519 122.908 75.3826 122.884C74.7028 122.132 74.1088 121.306 73.6116 120.423C73.0404 119.297 72.5668 118.125 72.196 116.919H71.1012C70.9448 116.919 70.8712 116.804 70.8712 116.574V115.913C70.8712 115.694 70.9471 115.586 71.1012 115.586H75.3412V112.147H71.0379C70.8677 112.147 70.7826 112.043 70.7826 111.836V111.161C70.7826 110.963 70.8677 110.859 71.0379 110.859V110.859ZM73.6944 116.921C73.9699 117.844 74.3387 118.737 74.795 119.586C75.2456 120.455 75.8274 121.249 76.52 121.941C76.7569 121.725 76.9685 121.515 77.1502 121.324C77.6704 120.706 78.123 120.034 78.5003 119.32C78.8493 118.543 79.1399 117.741 79.3697 116.921H73.6944Z" fill="#413D3C"/>
<path d="M111.71 115.196H120.565C120.733 115.196 120.818 115.304 120.818 115.505V116.186C120.818 116.39 120.733 116.491 120.565 116.491H116.75V118.801H120.127C120.295 118.801 120.378 118.907 120.378 119.114V119.787C120.378 119.993 120.295 120.094 120.127 120.094H117.069C117.349 120.481 117.667 120.839 118.018 121.162C118.452 121.622 119.205 122.147 120.275 122.737C120.401 122.778 120.464 122.832 120.464 122.886C120.464 122.94 120.412 122.994 120.317 123.07C120.157 123.283 119.972 123.476 119.767 123.645C119.668 123.742 119.592 123.79 119.537 123.79C119.42 123.783 119.305 123.754 119.199 123.705C118.497 123.269 117.853 122.746 117.283 122.148C117.116 121.947 116.938 121.74 116.753 121.536V126.514C116.753 126.677 116.648 126.757 116.437 126.757H115.594C115.364 126.757 115.255 126.677 115.255 126.514V122.082C115.173 122.173 115.096 122.269 115.025 122.37C114.592 122.928 114.121 123.455 113.614 123.949C113.076 124.435 112.497 124.873 111.883 125.259C111.747 125.267 111.613 125.226 111.505 125.144C111.252 124.878 111.006 124.64 110.766 124.424C110.732 124.359 110.711 124.288 110.703 124.216C111.155 123.957 111.592 123.671 112.01 123.361C112.602 122.91 113.14 122.393 113.614 121.819C114.058 121.271 114.469 120.697 114.843 120.1H112.026C111.872 120.1 111.796 119.998 111.796 119.793V119.12C111.796 118.913 111.872 118.807 112.026 118.807H115.253V116.491H111.71C111.528 116.491 111.436 116.39 111.436 116.186V115.51C111.435 115.304 111.527 115.196 111.71 115.196ZM115.656 107.642C116.736 107.642 117.282 107.723 117.282 107.89C117.282 108.08 117.212 108.19 117.07 108.217C116.929 108.243 116.84 108.366 116.84 108.627V110.034H120.91C121.004 110.034 121.055 110.115 121.055 110.264V110.942C121.055 111.143 121.004 111.246 120.91 111.246H118.822L119.6 111.551C119.799 111.637 119.895 111.73 119.895 111.838C119.893 111.886 119.876 111.933 119.846 111.97C119.815 112.008 119.774 112.034 119.727 112.045C119.663 112.042 119.6 112.065 119.552 112.108C119.505 112.151 119.476 112.211 119.473 112.275C119.128 113.395 118.757 114.269 118.379 114.901C118.303 115.048 118.25 115.121 118.209 115.121C118.08 115.114 117.959 115.063 117.864 114.976C117.583 114.842 117.324 114.723 117.082 114.631C117.023 114.613 116.967 114.586 116.916 114.551C116.922 114.49 116.943 114.433 116.978 114.383C117.268 113.926 117.523 113.447 117.741 112.951C117.996 112.438 118.187 111.894 118.308 111.333C118.318 111.306 118.325 111.278 118.329 111.249H113.691C113.99 111.81 114.259 112.386 114.496 112.974C114.728 113.534 114.918 114.111 115.065 114.699C115.065 114.749 114.592 114.894 113.651 115.127C113.553 114.639 113.412 114.16 113.231 113.695C113.007 113.025 112.716 112.378 112.364 111.764C112.364 111.684 112.602 111.517 113.085 111.256H111.435C111.32 111.256 111.264 111.154 111.264 110.953V110.274C111.264 110.125 111.324 110.044 111.435 110.044H115.345V107.89C115.341 107.723 115.444 107.642 115.655 107.642H115.656ZM129.935 109.218C129.842 109.217 129.749 109.233 129.662 109.263C128.849 109.618 128.001 109.885 127.132 110.059C126.072 110.239 124.999 110.335 123.924 110.347V114.035H130.422C130.605 114.035 130.695 114.15 130.695 114.38V115.013C130.695 115.249 130.605 115.358 130.422 115.358H128.483V126.398C128.483 126.578 128.377 126.666 128.163 126.666H127.301C127.087 126.666 126.981 126.578 126.981 126.398V115.358H123.923V116.259C123.923 118.46 123.808 120.199 123.578 121.483C123.414 122.596 123.109 123.683 122.671 124.719C122.41 125.379 122.07 126.005 121.659 126.583C121.573 126.585 121.487 126.57 121.407 126.54C121.186 126.311 120.931 126.117 120.651 125.965C120.593 125.88 120.562 125.778 120.564 125.675C120.932 125.13 121.268 124.383 121.574 123.445C121.864 122.438 122.068 121.409 122.184 120.368C122.353 119.003 122.43 117.629 122.414 116.254V109.386C122.414 109.218 122.529 109.138 122.751 109.138H122.981C124.459 109.114 125.612 109.026 126.44 108.872C127.384 108.731 128.297 108.434 129.143 107.994C129.214 107.933 129.303 107.896 129.397 107.89C129.492 107.901 129.58 107.944 129.648 108.011C130.338 108.586 130.683 108.961 130.683 109.138C130.683 109.337 130.592 109.445 130.409 109.445L129.935 109.218Z" fill="#413D3C"/>
<path d="M161.057 109.774H164.364V107.968C164.364 107.807 164.471 107.723 164.681 107.723C165.764 107.723 166.305 107.807 166.305 107.968C166.305 108.16 166.234 108.271 166.096 108.301C165.937 108.308 165.859 108.45 165.859 108.708V109.774H169.238C169.404 109.774 169.491 109.889 169.491 110.125V110.778C169.491 110.997 169.404 111.106 169.238 111.106H165.859V113.561H169.852C170.002 113.561 170.082 113.664 170.082 113.87V114.549C170.082 114.75 170.006 114.852 169.852 114.852H167.945L168.875 115.241C169.055 115.321 169.148 115.415 169.148 115.505C169.146 115.548 169.131 115.59 169.104 115.624C169.078 115.657 169.042 115.682 169.001 115.695C168.939 115.691 168.878 115.708 168.829 115.745C168.78 115.782 168.745 115.836 168.733 115.896C168.349 116.852 167.966 117.598 167.592 118.131C167.544 118.185 167.513 118.21 167.502 118.21H169.325C169.51 118.21 169.602 118.318 169.602 118.539V119.19C169.602 119.42 169.51 119.535 169.325 119.535H165.865V121.972H169.858C170.008 121.972 170.088 122.087 170.088 122.317V122.985C170.088 123.206 170.012 123.312 169.858 123.312H165.865V126.51C165.865 126.672 165.76 126.752 165.53 126.752H164.687C164.477 126.752 164.37 126.672 164.37 126.51V123.31H160.47C160.295 123.31 160.214 123.205 160.214 122.984V122.326C160.214 122.096 160.295 121.981 160.47 121.981H164.37V119.543H160.912C160.744 119.543 160.655 119.428 160.655 119.198V118.543C160.655 118.322 160.744 118.214 160.912 118.214H167.156C167.125 118.206 167.096 118.192 167.07 118.173C166.792 118.049 166.533 117.935 166.288 117.828C166.194 117.789 166.142 117.759 166.142 117.746C166.142 117.696 166.156 117.648 166.181 117.605C166.496 117.223 166.773 116.811 167.007 116.375C167.262 115.939 167.455 115.469 167.582 114.98C167.59 114.938 167.603 114.897 167.622 114.859H162.539C162.853 115.328 163.141 115.814 163.404 116.314C163.647 116.773 163.851 117.252 164.014 117.746C164.014 117.789 163.547 117.915 162.604 118.138C162.502 117.746 162.352 117.367 162.158 117.011C161.912 116.456 161.6 115.932 161.228 115.451C161.228 115.358 161.519 115.157 162.093 114.859H160.47C160.295 114.859 160.214 114.757 160.214 114.556V113.877C160.214 113.671 160.295 113.568 160.47 113.568H164.37V111.106H161.057C160.898 111.106 160.827 110.997 160.827 110.778V110.125C160.821 109.887 160.898 109.774 161.057 109.774ZM172.466 109.774V115.673H178.622C178.757 115.676 178.889 115.715 179.003 115.788C179.243 115.998 179.361 116.152 179.361 116.262C179.253 117.328 179.131 118.202 179.003 118.883C178.838 119.627 178.626 120.36 178.371 121.078C178.202 121.616 177.997 122.141 177.756 122.65C177.59 122.982 177.42 123.291 177.257 123.57C178.004 124.301 178.83 124.946 179.721 125.493C179.721 125.591 179.65 125.675 179.514 125.742C179.26 125.921 178.976 126.118 178.67 126.336C178.561 126.441 178.416 126.5 178.265 126.501C177.652 126.054 177.075 125.56 176.54 125.022C176.459 124.946 176.386 124.877 176.332 124.82C176.148 125.012 175.949 125.203 175.739 125.395C175.313 125.82 174.838 126.191 174.324 126.503C174.252 126.501 174.182 126.481 174.12 126.445C174.059 126.409 174.007 126.357 173.97 126.296C173.689 126.071 173.393 125.865 173.084 125.679C172.998 125.599 172.954 125.54 172.954 125.495C172.954 125.469 172.963 125.442 172.978 125.42C172.993 125.398 173.015 125.381 173.041 125.372C173.636 125.099 174.189 124.742 174.683 124.312C174.939 124.132 175.168 123.918 175.364 123.674C175.182 123.464 175.019 123.239 174.877 123C174.397 122.174 174.021 121.291 173.758 120.372C173.486 119.507 173.314 118.385 173.243 117.005H172.466V126.404C172.466 126.583 172.343 126.672 172.107 126.672H171.263C171.039 126.672 170.918 126.583 170.918 126.404V108.789C170.918 108.582 171.033 108.485 171.263 108.485H178.623C178.894 108.485 179.025 108.612 179.025 108.872C179.025 110.769 178.985 112.082 178.903 112.81C178.804 113.446 178.641 113.902 178.415 114.177C178.257 114.41 178.014 114.572 177.738 114.629C177.276 114.735 176.802 114.784 176.327 114.774C175.197 114.774 174.624 114.605 174.593 114.278C174.52 113.83 174.4 113.391 174.234 112.969C174.234 112.875 174.267 112.824 174.32 112.824C174.32 112.866 174.397 112.914 174.535 112.969C175.013 113.117 175.509 113.198 176.01 113.21C176.461 113.21 176.775 113.165 176.956 113.07C177.138 112.974 177.262 112.655 177.339 112.15C177.421 111.723 177.475 110.932 177.484 109.773L172.466 109.774ZM174.66 117.005C174.727 118.069 174.853 118.916 175.036 119.544C175.26 120.282 175.543 121.001 175.882 121.694C176.004 121.927 176.138 122.153 176.285 122.371C176.491 122.05 176.674 121.715 176.831 121.367C177.089 120.712 177.307 120.042 177.483 119.36C177.672 118.583 177.822 117.797 177.932 117.005H174.66Z" fill="#413D3C"/>
<path d="M37.4776 68.8695C39.0531 68.8695 40.0712 69.2528 40.532 70.0195L40.5964 70.5508C40.5964 72.0749 37.3591 73.177 30.8846 73.8571L28.135 73.78L27.4162 73.8571C27.0661 76.0524 26.8804 78.2707 26.8608 80.4937L27.4818 92.2904V95.791C27.4818 96.5512 27.3001 96.9951 26.9286 97.1342C25.6832 97.5712 24.6355 97.7909 23.7765 97.7909C22.7323 94.7963 22.2125 90.976 22.2171 86.33C22.0791 84.5789 22.0101 82.916 22.0101 81.3413L22.1458 74.577C21.5041 74.3113 20.5438 74.1756 19.2604 74.1756L12.4329 74.37H11.2288C9.26154 74.37 8.27829 74.0767 8.27905 73.4902V73.0912C8.27905 72.2482 8.85405 71.4662 10.0248 70.7417C13.4219 70.1736 17.6251 69.8903 22.6345 69.8919C26.1098 69.8919 30.1961 69.5733 34.8935 68.9362L37.4776 68.8695Z" fill="#231815"/>
<path d="M47.1433 83.3399C47.4124 84.253 47.5469 84.9668 47.5469 85.4812C47.5469 87.6095 45.8089 89.3303 42.3328 90.6436V90.708C43.2712 92.1869 44.4738 92.9278 45.9404 92.9309C47.9667 92.9309 50.1344 91.3807 52.4241 88.2964C53.8455 86.7761 54.9276 86.0229 55.6659 86.0229H55.7959L55.9316 86.1666V86.8244L55.8626 87.0797C55.889 87.1867 55.9776 87.2603 56.1351 87.3005C56.4318 87.3005 56.6308 87.0705 56.7239 86.6105H56.855V86.6749C56.855 87.3971 56.1946 88.5908 54.8736 90.256C54.6374 90.6456 54.4719 91.0738 54.3848 91.521C53.7719 91.6567 53.4648 91.8925 53.4648 92.2363C52.2044 94.2128 50.3495 95.6073 47.9 96.42C47.2584 96.5694 46.6035 96.6542 45.945 96.673H45.255C41.9514 96.673 38.7088 94.4029 35.5271 89.8627L35.1902 84.6877V84.2093C35.1902 82.0887 35.9116 80.7677 37.3545 80.2464C38.9093 79.415 40.2709 79.001 41.4496 79.001C43.7749 78.9918 45.6828 80.435 47.1433 83.3399ZM40.5055 87.956C41.0069 87.956 41.7923 87.5788 42.8503 86.8244C43.0274 86.2885 43.1206 85.863 43.1206 85.541C43.1206 84.253 42.5145 83.356 41.307 82.8569L40.7884 82.7948C40.0984 82.7948 39.7534 82.9995 39.7534 83.4181C39.5015 83.8436 39.375 84.46 39.375 85.265C39.375 86.5381 39.7534 87.4374 40.5055 87.956Z" fill="#231815"/>
<path d="M63.118 80.8628C64.0122 80.8569 64.8896 81.1054 65.648 81.5793C65.5571 81.7288 65.5146 81.9542 65.5146 82.2693L65.8596 83.0846V83.4837C65.4709 84.2404 64.6325 84.8154 63.3445 85.2087C62.0381 85.5859 61.1837 86.0976 60.7961 86.7462C60.3131 87.7582 60.0762 88.5667 60.0762 89.175V89.5764C60.0762 90.8092 60.8341 91.5532 62.3544 91.7982H63.3066C64.82 91.7982 67.4105 91.0089 71.0783 89.4303C72.6515 88.8024 73.6842 88.4885 74.1603 88.4885H74.2983C75.0791 89.2141 75.4839 89.7535 75.5023 90.1203C75.4621 90.3687 74.7824 91.0725 73.476 92.2444C73.1851 92.8424 72.8539 93.146 72.4836 93.146C68.3344 95.4951 64.8077 96.6704 61.9036 96.6719C58.7602 96.6719 56.6519 95.244 55.5786 92.3881L55.4486 90.915V90.2641C55.4486 86.9805 56.8566 84.1821 59.6726 81.8691C60.7888 81.1998 61.8622 80.8659 62.8926 80.8674L63.118 80.8628Z" fill="#231815"/>
<path d="M78.068 70.5796C78.8465 70.9246 79.2444 71.1925 79.2444 71.3961C78.5023 76.1494 78.1339 81.201 78.1393 86.5508L78.206 88.5828C78.965 88.017 80.0199 85.9117 81.3708 82.267C81.9458 81.0618 82.5012 80.4604 83.0509 80.4604C83.8778 80.0004 84.439 79.7704 84.746 79.7704H85.0772C85.5809 79.7704 85.9811 80.258 86.2882 81.2378C86.8586 82.5718 87.4742 85.2367 88.1351 89.2326C88.6557 91.2159 89.1961 92.6657 89.7566 93.5819C90.1384 94.2443 90.718 94.8986 91.5034 95.5449V95.6139C90.9284 96.3982 90.3247 96.9387 89.6772 97.2239C88.7365 97.2239 87.6283 96.6872 86.3526 95.6139C85.6177 94.7917 85.0059 93.6233 84.5275 92.111L83.4695 87.2971C82.7795 88.1504 81.7231 90.2936 80.3001 93.7268C79.4622 95.2908 78.6188 96.4791 77.7701 97.2918H77.2848C76.849 97.2918 76.2682 96.933 75.5437 96.2062L74.8871 95.8842L74.9538 95.2632C74.9538 94.6537 74.7475 93.8103 74.3351 92.7332C74.4432 92.7332 74.5536 88.0335 74.6663 78.6342C74.9285 75.0945 75.242 72.7013 75.607 71.4547C76.2015 71.4547 76.5994 71.2063 76.7984 70.7061V70.6405C77.2135 70.8314 77.5344 70.9292 77.7701 70.9292C77.8851 70.9292 77.9415 70.8142 77.9415 70.5761L78.068 70.5796Z" fill="#231815"/>
<path d="M112.924 64.2488C114.081 64.2488 114.866 64.8525 115.295 66.0543L115.376 66.5143C115.118 67.5401 114.991 68.3313 114.991 68.8971L114.72 83.4457C114.71 87.382 114.929 91.3155 115.376 95.2263V96.0313C115.376 97.9564 114.994 98.9144 114.226 98.9144L112.885 99.042C110.578 99.042 108.287 97.2085 106.012 93.5416C105.398 92.6699 103.843 90.0751 101.345 85.7572L98.2965 80.5822L98.2298 83.6309C98.1516 84.4037 98.1148 85.3904 98.1148 86.6071C98.1148 88.375 98.188 90.6248 98.3344 93.3564C98.2666 95.5805 98.1217 96.6914 97.9135 96.6914C97.4083 97.0203 96.7087 97.1844 95.8148 97.1836H95.5169C94.7763 97.1836 94.352 96.9996 94.2393 96.627C93.7843 95.5955 93.5493 94.4804 93.5493 93.353V92.6285C93.5493 89.2935 93.5378 85.6921 93.5148 81.8242C93.6474 80.2978 93.7597 78.0173 93.8517 74.9829C94.0817 73.2962 94.4597 72.1079 94.9856 71.4179L95.0569 71.3535L95.1259 71.4179H96.6704L97.6732 71.3535C99.9655 73.665 102.207 77.7141 104.398 83.5009C106.121 87.2522 107.759 89.9605 109.313 91.6257L110.304 92.6285H110.385L110.79 65.0469C111.392 64.5156 112.016 64.2488 112.69 64.2488H112.924Z" fill="#CC000D"/>
<path d="M129.353 83.3399C129.621 84.253 129.758 84.966 129.758 85.4812C129.758 87.6095 128.019 89.3303 124.542 90.6436V90.708C125.479 92.1869 126.681 92.9279 128.146 92.9309C130.177 92.9309 132.34 91.3861 134.637 88.2964C136.054 86.7761 137.133 86.0229 137.874 86.0229H138.004L138.141 86.1666V86.8244L138.073 87.0797C138.096 87.1867 138.188 87.2603 138.342 87.3005C138.643 87.3005 138.841 87.0705 138.929 86.6105H139.065V86.6749C139.065 87.3971 138.405 88.5908 137.084 90.256C136.844 90.6436 136.679 91.0727 136.597 91.521C135.983 91.6567 135.677 91.8925 135.677 92.2363C134.412 94.2128 132.557 95.6074 130.11 96.42C129.466 96.5697 128.809 96.6545 128.148 96.673H127.458C124.162 96.673 120.92 94.4029 117.734 89.8627L117.397 84.6877V84.2093C117.397 82.0887 118.121 80.7685 119.56 80.2464C121.114 79.4154 122.478 79.0002 123.653 79.001C125.987 78.9949 127.888 80.4412 129.353 83.3399ZM122.712 87.956C123.216 87.956 123.997 87.5788 125.057 86.8244C125.236 86.2885 125.326 85.863 125.326 85.541C125.326 84.253 124.722 83.356 123.514 82.8569L122.994 82.7948C122.304 82.7948 121.959 82.9995 121.959 83.4181C121.709 83.8436 121.586 84.4635 121.586 85.2696C121.586 86.5381 121.962 87.4374 122.712 87.956V87.956Z" fill="#CC000D"/>
<path d="M155.977 78.4294C157.05 78.4294 157.817 79.1064 158.277 80.4603L158.078 82.5867V83.4181C158.078 84.2615 158.407 86.6477 159.065 90.5769L159.198 92.3847C159.198 94.4547 158.939 95.4897 158.412 95.4897C157.698 95.9893 156.851 96.2619 155.98 96.2717C154.325 96.2717 152.161 94.8656 149.486 92.0535C148.616 91.2991 147.943 90.7885 147.462 90.5171C146.041 94.0338 144.929 96.0965 144.127 96.7052C143.056 97.5355 142.172 97.9518 141.476 97.9518C141.04 97.9518 140.353 97.1104 139.415 95.4276C138.251 92.4859 137.668 89.7566 137.667 87.2396V86.4875C137.667 84.1331 138.278 82.5725 139.5 81.8058L140.219 81.6448H140.909C141.793 81.6448 142.305 82.2083 142.452 83.3422L142.097 88.1515C142.097 88.9404 142.261 89.5108 142.585 89.8604C143.132 89.6189 143.602 89.0758 143.995 88.2309C144.365 87.0291 144.627 86.4265 144.784 86.4265C146.067 85.988 146.888 85.6461 147.245 85.4007C148.096 85.4996 149.288 86.2663 150.822 87.7007C152.679 89.6672 153.781 90.649 154.127 90.6459C154.316 89.699 154.416 88.7365 154.426 87.7709V87.3707L153.915 80.8628C153.915 79.5921 154.106 78.9584 154.498 78.9584C154.881 78.6134 155.278 78.4294 155.691 78.4294H155.977Z" fill="#CC000D"/>
<path d="M169.938 80.2683C171.568 80.2683 172.475 80.6516 172.658 81.4183C172.957 82.1348 173.109 82.6028 173.109 82.8225C172.807 83.3039 172.12 83.6612 171.048 83.8943C167.815 84.3773 166.197 84.7932 166.196 85.142C166.679 85.8872 167.88 86.522 169.802 87.0453C173.167 87.7767 175.605 88.5023 177.116 89.2027C178.512 90.0115 179.21 91.0829 179.212 92.4169C179.212 94.6027 177.165 96.0728 173.073 96.8272C171.962 97.023 170.837 97.1249 169.709 97.1319C165.552 96.8674 163.476 96.4093 163.48 95.7577C163.266 95.56 163.098 95.3193 162.985 95.0514C162.872 94.7835 162.817 94.4947 162.824 94.204V93.8901C162.824 93.0782 163.284 92.3376 164.204 91.6694C166.516 92.7335 168.471 93.2671 170.069 93.2702C171.356 93.2702 172.411 92.9022 173.239 92.1823V92.1156C172.039 91.4854 169.725 90.7755 166.297 89.9858C162.91 89.0497 161.216 87.8729 161.216 86.4553V86.2633C161.216 84.0798 162.635 82.3962 165.471 81.2125C166.911 80.5861 168.215 80.2718 169.381 80.2695L169.938 80.2683Z" fill="#CC000D"/>
</svg>
