<svg width="190" height="190" viewBox="0 0 190 190" fill="none" xmlns="http://www.w3.org/2000/svg">
<g clip-path="url(#clip0_578_13)">
<g clip-path="url(#clip1_578_13)">
<path d="M146.675 102.227C146.68 102.259 146.68 102.292 146.675 102.325C146.679 102.292 146.679 102.259 146.675 102.227V102.227Z" fill="#004098"/>
<path d="M9.75549 73.9516H43.4417C44.4788 73.9152 45.5109 74.1113 46.4641 74.5257C47.4172 74.94 48.2677 75.5624 48.9546 76.3481C51.4912 79.0766 51.066 81.395 51.066 81.395V89.5071L57.927 76.597C57.927 76.597 58.845 74.2835 62.2271 74.2835C65.6093 74.2835 66.4597 76.7727 66.4597 76.7727L72.3833 88.487V74.5519H71.1995V73.0144H81.5537C81.5537 73.0144 82.2302 65.1463 89.6032 58.0445C96.9763 50.9427 106.379 50.6011 109.041 50.6011C115.201 50.6011 123.202 53.2563 128.281 58.2154C133.359 63.1744 135.475 69.5831 135.9 73.0144H146.559V74.5519H144.365V102.012C144.322 102.243 144.333 102.481 144.397 102.707C144.46 102.933 144.574 103.141 144.731 103.315C144.887 103.489 145.081 103.624 145.298 103.709C145.514 103.795 145.747 103.829 145.979 103.808C147.839 103.808 147.839 102.266 147.839 101.753V82.7519C147.839 82.7519 148.09 76.1724 154.777 74.8057H169.591C169.591 74.8057 172.133 74.5617 175.172 77.4707C178.211 80.3798 177.703 82.7519 177.703 82.7519V86.7738H169.142V84.8946C169.142 84.8946 169.142 83.9819 168.34 83.9819H157.71C157.71 83.9819 156.608 83.9429 156.608 84.8995V102.915C156.608 102.915 156.367 103.828 157.488 103.828H168.32C168.32 103.828 169.122 103.872 169.122 102.915V101.036H177.52V102.92C177.52 102.92 177.215 111.55 171.775 112.511H143.906C143.906 112.511 136.219 112.423 135.876 104.013V74.5519H133.832V73.0876C133.832 73.0876 132.711 67.826 126.933 62.6961C121.154 57.5662 114.998 55.6431 108.838 55.6431C102.678 55.6431 96.6526 58.0006 93.541 60.036C90.4295 62.0713 86.0472 65.9321 83.2496 73.0535V74.5177H81.2252V108.889C81.2252 108.889 80.9691 111.818 77.4758 111.818C73.9825 111.818 73.224 109.768 72.8374 109.07L62.2271 87.4962L50.868 108.665C50.868 108.665 49.7229 111.593 46.5485 111.593C45.5888 111.598 44.6591 111.256 43.9266 110.63C43.194 110.004 42.7069 109.134 42.5527 108.177V84.4407C42.5527 84.4407 42.746 82.7714 40.7795 82.7714H31.8361V111.569H22.6946V82.7714H9.75549V73.9516Z" fill="#004098"/>
<path d="M92.0142 103.233C92.0133 103.941 91.8045 104.633 91.4142 105.222C91.0239 105.81 90.4697 106.269 89.8216 106.539C89.1735 106.809 88.4606 106.88 87.773 106.741C87.0854 106.602 86.4539 106.26 85.9584 105.759C85.4629 105.258 85.1256 104.62 84.9892 103.925C84.8527 103.23 84.9232 102.51 85.1918 101.856C85.4604 101.201 85.9149 100.642 86.498 100.248C87.0811 99.855 87.7666 99.645 88.4678 99.645C88.9343 99.6437 89.3964 99.7357 89.8276 99.9156C90.2588 100.095 90.6504 100.36 90.9801 100.693C91.3097 101.027 91.5708 101.423 91.7483 101.859C91.9257 102.294 92.0161 102.761 92.0142 103.233V103.233Z" fill="#F6AD3C"/>
<path d="M140.799 54.4034C140.799 55.111 140.592 55.8027 140.203 56.391C139.813 56.9794 139.26 57.438 138.613 57.7088C137.966 57.9796 137.254 58.0504 136.567 57.9124C135.88 57.7743 135.249 57.4336 134.753 56.9332C134.258 56.4329 133.921 55.7954 133.784 55.1013C133.648 54.4073 133.718 53.688 133.986 53.0342C134.254 52.3805 134.708 51.8217 135.29 51.4286C135.873 51.0355 136.557 50.8256 137.258 50.8256C138.197 50.8256 139.098 51.2026 139.762 51.8735C140.426 52.5445 140.799 53.4545 140.799 54.4034Z" fill="#F6AD3C"/>
<path d="M137.272 59.1722C136.101 59.1686 134.973 58.724 134.109 57.9252C133.245 57.1264 132.707 56.0308 132.6 54.8525L108.925 94.3004V77.0462C108.925 76.0212 107.654 73.7809 104.354 73.7809C103.402 73.7751 102.463 74.0064 101.621 74.4541C100.778 74.9019 100.057 75.5524 99.5226 76.3483L85.8732 99.2887C86.6477 98.7683 87.5569 98.4899 88.4871 98.4883C89.6695 98.4913 90.807 98.9457 91.6717 99.7604C92.5364 100.575 93.0643 101.69 93.1496 102.881L100.6 90.0735V107.84C100.6 109.129 101.871 111.623 105.49 111.623C106.483 111.659 107.463 111.39 108.301 110.851C109.14 110.313 109.797 109.53 110.186 108.606L139.466 58.6206C138.79 58.9818 138.037 59.1711 137.272 59.1722Z" fill="#8CC66D"/>
<path d="M259.01 -223.548H-316.221V187.375H259.01V-223.548Z" stroke="#9FA0A0" stroke-width="0.25"/>
</g>
</g>
<defs>
<clipPath id="clip0_578_13">
<rect width="190" height="190" fill="white"/>
</clipPath>
<clipPath id="clip1_578_13">
<rect width="193" height="82" fill="white" transform="translate(-3 41)"/>
</clipPath>
</defs>
</svg>
