<svg width="190" height="190" viewBox="0 0 190 190" fill="none" xmlns="http://www.w3.org/2000/svg">
<g clip-path="url(#clip0_578_11)">
<path d="M33.0803 88.5007L18.6463 81.1328L4.21576 88.5007H33.0733H33.0803ZM32.0352 89.4199H23.588V91.2163H24.5811C24.8409 91.254 25.0781 91.3869 25.2477 91.5899C25.4173 91.7929 25.5077 92.052 25.5016 92.318V100.738C25.5016 100.738 25.4324 101.609 24.7576 101.858H23.588V103.57H32.049V101.875H30.8344C30.8344 101.875 30.1076 101.626 30.1076 100.574V92.2969C30.1076 92.2969 30.0384 91.2444 30.9832 91.2444H32.049V89.4199H32.0352ZM5.25739 89.4199H13.7184V91.2163H12.7253C12.4655 91.254 12.2283 91.3869 12.0587 91.5899C11.8891 91.7929 11.7987 92.052 11.8048 92.318V100.738C11.8048 100.738 11.874 101.609 12.5488 101.858H13.7184V103.57H5.25739V101.875H6.47204C6.47204 101.875 7.19876 101.626 7.19876 100.574V92.2969C7.19876 92.2969 7.26451 91.2444 6.32324 91.2444H5.25739V89.4199ZM22.882 89.4199H14.4244V91.2163H15.4176C15.6767 91.2548 15.9131 91.388 16.082 91.591C16.2509 91.7939 16.3408 92.0525 16.3346 92.318V100.738C16.3346 100.738 16.2654 101.609 15.5906 101.858H14.4244V103.57H22.882V101.875H21.6708C21.6708 101.875 20.9441 101.626 20.9441 100.574V92.2969C20.9441 92.2969 20.8749 91.2444 21.8196 91.2444H22.882V89.4199V89.4199Z" fill="#14116D"/>
<path d="M45.2407 85.5674H40.3959V93.4931H45.2407V85.5674ZM44.2025 92.4932H41.4756V91.1529H44.2025V92.4932V92.4932ZM44.2025 90.2021H41.4756V88.7987H44.2025V90.2021ZM44.2025 87.8584H41.4756V86.5673H44.2025V87.8584Z" fill="#14116D"/>
<path d="M45.8636 95.714C45.1831 95.122 44.6154 94.4085 44.1886 93.6089L43.2474 94.0475C43.6687 94.893 44.2122 95.6699 44.86 96.3525L45.8636 95.707V95.714Z" fill="#14116D"/>
<path d="M49.9781 95.0195V88.5427H51.0163V87.4691H49.9781V85.8482C50.1685 85.7184 50.2619 85.6061 50.2619 85.4974C50.2619 85.3886 50.1962 85.3605 50.0612 85.3395L48.8777 85.2026V87.4586H45.5279V88.5427H48.4071C48.0877 89.4792 47.6785 90.3817 47.1855 91.2373C46.625 92.1713 45.9558 93.0336 45.1922 93.8055L46.1508 94.6721C46.844 93.8403 47.4494 92.9372 47.9572 91.9776C48.3169 91.2574 48.6246 90.5116 48.8777 89.7462V94.8335C48.8362 95.1844 48.5835 95.3703 48.1233 95.3703H46.7737L47.2028 96.479C48.4001 96.479 49.1476 96.3597 49.4521 96.1282C49.6277 96.0093 49.7689 95.8454 49.8613 95.653C49.9537 95.4607 49.994 95.2469 49.9781 95.0335V95.0195Z" fill="#14116D"/>
<path d="M42.3719 94.1564C42.3719 94.1073 42.3373 94.0687 42.2646 94.0477L41.3683 93.6196C41.0312 94.4916 40.5265 95.2871 39.8837 95.9598L40.8908 96.4475C41.4301 95.8018 41.8945 95.0955 42.275 94.3424C42.3044 94.3197 42.3284 94.2905 42.3452 94.2571C42.362 94.2237 42.3711 94.1869 42.3719 94.1494V94.1564Z" fill="#14116D"/>
<path d="M64.3602 96.4579V85.5815H54.1724V96.4579H55.2105V96.1071H63.2909V96.4579H64.3291H64.3602ZM60.5225 95.237C60.6503 95.2045 60.7689 95.142 60.8685 95.0545C60.978 94.9459 61.0623 94.8141 61.1156 94.6685C61.1688 94.5229 61.1896 94.3672 61.1765 94.2125V93.6757H62.9068V92.8968H61.1765V92.1635L61.8686 92.0898C62.014 92.3039 62.1524 92.5249 62.2874 92.7635L63.0072 92.2758C62.704 91.8202 62.3686 91.3875 62.0036 90.9811V88.1743H59.7058V87.841H62.7649V87.0446H59.7058C59.8338 86.9218 59.8961 86.8341 59.8961 86.7885C59.8961 86.7429 59.8131 86.6727 59.6435 86.6657L58.7265 86.592V87.0446H55.7123V87.841H58.7265V88.1919H56.4771V91.1215H58.7265V91.6302C57.776 91.691 56.8197 91.7366 55.8577 91.7671L56.048 92.5951C56.048 92.6933 56.086 92.7424 56.1449 92.7424C56.2037 92.7424 56.2695 92.6898 56.3352 92.581C57.8648 92.4688 59.1556 92.3682 60.2076 92.2793V92.9249H55.6293V93.7038H57.4253L57.0792 94.0546C57.4799 94.3382 57.8489 94.6653 58.1797 95.03L58.7887 94.409C58.5221 94.1421 58.2351 93.8969 57.9305 93.6757H60.2249V94.0651C60.2249 94.2616 60.083 94.3599 59.8442 94.3599H59.1763L59.5224 95.237H55.2244V86.4832H63.3048V95.237H60.5363H60.5225ZM61.0277 89.9216V90.4093H59.7127V89.9216H61.0277ZM59.7127 89.3357V88.848H61.0277V89.3357H59.7127ZM61.0519 91.0899C61.1627 91.2022 61.27 91.318 61.3738 91.4408L59.7127 91.539V91.0934H61.0519V91.0899ZM57.4668 89.3392V88.848H58.7334V89.3357H57.4737L57.4668 89.3392ZM58.7403 89.9216V90.4093H57.4737V89.9216H58.7403Z" fill="#14116D"/>
<path d="M69.9905 89.9703C69.4443 89.4269 68.8327 88.9554 68.1703 88.5669L67.4055 89.3353C68.0655 89.7484 68.6895 90.2179 69.2707 90.7387L69.9905 89.9598V89.9703Z" fill="#14116D"/>
<path d="M75.344 93.1038C75.6833 93.503 75.9987 93.9225 76.2888 94.3598C75.3336 94.4744 74.3612 94.5762 73.3715 94.6651C73.836 93.9464 74.24 93.1894 74.5792 92.4021C74.7073 92.3143 74.773 92.2337 74.773 92.1705C74.773 92.1073 74.7004 92.0196 74.555 92.0126L73.7314 91.7319C73.3025 92.8231 72.7197 93.8454 72.0011 94.7668C71.6239 94.7984 71.2467 94.8264 70.8626 94.851L71.136 96.0579C71.1533 96.1877 71.2052 96.2544 71.2952 96.2544C71.3852 96.2544 71.4544 96.1737 71.534 96.0123C73.901 95.7176 75.6901 95.4767 76.9013 95.2896C77.1262 95.672 77.3442 96.0755 77.5588 96.5L78.5623 95.8264C77.8842 94.6104 77.0715 93.4768 76.1399 92.4477L75.344 93.1038Z" fill="#14116D"/>
<path d="M69.9421 92.0688C69.2288 93.3526 68.3906 94.5609 67.4401 95.6756L68.3503 96.458C68.5094 96.458 68.589 96.3247 68.589 96.065C69.3243 95.0573 69.9948 94.0026 70.5961 92.9074L69.9283 92.0794L69.9421 92.0688Z" fill="#14116D"/>
<path d="M73.9598 90.4093H70.61V91.4093H78.4066V90.4093H75.0533V88.3849H77.7353V87.385H75.0533V85.7746C75.1918 85.6448 75.2575 85.5536 75.2575 85.4939C75.2575 85.4343 75.1572 85.3325 74.9599 85.3255L73.9563 85.2378V87.385H71.3229V88.3849H73.9563V90.4093H73.9598Z" fill="#14116D"/>
<path d="M70.9457 86.6549C70.3845 86.1096 69.7578 85.6381 69.0805 85.2515L68.3157 86.0444C68.9953 86.4508 69.6359 86.9206 70.2294 87.4478L70.9457 86.6689V86.6549Z" fill="#14116D"/>
<path d="M92.3111 95.4333C90.958 94.5548 89.7582 93.4545 88.7606 92.1774C88.1006 91.2704 87.5727 90.272 87.193 89.2127C87.3256 88.3492 87.3892 87.4763 87.3833 86.6024V85.9322C87.5736 85.8024 87.6705 85.6691 87.6705 85.5323C87.6705 85.3954 87.5667 85.3884 87.3591 85.3709L86.1271 85.2867C86.1841 85.5922 86.2154 85.9021 86.2205 86.2129V86.6024C86.2626 88.1812 85.9785 89.7516 85.3865 91.2126C84.9238 92.1542 84.2761 92.9899 83.4832 93.6685C82.7493 94.3094 81.9527 94.8725 81.1058 95.3491L82.1094 96.2648C83.027 95.7082 83.8741 95.0401 84.6321 94.2755C85.5251 93.4366 86.2195 92.4039 86.6635 91.2547C86.7106 91.1402 86.751 91.0231 86.7846 90.9038C87.0541 91.5079 87.3616 92.0939 87.7051 92.6581C88.6184 94.0119 89.6949 95.2447 90.9096 96.328L92.2938 95.4403L92.3111 95.4333Z" fill="#14116D"/>
<path d="M98.1319 86.5919C97.4322 86.0569 96.6781 85.5994 95.8825 85.2271L95.1661 85.9709C95.9647 86.3594 96.7318 86.8111 97.4605 87.3216L98.1319 86.5919Z" fill="#14116D"/>
<path d="M102.271 94.8124H104.492V89.7777C104.634 89.8373 104.793 89.897 104.97 89.9636L106.025 89.0935C105.143 88.8988 104.288 88.596 103.478 88.1918C103.096 87.9591 102.753 87.6667 102.461 87.3252C102.516 87.2013 102.572 87.075 102.627 86.9463L102.772 86.834H104.288L103.631 87.8094L104.541 88.1603L105.686 86.7569C105.849 86.6586 105.928 86.5639 105.928 86.4727C105.926 86.4373 105.915 86.4032 105.896 86.3732C105.877 86.3433 105.852 86.3184 105.821 86.3008L105.247 85.9289C105.17 85.8604 105.072 85.8218 104.97 85.8201L104.683 85.978H100.845C101.028 85.7604 101.16 85.6271 101.239 85.6271C101.319 85.6271 101.336 85.5254 101.336 85.4903C101.336 85.4552 101.281 85.385 101.17 85.3464L100.284 85.0342C99.6828 85.8831 98.9176 86.5992 98.035 87.1393L98.9935 87.6761C99.3516 87.4236 99.6916 87.1458 100.011 86.8446H101.492C101.388 87.1855 101.208 87.4977 100.966 87.7568C100.587 88.1047 100.154 88.3879 99.6856 88.5953C99.133 88.8253 98.5667 89.0199 97.99 89.1777L98.6336 89.5777H96.5088C97.3982 89.1391 98.0903 88.7813 98.5852 88.5041V87.6024C97.4095 88.2438 96.1551 88.724 94.8547 89.0304L95.1212 90.0829C95.1212 90.1952 95.1661 90.2513 95.2388 90.2513C95.3115 90.2513 95.398 90.1917 95.4776 90.0689C95.796 89.911 96.1005 89.7707 96.3877 89.6374V94.8124H98.5263C97.3096 95.2404 96.0543 95.546 94.7786 95.7246L95.6402 96.5526C96.968 96.2869 98.2776 95.9354 99.5611 95.5001C99.7237 95.465 99.8033 95.4229 99.8033 95.3633C99.8025 95.3307 99.7947 95.2987 99.7803 95.2696C99.766 95.2405 99.7455 95.215 99.7202 95.1948L99.2392 94.844H101.489L101.094 95.2685C102.39 95.8175 103.734 96.2427 105.108 96.5386L105.973 95.6088C104.723 95.4379 103.484 95.1824 102.267 94.844L102.271 94.8124ZM100.578 89.1462C100.972 88.9636 101.338 88.7275 101.669 88.4445C101.783 88.3428 101.89 88.2338 101.99 88.1182C102.187 88.3585 102.408 88.5783 102.648 88.7743C103.074 89.1038 103.539 89.3784 104.032 89.5917H99.4815C99.9429 89.4116 100.31 89.2608 100.582 89.1391L100.578 89.1462ZM97.4674 90.4689H103.399V91.1039H97.4605V90.4443L97.4674 90.4689ZM97.4605 91.8477H103.392V92.4828H97.4605V91.8582V91.8477ZM97.4605 93.9072V93.2967H103.392V93.9072H97.4605Z" fill="#14116D"/>
<path d="M112.42 85.5815H109.119V86.5815H112.42V85.5815Z" fill="#14116D"/>
<path d="M118.494 94.8125C118.459 94.8125 118.428 94.7668 118.397 94.6756C118.238 94.3033 118.133 93.9099 118.085 93.5073C117.997 92.7059 117.958 91.8997 117.968 91.0934C117.968 89.9239 118.015 88.2001 118.11 85.9219H113.337V86.8972H114.573V90.1637H113.088V91.1636H114.573V96.3808H115.611V91.1636H116.58V90.1637H115.625V86.8972H116.985C116.94 88.5638 116.912 89.9637 116.912 91.1075C116.9 92.069 116.964 93.03 117.106 93.9809C117.211 94.6913 117.468 95.37 117.857 95.9703C117.933 96.1053 118.039 96.2209 118.166 96.3079C118.293 96.3949 118.439 96.451 118.591 96.472C118.757 96.472 118.954 96.293 119.186 95.9352C119.523 95.2894 119.772 94.6001 119.926 93.8862L119.068 93.1038C118.819 94.2523 118.627 94.8265 118.494 94.8265V94.8125Z" fill="#14116D"/>
<path d="M109.835 95.8718H111.652V96.335H112.69V92.2125H108.783V96.335H109.822V95.8718H109.835ZM109.822 93.2124H111.638V94.8579H109.822V93.2124Z" fill="#14116D"/>
<path d="M113.04 87.1885H108.545V88.1884H113.04V87.1885Z" fill="#14116D"/>
<path d="M109.022 91.4829H112.562V90.5566H109.022V91.4829Z" fill="#14116D"/>
<path d="M112.562 88.8969H109.022V89.8232H112.562V88.8969Z" fill="#14116D"/>
<path d="M133.018 94.2123H128.426V87.5812H132.301V86.4585H123.262V87.5812H127.232V94.2123H122.591V95.3561H133.018V94.2123Z" fill="#14116D"/>
<path d="M147.209 95.1492C146.273 94.9557 145.353 94.687 144.458 94.3458C143.832 94.0966 143.236 93.7777 142.68 93.395H146.888V92.4021H142.091V91.739H145.583V90.7881H142.091V90.0864H145.967V89.0795H143.79L144.209 88.0269H146.687V87.0305H144.957L145.649 86.0411C145.777 85.978 145.839 85.8973 145.839 85.799C145.839 85.7008 145.78 85.6973 145.659 85.6412L144.884 85.2131L143.867 87.0305H143.174V85.5078C143.302 85.378 143.365 85.2798 143.365 85.2131C143.365 85.1465 143.278 85.1008 143.105 85.0938L142.164 85.0342V87.0481H140.991V85.5078C141.119 85.378 141.185 85.2798 141.185 85.2131C141.185 85.1465 141.095 85.1008 140.922 85.0938L140.011 85.0342V87.0481H139.461C139.081 86.401 138.641 85.7925 138.146 85.2307L137.43 85.9324C137.741 86.2797 138.021 86.6555 138.264 87.0551H136.378V88.055H138.973L139.319 89.1076H137.108V90.1075H141.005V90.8092H137.503V91.76H140.991V92.4021H136.174V93.402H140.274C139.799 93.7499 139.29 94.0485 138.755 94.2932C137.795 94.7067 136.799 95.0286 135.779 95.2545L136.734 96.2299C137.573 96.0143 138.386 95.7035 139.157 95.3036C139.814 94.932 140.431 94.491 140.998 93.9879V96.6123H142.098V93.9669C142.604 94.4374 143.161 94.8471 143.759 95.1878C144.492 95.6159 145.265 95.9685 146.067 96.2404L147.216 95.1668L147.209 95.1492ZM140.413 89.097L140.067 88.0445H143.046L142.628 89.097H140.413Z" fill="#14116D"/>
<path d="M154.646 96.4683H155.747V92.5423C156.239 93.2822 156.821 93.9575 157.477 94.5527C158.17 95.173 158.937 95.7023 159.761 96.128L160.875 95.1C160.032 94.7876 159.221 94.3928 158.453 93.9212C158.707 93.9029 158.957 93.8449 159.193 93.7492C159.399 93.678 159.575 93.5377 159.692 93.3515C159.809 93.1653 159.86 92.9442 159.837 92.7247V90.7495H155.757V89.8723H160.602V88.9461H155.757V88.5672C155.885 88.4303 155.947 88.3286 155.947 88.2619C155.947 88.1953 155.868 88.1321 155.709 88.1146C155.955 87.807 156.178 87.481 156.376 87.1392H157.536C157.774 87.6146 157.974 88.1085 158.134 88.6163L159.089 88.4093C158.974 87.9709 158.815 87.5454 158.615 87.1392H160.529V86.2129H156.927C156.99 86.0997 157.047 85.9825 157.096 85.8621C157.318 85.7884 157.442 85.7077 157.442 85.62C157.442 85.5323 157.366 85.5112 157.214 85.4832L156.196 85.2271C155.86 86.1333 155.358 86.9666 154.715 87.683L155.529 88.1075L154.646 88.0304V88.9461H149.884V89.8723H154.646V90.7495H150.77V93.7492H151.826V91.7003H154.324C153.789 92.4011 153.17 93.0326 152.483 93.5808C151.586 94.2304 150.609 94.7576 149.576 95.1491L150.493 96.0789C151.338 95.7187 152.127 95.2379 152.836 94.6509C153.514 94.0403 154.121 93.3541 154.646 92.6055V96.4648V96.4683ZM158.771 91.7003V92.3704C158.771 92.6651 158.671 92.8195 158.47 92.8335L157.778 92.8616L158.124 93.6756C157.353 93.1189 156.665 92.4538 156.079 91.7003H158.771Z" fill="#14116D"/>
<path d="M151.798 87.1392H152.542C152.787 87.6157 152.999 88.1093 153.175 88.6163L154.131 88.4093C154.008 87.9658 153.833 87.5392 153.608 87.1392H154.802V86.2129H152.293C152.348 86.1077 152.404 85.9919 152.459 85.8621C152.684 85.7884 152.805 85.7077 152.805 85.62C152.805 85.5323 152.729 85.5112 152.577 85.4832L151.563 85.2271C151.148 86.3419 150.531 87.3679 149.743 88.2514L150.701 88.7391C151.1 88.2299 151.466 87.6955 151.798 87.1392V87.1392Z" fill="#14116D"/>
<path d="M165.786 89.0901C165.257 88.6287 164.676 88.2319 164.055 87.9077L163.298 88.6901C163.919 89.0301 164.512 89.422 165.069 89.862L165.786 89.0901Z" fill="#14116D"/>
<path d="M166.838 89.4688C167.038 89.2513 167.229 89.0197 167.412 88.7671V94.8579H168.45V94.1281H174.236V93.1282H171.43V92.0055H173.821V91.0792H171.43V89.946H173.821V89.0303H171.43V87.9075H174.157V86.9322H171.644L172.146 86.1393C172.305 86.0586 172.385 85.9638 172.385 85.8481C172.385 85.7919 172.323 85.7393 172.195 85.6902L171.381 85.2621L170.509 86.9322H168.658C168.685 86.89 168.708 86.8453 168.727 86.7989C169.049 86.2059 169.26 85.8902 169.374 85.8481C169.488 85.8059 169.471 85.7358 169.471 85.7007C169.471 85.6656 169.409 85.5954 169.291 85.5568L168.322 85.206C167.717 86.5885 166.856 87.8404 165.786 88.8934L166.824 89.4794L166.838 89.4688ZM168.45 87.9181H170.364V89.0408H168.45V87.9181ZM168.45 89.967H170.364V91.0898H168.45V89.946V89.967ZM168.45 91.995H170.364V93.1177H168.45V91.995Z" fill="#14116D"/>
<path d="M166.215 86.641C165.703 86.1772 165.143 85.7724 164.543 85.434L163.779 86.2024C164.389 86.5568 164.968 86.9641 165.509 87.4198L166.225 86.641H166.215Z" fill="#14116D"/>
<path d="M167.042 95.0787C166.634 94.9798 166.273 94.7374 166.024 94.3945V90.8369H164.017V91.8333H164.879V94.2718C164.336 94.6852 163.756 95.048 163.149 95.3559L163.772 96.2014C163.81 96.3207 163.875 96.3804 163.962 96.3804C164.048 96.3804 164.09 96.3137 164.152 96.1769L165.301 95.0541C165.41 95.2046 165.534 95.3433 165.671 95.4682C166.083 95.8287 166.583 96.071 167.118 96.1699C167.891 96.323 168.677 96.3912 169.464 96.3734H174.195L174.579 95.1419C173.035 95.2506 171.326 95.3033 169.464 95.3033C168.65 95.3313 167.836 95.2535 167.042 95.0717V95.0787Z" fill="#14116D"/>
<path d="M180.406 87.483V88.2619H184.808V87.483H180.406Z" fill="#14116D"/>
<path d="M180.946 87.1777C181.493 86.883 182.061 86.5602 182.642 86.2024C183.285 86.6683 183.97 87.0723 184.687 87.4093C185.606 87.8141 186.553 88.1484 187.521 88.4092L188.286 87.3356C187.439 87.199 186.604 86.9912 185.791 86.7146C184.991 86.4651 184.222 86.125 183.497 85.7007C183.639 85.6515 183.711 85.5954 183.711 85.5323C183.711 85.4691 183.652 85.3919 183.531 85.3358L182.659 84.9849C181.847 85.5854 180.982 86.1081 180.074 86.5462C179.057 87.0144 178.001 87.3902 176.918 87.6689L177.78 88.4478C178.87 88.0979 179.934 87.6699 180.964 87.1672L180.946 87.1777Z" fill="#14116D"/>
<path d="M187.103 92.1878V88.8477H178.209V92.1878H179.247V91.872H186.04V92.1878H187.078H187.103ZM182.057 90.9984H181.292C181.17 90.5955 181.015 90.2035 180.829 89.8265L179.974 90.023C180.13 90.3385 180.264 90.6644 180.375 90.9984H179.258V89.7248H182.057V90.9984ZM184.795 90.9984L185.096 90.5598C185.224 90.4932 185.286 90.4125 185.286 90.3142C185.286 90.2756 185.237 90.23 185.134 90.1774L184.424 89.8265L183.791 90.9984H183.04V89.7248H186.051V90.9984H184.795Z" fill="#14116D"/>
<path d="M180.313 96.0895H185.047V96.4404H186.137V92.5073H179.216V96.479H180.317V96.0895H180.313ZM180.317 93.3108H185.051V93.9669H180.313V93.3108H180.317ZM180.313 94.7142H185.047V95.3247H180.313V94.7001V94.7142Z" fill="#14116D"/>
<path d="M39.8872 104.127H40.5516V99.3311H39.8872V104.127Z" fill="#14116D"/>
<path d="M45.5002 103.296L43.1401 99.3311H42.2161V104.127H42.8183V100.057L45.2614 104.127H46.1127V99.3311H45.5002V103.296Z" fill="#14116D"/>
<path d="M50.7533 101.787C50.473 101.605 50.345 101.577 49.203 101.286C48.6181 101.145 48.3378 101.001 48.3378 100.584C48.3378 100.166 48.7358 99.805 49.4002 99.805C49.8743 99.805 50.3796 99.9384 50.4142 100.535H51.1063C51.1107 100.236 51.0059 99.946 50.8121 99.7208C50.44 99.3913 49.956 99.2215 49.4625 99.2472C48.5559 99.2472 47.6319 99.6717 47.6319 100.651C47.6262 100.838 47.6693 101.024 47.7567 101.19C47.8442 101.356 47.973 101.495 48.1302 101.594C48.544 101.803 48.9879 101.942 49.4452 102.008C50.1166 102.173 50.5491 102.282 50.5491 102.819C50.5491 103.057 50.4246 103.675 49.4245 103.675C48.3205 103.675 48.2825 103.057 48.2686 102.724H47.5765C47.5531 103.071 47.6511 103.415 47.8534 103.696C48.234 104.18 48.978 104.236 49.3449 104.236C50.5768 104.236 51.2412 103.594 51.2412 102.745C51.2498 102.557 51.2103 102.37 51.1266 102.203C51.043 102.035 50.9179 101.892 50.7637 101.787H50.7533Z" fill="#14116D"/>
<path d="M52.0718 99.8994H53.6809V104.127H54.3384V99.8994H55.9511V99.3311H52.0718V99.8994Z" fill="#14116D"/>
<path d="M57.0134 104.127H57.6813V99.3311H57.0134V104.127Z" fill="#14116D"/>
<path d="M58.851 99.8994H60.4636V104.127H61.1211V99.8994H62.7338V99.3311H58.851V99.8994Z" fill="#14116D"/>
<path d="M67.0941 102.275C67.0941 102.626 67.0941 103.632 65.7964 103.632C65.59 103.646 65.3834 103.611 65.193 103.529C65.0026 103.447 64.8335 103.322 64.6994 103.162C64.5317 102.908 64.4558 102.603 64.4848 102.299V99.3311H63.8204V102.254C63.7749 102.677 63.8738 103.103 64.1007 103.461C64.3055 103.713 64.5653 103.913 64.8596 104.046C65.1539 104.179 65.4746 104.24 65.7964 104.225C66.0872 104.237 66.377 104.183 66.6449 104.068C66.9129 103.952 67.1525 103.779 67.3467 103.559C67.6229 103.196 67.7628 102.746 67.7412 102.289V99.3311H67.0941V102.275Z" fill="#14116D"/>
<path d="M68.9628 99.8994H70.5719V104.127H71.2294V99.8994H72.8386V99.3311H68.9628V99.8994Z" fill="#14116D"/>
<path d="M74.4927 101.948H76.7282V101.391H74.4927V99.8994H76.8424V99.3311H73.8283V104.127H76.8943V103.541H74.4927V101.948Z" fill="#14116D"/>
<path d="M80.7356 104.127H81.4139V101.948H83.4694V101.391H81.4139V99.8994H83.594V99.3311H80.7356V104.127Z" fill="#14116D"/>
<path d="M86.8504 99.2083C86.5536 99.1982 86.258 99.25 85.9818 99.3604C85.7057 99.4709 85.4548 99.6376 85.2447 99.8503C84.8134 100.389 84.594 101.07 84.6287 101.762C84.6287 103.075 85.1582 104.218 86.7985 104.218C88.508 104.218 89.0201 102.941 89.0201 101.664C89.0201 100.04 88.1827 99.2083 86.8504 99.2083V99.2083ZM87.8885 103.236C87.7541 103.386 87.5882 103.503 87.4031 103.579C87.218 103.655 87.0185 103.687 86.8192 103.675C86.621 103.687 86.4225 103.655 86.2385 103.579C86.0546 103.503 85.8899 103.386 85.7568 103.236C85.4492 102.796 85.2991 102.262 85.3312 101.724C85.3312 100.741 85.6426 99.7661 86.8608 99.7661C87.9578 99.7661 88.3177 100.587 88.3177 101.675C88.3411 102.229 88.1896 102.776 87.8851 103.236H87.8885Z" fill="#14116D"/>
<path d="M92.8648 101.696C93.0791 101.648 93.2757 101.54 93.4324 101.384C93.5432 101.273 93.6309 101.141 93.6903 100.995C93.7498 100.849 93.7797 100.692 93.7784 100.535C93.7814 100.339 93.7338 100.146 93.6403 99.9749C93.5468 99.8038 93.4107 99.6605 93.2455 99.5593C92.9042 99.3848 92.523 99.3061 92.1416 99.3313H90.4113V104.127H91.0723V101.963H91.9132C92.716 101.963 92.8821 102.159 92.9514 102.857C92.9927 103.286 93.0667 103.71 93.1728 104.127H93.8822C93.7238 103.638 93.6239 103.132 93.5846 102.619C93.5189 102.022 93.3113 101.815 92.851 101.696H92.8648ZM92.7333 101.289C92.5321 101.37 92.3163 101.407 92.1001 101.398H91.0619V99.8926H92.1001C92.3665 99.8926 93.0586 99.8926 93.0586 100.668C93.0661 100.792 93.0396 100.915 92.9822 101.025C92.9248 101.135 92.8387 101.226 92.7333 101.289V101.289Z" fill="#14116D"/>
<path d="M97.585 104.127H98.2495V99.3311H97.585V104.127Z" fill="#14116D"/>
<path d="M103.201 103.296L100.838 99.3311H99.9139V104.127H100.52V100.057L102.963 104.127H103.814V99.3311H103.201V103.296Z" fill="#14116D"/>
<path d="M105.524 104.127H106.202V101.948H108.261V101.391H106.202V99.8994H108.385V99.3311H105.524V104.127Z" fill="#14116D"/>
<path d="M111.638 99.2083C111.342 99.1979 111.047 99.2496 110.771 99.3601C110.496 99.4705 110.245 99.6375 110.036 99.8504C109.602 100.387 109.381 101.069 109.417 101.763C109.417 103.075 109.95 104.218 111.586 104.218C113.299 104.218 113.808 102.941 113.808 101.664C113.808 100.04 112.971 99.2083 111.638 99.2083ZM112.677 103.236C112.542 103.385 112.377 103.501 112.192 103.577C112.008 103.653 111.809 103.686 111.611 103.675C111.412 103.688 111.213 103.655 111.028 103.579C110.844 103.503 110.678 103.386 110.545 103.236C110.239 102.795 110.089 102.262 110.119 101.724C110.119 100.742 110.434 99.7662 111.649 99.7662C112.749 99.7662 113.106 100.587 113.106 101.675C113.131 102.228 112.98 102.775 112.677 103.236V103.236Z" fill="#14116D"/>
<path d="M117.656 101.696C117.87 101.647 118.067 101.539 118.224 101.384C118.335 101.273 118.423 101.141 118.482 100.995C118.542 100.849 118.571 100.693 118.57 100.535C118.573 100.339 118.526 100.147 118.433 99.9755C118.34 99.8044 118.205 99.661 118.04 99.5593C117.698 99.3845 117.316 99.3058 116.933 99.3313H115.203V104.127H115.864V101.963H116.701C117.507 101.963 117.674 102.159 117.739 102.857C117.778 103.286 117.851 103.711 117.957 104.127H118.67C118.509 103.639 118.409 103.132 118.373 102.619C118.303 102.022 118.096 101.815 117.639 101.696H117.656ZM117.518 101.289C117.318 101.37 117.103 101.407 116.888 101.398H115.85V99.8927H116.888C117.155 99.8927 117.847 99.8927 117.847 100.668C117.854 100.792 117.827 100.916 117.769 101.026C117.711 101.135 117.624 101.226 117.518 101.289V101.289Z" fill="#14116D"/>
<path d="M122.639 103.282L121.283 99.3311H120.106V104.127H120.75V99.8398L122.269 104.127H122.899L124.477 99.8117V104.127H125.131V99.3311H124.031L122.639 103.282Z" fill="#14116D"/>
<path d="M128.304 99.3311L126.27 104.127H126.962L127.481 102.878H129.73L130.253 104.127H130.976L129.035 99.3311H128.322H128.304ZM127.716 102.341L128.647 99.9907L129.533 102.341H127.716Z" fill="#14116D"/>
<path d="M131.101 99.8994H132.71V104.127H133.367V99.8994H134.98V99.3311H131.101V99.8994Z" fill="#14116D"/>
<path d="M136.046 104.127H136.71V99.3311H136.046V104.127Z" fill="#14116D"/>
<path d="M140.358 99.2085C140.061 99.1978 139.765 99.2493 139.489 99.3598C139.212 99.4702 138.962 99.6373 138.752 99.8505C138.317 100.387 138.096 101.069 138.132 101.763C138.132 103.075 138.665 104.219 140.302 104.219C142.012 104.219 142.527 102.942 142.527 101.664C142.527 100.04 141.686 99.2085 140.358 99.2085ZM141.396 103.236C141.11 103.517 140.728 103.675 140.33 103.675C139.932 103.675 139.549 103.517 139.264 103.236C138.958 102.795 138.808 102.262 138.838 101.724C138.838 100.742 139.153 99.7663 140.371 99.7663C141.468 99.7663 141.828 100.587 141.828 101.675C141.852 102.229 141.7 102.776 141.396 103.236V103.236Z" fill="#14116D"/>
<path d="M147.272 103.296L144.908 99.3311H143.984V104.127H144.59V100.057L147.029 104.127H147.881V99.3311H147.272V103.296Z" fill="#14116D"/>
<path d="M151.829 104.127H152.497V99.3311H151.829V104.127Z" fill="#14116D"/>
<path d="M157.446 103.296L155.086 99.3311H154.158V104.127H154.764V100.057L157.207 104.127H158.058V99.3311H157.446V103.296Z" fill="#14116D"/>
<path d="M161.114 99.3311H159.73V104.127H161.079C161.771 104.127 162.377 104.127 162.851 103.734C163.12 103.488 163.33 103.183 163.468 102.843C163.605 102.503 163.665 102.136 163.644 101.769C163.668 101.113 163.458 100.47 163.052 99.9591C162.519 99.3311 161.758 99.3311 161.114 99.3311ZM162.297 103.313C161.915 103.532 161.475 103.626 161.038 103.583H160.387V99.8854H161.187C161.771 99.8854 162.159 99.9626 162.467 100.303C162.784 100.732 162.947 101.258 162.931 101.794C162.949 102.08 162.901 102.366 162.792 102.63C162.682 102.893 162.512 103.127 162.297 103.313V103.313Z" fill="#14116D"/>
<path d="M168.267 102.275C168.267 102.626 168.267 103.632 166.969 103.632C166.763 103.646 166.556 103.61 166.366 103.529C166.176 103.447 166.007 103.322 165.872 103.162C165.704 102.908 165.629 102.603 165.658 102.299V99.3311H164.993V102.254C164.949 102.677 165.048 103.102 165.273 103.461C165.478 103.713 165.738 103.913 166.032 104.046C166.327 104.179 166.647 104.24 166.969 104.225C167.26 104.237 167.55 104.183 167.818 104.068C168.086 103.952 168.325 103.779 168.519 103.559C168.797 103.197 168.937 102.746 168.914 102.289V99.3311H168.267V102.275V102.275Z" fill="#14116D"/>
<path d="M173.544 101.787C173.267 101.605 173.139 101.577 171.994 101.286C171.409 101.145 171.129 101.001 171.129 100.584C171.129 100.166 171.53 99.8051 172.195 99.8051C172.669 99.8051 173.174 99.9384 173.205 100.535H173.897C173.903 100.236 173.798 99.9452 173.603 99.7209C173.231 99.3911 172.747 99.2212 172.254 99.2472C171.35 99.2472 170.423 99.6718 170.423 100.651C170.418 100.836 170.461 101.019 170.546 101.182C170.632 101.346 170.757 101.484 170.911 101.584C171.321 101.795 171.761 101.938 172.215 102.008C172.887 102.173 173.319 102.282 173.319 102.819C173.319 103.057 173.191 103.675 172.195 103.675C171.091 103.675 171.049 103.057 171.035 102.724H170.343C170.321 103.071 170.421 103.415 170.624 103.696C171.001 104.18 171.748 104.236 172.115 104.236C173.347 104.236 174.012 103.594 174.012 102.745C174.019 102.557 173.979 102.37 173.894 102.203C173.81 102.035 173.685 101.892 173.53 101.787H173.544Z" fill="#14116D"/>
<path d="M174.863 99.8994H176.475V104.127H177.133V99.8994H178.742V99.3311H174.863V99.8994Z" fill="#14116D"/>
<path d="M182.244 101.696C182.457 101.648 182.653 101.539 182.808 101.384C182.92 101.274 183.008 101.141 183.067 100.995C183.127 100.849 183.156 100.693 183.154 100.535C183.157 100.339 183.11 100.146 183.016 99.975C182.923 99.8039 182.786 99.6606 182.621 99.5594C182.28 99.3846 181.899 99.3058 181.517 99.3314H179.787V104.128H180.445V101.963H181.292C182.095 101.963 182.265 102.159 182.331 102.857C182.369 103.286 182.442 103.711 182.549 104.128H183.261C183.102 103.639 183.001 103.132 182.96 102.619C182.895 102.022 182.691 101.815 182.23 101.696H182.244ZM182.109 101.289C181.909 101.37 181.694 101.407 181.479 101.398H180.441V99.8927H181.479C181.742 99.8927 182.434 99.8927 182.434 100.668C182.442 100.792 182.415 100.915 182.358 101.025C182.301 101.135 182.214 101.226 182.109 101.289V101.289Z" fill="#14116D"/>
<path d="M187.553 99.3311L186.116 101.682L184.698 99.3311H183.874L185.75 102.24V104.127H186.424V102.275L188.3 99.3311H187.553Z" fill="#14116D"/>
</g>
<defs>
<clipPath id="clip0_578_11">
<rect width="190" height="190" fill="white"/>
</clipPath>
</defs>
</svg>
